<svg width="4388" height="1822" viewBox="0 0 4388 1822" fill="none" xmlns="http://www.w3.org/2000/svg">
<rect x="1408.5" y="239.5" width="1575" height="1575" fill="#737373"/>
<rect x="1416" y="247" width="300" height="300" fill="#E2E2E2"/>
<path d="M1537.15 433L1538.74 423.578L1567.78 399.074C1570.56 396.66 1572.91 394.516 1574.81 392.641C1576.73 390.742 1578.24 388.926 1579.34 387.191C1580.44 385.434 1581.16 383.559 1581.49 381.566C1581.86 379.293 1581.67 377.336 1580.92 375.695C1580.17 374.055 1578.98 372.801 1577.34 371.934C1575.72 371.043 1573.76 370.598 1571.47 370.598C1569.1 370.598 1566.93 371.09 1564.96 372.074C1562.99 373.035 1561.35 374.418 1560.04 376.223C1558.75 378.004 1557.91 380.113 1557.51 382.551H1545.1C1545.85 377.98 1547.56 374.008 1550.23 370.633C1552.9 367.258 1556.24 364.645 1560.25 362.793C1564.26 360.941 1568.64 360.016 1573.4 360.016C1578.23 360.016 1582.31 360.918 1585.63 362.723C1588.99 364.527 1591.4 367 1592.88 370.141C1594.38 373.281 1594.79 376.867 1594.11 380.898C1593.64 383.594 1592.67 386.242 1591.19 388.844C1589.74 391.422 1587.45 394.305 1584.33 397.492C1581.22 400.656 1576.95 404.488 1571.54 408.988L1557.09 421.609L1556.98 422.102H1588.31L1586.51 433H1537.15Z" fill="#282828"/>
<rect x="1731" y="247" width="300" height="300" fill="#E2E2E2"/>
<path d="M1900.35 361L1888.4 433H1875.36L1885.2 373.691H1884.78L1866.15 384.449L1868.12 372.496L1887.94 361H1900.35Z" fill="#282828"/>
<rect x="2046" y="247" width="300" height="300" fill="#E2E2E2"/>
<path d="M2191.99 433.984C2186.83 433.984 2182.38 433.117 2178.63 431.383C2174.9 429.648 2172.14 427.246 2170.33 424.176C2168.53 421.082 2167.93 417.496 2168.54 413.418H2181.55C2181.31 415.363 2181.62 417.062 2182.46 418.516C2183.33 419.945 2184.63 421.059 2186.36 421.855C2188.1 422.652 2190.15 423.051 2192.52 423.051C2195.14 423.051 2197.58 422.57 2199.83 421.609C2202.08 420.648 2203.95 419.301 2205.45 417.566C2206.95 415.832 2207.88 413.84 2208.23 411.59C2208.56 409.48 2208.29 407.652 2207.42 406.105C2206.55 404.559 2205.14 403.363 2203.17 402.52C2201.22 401.676 2198.75 401.254 2195.75 401.254H2189.1L2190.76 391.199H2196.8C2199.31 391.199 2201.61 390.73 2203.69 389.793C2205.8 388.855 2207.56 387.543 2208.97 385.855C2210.37 384.168 2211.25 382.211 2211.6 379.984C2211.93 378.086 2211.79 376.445 2211.18 375.062C2210.6 373.656 2209.58 372.566 2208.12 371.793C2206.69 370.996 2204.85 370.598 2202.6 370.598C2200.35 370.598 2198.16 370.996 2196.03 371.793C2193.92 372.59 2192.13 373.727 2190.65 375.203C2189.18 376.656 2188.26 378.391 2187.91 380.406H2175.43C2176.16 376.398 2177.85 372.871 2180.53 369.824C2183.22 366.754 2186.54 364.352 2190.48 362.617C2194.44 360.883 2198.69 360.016 2203.24 360.016C2208.16 360.016 2212.26 360.977 2215.54 362.898C2218.85 364.82 2221.24 367.352 2222.71 370.492C2224.21 373.633 2224.66 377.031 2224.05 380.687C2223.39 384.766 2221.65 388.07 2218.81 390.602C2216 393.109 2212.53 394.785 2208.41 395.629V396.086C2213.09 396.789 2216.6 398.77 2218.92 402.027C2221.24 405.262 2222.02 409.164 2221.27 413.734C2220.62 417.766 2218.94 421.305 2216.25 424.352C2213.55 427.375 2210.1 429.742 2205.91 431.453C2201.74 433.141 2197.1 433.984 2191.99 433.984Z" fill="#282828"/>
<rect x="2361" y="247" width="300" height="300" fill="#E2E2E2"/>
<path d="M2482.15 433L2483.74 423.578L2512.78 399.074C2515.56 396.66 2517.91 394.516 2519.81 392.641C2521.73 390.742 2523.24 388.926 2524.34 387.191C2525.44 385.434 2526.16 383.559 2526.49 381.566C2526.86 379.293 2526.67 377.336 2525.92 375.695C2525.17 374.055 2523.98 372.801 2522.34 371.934C2520.72 371.043 2518.76 370.598 2516.47 370.598C2514.1 370.598 2511.93 371.09 2509.96 372.074C2507.99 373.035 2506.35 374.418 2505.04 376.223C2503.75 378.004 2502.91 380.113 2502.51 382.551H2490.1C2490.85 377.98 2492.56 374.008 2495.23 370.633C2497.9 367.258 2501.24 364.645 2505.25 362.793C2509.26 360.941 2513.64 360.016 2518.4 360.016C2523.23 360.016 2527.31 360.918 2530.63 362.723C2533.99 364.527 2536.4 367 2537.88 370.141C2539.38 373.281 2539.79 376.867 2539.11 380.898C2538.64 383.594 2537.67 386.242 2536.19 388.844C2534.74 391.422 2532.45 394.305 2529.33 397.492C2526.22 400.656 2521.95 404.488 2516.54 408.988L2502.09 421.609L2501.98 422.102H2533.31L2531.51 433H2482.15Z" fill="#282828"/>
<rect x="2676" y="247" width="300" height="300" fill="#E2E2E2"/>
<path d="M2845.35 361L2833.4 433H2820.36L2830.2 373.691H2829.78L2811.15 384.449L2813.12 372.496L2832.94 361H2845.35Z" fill="#282828"/>
<rect x="1416" y="562" width="300" height="300" fill="#E2E2E2"/>
<path d="M1560.75 706.762L1559.03 717.238H1526.65L1528.37 706.762H1560.75ZM1608.41 676L1596.46 748H1583.42L1593.26 688.691H1592.84L1574.2 699.449L1576.17 687.496L1596 676H1608.41Z" fill="#282828"/>
<rect x="1731" y="562" width="300" height="300" fill="#E2E2E2"/>
<path d="M1870.04 706.762L1868.32 717.238H1835.94L1837.67 706.762H1870.04ZM1873.96 748L1875.54 738.578L1904.58 714.074C1907.37 711.66 1909.71 709.516 1911.61 707.641C1913.53 705.742 1915.04 703.926 1916.14 702.191C1917.24 700.434 1917.96 698.559 1918.29 696.566C1918.66 694.293 1918.48 692.336 1917.73 690.695C1916.98 689.055 1915.78 687.801 1914.14 686.934C1912.52 686.043 1910.56 685.598 1908.27 685.598C1905.9 685.598 1903.73 686.09 1901.76 687.074C1899.8 688.035 1898.15 689.418 1896.84 691.223C1895.55 693.004 1894.71 695.113 1894.31 697.551H1881.9C1882.65 692.98 1884.36 689.008 1887.03 685.633C1889.71 682.258 1893.05 679.645 1897.05 677.793C1901.06 675.941 1905.44 675.016 1910.2 675.016C1915.03 675.016 1919.11 675.918 1922.44 677.723C1925.79 679.527 1928.2 682 1929.68 685.141C1931.18 688.281 1931.59 691.867 1930.91 695.898C1930.44 698.594 1929.47 701.242 1927.99 703.844C1926.54 706.422 1924.25 709.305 1921.14 712.492C1918.02 715.656 1913.75 719.488 1908.34 723.988L1893.89 736.609L1893.78 737.102H1925.11L1923.31 748H1873.96Z" fill="#282828"/>
<rect x="2046" y="562" width="300" height="300" fill="#E2E2E2"/>
<path d="M2181.56 706.762L2179.84 717.238H2147.46L2149.19 706.762H2181.56ZM2188.94 734.641L2190.63 724.27L2229.19 676H2237.84L2235.38 690.766H2230.14L2204.13 723.355L2204.06 723.918H2246.73L2244.94 734.641H2188.94ZM2221.04 748L2223.78 731.441L2224.73 726.836L2233.13 676H2245.43L2233.48 748H2221.04Z" fill="#282828"/>
<rect x="2361" y="562" width="300" height="300" fill="#E2E2E2"/>
<path d="M2482.15 748L2483.74 738.578L2512.78 714.074C2515.56 711.66 2517.91 709.516 2519.81 707.641C2521.73 705.742 2523.24 703.926 2524.34 702.191C2525.44 700.434 2526.16 698.559 2526.49 696.566C2526.86 694.293 2526.67 692.336 2525.92 690.695C2525.17 689.055 2523.98 687.801 2522.34 686.934C2520.72 686.043 2518.76 685.598 2516.47 685.598C2514.1 685.598 2511.93 686.09 2509.96 687.074C2507.99 688.035 2506.35 689.418 2505.04 691.223C2503.75 693.004 2502.91 695.113 2502.51 697.551H2490.1C2490.85 692.98 2492.56 689.008 2495.23 685.633C2497.9 682.258 2501.24 679.645 2505.25 677.793C2509.26 675.941 2513.64 675.016 2518.4 675.016C2523.23 675.016 2527.31 675.918 2530.63 677.723C2533.99 679.527 2536.4 682 2537.88 685.141C2539.38 688.281 2539.79 691.867 2539.11 695.898C2538.64 698.594 2537.67 701.242 2536.19 703.844C2534.74 706.422 2532.45 709.305 2529.33 712.492C2526.22 715.656 2521.95 719.488 2516.54 723.988L2502.09 736.609L2501.98 737.102H2533.31L2531.51 748H2482.15Z" fill="#282828"/>
<rect x="2676" y="562" width="300" height="300" fill="#E2E2E2"/>
<path d="M2795.88 734.641L2797.57 724.27L2836.13 676H2844.78L2842.32 690.766H2837.08L2811.07 723.355L2811 723.918H2853.68L2851.88 734.641H2795.88ZM2827.98 748L2830.72 731.441L2831.67 726.836L2840.07 676H2852.38L2840.42 748H2827.98Z" fill="#282828"/>
<rect x="1416" y="877" width="300" height="300" fill="#E2E2E2"/>
<path d="M1585.35 991L1573.4 1063H1560.36L1570.2 1003.69H1569.78L1551.15 1014.45L1553.12 1002.5L1572.94 991H1585.35Z" fill="#282828"/>
<rect x="1731" y="877" width="300" height="300" fill="#E2E2E2"/>
<path d="M1900.35 991L1888.4 1063H1875.36L1885.2 1003.69H1884.78L1866.15 1014.45L1868.12 1002.5L1887.94 991H1900.35Z" fill="#282828"/>
<rect x="2046" y="877" width="300" height="300" fill="#E2E2E2"/>
<path d="M2185.04 1021.76L2183.32 1032.24H2150.94L2152.67 1021.76H2185.04ZM2188.96 1063L2190.54 1053.58L2219.58 1029.07C2222.37 1026.66 2224.71 1024.52 2226.61 1022.64C2228.53 1020.74 2230.04 1018.93 2231.14 1017.19C2232.24 1015.43 2232.96 1013.56 2233.29 1011.57C2233.66 1009.29 2233.48 1007.34 2232.73 1005.7C2231.98 1004.05 2230.78 1002.8 2229.14 1001.93C2227.52 1001.04 2225.56 1000.6 2223.27 1000.6C2220.9 1000.6 2218.73 1001.09 2216.76 1002.07C2214.8 1003.04 2213.15 1004.42 2211.84 1006.22C2210.55 1008 2209.71 1010.11 2209.31 1012.55H2196.9C2197.65 1007.98 2199.36 1004.01 2202.03 1000.63C2204.71 997.258 2208.05 994.645 2212.05 992.793C2216.06 990.941 2220.44 990.016 2225.2 990.016C2230.03 990.016 2234.11 990.918 2237.44 992.723C2240.79 994.527 2243.2 997 2244.68 1000.14C2246.18 1003.28 2246.59 1006.87 2245.91 1010.9C2245.44 1013.59 2244.47 1016.24 2242.99 1018.84C2241.54 1021.42 2239.25 1024.3 2236.14 1027.49C2233.02 1030.66 2228.75 1034.49 2223.34 1038.99L2208.89 1051.61L2208.78 1052.1H2240.11L2238.31 1063H2188.96Z" fill="#282828"/>
<rect x="2361" y="877" width="300" height="300" fill="#E2E2E2"/>
<path d="M2506.99 1063.98C2501.83 1063.98 2497.38 1063.12 2493.63 1061.38C2489.9 1059.65 2487.14 1057.25 2485.33 1054.18C2483.53 1051.08 2482.93 1047.5 2483.54 1043.42H2496.55C2496.31 1045.36 2496.62 1047.06 2497.46 1048.52C2498.33 1049.95 2499.63 1051.06 2501.36 1051.86C2503.1 1052.65 2505.15 1053.05 2507.52 1053.05C2510.14 1053.05 2512.58 1052.57 2514.83 1051.61C2517.08 1050.65 2518.95 1049.3 2520.45 1047.57C2521.95 1045.83 2522.88 1043.84 2523.23 1041.59C2523.56 1039.48 2523.29 1037.65 2522.42 1036.11C2521.55 1034.56 2520.14 1033.36 2518.17 1032.52C2516.22 1031.68 2513.75 1031.25 2510.75 1031.25H2504.1L2505.76 1021.2H2511.8C2514.31 1021.2 2516.61 1020.73 2518.69 1019.79C2520.8 1018.86 2522.56 1017.54 2523.97 1015.86C2525.37 1014.17 2526.25 1012.21 2526.6 1009.98C2526.93 1008.09 2526.79 1006.45 2526.18 1005.06C2525.6 1003.66 2524.58 1002.57 2523.12 1001.79C2521.69 1001 2519.85 1000.6 2517.6 1000.6C2515.35 1000.6 2513.16 1001 2511.03 1001.79C2508.92 1002.59 2507.13 1003.73 2505.65 1005.2C2504.18 1006.66 2503.26 1008.39 2502.91 1010.41H2490.43C2491.16 1006.4 2492.85 1002.87 2495.53 999.824C2498.22 996.754 2501.54 994.352 2505.48 992.617C2509.44 990.883 2513.69 990.016 2518.24 990.016C2523.16 990.016 2527.26 990.977 2530.54 992.898C2533.85 994.82 2536.24 997.352 2537.71 1000.49C2539.21 1003.63 2539.66 1007.03 2539.05 1010.69C2538.39 1014.77 2536.65 1018.07 2533.81 1020.6C2531 1023.11 2527.53 1024.79 2523.41 1025.63V1026.09C2528.09 1026.79 2531.6 1028.77 2533.92 1032.03C2536.24 1035.26 2537.02 1039.16 2536.27 1043.73C2535.62 1047.77 2533.94 1051.3 2531.25 1054.35C2528.55 1057.37 2525.1 1059.74 2520.91 1061.45C2516.74 1063.14 2512.1 1063.98 2506.99 1063.98Z" fill="#282828"/>
<rect x="2676" y="877" width="300" height="300" fill="#E2E2E2"/>
<path d="M2821.99 1063.98C2816.83 1063.98 2812.38 1063.12 2808.63 1061.38C2804.9 1059.65 2802.14 1057.25 2800.33 1054.18C2798.53 1051.08 2797.93 1047.5 2798.54 1043.42H2811.55C2811.31 1045.36 2811.62 1047.06 2812.46 1048.52C2813.33 1049.95 2814.63 1051.06 2816.36 1051.86C2818.1 1052.65 2820.15 1053.05 2822.52 1053.05C2825.14 1053.05 2827.58 1052.57 2829.83 1051.61C2832.08 1050.65 2833.95 1049.3 2835.45 1047.57C2836.95 1045.83 2837.88 1043.84 2838.23 1041.59C2838.56 1039.48 2838.29 1037.65 2837.42 1036.11C2836.55 1034.56 2835.14 1033.36 2833.17 1032.52C2831.22 1031.68 2828.75 1031.25 2825.75 1031.25H2819.1L2820.76 1021.2H2826.8C2829.31 1021.2 2831.61 1020.73 2833.69 1019.79C2835.8 1018.86 2837.56 1017.54 2838.97 1015.86C2840.37 1014.17 2841.25 1012.21 2841.6 1009.98C2841.93 1008.09 2841.79 1006.45 2841.18 1005.06C2840.6 1003.66 2839.58 1002.57 2838.12 1001.79C2836.69 1001 2834.85 1000.6 2832.6 1000.6C2830.35 1000.6 2828.16 1001 2826.03 1001.79C2823.92 1002.59 2822.13 1003.73 2820.65 1005.2C2819.18 1006.66 2818.26 1008.39 2817.91 1010.41H2805.43C2806.16 1006.4 2807.85 1002.87 2810.53 999.824C2813.22 996.754 2816.54 994.352 2820.48 992.617C2824.44 990.883 2828.69 990.016 2833.24 990.016C2838.16 990.016 2842.26 990.977 2845.54 992.898C2848.85 994.82 2851.24 997.352 2852.71 1000.49C2854.21 1003.63 2854.66 1007.03 2854.05 1010.69C2853.39 1014.77 2851.65 1018.07 2848.81 1020.6C2846 1023.11 2842.53 1024.79 2838.41 1025.63V1026.09C2843.09 1026.79 2846.6 1028.77 2848.92 1032.03C2851.24 1035.26 2852.02 1039.16 2851.27 1043.73C2850.62 1047.77 2848.94 1051.3 2846.25 1054.35C2843.55 1057.37 2840.1 1059.74 2835.91 1061.45C2831.74 1063.14 2827.1 1063.98 2821.99 1063.98Z" fill="#282828"/>
<rect x="1416" y="1192" width="300" height="300" fill="#E2E2E2"/>
<path d="M1560.75 1336.76L1559.03 1347.24H1526.65L1528.37 1336.76H1560.75ZM1608.41 1306L1596.46 1378H1583.42L1593.26 1318.69H1592.84L1574.2 1329.45L1576.17 1317.5L1596 1306H1608.41Z" fill="#282828"/>
<rect x="1731" y="1192" width="300" height="300" fill="#E2E2E2"/>
<path d="M1876.99 1378.98C1871.83 1378.98 1867.38 1378.12 1863.63 1376.38C1859.9 1374.65 1857.14 1372.25 1855.33 1369.18C1853.53 1366.08 1852.93 1362.5 1853.54 1358.42H1866.55C1866.31 1360.36 1866.62 1362.06 1867.46 1363.52C1868.33 1364.95 1869.63 1366.06 1871.36 1366.86C1873.1 1367.65 1875.15 1368.05 1877.52 1368.05C1880.14 1368.05 1882.58 1367.57 1884.83 1366.61C1887.08 1365.65 1888.95 1364.3 1890.45 1362.57C1891.95 1360.83 1892.88 1358.84 1893.23 1356.59C1893.56 1354.48 1893.29 1352.65 1892.42 1351.11C1891.55 1349.56 1890.14 1348.36 1888.17 1347.52C1886.22 1346.68 1883.75 1346.25 1880.75 1346.25H1874.1L1875.76 1336.2H1881.8C1884.31 1336.2 1886.61 1335.73 1888.69 1334.79C1890.8 1333.86 1892.56 1332.54 1893.97 1330.86C1895.37 1329.17 1896.25 1327.21 1896.6 1324.98C1896.93 1323.09 1896.79 1321.45 1896.18 1320.06C1895.6 1318.66 1894.58 1317.57 1893.12 1316.79C1891.69 1316 1889.85 1315.6 1887.6 1315.6C1885.35 1315.6 1883.16 1316 1881.03 1316.79C1878.92 1317.59 1877.13 1318.73 1875.65 1320.2C1874.18 1321.66 1873.26 1323.39 1872.91 1325.41H1860.43C1861.16 1321.4 1862.85 1317.87 1865.53 1314.82C1868.22 1311.75 1871.54 1309.35 1875.48 1307.62C1879.44 1305.88 1883.69 1305.02 1888.24 1305.02C1893.16 1305.02 1897.26 1305.98 1900.54 1307.9C1903.85 1309.82 1906.24 1312.35 1907.71 1315.49C1909.21 1318.63 1909.66 1322.03 1909.05 1325.69C1908.39 1329.77 1906.65 1333.07 1903.81 1335.6C1901 1338.11 1897.53 1339.79 1893.41 1340.63V1341.09C1898.09 1341.79 1901.6 1343.77 1903.92 1347.03C1906.24 1350.26 1907.02 1354.16 1906.27 1358.73C1905.62 1362.77 1903.94 1366.3 1901.25 1369.35C1898.55 1372.37 1895.1 1374.74 1890.91 1376.45C1886.74 1378.14 1882.1 1378.98 1876.99 1378.98Z" fill="#282828"/>
<rect x="2046" y="1192" width="300" height="300" fill="#E2E2E2"/>
<path d="M2191.32 1379.37C2185.51 1379.37 2180.77 1377.91 2177.12 1374.98C2173.46 1372.02 2170.99 1367.77 2169.7 1362.21C2168.43 1356.64 2168.46 1349.92 2169.77 1342.07C2171.06 1334.22 2173.27 1327.54 2176.41 1322.03C2179.55 1316.5 2183.43 1312.28 2188.05 1309.38C2192.67 1306.47 2197.85 1305.02 2203.59 1305.02C2209.35 1305.02 2214.07 1306.47 2217.72 1309.38C2221.4 1312.28 2223.9 1316.5 2225.21 1322.03C2226.52 1327.54 2226.52 1334.22 2225.21 1342.07C2223.9 1349.92 2221.67 1356.64 2218.53 1362.21C2215.41 1367.77 2211.53 1372.02 2206.89 1374.98C2202.28 1377.91 2197.09 1379.37 2191.32 1379.37ZM2193.15 1368.37C2197.65 1368.37 2201.56 1366.14 2204.89 1361.69C2208.22 1357.23 2210.61 1350.7 2212.06 1342.07C2213.02 1336.35 2213.22 1331.55 2212.66 1327.66C2212.12 1323.77 2210.93 1320.84 2209.07 1318.87C2207.22 1316.87 2204.81 1315.88 2201.83 1315.88C2197.35 1315.88 2193.44 1318.11 2190.09 1322.56C2186.74 1326.99 2184.35 1333.49 2182.92 1342.07C2181.96 1347.84 2181.75 1352.68 2182.28 1356.59C2182.82 1360.48 2184.02 1363.42 2185.87 1365.41C2187.72 1367.38 2190.15 1368.37 2193.15 1368.37Z" fill="#282828"/>
<rect x="2361" y="1192" width="300" height="300" fill="#E2E2E2"/>
<path d="M2500.04 1336.76L2498.32 1347.24H2465.94L2467.67 1336.76H2500.04ZM2503.96 1378L2505.54 1368.58L2534.58 1344.07C2537.37 1341.66 2539.71 1339.52 2541.61 1337.64C2543.53 1335.74 2545.04 1333.93 2546.14 1332.19C2547.24 1330.43 2547.96 1328.56 2548.29 1326.57C2548.66 1324.29 2548.48 1322.34 2547.73 1320.7C2546.98 1319.05 2545.78 1317.8 2544.14 1316.93C2542.52 1316.04 2540.56 1315.6 2538.27 1315.6C2535.9 1315.6 2533.73 1316.09 2531.76 1317.07C2529.8 1318.04 2528.15 1319.42 2526.84 1321.22C2525.55 1323 2524.71 1325.11 2524.31 1327.55H2511.9C2512.65 1322.98 2514.36 1319.01 2517.03 1315.63C2519.71 1312.26 2523.05 1309.64 2527.05 1307.79C2531.06 1305.94 2535.44 1305.02 2540.2 1305.02C2545.03 1305.02 2549.11 1305.92 2552.44 1307.72C2555.79 1309.53 2558.2 1312 2559.68 1315.14C2561.18 1318.28 2561.59 1321.87 2560.91 1325.9C2560.44 1328.59 2559.47 1331.24 2557.99 1333.84C2556.54 1336.42 2554.25 1339.3 2551.14 1342.49C2548.02 1345.66 2543.75 1349.49 2538.34 1353.99L2523.89 1366.61L2523.78 1367.1H2555.11L2553.31 1378H2503.96Z" fill="#282828"/>
<rect x="2676" y="1192" width="300" height="300" fill="#E2E2E2"/>
<path d="M2820.75 1336.76L2819.03 1347.24H2786.65L2788.37 1336.76H2820.75ZM2868.41 1306L2856.46 1378H2843.42L2853.26 1318.69H2852.84L2834.2 1329.45L2836.17 1317.5L2856 1306H2868.41Z" fill="#282828"/>
<rect x="1416" y="1507" width="300" height="300" fill="#E2E2E2"/>
<path d="M1537.15 1693L1538.74 1683.58L1567.78 1659.07C1570.56 1656.66 1572.91 1654.52 1574.81 1652.64C1576.73 1650.74 1578.24 1648.93 1579.34 1647.19C1580.44 1645.43 1581.16 1643.56 1581.49 1641.57C1581.86 1639.29 1581.67 1637.34 1580.92 1635.7C1580.17 1634.05 1578.98 1632.8 1577.34 1631.93C1575.72 1631.04 1573.76 1630.6 1571.47 1630.6C1569.1 1630.6 1566.93 1631.09 1564.96 1632.07C1562.99 1633.04 1561.35 1634.42 1560.04 1636.22C1558.75 1638 1557.91 1640.11 1557.51 1642.55H1545.1C1545.85 1637.98 1547.56 1634.01 1550.23 1630.63C1552.9 1627.26 1556.24 1624.64 1560.25 1622.79C1564.26 1620.94 1568.64 1620.02 1573.4 1620.02C1578.23 1620.02 1582.31 1620.92 1585.63 1622.72C1588.99 1624.53 1591.4 1627 1592.88 1630.14C1594.38 1633.28 1594.79 1636.87 1594.11 1640.9C1593.64 1643.59 1592.67 1646.24 1591.19 1648.84C1589.74 1651.42 1587.45 1654.3 1584.33 1657.49C1581.22 1660.66 1576.95 1664.49 1571.54 1668.99L1557.09 1681.61L1556.98 1682.1H1588.31L1586.51 1693H1537.15Z" fill="#282828"/>
<rect x="1731" y="1507" width="300" height="300" fill="#E2E2E2"/>
<path d="M1870.04 1651.76L1868.32 1662.24H1835.94L1837.67 1651.76H1870.04ZM1873.96 1693L1875.54 1683.58L1904.58 1659.07C1907.37 1656.66 1909.71 1654.52 1911.61 1652.64C1913.53 1650.74 1915.04 1648.93 1916.14 1647.19C1917.24 1645.43 1917.96 1643.56 1918.29 1641.57C1918.66 1639.29 1918.48 1637.34 1917.73 1635.7C1916.98 1634.05 1915.78 1632.8 1914.14 1631.93C1912.52 1631.04 1910.56 1630.6 1908.27 1630.6C1905.9 1630.6 1903.73 1631.09 1901.76 1632.07C1899.8 1633.04 1898.15 1634.42 1896.84 1636.22C1895.55 1638 1894.71 1640.11 1894.31 1642.55H1881.9C1882.65 1637.98 1884.36 1634.01 1887.03 1630.63C1889.71 1627.26 1893.05 1624.64 1897.05 1622.79C1901.06 1620.94 1905.44 1620.02 1910.2 1620.02C1915.03 1620.02 1919.11 1620.92 1922.44 1622.72C1925.79 1624.53 1928.2 1627 1929.68 1630.14C1931.18 1633.28 1931.59 1636.87 1930.91 1640.9C1930.44 1643.59 1929.47 1646.24 1927.99 1648.84C1926.54 1651.42 1924.25 1654.3 1921.14 1657.49C1918.02 1660.66 1913.75 1664.49 1908.34 1668.99L1893.89 1681.61L1893.78 1682.1H1925.11L1923.31 1693H1873.96Z" fill="#282828"/>
<rect x="2046" y="1507" width="300" height="300" fill="#E2E2E2"/>
<path d="M2191.99 1693.98C2186.83 1693.98 2182.38 1693.12 2178.63 1691.38C2174.9 1689.65 2172.14 1687.25 2170.33 1684.18C2168.53 1681.08 2167.93 1677.5 2168.54 1673.42H2181.55C2181.31 1675.36 2181.62 1677.06 2182.46 1678.52C2183.33 1679.95 2184.63 1681.06 2186.36 1681.86C2188.1 1682.65 2190.15 1683.05 2192.52 1683.05C2195.14 1683.05 2197.58 1682.57 2199.83 1681.61C2202.08 1680.65 2203.95 1679.3 2205.45 1677.57C2206.95 1675.83 2207.88 1673.84 2208.23 1671.59C2208.56 1669.48 2208.29 1667.65 2207.42 1666.11C2206.55 1664.56 2205.14 1663.36 2203.17 1662.52C2201.22 1661.68 2198.75 1661.25 2195.75 1661.25H2189.1L2190.76 1651.2H2196.8C2199.31 1651.2 2201.61 1650.73 2203.69 1649.79C2205.8 1648.86 2207.56 1647.54 2208.97 1645.86C2210.37 1644.17 2211.25 1642.21 2211.6 1639.98C2211.93 1638.09 2211.79 1636.45 2211.18 1635.06C2210.6 1633.66 2209.58 1632.57 2208.12 1631.79C2206.69 1631 2204.85 1630.6 2202.6 1630.6C2200.35 1630.6 2198.16 1631 2196.03 1631.79C2193.92 1632.59 2192.13 1633.73 2190.65 1635.2C2189.18 1636.66 2188.26 1638.39 2187.91 1640.41H2175.43C2176.16 1636.4 2177.85 1632.87 2180.53 1629.82C2183.22 1626.75 2186.54 1624.35 2190.48 1622.62C2194.44 1620.88 2198.69 1620.02 2203.24 1620.02C2208.16 1620.02 2212.26 1620.98 2215.54 1622.9C2218.85 1624.82 2221.24 1627.35 2222.71 1630.49C2224.21 1633.63 2224.66 1637.03 2224.05 1640.69C2223.39 1644.77 2221.65 1648.07 2218.81 1650.6C2216 1653.11 2212.53 1654.79 2208.41 1655.63V1656.09C2213.09 1656.79 2216.6 1658.77 2218.92 1662.03C2221.24 1665.26 2222.02 1669.16 2221.27 1673.73C2220.62 1677.77 2218.94 1681.3 2216.25 1684.35C2213.55 1687.37 2210.1 1689.74 2205.91 1691.45C2201.74 1693.14 2197.1 1693.98 2191.99 1693.98Z" fill="#282828"/>
<rect x="2361" y="1507" width="300" height="300" fill="#E2E2E2"/>
<path d="M2482.15 1693L2483.74 1683.58L2512.78 1659.07C2515.56 1656.66 2517.91 1654.52 2519.81 1652.64C2521.73 1650.74 2523.24 1648.93 2524.34 1647.19C2525.44 1645.43 2526.16 1643.56 2526.49 1641.57C2526.86 1639.29 2526.67 1637.34 2525.92 1635.7C2525.17 1634.05 2523.98 1632.8 2522.34 1631.93C2520.72 1631.04 2518.76 1630.6 2516.47 1630.6C2514.1 1630.6 2511.93 1631.09 2509.96 1632.07C2507.99 1633.04 2506.35 1634.42 2505.04 1636.22C2503.75 1638 2502.91 1640.11 2502.51 1642.55H2490.1C2490.85 1637.98 2492.56 1634.01 2495.23 1630.63C2497.9 1627.26 2501.24 1624.64 2505.25 1622.79C2509.26 1620.94 2513.64 1620.02 2518.4 1620.02C2523.23 1620.02 2527.31 1620.92 2530.63 1622.72C2533.99 1624.53 2536.4 1627 2537.88 1630.14C2539.38 1633.28 2539.79 1636.87 2539.11 1640.9C2538.64 1643.59 2537.67 1646.24 2536.19 1648.84C2534.74 1651.42 2532.45 1654.3 2529.33 1657.49C2526.22 1660.66 2521.95 1664.49 2516.54 1668.99L2502.09 1681.61L2501.98 1682.1H2533.31L2531.51 1693H2482.15Z" fill="#282828"/>
<rect x="2676" y="1507" width="300" height="300" fill="#E2E2E2"/>
<path d="M2845.35 1621L2833.4 1693H2820.36L2830.2 1633.69H2829.78L2811.15 1644.45L2813.12 1632.5L2832.94 1621H2845.35Z" fill="#282828"/>
<rect x="1408.5" y="239.5" width="1575" height="1575" stroke="#737373" stroke-width="15"/>
<rect x="15" y="562" width="930" height="930" fill="#D11111" fill-opacity="0.6"/>
<rect x="15" y="562" width="300" height="300" fill="#FFADAD"/>
<path d="M160.32 749.371C154.507 749.371 149.773 747.906 146.117 744.977C142.46 742.023 139.988 737.77 138.699 732.215C137.433 726.637 137.457 719.922 138.769 712.07C140.058 704.219 142.273 697.539 145.414 692.031C148.554 686.5 152.433 682.281 157.05 679.375C161.667 676.469 166.847 675.016 172.589 675.016C178.355 675.016 183.066 676.469 186.722 679.375C190.402 682.281 192.898 686.5 194.21 692.031C195.523 697.539 195.523 704.219 194.21 712.07C192.898 719.922 190.671 726.637 187.531 732.215C184.414 737.77 180.535 742.023 175.894 744.977C171.277 747.906 166.085 749.371 160.32 749.371ZM162.148 738.367C166.648 738.367 170.562 736.141 173.89 731.687C177.218 727.234 179.609 720.695 181.062 712.07C182.023 706.352 182.222 701.547 181.66 697.656C181.121 693.766 179.925 690.836 178.074 688.867C176.222 686.875 173.808 685.879 170.832 685.879C166.355 685.879 162.441 688.105 159.089 692.559C155.738 696.988 153.347 703.492 151.917 712.07C150.957 717.836 150.746 722.676 151.285 726.59C151.824 730.48 153.019 733.422 154.871 735.414C156.722 737.383 159.148 738.367 162.148 738.367Z" fill="#282828"/>
<rect x="330" y="562" width="300" height="300" fill="#FFADAD"/>
<path d="M499.354 676L487.4 748H474.357L484.201 688.691H483.779L465.146 699.449L467.115 687.496L486.943 676H499.354Z" fill="#282828"/>
<rect x="645" y="562" width="300" height="300" fill="#FFADAD"/>
<path d="M790.32 749.371C784.507 749.371 779.773 747.906 776.117 744.977C772.46 742.023 769.988 737.77 768.699 732.215C767.433 726.637 767.457 719.922 768.769 712.07C770.058 704.219 772.273 697.539 775.414 692.031C778.554 686.5 782.433 682.281 787.05 679.375C791.667 676.469 796.847 675.016 802.589 675.016C808.355 675.016 813.066 676.469 816.722 679.375C820.402 682.281 822.898 686.5 824.21 692.031C825.523 697.539 825.523 704.219 824.21 712.07C822.898 719.922 820.671 726.637 817.531 732.215C814.414 737.77 810.535 742.023 805.894 744.977C801.277 747.906 796.085 749.371 790.32 749.371ZM792.148 738.367C796.648 738.367 800.562 736.141 803.89 731.687C807.218 727.234 809.609 720.695 811.062 712.07C812.023 706.352 812.222 701.547 811.66 697.656C811.121 693.766 809.925 690.836 808.074 688.867C806.222 686.875 803.808 685.879 800.832 685.879C796.355 685.879 792.441 688.105 789.089 692.559C785.738 696.988 783.347 703.492 781.917 712.07C780.957 717.836 780.746 722.676 781.285 726.59C781.824 730.48 783.019 733.422 784.871 735.414C786.722 737.383 789.148 738.367 792.148 738.367Z" fill="#282828"/>
<rect x="15" y="877" width="300" height="300" fill="#FFADAD"/>
<path d="M184.354 991L172.4 1063H159.357L169.201 1003.69H168.779L150.146 1014.45L152.115 1002.5L171.943 991H184.354Z" fill="#282828"/>
<rect x="330" y="877" width="300" height="300" fill="#FFADAD"/>
<path d="M499.354 991L487.4 1063H474.357L484.201 1003.69H483.779L465.146 1014.45L467.115 1002.5L486.943 991H499.354Z" fill="#282828"/>
<rect x="645" y="877" width="300" height="300" fill="#FFADAD"/>
<path d="M814.354 991L802.4 1063H789.357L799.201 1003.69H798.779L780.146 1014.45L782.115 1002.5L801.943 991H814.354Z" fill="#282828"/>
<rect x="15" y="1192" width="300" height="300" fill="#FFADAD"/>
<path d="M160.32 1379.37C154.507 1379.37 149.773 1377.91 146.117 1374.98C142.46 1372.02 139.988 1367.77 138.699 1362.21C137.433 1356.64 137.457 1349.92 138.769 1342.07C140.058 1334.22 142.273 1327.54 145.414 1322.03C148.554 1316.5 152.433 1312.28 157.05 1309.38C161.667 1306.47 166.847 1305.02 172.589 1305.02C178.355 1305.02 183.066 1306.47 186.722 1309.38C190.402 1312.28 192.898 1316.5 194.21 1322.03C195.523 1327.54 195.523 1334.22 194.21 1342.07C192.898 1349.92 190.671 1356.64 187.531 1362.21C184.414 1367.77 180.535 1372.02 175.894 1374.98C171.277 1377.91 166.085 1379.37 160.32 1379.37ZM162.148 1368.37C166.648 1368.37 170.562 1366.14 173.89 1361.69C177.218 1357.23 179.609 1350.7 181.062 1342.07C182.023 1336.35 182.222 1331.55 181.66 1327.66C181.121 1323.77 179.925 1320.84 178.074 1318.87C176.222 1316.87 173.808 1315.88 170.832 1315.88C166.355 1315.88 162.441 1318.11 159.089 1322.56C155.738 1326.99 153.347 1333.49 151.917 1342.07C150.957 1347.84 150.746 1352.68 151.285 1356.59C151.824 1360.48 153.019 1363.42 154.871 1365.41C156.722 1367.38 159.148 1368.37 162.148 1368.37Z" fill="#282828"/>
<rect x="330" y="1192" width="300" height="300" fill="#FFADAD"/>
<path d="M499.354 1306L487.4 1378H474.357L484.201 1318.69H483.779L465.146 1329.45L467.115 1317.5L486.943 1306H499.354Z" fill="#282828"/>
<rect x="645" y="1192" width="300" height="300" fill="#FFADAD"/>
<path d="M790.32 1379.37C784.507 1379.37 779.773 1377.91 776.117 1374.98C772.46 1372.02 769.988 1367.77 768.699 1362.21C767.433 1356.64 767.457 1349.92 768.769 1342.07C770.058 1334.22 772.273 1327.54 775.414 1322.03C778.554 1316.5 782.433 1312.28 787.05 1309.38C791.667 1306.47 796.847 1305.02 802.589 1305.02C808.355 1305.02 813.066 1306.47 816.722 1309.38C820.402 1312.28 822.898 1316.5 824.21 1322.03C825.523 1327.54 825.523 1334.22 824.21 1342.07C822.898 1349.92 820.671 1356.64 817.531 1362.21C814.414 1367.77 810.535 1372.02 805.894 1374.98C801.277 1377.91 796.085 1379.37 790.32 1379.37ZM792.148 1368.37C796.648 1368.37 800.562 1366.14 803.89 1361.69C807.218 1357.23 809.609 1350.7 811.062 1342.07C812.023 1336.35 812.222 1331.55 811.66 1327.66C811.121 1323.77 809.925 1320.84 808.074 1318.87C806.222 1316.87 803.808 1315.88 800.832 1315.88C796.355 1315.88 792.441 1318.11 789.089 1322.56C785.738 1326.99 783.347 1333.49 781.917 1342.07C780.957 1347.84 780.746 1352.68 781.285 1356.59C781.824 1360.48 783.019 1363.42 784.871 1365.41C786.722 1367.38 789.148 1368.37 792.148 1368.37Z" fill="#282828"/>
<rect x="7.5" y="554.5" width="945" height="945" stroke="#D11111" stroke-opacity="0.6" stroke-width="15"/>
<rect x="3443" y="541" width="930" height="930" fill="#1198D1" fill-opacity="0.6"/>
<rect x="3443" y="541" width="300" height="300" fill="#CAEDFC"/>
<path d="M3580.21 685.762L3578.48 696.238H3546.11L3547.83 685.762H3580.21ZM3611.52 727.984C3606.84 727.984 3602.78 727.105 3599.36 725.348C3595.96 723.566 3593.43 721.129 3591.77 718.035C3590.1 714.941 3589.53 711.402 3590.04 707.418H3602.7C3602.44 710.348 3603.32 712.75 3605.34 714.625C3607.37 716.5 3610 717.437 3613.21 717.437C3615.81 717.437 3618.2 716.852 3620.38 715.68C3622.59 714.508 3624.43 712.891 3625.9 710.828C3627.38 708.742 3628.35 706.352 3628.82 703.656C3629.27 700.937 3629.08 698.523 3628.26 696.414C3627.44 694.281 3626.1 692.617 3624.25 691.422C3622.4 690.227 3620.15 689.629 3617.5 689.629C3615.37 689.629 3613.19 690.039 3610.96 690.859C3608.76 691.656 3606.92 692.723 3605.44 694.059L3593.98 692.125L3603.93 655H3645.69L3643.94 665.898H3612.93L3607.69 684.988H3608.11C3609.73 683.395 3611.84 682.082 3614.44 681.051C3617.04 680.02 3619.81 679.504 3622.74 679.504C3627.1 679.504 3630.81 680.535 3633.88 682.598C3636.95 684.637 3639.17 687.461 3640.53 691.07C3641.91 694.656 3642.2 698.746 3641.41 703.34C3640.66 708.098 3638.87 712.34 3636.06 716.066C3633.27 719.77 3629.76 722.687 3625.52 724.82C3621.3 726.93 3616.63 727.984 3611.52 727.984Z" fill="#282828"/>
<rect x="3758" y="541" width="300" height="300" fill="#CAEDFC"/>
<path d="M3894.63 685.762L3892.9 696.238H3860.53L3862.25 685.762H3894.63ZM3926.71 727.984C3921.55 727.984 3917.1 727.117 3913.35 725.383C3909.62 723.648 3906.86 721.246 3905.05 718.176C3903.25 715.082 3902.65 711.496 3903.26 707.418H3916.27C3916.03 709.363 3916.34 711.062 3917.18 712.516C3918.05 713.945 3919.35 715.059 3921.08 715.855C3922.82 716.652 3924.87 717.051 3927.23 717.051C3929.86 717.051 3932.3 716.57 3934.55 715.609C3936.8 714.648 3938.67 713.301 3940.17 711.566C3941.67 709.832 3942.6 707.84 3942.95 705.59C3943.28 703.48 3943.01 701.652 3942.14 700.105C3941.27 698.559 3939.86 697.363 3937.89 696.52C3935.94 695.676 3933.47 695.254 3930.47 695.254H3923.82L3925.48 685.199H3931.52C3934.03 685.199 3936.33 684.73 3938.41 683.793C3940.52 682.855 3942.28 681.543 3943.69 679.855C3945.09 678.168 3945.97 676.211 3946.32 673.984C3946.65 672.086 3946.51 670.445 3945.9 669.062C3945.32 667.656 3944.3 666.566 3942.84 665.793C3941.41 664.996 3939.57 664.598 3937.32 664.598C3935.07 664.598 3932.88 664.996 3930.75 665.793C3928.64 666.59 3926.85 667.727 3925.37 669.203C3923.9 670.656 3922.98 672.391 3922.63 674.406H3910.15C3910.88 670.398 3912.57 666.871 3915.25 663.824C3917.94 660.754 3921.26 658.352 3925.2 656.617C3929.16 654.883 3933.41 654.016 3937.96 654.016C3942.88 654.016 3946.98 654.977 3950.26 656.898C3953.57 658.82 3955.96 661.352 3957.43 664.492C3958.93 667.633 3959.38 671.031 3958.77 674.687C3958.11 678.766 3956.37 682.07 3953.53 684.602C3950.72 687.109 3947.25 688.785 3943.13 689.629V690.086C3947.81 690.789 3951.32 692.77 3953.64 696.027C3955.96 699.262 3956.74 703.164 3955.99 707.734C3955.34 711.766 3953.66 715.305 3950.97 718.352C3948.27 721.375 3944.82 723.742 3940.63 725.453C3936.46 727.141 3931.82 727.984 3926.71 727.984Z" fill="#282828"/>
<rect x="4073" y="541" width="300" height="300" fill="#CAEDFC"/>
<path d="M4198.48 727L4239.16 666.391L4239.3 665.898H4203.72L4205.51 655H4254.56L4252.69 666.145L4212.02 727H4198.48Z" fill="#282828"/>
<rect x="3443" y="856" width="300" height="300" fill="#CAEDFC"/>
<path d="M3612.35 970L3600.4 1042H3587.36L3597.2 982.691H3596.78L3578.15 993.449L3580.12 981.496L3599.94 970H3612.35Z" fill="#282828"/>
<rect x="3758" y="856" width="300" height="300" fill="#CAEDFC"/>
<path d="M3894.63 1000.76L3892.9 1011.24H3860.53L3862.25 1000.76H3894.63ZM3926.71 1042.98C3921.55 1042.98 3917.1 1042.12 3913.35 1040.38C3909.62 1038.65 3906.86 1036.25 3905.05 1033.18C3903.25 1030.08 3902.65 1026.5 3903.26 1022.42H3916.27C3916.03 1024.36 3916.34 1026.06 3917.18 1027.52C3918.05 1028.95 3919.35 1030.06 3921.08 1030.86C3922.82 1031.65 3924.87 1032.05 3927.23 1032.05C3929.86 1032.05 3932.3 1031.57 3934.55 1030.61C3936.8 1029.65 3938.67 1028.3 3940.17 1026.57C3941.67 1024.83 3942.6 1022.84 3942.95 1020.59C3943.28 1018.48 3943.01 1016.65 3942.14 1015.11C3941.27 1013.56 3939.86 1012.36 3937.89 1011.52C3935.94 1010.68 3933.47 1010.25 3930.47 1010.25H3923.82L3925.48 1000.2H3931.52C3934.03 1000.2 3936.33 999.73 3938.41 998.793C3940.52 997.855 3942.28 996.543 3943.69 994.855C3945.09 993.168 3945.97 991.211 3946.32 988.984C3946.65 987.086 3946.51 985.445 3945.9 984.062C3945.32 982.656 3944.3 981.566 3942.84 980.793C3941.41 979.996 3939.57 979.598 3937.32 979.598C3935.07 979.598 3932.88 979.996 3930.75 980.793C3928.64 981.59 3926.85 982.727 3925.37 984.203C3923.9 985.656 3922.98 987.391 3922.63 989.406H3910.15C3910.88 985.398 3912.57 981.871 3915.25 978.824C3917.94 975.754 3921.26 973.352 3925.2 971.617C3929.16 969.883 3933.41 969.016 3937.96 969.016C3942.88 969.016 3946.98 969.977 3950.26 971.898C3953.57 973.82 3955.96 976.352 3957.43 979.492C3958.93 982.633 3959.38 986.031 3958.77 989.687C3958.11 993.766 3956.37 997.07 3953.53 999.602C3950.72 1002.11 3947.25 1003.79 3943.13 1004.63V1005.09C3947.81 1005.79 3951.32 1007.77 3953.64 1011.03C3955.96 1014.26 3956.74 1018.16 3955.99 1022.73C3955.34 1026.77 3953.66 1030.3 3950.97 1033.35C3948.27 1036.37 3944.82 1038.74 3940.63 1040.45C3936.46 1042.14 3931.82 1042.98 3926.71 1042.98Z" fill="#282828"/>
<rect x="4073" y="856" width="300" height="300" fill="#CAEDFC"/>
<path d="M4192.88 1028.64L4194.57 1018.27L4233.13 970H4241.78L4239.32 984.766H4234.08L4208.07 1017.36L4208 1017.92H4250.68L4248.88 1028.64H4192.88ZM4224.98 1042L4227.72 1025.44L4228.67 1020.84L4237.07 970H4249.38L4237.42 1042H4224.98Z" fill="#282828"/>
<rect x="3443" y="1171" width="300" height="300" fill="#CAEDFC"/>
<path d="M3612.35 1285L3600.4 1357H3587.36L3597.2 1297.69H3596.78L3578.15 1308.45L3580.12 1296.5L3599.94 1285H3612.35Z" fill="#282828"/>
<rect x="3758" y="1171" width="300" height="300" fill="#CAEDFC"/>
<path d="M3879.15 1357L3880.74 1347.58L3909.78 1323.07C3912.56 1320.66 3914.91 1318.52 3916.81 1316.64C3918.73 1314.74 3920.24 1312.93 3921.34 1311.19C3922.44 1309.43 3923.16 1307.56 3923.49 1305.57C3923.86 1303.29 3923.67 1301.34 3922.92 1299.7C3922.17 1298.05 3920.98 1296.8 3919.34 1295.93C3917.72 1295.04 3915.76 1294.6 3913.47 1294.6C3911.1 1294.6 3908.93 1295.09 3906.96 1296.07C3904.99 1297.04 3903.35 1298.42 3902.04 1300.22C3900.75 1302 3899.91 1304.11 3899.51 1306.55H3887.1C3887.85 1301.98 3889.56 1298.01 3892.23 1294.63C3894.9 1291.26 3898.24 1288.64 3902.25 1286.79C3906.26 1284.94 3910.64 1284.02 3915.4 1284.02C3920.23 1284.02 3924.31 1284.92 3927.63 1286.72C3930.99 1288.53 3933.4 1291 3934.88 1294.14C3936.38 1297.28 3936.79 1300.87 3936.11 1304.9C3935.64 1307.59 3934.67 1310.24 3933.19 1312.84C3931.74 1315.42 3929.45 1318.3 3926.33 1321.49C3923.22 1324.66 3918.95 1328.49 3913.54 1332.99L3899.09 1345.61L3898.98 1346.1H3930.31L3928.51 1357H3879.15Z" fill="#282828"/>
<rect x="4073" y="1171" width="300" height="300" fill="#CAEDFC"/>
<path d="M4194.15 1357L4195.74 1347.58L4224.78 1323.07C4227.56 1320.66 4229.91 1318.52 4231.81 1316.64C4233.73 1314.74 4235.24 1312.93 4236.34 1311.19C4237.44 1309.43 4238.16 1307.56 4238.49 1305.57C4238.86 1303.29 4238.67 1301.34 4237.92 1299.7C4237.17 1298.05 4235.98 1296.8 4234.34 1295.93C4232.72 1295.04 4230.76 1294.6 4228.47 1294.6C4226.1 1294.6 4223.93 1295.09 4221.96 1296.07C4219.99 1297.04 4218.35 1298.42 4217.04 1300.22C4215.75 1302 4214.91 1304.11 4214.51 1306.55H4202.1C4202.85 1301.98 4204.56 1298.01 4207.23 1294.63C4209.9 1291.26 4213.24 1288.64 4217.25 1286.79C4221.26 1284.94 4225.64 1284.02 4230.4 1284.02C4235.23 1284.02 4239.31 1284.92 4242.63 1286.72C4245.99 1288.53 4248.4 1291 4249.88 1294.14C4251.38 1297.28 4251.79 1300.87 4251.11 1304.9C4250.64 1307.59 4249.67 1310.24 4248.19 1312.84C4246.74 1315.42 4244.45 1318.3 4241.33 1321.49C4238.22 1324.66 4233.95 1328.49 4228.54 1332.99L4214.09 1345.61L4213.98 1346.1H4245.31L4243.51 1357H4194.15Z" fill="#282828"/>
<rect x="3435.5" y="533.5" width="945" height="945" stroke="#1198D1" stroke-opacity="0.6" stroke-width="15"/>
<path d="M361.47 455L370.887 398.273H381.164L376.87 424.337H377.563L403.987 398.273H416.535L390.415 423.728L407.311 455H394.958L382.161 430.68L374.571 438.159L371.746 455H361.47ZM429.415 455.831C425.149 455.831 421.622 454.945 418.834 453.172C416.046 451.381 414.088 448.851 412.962 445.582C411.854 442.295 411.669 438.427 412.408 433.977C413.128 429.6 414.596 425.759 416.812 422.454C419.028 419.13 421.798 416.545 425.122 414.698C428.464 412.833 432.157 411.901 436.201 411.901C438.823 411.901 441.233 412.325 443.431 413.175C445.628 414.006 447.484 415.298 448.998 417.053C450.512 418.807 451.556 421.041 452.128 423.756C452.7 426.452 452.673 429.665 452.045 433.395L451.574 436.469H416.673L417.754 429.711H443.015C443.347 427.79 443.237 426.082 442.683 424.587C442.129 423.072 441.205 421.881 439.913 421.013C438.62 420.146 437.004 419.712 435.066 419.712C433.09 419.712 431.243 420.219 429.526 421.235C427.827 422.232 426.396 423.525 425.232 425.113C424.069 426.701 423.33 428.372 423.017 430.126L421.881 436.608C421.475 439.267 421.567 441.437 422.158 443.117C422.749 444.798 423.783 446.035 425.26 446.829C426.737 447.623 428.602 448.02 430.855 448.02C432.333 448.02 433.699 447.817 434.955 447.411C436.21 447.004 437.328 446.395 438.306 445.582C439.303 444.751 440.134 443.736 440.799 442.536L449.968 443.588C448.952 446.062 447.465 448.223 445.508 450.07C443.551 451.898 441.205 453.32 438.472 454.335C435.758 455.332 432.739 455.831 429.415 455.831ZM457.003 455L464.094 412.455H473.816L472.625 419.545H473.068C474.232 417.089 475.875 415.197 477.999 413.867C480.141 412.519 482.431 411.845 484.868 411.845C485.441 411.845 486.059 411.873 486.724 411.928C487.389 411.965 487.961 412.03 488.441 412.122L486.89 421.346C486.465 421.198 485.801 421.069 484.896 420.958C484.009 420.829 483.132 420.764 482.264 420.764C480.436 420.764 478.737 421.161 477.168 421.955C475.617 422.731 474.306 423.811 473.235 425.196C472.164 426.581 471.471 428.178 471.157 429.988L467.03 455H457.003ZM502.187 430.071L498.087 455H488.033L495.124 412.455H504.735L503.516 419.684H504.043C505.372 417.302 507.237 415.409 509.638 414.006C512.038 412.602 514.836 411.901 518.031 411.901C520.93 411.901 523.367 412.528 525.343 413.784C527.319 415.021 528.722 416.84 529.553 419.241C530.384 421.623 530.513 424.513 529.941 427.911L525.398 455H515.371L519.609 429.462C520.089 426.636 519.729 424.42 518.529 422.814C517.347 421.189 515.445 420.376 512.823 420.376C511.069 420.376 509.453 420.764 507.976 421.54C506.499 422.297 505.252 423.396 504.237 424.836C503.239 426.276 502.556 428.021 502.187 430.071ZM554.261 455.831C549.995 455.831 546.468 454.945 543.68 453.172C540.891 451.381 538.934 448.851 537.808 445.582C536.7 442.295 536.515 438.427 537.254 433.977C537.974 429.6 539.442 425.759 541.658 422.454C543.874 419.13 546.643 416.545 549.967 414.698C553.31 412.833 557.003 411.901 561.047 411.901C563.669 411.901 566.079 412.325 568.276 413.175C570.474 414.006 572.33 415.298 573.844 417.053C575.358 418.807 576.401 421.041 576.974 423.756C577.546 426.452 577.518 429.665 576.891 433.395L576.42 436.469H541.519L542.599 429.711H567.861C568.193 427.79 568.082 426.082 567.528 424.587C566.974 423.072 566.051 421.881 564.759 421.013C563.466 420.146 561.85 419.712 559.911 419.712C557.935 419.712 556.089 420.219 554.371 421.235C552.673 422.232 551.241 423.525 550.078 425.113C548.915 426.701 548.176 428.372 547.862 430.126L546.727 436.608C546.32 439.267 546.413 441.437 547.004 443.117C547.594 444.798 548.629 446.035 550.106 446.829C551.583 447.623 553.448 448.02 555.701 448.02C557.178 448.02 558.545 447.817 559.8 447.411C561.056 447.004 562.173 446.395 563.152 445.582C564.149 444.751 564.98 443.736 565.645 442.536L574.813 443.588C573.798 446.062 572.311 448.223 570.354 450.07C568.396 451.898 566.051 453.32 563.318 454.335C560.604 455.332 557.585 455.831 554.261 455.831ZM601.293 398.273L591.876 455H581.849L591.266 398.273H601.293Z" fill="#E25555"/>
<path d="M3832.58 386.144C3832.65 383.577 3831.87 381.611 3830.23 380.244C3828.6 378.878 3826.26 378.195 3823.22 378.195C3821.08 378.195 3819.18 378.518 3817.54 379.164C3815.91 379.792 3814.6 380.669 3813.61 381.795C3812.61 382.903 3811.99 384.168 3811.75 385.59C3811.55 386.754 3811.65 387.769 3812.05 388.637C3812.46 389.505 3813.08 390.244 3813.91 390.853C3814.76 391.462 3815.72 391.97 3816.79 392.376C3817.88 392.783 3818.99 393.124 3820.11 393.401L3825.21 394.731C3827.24 395.229 3829.18 395.903 3831.03 396.753C3832.87 397.584 3834.47 398.655 3835.82 399.966C3837.19 401.259 3838.18 402.819 3838.81 404.647C3839.44 406.475 3839.54 408.617 3839.12 411.073C3838.56 414.397 3837.22 417.324 3835.1 419.854C3832.99 422.365 3830.23 424.332 3826.79 425.754C3823.37 427.157 3819.39 427.859 3814.85 427.859C3810.46 427.859 3806.75 427.175 3803.72 425.809C3800.69 424.424 3798.47 422.42 3797.07 419.798C3795.68 417.176 3795.24 413.991 3795.74 410.242H3805.85C3805.65 412.218 3805.97 413.862 3806.82 415.173C3807.69 416.484 3808.93 417.462 3810.56 418.109C3812.18 418.755 3814.07 419.078 3816.21 419.078C3818.44 419.078 3820.47 418.746 3822.28 418.081C3824.09 417.398 3825.56 416.456 3826.71 415.256C3827.87 414.037 3828.58 412.615 3828.84 410.99C3829.1 409.531 3828.89 408.312 3828.2 407.334C3827.52 406.355 3826.46 405.543 3825.02 404.896C3823.6 404.232 3821.9 403.641 3819.92 403.124L3813.77 401.462C3809.32 400.243 3805.94 398.415 3803.63 395.977C3801.34 393.54 3800.53 390.29 3801.2 386.227C3801.75 382.866 3803.14 379.94 3805.38 377.447C3807.61 374.935 3810.41 372.987 3813.77 371.602C3817.13 370.199 3820.81 369.497 3824.8 369.497C3828.82 369.497 3832.23 370.199 3835.02 371.602C3837.82 373.006 3839.87 374.963 3841.17 377.474C3842.48 379.967 3842.91 382.857 3842.47 386.144H3832.58ZM3857.34 427.859C3854.64 427.859 3852.29 427.379 3850.3 426.418C3848.31 425.44 3846.84 423.999 3845.9 422.097C3844.97 420.195 3844.74 417.85 3845.2 415.062C3845.61 412.661 3846.39 410.676 3847.53 409.107C3848.69 407.537 3850.12 406.281 3851.8 405.339C3853.49 404.379 3855.34 403.659 3857.34 403.179C3859.35 402.699 3861.4 402.348 3863.48 402.126C3866.03 401.868 3868.09 401.628 3869.66 401.406C3871.25 401.185 3872.44 400.852 3873.23 400.409C3874.03 399.947 3874.51 399.246 3874.67 398.304V398.138C3875.01 396.051 3874.67 394.435 3873.68 393.29C3872.68 392.146 3871.02 391.573 3868.69 391.573C3866.25 391.573 3864.2 392.109 3862.54 393.18C3860.88 394.251 3859.67 395.516 3858.91 396.974L3849.83 395.645C3850.97 393.06 3852.54 390.899 3854.54 389.163C3856.53 387.409 3858.83 386.098 3861.43 385.23C3864.06 384.344 3866.85 383.901 3869.83 383.901C3871.86 383.901 3873.84 384.141 3875.78 384.621C3877.74 385.101 3879.47 385.895 3880.96 387.003C3882.48 388.092 3883.58 389.579 3884.29 391.462C3885.01 393.346 3885.13 395.7 3884.65 398.526L3879.91 427H3870.27L3871.27 421.156H3870.94C3870.14 422.337 3869.11 423.445 3867.83 424.479C3866.56 425.495 3865.04 426.317 3863.29 426.945C3861.54 427.554 3859.55 427.859 3857.34 427.859ZM3861.13 420.491C3863.14 420.491 3864.95 420.094 3866.56 419.3C3868.17 418.487 3869.49 417.416 3870.52 416.087C3871.55 414.757 3872.2 413.308 3872.46 411.738L3873.29 406.724C3872.92 406.983 3872.35 407.223 3871.57 407.445C3870.8 407.666 3869.93 407.86 3868.97 408.026C3868.03 408.192 3867.09 408.34 3866.17 408.469C3865.25 408.599 3864.45 408.71 3863.79 408.802C3862.26 409.005 3860.85 409.337 3859.58 409.799C3858.32 410.261 3857.28 410.907 3856.45 411.738C3855.64 412.55 3855.13 413.603 3854.93 414.896C3854.63 416.724 3855.06 418.118 3856.23 419.078C3857.39 420.02 3859.02 420.491 3861.13 420.491ZM3909.44 370.273L3900.02 427H3889.99L3899.41 370.273H3909.44ZM3910.33 427L3917.42 384.455H3927.45L3920.36 427H3910.33ZM3923.9 378.361C3922.3 378.361 3920.97 377.825 3919.91 376.754C3918.86 375.683 3918.4 374.4 3918.53 372.904C3918.66 371.408 3919.33 370.125 3920.55 369.054C3921.79 367.983 3923.2 367.447 3924.79 367.447C3926.4 367.447 3927.72 367.983 3928.75 369.054C3929.8 370.125 3930.26 371.408 3930.13 372.904C3930.02 374.4 3929.35 375.683 3928.11 376.754C3926.89 377.825 3925.49 378.361 3923.9 378.361ZM3946.4 427.748C3943.06 427.748 3940.21 426.889 3937.84 425.172C3935.48 423.455 3933.8 420.962 3932.8 417.693C3931.82 414.425 3931.71 410.455 3932.47 405.783C3933.26 401.055 3934.71 397.067 3936.82 393.817C3938.92 390.548 3941.43 388.083 3944.35 386.421C3947.29 384.741 3950.39 383.901 3953.66 383.901C3956.17 383.901 3958.15 384.325 3959.61 385.175C3961.09 386.006 3962.2 387.012 3962.94 388.194C3963.68 389.357 3964.22 390.456 3964.57 391.49H3964.99L3968.5 370.273H3978.56L3969.14 427H3959.28L3960.42 420.297H3959.81C3959.11 421.331 3958.17 422.43 3957.01 423.593C3955.85 424.738 3954.4 425.717 3952.66 426.529C3950.93 427.342 3948.84 427.748 3946.4 427.748ZM3950.39 419.521C3952.53 419.521 3954.45 418.949 3956.15 417.804C3957.87 416.641 3959.3 415.025 3960.44 412.957C3961.59 410.888 3962.39 408.479 3962.85 405.727C3963.32 402.976 3963.32 400.585 3962.85 398.553C3962.39 396.522 3961.5 394.943 3960.17 393.817C3958.84 392.69 3957.09 392.127 3954.93 392.127C3952.72 392.127 3950.77 392.709 3949.09 393.872C3947.43 395.036 3946.06 396.642 3944.99 398.692C3943.92 400.741 3943.16 403.087 3942.72 405.727C3942.27 408.386 3942.25 410.759 3942.63 412.846C3943.04 414.914 3943.88 416.548 3945.15 417.749C3946.45 418.93 3948.19 419.521 3950.39 419.521ZM3992.01 427.859C3989.31 427.859 3986.97 427.379 3984.97 426.418C3982.98 425.44 3981.51 423.999 3980.57 422.097C3979.64 420.195 3979.41 417.85 3979.88 415.062C3980.28 412.661 3981.06 410.676 3982.2 409.107C3983.37 407.537 3984.79 406.281 3986.47 405.339C3988.17 404.379 3990.01 403.659 3992.01 403.179C3994.02 402.699 3996.07 402.348 3998.16 402.126C4000.7 401.868 4002.76 401.628 4004.33 401.406C4005.92 401.185 4007.11 400.852 4007.91 400.409C4008.7 399.947 4009.18 399.246 4009.35 398.304V398.138C4009.68 396.051 4009.35 394.435 4008.35 393.29C4007.35 392.146 4005.69 391.573 4003.36 391.573C4000.93 391.573 3998.88 392.109 3997.21 393.18C3995.55 394.251 3994.34 395.516 3993.59 396.974L3984.5 395.645C3985.65 393.06 3987.22 390.899 3989.21 389.163C3991.2 387.409 3993.5 386.098 3996.11 385.23C3998.73 384.344 4001.53 383.901 4004.5 383.901C4006.53 383.901 4008.52 384.141 4010.45 384.621C4012.41 385.101 4014.14 385.895 4015.63 387.003C4017.15 388.092 4018.26 389.579 4018.96 391.462C4019.68 393.346 4019.8 395.7 4019.32 398.526L4014.58 427H4004.94L4005.94 421.156H4005.61C4004.81 422.337 4003.78 423.445 4002.51 424.479C4001.23 425.495 3999.72 426.317 3997.96 426.945C3996.21 427.554 3994.22 427.859 3992.01 427.859ZM3995.8 420.491C3997.81 420.491 3999.62 420.094 4001.23 419.3C4002.84 418.487 4004.16 417.416 4005.19 416.087C4006.23 414.757 4006.87 413.308 4007.13 411.738L4007.96 406.724C4007.59 406.983 4007.02 407.223 4006.24 407.445C4005.47 407.666 4004.6 407.86 4003.64 408.026C4002.7 408.192 4001.77 408.34 4000.84 408.469C3999.92 408.599 3999.13 408.71 3998.46 408.802C3996.93 409.005 3995.52 409.337 3994.25 409.799C3993 410.261 3991.95 410.907 3991.12 411.738C3990.31 412.55 3989.8 413.603 3989.6 414.896C3989.3 416.724 3989.74 418.118 3990.9 419.078C3992.06 420.02 3993.7 420.491 3995.8 420.491Z" fill="#6CBDE0"/>
<rect x="1373" y="205" width="1013" height="1013" stroke="#6CBDE0" stroke-width="60"/>
<path d="M3381.5 717.5L3328.3 641.984L3289.5 725.817L3381.5 717.5ZM2454.39 126.491C2633.4 26.9052 2766.34 2.6921 2867.26 23.3751C2967.94 44.0108 3038.48 109.708 3091.98 194.017C3145.58 278.482 3181.54 380.778 3213.33 473.344C3229.17 519.467 3244.01 563.265 3259.43 600.809C3274.81 638.254 3291.07 670.251 3310.05 692.448L3322.21 682.05C3304.96 661.867 3289.47 631.832 3274.23 594.729C3259.03 557.726 3244.37 514.462 3228.46 468.147C3196.76 375.836 3160.26 271.752 3105.49 185.444C3050.62 98.9808 2976.89 29.5123 2870.47 7.70092C2764.28 -14.0632 2627.29 11.9951 2446.61 112.509L2454.39 126.491Z" fill="#6CBDE0"/>
<path d="M2577 1166L2457 1096.72V1235.28L2577 1166ZM2374 1178H2469V1154H2374V1178Z" fill="#6CBDE0"/>
<path d="M2577 247L2457 177.718V316.282L2577 247ZM2374 259H2469V235H2374V259Z" fill="#6CBDE0"/>
</svg>
