<svg width="861" height="585" viewBox="0 0 861 585" fill="none" xmlns="http://www.w3.org/2000/svg">
<path d="M97.7125 501.206H844.931V16.0643H97.7125V501.206Z" fill="white"/>
<path d="M131.677 501.206V509.015Z" fill="black"/>
<path d="M131.677 501.206V509.015" stroke="black" stroke-width="0.8"/>
<path d="M131.67 518.961C130.538 518.961 129.686 519.519 129.114 520.635C128.544 521.748 128.259 523.424 128.259 525.662C128.259 527.891 128.544 529.563 129.114 530.678C129.686 531.794 130.538 532.352 131.67 532.352C132.812 532.352 133.667 531.794 134.237 530.678C134.809 529.563 135.094 527.891 135.094 525.662C135.094 523.424 134.809 521.748 134.237 520.635C133.667 519.519 132.812 518.961 131.67 518.961ZM131.67 517.218C133.495 517.218 134.889 517.94 135.851 519.383C136.814 520.824 137.295 522.917 137.295 525.662C137.295 528.4 136.814 530.49 135.851 531.933C134.889 533.374 133.495 534.095 131.67 534.095C129.847 534.095 128.455 533.374 127.492 531.933C126.53 530.49 126.049 528.4 126.049 525.662C126.049 522.917 126.53 520.824 127.492 519.383C128.455 517.94 129.847 517.218 131.67 517.218Z" fill="black"/>
<path d="M217.015 501.206V509.015Z" fill="black"/>
<path d="M217.015 501.206V509.015" stroke="black" stroke-width="0.8"/>
<path d="M207.097 531.926H214.78V533.778H204.45V531.926C205.285 531.062 206.423 529.902 207.864 528.447C209.308 526.99 210.215 526.05 210.584 525.627C211.289 524.837 211.78 524.167 212.059 523.619C212.341 523.07 212.481 522.531 212.481 522.001C212.481 521.137 212.178 520.433 211.571 519.889C210.964 519.343 210.174 519.069 209.2 519.069C208.509 519.069 207.781 519.189 207.013 519.429C206.249 519.668 205.43 520.032 204.558 520.52V518.296C205.444 517.94 206.272 517.671 207.041 517.49C207.813 517.309 208.519 517.218 209.158 517.218C210.844 517.218 212.187 517.64 213.189 518.484C214.191 519.325 214.692 520.45 214.692 521.858C214.692 522.528 214.567 523.162 214.316 523.762C214.067 524.359 213.611 525.065 212.949 525.878C212.767 526.089 212.19 526.698 211.216 527.705C210.244 528.711 208.871 530.118 207.097 531.926Z" fill="black"/>
<path d="M219.424 517.511H228.065V519.366H221.44V523.35C221.758 523.241 222.077 523.16 222.395 523.106C222.716 523.053 223.037 523.026 223.358 523.026C225.173 523.026 226.611 523.524 227.671 524.518C228.734 525.513 229.265 526.86 229.265 528.559C229.265 530.309 228.72 531.67 227.63 532.641C226.539 533.61 225.002 534.095 223.019 534.095C222.336 534.095 221.64 534.037 220.931 533.921C220.224 533.804 219.493 533.63 218.737 533.398V531.184C219.39 531.539 220.066 531.804 220.763 531.979C221.461 532.153 222.198 532.24 222.974 532.24C224.232 532.24 225.227 531.91 225.959 531.25C226.694 530.59 227.061 529.693 227.061 528.559C227.061 527.427 226.694 526.531 225.959 525.871C225.227 525.209 224.232 524.877 222.974 524.877C222.386 524.877 221.799 524.942 221.213 525.073C220.629 525.203 220.033 525.406 219.424 525.683V517.511Z" fill="black"/>
<path d="M302.353 501.206V509.015Z" fill="black"/>
<path d="M302.353 501.206V509.015" stroke="black" stroke-width="0.8"/>
<path d="M290.562 517.511H299.204V519.366H292.578V523.35C292.896 523.241 293.215 523.16 293.533 523.106C293.854 523.053 294.175 523.026 294.496 523.026C296.312 523.026 297.75 523.524 298.81 524.518C299.872 525.513 300.403 526.86 300.403 528.559C300.403 530.309 299.858 531.67 298.768 532.641C297.677 533.61 296.141 534.095 294.158 534.095C293.474 534.095 292.778 534.037 292.069 533.921C291.362 533.804 290.631 533.63 289.875 533.398V531.184C290.529 531.539 291.204 531.804 291.901 531.979C292.599 532.153 293.336 532.24 294.112 532.24C295.37 532.24 296.365 531.91 297.097 531.25C297.832 530.59 298.199 529.693 298.199 528.559C298.199 527.427 297.832 526.531 297.097 525.871C296.365 525.209 295.37 524.877 294.112 524.877C293.524 524.877 292.937 524.942 292.351 525.073C291.768 525.203 291.171 525.406 290.562 525.683V517.511Z" fill="black"/>
<path d="M309.445 518.961C308.313 518.961 307.461 519.519 306.889 520.635C306.32 521.748 306.035 523.424 306.035 525.662C306.035 527.891 306.32 529.563 306.889 530.678C307.461 531.794 308.313 532.352 309.445 532.352C310.587 532.352 311.442 531.794 312.012 530.678C312.584 529.563 312.87 527.891 312.87 525.662C312.87 523.424 312.584 521.748 312.012 520.635C311.442 519.519 310.587 518.961 309.445 518.961ZM309.445 517.218C311.27 517.218 312.664 517.94 313.626 519.383C314.589 520.824 315.07 522.917 315.07 525.662C315.07 528.4 314.589 530.49 313.626 531.933C312.664 533.374 311.27 534.095 309.445 534.095C307.623 534.095 306.23 533.374 305.268 531.933C304.305 530.49 303.824 528.4 303.824 525.662C303.824 522.917 304.305 520.824 305.268 519.383C306.23 517.94 307.623 517.218 309.445 517.218Z" fill="black"/>
<path d="M387.691 501.206V509.015Z" fill="black"/>
<path d="M387.691 501.206V509.015" stroke="black" stroke-width="0.8"/>
<path d="M375.321 517.511H385.783V518.449L379.876 533.778H377.578L383.136 519.366H375.321V517.511Z" fill="black"/>
<path d="M390.1 517.511H398.741V519.366H392.115V523.35C392.434 523.241 392.752 523.16 393.071 523.106C393.392 523.053 393.713 523.026 394.033 523.026C395.849 523.026 397.287 523.524 398.347 524.518C399.41 525.513 399.941 526.86 399.941 528.559C399.941 530.309 399.396 531.67 398.305 532.641C397.215 533.61 395.678 534.095 393.695 534.095C393.012 534.095 392.315 534.037 391.606 533.921C390.9 533.804 390.168 533.63 389.413 533.398V531.184C390.066 531.539 390.741 531.804 391.439 531.979C392.136 532.153 392.873 532.24 393.65 532.24C394.908 532.24 395.903 531.91 396.635 531.25C397.37 530.59 397.737 529.693 397.737 528.559C397.737 527.427 397.37 526.531 396.635 525.871C395.903 525.209 394.908 524.877 393.65 524.877C393.062 524.877 392.475 524.942 391.889 525.073C391.305 525.203 390.709 525.406 390.1 525.683V517.511Z" fill="black"/>
<path d="M473.028 501.206V509.015Z" fill="black"/>
<path d="M473.028 501.206V509.015" stroke="black" stroke-width="0.8"/>
<path d="M454.497 531.926H458.093V519.516L454.18 520.3V518.296L458.072 517.511H460.272V531.926H463.867V533.778H454.497V531.926Z" fill="black"/>
<path d="M473.021 518.961C471.889 518.961 471.037 519.519 470.465 520.635C469.895 521.748 469.611 523.424 469.611 525.662C469.611 527.891 469.895 529.563 470.465 530.678C471.037 531.794 471.889 532.352 473.021 532.352C474.163 532.352 475.018 531.794 475.588 530.678C476.16 529.563 476.446 527.891 476.446 525.662C476.446 523.424 476.16 521.748 475.588 520.635C475.018 519.519 474.163 518.961 473.021 518.961ZM473.021 517.218C474.846 517.218 476.24 517.94 477.202 519.383C478.165 520.824 478.646 522.917 478.646 525.662C478.646 528.4 478.165 530.49 477.202 531.933C476.24 533.374 474.846 534.095 473.021 534.095C471.198 534.095 469.806 533.374 468.843 531.933C467.881 530.49 467.4 528.4 467.4 525.662C467.4 522.917 467.881 520.824 468.843 519.383C469.806 517.94 471.198 517.218 473.021 517.218Z" fill="black"/>
<path d="M487.221 518.961C486.088 518.961 485.236 519.519 484.665 520.635C484.095 521.748 483.81 523.424 483.81 525.662C483.81 527.891 484.095 529.563 484.665 530.678C485.236 531.794 486.088 532.352 487.221 532.352C488.362 532.352 489.218 531.794 489.787 530.678C490.359 529.563 490.645 527.891 490.645 525.662C490.645 523.424 490.359 521.748 489.787 520.635C489.218 519.519 488.362 518.961 487.221 518.961ZM487.221 517.218C489.046 517.218 490.439 517.94 491.402 519.383C492.364 520.824 492.846 522.917 492.846 525.662C492.846 528.4 492.364 530.49 491.402 531.933C490.439 533.374 489.046 534.095 487.221 534.095C485.398 534.095 484.005 533.374 483.043 531.933C482.08 530.49 481.599 528.4 481.599 525.662C481.599 522.917 482.08 520.824 483.043 519.383C484.005 517.94 485.398 517.218 487.221 517.218Z" fill="black"/>
<path d="M558.366 501.206V509.015Z" fill="black"/>
<path d="M558.366 501.206V509.015" stroke="black" stroke-width="0.8"/>
<path d="M539.835 531.926H543.43V519.516L539.518 520.3V518.296L543.409 517.511H545.61V531.926H549.205V533.778H539.835V531.926Z" fill="black"/>
<path d="M555.548 531.926H563.23V533.778H552.901V531.926C553.736 531.062 554.874 529.902 556.315 528.447C557.759 526.99 558.666 526.05 559.035 525.627C559.74 524.837 560.231 524.167 560.51 523.619C560.792 523.07 560.932 522.531 560.932 522.001C560.932 521.137 560.629 520.433 560.022 519.889C559.415 519.343 558.625 519.069 557.651 519.069C556.96 519.069 556.232 519.189 555.464 519.429C554.699 519.668 553.881 520.032 553.009 520.52V518.296C553.895 517.94 554.723 517.671 555.492 517.49C556.264 517.309 556.97 517.218 557.609 517.218C559.295 517.218 560.638 517.64 561.64 518.484C562.642 519.325 563.143 520.45 563.143 521.858C563.143 522.528 563.018 523.162 562.767 523.762C562.518 524.359 562.062 525.065 561.4 525.878C561.218 526.089 560.641 526.698 559.666 527.705C558.695 528.711 557.322 530.118 555.548 531.926Z" fill="black"/>
<path d="M567.875 517.511H576.516V519.366H569.891V523.35C570.209 523.241 570.528 523.16 570.846 523.106C571.167 523.053 571.488 523.026 571.809 523.026C573.624 523.026 575.062 523.524 576.122 524.518C577.185 525.513 577.716 526.86 577.716 528.559C577.716 530.309 577.171 531.67 576.081 532.641C574.99 533.61 573.454 534.095 571.47 534.095C570.787 534.095 570.091 534.037 569.382 533.921C568.675 533.804 567.944 533.63 567.188 533.398V531.184C567.841 531.539 568.517 531.804 569.214 531.979C569.912 532.153 570.649 532.24 571.425 532.24C572.683 532.24 573.678 531.91 574.41 531.25C575.145 530.59 575.512 529.693 575.512 528.559C575.512 527.427 575.145 526.531 574.41 525.871C573.678 525.209 572.683 524.877 571.425 524.877C570.837 524.877 570.25 524.942 569.664 525.073C569.081 525.203 568.484 525.406 567.875 525.683V517.511Z" fill="black"/>
<path d="M643.704 501.206V509.015Z" fill="black"/>
<path d="M643.704 501.206V509.015" stroke="black" stroke-width="0.8"/>
<path d="M625.173 531.926H628.768V519.516L624.856 520.3V518.296L628.747 517.511H630.948V531.926H634.543V533.778H625.173V531.926Z" fill="black"/>
<path d="M639.013 517.511H647.655V519.366H641.029V523.35C641.348 523.241 641.666 523.16 641.985 523.106C642.305 523.053 642.626 523.026 642.947 523.026C644.763 523.026 646.201 523.524 647.261 524.518C648.323 525.513 648.854 526.86 648.854 528.559C648.854 530.309 648.309 531.67 647.219 532.641C646.129 533.61 644.592 534.095 642.609 534.095C641.925 534.095 641.229 534.037 640.52 533.921C639.813 533.804 639.082 533.63 638.326 533.398V531.184C638.98 531.539 639.655 531.804 640.353 531.979C641.05 532.153 641.787 532.24 642.563 532.24C643.821 532.24 644.816 531.91 645.548 531.25C646.283 530.59 646.65 529.693 646.65 528.559C646.65 527.427 646.283 526.531 645.548 525.871C644.816 525.209 643.821 524.877 642.563 524.877C641.975 524.877 641.388 524.942 640.802 525.073C640.219 525.203 639.623 525.406 639.013 525.683V517.511Z" fill="black"/>
<path d="M657.896 518.961C656.764 518.961 655.912 519.519 655.34 520.635C654.771 521.748 654.486 523.424 654.486 525.662C654.486 527.891 654.771 529.563 655.34 530.678C655.912 531.794 656.764 532.352 657.896 532.352C659.038 532.352 659.893 531.794 660.463 530.678C661.035 529.563 661.321 527.891 661.321 525.662C661.321 523.424 661.035 521.748 660.463 520.635C659.893 519.519 659.038 518.961 657.896 518.961ZM657.896 517.218C659.721 517.218 661.115 517.94 662.078 519.383C663.04 520.824 663.521 522.917 663.521 525.662C663.521 528.4 663.04 530.49 662.078 531.933C661.115 533.374 659.721 534.095 657.896 534.095C656.074 534.095 654.681 533.374 653.719 531.933C652.756 530.49 652.275 528.4 652.275 525.662C652.275 522.917 652.756 520.824 653.719 519.383C654.681 517.94 656.074 517.218 657.896 517.218Z" fill="black"/>
<path d="M729.042 501.206V509.015Z" fill="black"/>
<path d="M729.042 501.206V509.015" stroke="black" stroke-width="0.8"/>
<path d="M710.511 531.926H714.106V519.516L710.193 520.3V518.296L714.085 517.511H716.286V531.926H719.881V533.778H710.511V531.926Z" fill="black"/>
<path d="M723.772 517.511H734.234V518.449L728.327 533.778H726.028L731.587 519.366H723.772V517.511Z" fill="black"/>
<path d="M738.551 517.511H747.192V519.366H740.566V523.35C740.885 523.241 741.203 523.16 741.522 523.106C741.843 523.053 742.164 523.026 742.484 523.026C744.3 523.026 745.738 523.524 746.798 524.518C747.861 525.513 748.392 526.86 748.392 528.559C748.392 530.309 747.847 531.67 746.756 532.641C745.666 533.61 744.129 534.095 742.146 534.095C741.463 534.095 740.766 534.037 740.057 533.921C739.35 533.804 738.619 533.63 737.864 533.398V531.184C738.517 531.539 739.192 531.804 739.89 531.979C740.587 532.153 741.324 532.24 742.101 532.24C743.358 532.24 744.354 531.91 745.086 531.25C745.82 530.59 746.188 529.693 746.188 528.559C746.188 527.427 745.82 526.531 745.086 525.871C744.354 525.209 743.358 524.877 742.101 524.877C741.513 524.877 740.926 524.942 740.34 525.073C739.756 525.203 739.16 525.406 738.551 525.683V517.511Z" fill="black"/>
<path d="M814.38 501.206V509.015Z" fill="black"/>
<path d="M814.38 501.206V509.015" stroke="black" stroke-width="0.8"/>
<path d="M797.362 531.926H805.045V533.778H794.715V531.926C795.55 531.062 796.688 529.902 798.129 528.447C799.573 526.99 800.48 526.05 800.849 525.627C801.554 524.837 802.046 524.167 802.324 523.619C802.606 523.07 802.746 522.531 802.746 522.001C802.746 521.137 802.443 520.433 801.836 519.889C801.229 519.343 800.439 519.069 799.465 519.069C798.774 519.069 798.046 519.189 797.278 519.429C796.514 519.668 795.695 520.032 794.823 520.52V518.296C795.709 517.94 796.537 517.671 797.306 517.49C798.078 517.309 798.784 517.218 799.423 517.218C801.109 517.218 802.452 517.64 803.454 518.484C804.456 519.325 804.957 520.45 804.957 521.858C804.957 522.528 804.832 523.162 804.581 523.762C804.332 524.359 803.876 525.065 803.214 525.878C803.032 526.089 802.455 526.698 801.481 527.705C800.509 528.711 799.136 530.118 797.362 531.926Z" fill="black"/>
<path d="M814.373 518.961C813.24 518.961 812.388 519.519 811.816 520.635C811.247 521.748 810.962 523.424 810.962 525.662C810.962 527.891 811.247 529.563 811.816 530.678C812.388 531.794 813.24 532.352 814.373 532.352C815.514 532.352 816.37 531.794 816.939 530.678C817.511 529.563 817.797 527.891 817.797 525.662C817.797 523.424 817.511 521.748 816.939 520.635C816.37 519.519 815.514 518.961 814.373 518.961ZM814.373 517.218C816.198 517.218 817.591 517.94 818.554 519.383C819.516 520.824 819.997 522.917 819.997 525.662C819.997 528.4 819.516 530.49 818.554 531.933C817.591 533.374 816.198 534.095 814.373 534.095C812.55 534.095 811.157 533.374 810.195 531.933C809.232 530.49 808.751 528.4 808.751 525.662C808.751 522.917 809.232 520.824 810.195 519.383C811.157 517.94 812.55 517.218 814.373 517.218Z" fill="black"/>
<path d="M828.572 518.961C827.44 518.961 826.588 519.519 826.016 520.635C825.446 521.748 825.162 523.424 825.162 525.662C825.162 527.891 825.446 529.563 826.016 530.678C826.588 531.794 827.44 532.352 828.572 532.352C829.714 532.352 830.569 531.794 831.139 530.678C831.711 529.563 831.997 527.891 831.997 525.662C831.997 523.424 831.711 521.748 831.139 520.635C830.569 519.519 829.714 518.961 828.572 518.961ZM828.572 517.218C830.397 517.218 831.791 517.94 832.753 519.383C833.716 520.824 834.197 522.917 834.197 525.662C834.197 528.4 833.716 530.49 832.753 531.933C831.791 533.374 830.397 534.095 828.572 534.095C826.749 534.095 825.357 533.374 824.394 531.933C823.432 530.49 822.951 528.4 822.951 525.662C822.951 522.917 823.432 520.824 824.394 519.383C825.357 517.94 826.749 517.218 828.572 517.218Z" fill="black"/>
<path d="M439.34 548.029H449.628V549.884H441.541V554.698H449.289V556.549H441.541V562.444H449.823V564.296H439.34V548.029Z" fill="black"/>
<path d="M455.293 562.465V568.936H453.278V552.094H455.293V553.945C455.717 553.22 456.249 552.682 456.891 552.331C457.535 551.978 458.303 551.801 459.196 551.801C460.679 551.801 461.883 552.389 462.808 553.565C463.736 554.741 464.2 556.288 464.2 558.205C464.2 560.123 463.736 561.67 462.808 562.849C461.883 564.025 460.679 564.613 459.196 564.613C458.303 564.613 457.535 564.436 456.891 564.083C456.249 563.73 455.717 563.19 455.293 562.465ZM462.118 558.205C462.118 556.732 461.815 555.575 461.208 554.736C460.601 553.897 459.768 553.478 458.707 553.478C457.645 553.478 456.81 553.897 456.204 554.736C455.597 555.575 455.293 556.732 455.293 558.205C455.293 559.679 455.597 560.835 456.204 561.674C456.81 562.513 457.645 562.932 458.707 562.932C459.768 562.932 460.601 562.513 461.208 561.674C461.815 560.835 462.118 559.679 462.118 558.205Z" fill="black"/>
<path d="M472.25 553.499C471.176 553.499 470.326 553.918 469.701 554.757C469.076 555.596 468.763 556.746 468.763 558.205C468.763 559.665 469.073 560.814 469.694 561.653C470.317 562.492 471.169 562.912 472.25 562.912C473.32 562.912 474.166 562.491 474.789 561.65C475.414 560.806 475.727 559.658 475.727 558.205C475.727 556.76 475.414 555.614 474.789 554.768C474.166 553.922 473.32 553.499 472.25 553.499ZM472.25 551.801C473.994 551.801 475.363 552.368 476.358 553.502C477.355 554.634 477.854 556.202 477.854 558.205C477.854 560.202 477.355 561.769 476.358 562.908C475.363 564.045 473.994 564.613 472.25 564.613C470.5 564.613 469.128 564.045 468.135 562.908C467.145 561.769 466.65 560.202 466.65 558.205C466.65 556.202 467.145 554.634 468.135 553.502C469.128 552.368 470.5 551.801 472.25 551.801Z" fill="black"/>
<path d="M489.961 552.561V554.437C489.393 554.123 488.825 553.888 488.255 553.732C487.686 553.577 487.11 553.499 486.529 553.499C485.227 553.499 484.216 553.911 483.495 554.736C482.777 555.559 482.418 556.715 482.418 558.205C482.418 559.695 482.777 560.852 483.495 561.677C484.216 562.5 485.227 562.912 486.529 562.912C487.11 562.912 487.686 562.834 488.255 562.678C488.825 562.522 489.393 562.288 489.961 561.974V563.828C489.4 564.089 488.82 564.284 488.22 564.414C487.623 564.547 486.986 564.613 486.309 564.613C484.471 564.613 483.009 564.035 481.926 562.88C480.845 561.725 480.304 560.167 480.304 558.205C480.304 556.216 480.851 554.652 481.943 553.513C483.038 552.372 484.538 551.801 486.442 551.801C487.058 551.801 487.66 551.865 488.248 551.993C488.837 552.118 489.407 552.308 489.961 552.561Z" fill="black"/>
<path d="M503.595 556.929V564.296H501.59V556.996C501.59 555.84 501.364 554.977 500.913 554.405C500.462 553.831 499.787 553.544 498.887 553.544C497.804 553.544 496.949 553.889 496.324 554.58C495.699 555.268 495.386 556.208 495.386 557.4V564.296H493.37V547.342H495.386V553.99C495.867 553.256 496.432 552.708 497.081 552.345C497.732 551.982 498.483 551.801 499.333 551.801C500.735 551.801 501.795 552.235 502.514 553.101C503.234 553.968 503.595 555.244 503.595 556.929Z" fill="black"/>
<path d="M97.7125 465.246H89.9011Z" fill="black"/>
<path d="M97.7125 465.246H89.9011" stroke="black" stroke-width="0.8"/>
<path d="M49.3654 471.872H52.9607V459.461L49.048 460.245V458.241L52.9398 457.456H55.1402V471.872H58.7356V473.723H49.3654V471.872Z" fill="black"/>
<path d="M63.1814 470.955H65.483V473.723H63.1814V470.955Z" fill="black"/>
<path d="M70.3001 457.456H78.9415V459.311H72.3158V463.296C72.6343 463.186 72.9528 463.105 73.2713 463.052C73.5921 462.998 73.9129 462.971 74.2338 462.971C76.0494 462.971 77.4874 463.469 78.5475 464.464C79.6099 465.458 80.1411 466.805 80.1411 468.504C80.1411 470.254 79.596 471.615 78.5056 472.586C77.4153 473.555 75.8786 474.04 73.8955 474.04C73.212 474.04 72.5157 473.982 71.8066 473.866C71.0999 473.75 70.3687 473.575 69.6132 473.343V471.129C70.2664 471.485 70.9418 471.75 71.6392 471.924C72.3367 472.098 73.0737 472.185 73.8502 472.185C75.1079 472.185 76.1029 471.855 76.8352 471.195C77.5699 470.535 77.9372 469.638 77.9372 468.504C77.9372 467.372 77.5699 466.476 76.8352 465.816C76.1029 465.154 75.1079 464.823 73.8502 464.823C73.262 464.823 72.675 464.888 72.0891 465.018C71.5056 465.148 70.9093 465.351 70.3001 465.628V457.456Z" fill="black"/>
<path d="M97.7125 410.994H89.9011Z" fill="black"/>
<path d="M97.7125 410.994H89.9011" stroke="black" stroke-width="0.8"/>
<path d="M49.3654 417.619H52.9607V405.208L49.048 405.993V403.988L52.9398 403.204H55.1402V417.619H58.7356V419.47H49.3654V417.619Z" fill="black"/>
<path d="M63.1814 416.702H65.483V419.47H63.1814V416.702Z" fill="black"/>
<path d="M75.259 410.462C74.271 410.462 73.4875 410.8 72.9086 411.477C72.3321 412.151 72.0438 413.076 72.0438 414.252C72.0438 415.421 72.3321 416.346 72.9086 417.027C73.4875 417.705 74.271 418.044 75.259 418.044C76.2471 418.044 77.0294 417.705 77.6059 417.027C78.1825 416.346 78.4708 415.421 78.4708 414.252C78.4708 413.076 78.1825 412.151 77.6059 411.477C77.0294 410.8 76.2471 410.462 75.259 410.462ZM79.6285 403.563V405.567C79.0752 405.307 78.5173 405.108 77.9547 404.971C77.3921 404.832 76.8341 404.762 76.2808 404.762C74.8278 404.762 73.7177 405.253 72.9505 406.233C72.1856 407.214 71.7485 408.696 71.6393 410.678C72.067 410.046 72.6041 409.561 73.2504 409.224C73.899 408.887 74.6116 408.719 75.3881 408.719C77.0224 408.719 78.3138 409.215 79.2624 410.208C80.2109 411.198 80.6852 412.546 80.6852 414.252C80.6852 415.923 80.1911 417.264 79.2031 418.275C78.215 419.283 76.9004 419.788 75.259 419.788C73.3759 419.788 71.9368 419.067 70.9418 417.626C69.9468 416.183 69.4493 414.092 69.4493 411.355C69.4493 408.784 70.0595 406.734 71.2801 405.205C72.5006 403.676 74.1385 402.911 76.1936 402.911C76.7469 402.911 77.3049 402.966 77.8675 403.075C78.4301 403.184 79.0171 403.347 79.6285 403.563Z" fill="black"/>
<path d="M97.7125 356.741H89.9011Z" fill="black"/>
<path d="M97.7125 356.741H89.9011" stroke="black" stroke-width="0.8"/>
<path d="M49.3654 363.367H52.9607V350.956L49.048 351.74V349.736L52.9398 348.951H55.1402V363.367H58.7356V365.218H49.3654V363.367Z" fill="black"/>
<path d="M63.1814 362.45H65.483V365.218H63.1814V362.45Z" fill="black"/>
<path d="M69.7213 348.951H80.183V349.889L74.2756 365.218H71.9775L77.5362 350.806H69.7213V348.951Z" fill="black"/>
<path d="M97.7125 302.489H89.9011Z" fill="black"/>
<path d="M97.7125 302.489H89.9011" stroke="black" stroke-width="0.8"/>
<path d="M49.3654 309.114H52.9607V296.703L49.048 297.488V295.483L52.9398 294.699H55.1402V309.114H58.7356V310.965H49.3654V309.114Z" fill="black"/>
<path d="M63.1814 308.197H65.483V310.965H63.1814V308.197Z" fill="black"/>
<path d="M74.9835 303.24C73.9373 303.24 73.1144 303.52 72.5146 304.08C71.9171 304.64 71.6183 305.41 71.6183 306.388C71.6183 307.369 71.9171 308.139 72.5146 308.699C73.1144 309.259 73.9373 309.539 74.9835 309.539C76.0297 309.539 76.8538 309.258 77.456 308.696C78.0604 308.131 78.3627 307.362 78.3627 306.388C78.3627 305.41 78.0628 304.64 77.4629 304.08C76.8655 303.52 76.039 303.24 74.9835 303.24ZM72.7831 302.306C71.8392 302.073 71.1034 301.634 70.5756 300.988C70.0502 300.339 69.7875 299.55 69.7875 298.621C69.7875 297.322 70.2502 296.294 71.1754 295.539C72.1031 294.784 73.3724 294.406 74.9835 294.406C76.6039 294.406 77.8756 294.784 78.7986 295.539C79.7215 296.294 80.183 297.322 80.183 298.621C80.183 299.55 79.9191 300.339 79.3914 300.988C78.866 301.634 78.1348 302.073 77.1979 302.306C78.258 302.552 79.0834 303.035 79.6739 303.756C80.2667 304.474 80.5631 305.351 80.5631 306.388C80.5631 307.966 80.0819 309.177 79.1194 310.021C78.1569 310.862 76.7783 311.283 74.9835 311.283C73.1911 311.283 71.8125 310.862 70.8476 310.021C69.8852 309.177 69.4039 307.966 69.4039 306.388C69.4039 305.351 69.7015 304.474 70.2967 303.756C70.8941 303.035 71.7229 302.552 72.7831 302.306ZM71.9775 298.83C71.9775 299.671 72.2402 300.328 72.7656 300.8C73.2934 301.271 74.0327 301.507 74.9835 301.507C75.9297 301.507 76.669 301.271 77.2014 300.8C77.7361 300.328 78.0035 299.671 78.0035 298.83C78.0035 297.986 77.7361 297.329 77.2014 296.857C76.669 296.385 75.9297 296.149 74.9835 296.149C74.0327 296.149 73.2934 296.385 72.7656 296.857C72.2402 297.329 71.9775 297.986 71.9775 298.83Z" fill="black"/>
<path d="M97.7125 248.236H89.9011Z" fill="black"/>
<path d="M97.7125 248.236H89.9011" stroke="black" stroke-width="0.8"/>
<path d="M49.3654 254.862H52.9607V242.451L49.048 243.235V241.231L52.9398 240.446H55.1402V254.862H58.7356V256.713H49.3654V254.862Z" fill="black"/>
<path d="M63.1814 253.945H65.483V256.713H63.1814V253.945Z" fill="black"/>
<path d="M70.342 256.375V254.37C70.8953 254.633 71.4544 254.833 72.0194 254.97C72.5866 255.107 73.1434 255.175 73.6898 255.175C75.1428 255.175 76.2517 254.687 77.0166 253.711C77.7838 252.735 78.222 251.251 78.3313 249.259C77.9105 249.885 77.3758 250.364 76.7271 250.699C76.0808 251.034 75.366 251.201 74.5825 251.201C72.9551 251.201 71.6672 250.71 70.7186 249.726C69.7701 248.741 69.2958 247.394 69.2958 245.686C69.2958 244.017 69.7899 242.679 70.7779 241.67C71.766 240.659 73.0807 240.153 74.722 240.153C76.6051 240.153 78.0418 240.875 79.0322 242.318C80.0249 243.759 80.5213 245.852 80.5213 248.597C80.5213 251.16 79.9122 253.207 78.694 254.736C77.4781 256.265 75.8426 257.03 73.7874 257.03C73.2341 257.03 72.6738 256.975 72.1066 256.866C71.5416 256.757 70.9534 256.593 70.342 256.375ZM74.722 249.479C75.71 249.479 76.4923 249.142 77.0689 248.468C77.6478 247.792 77.9372 246.864 77.9372 245.686C77.9372 244.517 77.6478 243.593 77.0689 242.914C76.4923 242.236 75.71 241.897 74.722 241.897C73.7339 241.897 72.9516 242.236 72.3751 242.914C71.7985 243.593 71.5102 244.517 71.5102 245.686C71.5102 246.864 71.7985 247.792 72.3751 248.468C72.9516 249.142 73.7339 249.479 74.722 249.479Z" fill="black"/>
<path d="M97.7125 193.984H89.9011Z" fill="black"/>
<path d="M97.7125 193.984H89.9011" stroke="black" stroke-width="0.8"/>
<path d="M50.8789 200.609H58.5613V202.46H48.2321V200.609C49.0667 199.745 50.2047 198.585 51.6461 197.13C53.0898 195.673 53.9965 194.733 54.3661 194.31C55.0705 193.519 55.5622 192.85 55.8412 192.302C56.1225 191.753 56.2632 191.214 56.2632 190.684C56.2632 189.819 55.9598 189.115 55.353 188.571C54.7462 188.025 53.9558 187.752 52.9817 187.752C52.2912 187.752 51.5624 187.872 50.7952 188.111C50.0303 188.351 49.212 188.714 48.3402 189.202V186.978C49.2259 186.623 50.0536 186.354 50.8231 186.173C51.5949 185.992 52.3005 185.901 52.9398 185.901C54.6253 185.901 55.9691 186.323 56.9711 187.166C57.9731 188.008 58.4741 189.133 58.4741 190.541C58.4741 191.21 58.3485 191.845 58.0975 192.444C57.8487 193.042 57.393 193.747 56.7305 194.561C56.5491 194.772 55.9714 195.381 54.9973 196.387C54.0255 197.394 52.6527 198.801 50.8789 200.609Z" fill="black"/>
<path d="M63.1814 199.692H65.483V202.46H63.1814V199.692Z" fill="black"/>
<path d="M74.9836 187.644C73.8514 187.644 72.9993 188.202 72.4274 189.317C71.8578 190.431 71.573 192.106 71.573 194.344C71.573 196.573 71.8578 198.245 72.4274 199.361C72.9993 200.477 73.8514 201.034 74.9836 201.034C76.125 201.034 76.9806 200.477 77.5502 199.361C78.1221 198.245 78.408 196.573 78.408 194.344C78.408 192.106 78.1221 190.431 77.5502 189.317C76.9806 188.202 76.125 187.644 74.9836 187.644ZM74.9836 185.901C76.8085 185.901 78.2023 186.623 79.1648 188.066C80.1272 189.507 80.6085 191.6 80.6085 194.344C80.6085 197.082 80.1272 199.173 79.1648 200.616C78.2023 202.057 76.8085 202.778 74.9836 202.778C73.1609 202.778 71.7683 202.057 70.8058 200.616C69.8434 199.173 69.3621 197.082 69.3621 194.344C69.3621 191.6 69.8434 189.507 70.8058 188.066C71.7683 186.623 73.1609 185.901 74.9836 185.901Z" fill="black"/>
<path d="M97.7125 139.731H89.9011Z" fill="black"/>
<path d="M97.7125 139.731H89.9011" stroke="black" stroke-width="0.8"/>
<path d="M50.8789 146.357H58.5613V148.208H48.2321V146.357C49.0667 145.492 50.2047 144.332 51.6461 142.877C53.0898 141.42 53.9965 140.48 54.3661 140.057C55.0705 139.267 55.5622 138.598 55.8412 138.049C56.1225 137.501 56.2632 136.961 56.2632 136.431C56.2632 135.567 55.9598 134.863 55.353 134.319C54.7462 133.773 53.9558 133.5 52.9817 133.5C52.2912 133.5 51.5624 133.619 50.7952 133.859C50.0303 134.098 49.212 134.462 48.3402 134.95V132.726C49.2259 132.37 50.0536 132.102 50.8231 131.92C51.5949 131.739 52.3005 131.648 52.9398 131.648C54.6253 131.648 55.9691 132.07 56.9711 132.914C57.9731 133.755 58.4741 134.88 58.4741 136.289C58.4741 136.958 58.3485 137.592 58.0975 138.192C57.8487 138.789 57.393 139.495 56.7305 140.308C56.5491 140.52 55.9714 141.128 54.9973 142.135C54.0255 143.141 52.6527 144.548 50.8789 146.357Z" fill="black"/>
<path d="M63.1814 145.44H65.483V148.208H63.1814V145.44Z" fill="black"/>
<path d="M70.6594 146.357H74.2547V133.946L70.342 134.73V132.726L74.2338 131.941H76.4343V146.357H80.0296V148.208H70.6594V146.357Z" fill="black"/>
<path d="M97.7125 85.4786H89.9011Z" fill="black"/>
<path d="M97.7125 85.4786H89.9011" stroke="black" stroke-width="0.8"/>
<path d="M50.8789 92.1041H58.5613V93.9552H48.2321V92.1041C49.0667 91.2395 50.2047 90.0798 51.6461 88.6249C53.0898 87.1677 53.9965 86.2276 54.3661 85.8046C55.0705 85.0144 55.5622 84.345 55.8412 83.7965C56.1225 83.248 56.2632 82.7088 56.2632 82.1789C56.2632 81.3144 55.9598 80.6102 55.353 80.0663C54.7462 79.5202 53.9558 79.2471 52.9817 79.2471C52.2912 79.2471 51.5624 79.3668 50.7952 79.6061C50.0303 79.8455 49.212 80.2093 48.3402 80.6973V78.4731C49.2259 78.1175 50.0536 77.8491 50.8231 77.6678C51.5949 77.4865 52.3005 77.3959 52.9398 77.3959C54.6253 77.3959 55.9691 77.8177 56.9711 78.6614C57.9731 79.5027 58.4741 80.6276 58.4741 82.036C58.4741 82.7054 58.3485 83.3398 58.0975 83.9395C57.8487 84.5368 57.393 85.2421 56.7305 86.0556C56.5491 86.2671 55.9714 86.876 54.9973 87.8823C54.0255 88.8887 52.6527 90.2959 50.8789 92.1041Z" fill="black"/>
<path d="M63.1814 91.1872H65.483V93.9552H63.1814V91.1872Z" fill="black"/>
<path d="M72.1728 92.1041H79.8552V93.9552H69.526V92.1041C70.3606 91.2395 71.4986 90.0798 72.94 88.6249C74.3837 87.1677 75.2904 86.2276 75.6601 85.8046C76.3645 85.0144 76.8562 84.345 77.1352 83.7965C77.4165 83.248 77.5571 82.7088 77.5571 82.1789C77.5571 81.3144 77.2537 80.6102 76.6469 80.0663C76.0402 79.5202 75.2497 79.2471 74.2756 79.2471C73.5852 79.2471 72.8563 79.3668 72.0891 79.6061C71.3243 79.8455 70.5059 80.2093 69.6341 80.6973V78.4731C70.5199 78.1175 71.3475 77.8491 72.117 77.6678C72.8889 77.4865 73.5944 77.3959 74.2338 77.3959C75.9193 77.3959 77.263 77.8177 78.265 78.6614C79.267 79.5027 79.768 80.6276 79.768 82.036C79.768 82.7054 79.6425 83.3398 79.3914 83.9395C79.1427 84.5368 78.687 85.2421 78.0244 86.0556C77.8431 86.2671 77.2654 86.876 76.2913 87.8823C75.3195 88.8887 73.9467 90.2959 72.1728 92.1041Z" fill="black"/>
<path d="M97.7125 31.2261H89.9011Z" fill="black"/>
<path d="M97.7125 31.2261H89.9011" stroke="black" stroke-width="0.8"/>
<path d="M50.8789 37.8516H58.5613V39.7027H48.2321V37.8516C49.0667 36.987 50.2047 35.8273 51.6461 34.3724C53.0898 32.9151 53.9965 31.975 54.3661 31.552C55.0705 30.7618 55.5622 30.0925 55.8412 29.544C56.1225 28.9955 56.2632 28.4563 56.2632 27.9264C56.2632 27.0619 55.9598 26.3576 55.353 25.8138C54.7462 25.2676 53.9558 24.9945 52.9817 24.9945C52.2912 24.9945 51.5624 25.1142 50.7952 25.3536C50.0303 25.593 49.212 25.9567 48.3402 26.4448V24.2206C49.2259 23.865 50.0536 23.5966 50.8231 23.4153C51.5949 23.234 52.3005 23.1434 52.9398 23.1434C54.6253 23.1434 55.9691 23.5652 56.9711 24.4089C57.9731 25.2502 58.4741 26.3751 58.4741 27.7835C58.4741 28.4528 58.3485 29.0873 58.0975 29.6869C57.8487 30.2842 57.393 30.9896 56.7305 31.8031C56.5491 32.0145 55.9714 32.6235 54.9973 33.6298C54.0255 34.6362 52.6527 36.0434 50.8789 37.8516Z" fill="black"/>
<path d="M63.1814 36.9347H65.483V39.7027H63.1814V36.9347Z" fill="black"/>
<path d="M76.9469 30.9315C78 31.157 78.8219 31.6264 79.4124 32.3399C80.0052 33.0511 80.3016 33.9296 80.3016 34.9755C80.3016 36.5791 79.7495 37.8214 78.6452 38.7022C77.5409 39.5807 75.9716 40.02 73.9374 40.02C73.2562 40.02 72.5541 39.9526 71.8311 39.8178C71.1081 39.683 70.3618 39.4808 69.5923 39.2112V37.0881C70.2014 37.4437 70.8686 37.7121 71.594 37.8934C72.3216 38.0747 73.0819 38.1653 73.8746 38.1653C75.2532 38.1653 76.3041 37.8934 77.0271 37.3496C77.7501 36.8057 78.1116 36.0144 78.1116 34.9755C78.1116 34.0156 77.7757 33.2661 77.1038 32.7269C76.4319 32.1854 75.4973 31.9146 74.3001 31.9146H72.403V30.1053H74.3872C75.4683 30.1053 76.2959 29.8891 76.8702 29.4569C77.4444 29.0246 77.7315 28.4017 77.7315 27.5883C77.7315 26.7539 77.4351 26.1136 76.8423 25.6674C76.2518 25.2188 75.4044 24.9946 74.3001 24.9946C73.6956 24.9946 73.0481 25.0608 72.3577 25.1933C71.6672 25.3234 70.9081 25.5256 70.0805 25.7999V23.8406C70.9174 23.6082 71.7009 23.4339 72.4309 23.3177C73.1609 23.2015 73.849 23.1434 74.4953 23.1434C76.1669 23.1434 77.4886 23.5234 78.4603 24.2834C79.4344 25.041 79.9215 26.066 79.9215 27.3582C79.9215 28.2599 79.6634 29.0211 79.1473 29.6416C78.6312 30.2622 77.8977 30.6921 76.9469 30.9315Z" fill="black"/>
<path d="M18.0116 274.877H20.3306C19.6401 275.619 19.1252 276.409 18.7857 277.248C18.444 278.087 18.2731 278.978 18.2731 279.922C18.2731 281.781 18.8415 283.205 19.9784 284.192C21.1152 285.18 22.7589 285.674 24.9093 285.674C27.0528 285.674 28.693 285.18 29.8298 284.192C30.9667 283.205 31.5351 281.781 31.5351 279.922C31.5351 278.978 31.3642 278.087 31.0225 277.248C30.6807 276.409 30.1646 275.619 29.4741 274.877H31.7757C32.2988 275.647 32.6917 276.462 32.9544 277.325C33.2148 278.185 33.345 279.093 33.345 280.051C33.345 282.514 32.5917 284.455 31.0852 285.873C29.5764 287.288 27.5178 287.996 24.9093 287.996C22.2939 287.996 20.2329 287.288 18.7265 285.873C17.2176 284.455 16.4632 282.514 16.4632 280.051C16.4632 279.079 16.5923 278.164 16.8503 277.304C17.1084 276.442 17.4955 275.633 18.0116 274.877Z" fill="black"/>
<path d="M22.2276 266.839C22.2276 267.913 22.6473 268.762 23.4865 269.388C24.3258 270.013 25.4754 270.325 26.9354 270.325C28.3954 270.325 29.545 270.015 30.3843 269.394C31.2236 268.772 31.6432 267.92 31.6432 266.839C31.6432 265.77 31.2224 264.924 30.3808 264.301C29.5369 263.676 28.3884 263.363 26.9354 263.363C25.4894 263.363 24.3432 263.676 23.497 264.301C22.6508 264.924 22.2276 265.77 22.2276 266.839ZM20.5294 266.839C20.5294 265.096 21.0966 263.727 22.2311 262.732C23.3633 261.735 24.9314 261.237 26.9354 261.237C28.9324 261.237 30.5005 261.735 31.6397 262.732C32.7766 263.727 33.345 265.096 33.345 266.839C33.345 268.589 32.7766 269.96 31.6397 270.953C30.5005 271.943 28.9324 272.438 26.9354 272.438C24.9314 272.438 23.3633 271.943 22.2311 270.953C21.0966 269.96 20.5294 268.589 20.5294 266.839Z" fill="black"/>
<path d="M21.1815 250.138H23.0785C22.7879 250.703 22.5706 251.291 22.4264 251.902C22.28 252.511 22.2067 253.143 22.2067 253.799C22.2067 254.793 22.359 255.539 22.6635 256.037C22.9681 256.534 23.4261 256.783 24.0375 256.783C24.5025 256.783 24.8675 256.605 25.1325 256.249C25.3975 255.894 25.6498 255.178 25.8892 254.102L26.0427 253.415C26.3472 251.993 26.7773 250.982 27.333 250.382C27.8886 249.783 28.6639 249.483 29.659 249.483C30.7935 249.483 31.692 249.931 32.3546 250.828C33.0148 251.726 33.345 252.958 33.345 254.527C33.345 255.18 33.281 255.861 33.1532 256.57C33.0253 257.279 32.8347 258.025 32.5813 258.808H30.5098C30.8958 258.067 31.1852 257.337 31.3782 256.619C31.5688 255.901 31.6641 255.188 31.6641 254.482C31.6641 253.538 31.5025 252.813 31.1794 252.307C30.8562 251.798 30.4006 251.543 29.8124 251.543C29.2684 251.543 28.8511 251.727 28.5605 252.094C28.2699 252.459 27.9897 253.263 27.72 254.506L27.5561 255.204C27.2958 256.445 26.8947 257.342 26.3531 257.895C25.8114 258.446 25.0686 258.721 24.1247 258.721C22.9762 258.721 22.0905 258.314 21.4674 257.501C20.842 256.688 20.5294 255.532 20.5294 254.036C20.5294 253.297 20.584 252.601 20.6933 251.947C20.8002 251.292 20.9629 250.689 21.1815 250.138Z" fill="black"/>
<path d="M17.356 244.308H20.8223V240.18H22.3811V244.308H29.0069C30.0019 244.308 30.6412 244.172 30.9248 243.9C31.2085 243.628 31.3503 243.074 31.3503 242.237V240.18H33.0276V242.237C33.0276 243.785 32.7394 244.853 32.1628 245.441C31.5839 246.029 30.5319 246.323 29.0069 246.323H22.3811V247.794H20.8223V246.323H17.356V244.308Z" fill="black"/>
<path d="M21.1815 229.766H23.0785C22.7879 230.331 22.5706 230.919 22.4264 231.53C22.28 232.139 22.2067 232.771 22.2067 233.426C22.2067 234.421 22.359 235.167 22.6635 235.664C22.9681 236.162 23.4261 236.41 24.0375 236.41C24.5025 236.41 24.8675 236.233 25.1325 235.877C25.3975 235.521 25.6498 234.806 25.8892 233.73L26.0427 233.043C26.3472 231.62 26.7773 230.609 27.333 230.01C27.8886 229.41 28.6639 229.11 29.659 229.11C30.7935 229.11 31.692 229.559 32.3546 230.456C33.0148 231.353 33.345 232.586 33.345 234.155C33.345 234.808 33.281 235.489 33.1532 236.198C33.0253 236.907 32.8347 237.653 32.5813 238.436H30.5098C30.8958 237.695 31.1852 236.965 31.3782 236.247C31.5688 235.528 31.6641 234.816 31.6641 234.11C31.6641 233.166 31.5025 232.441 31.1794 231.934C30.8562 231.425 30.4006 231.171 29.8124 231.171C29.2684 231.171 28.8511 231.354 28.5605 231.722C28.2699 232.086 27.9897 232.891 27.72 234.134L27.5561 234.831C27.2958 236.072 26.8947 236.969 26.3531 237.523C25.8114 238.073 25.0686 238.349 24.1247 238.349C22.9762 238.349 22.0905 237.942 21.4674 237.129C20.842 236.315 20.5294 235.16 20.5294 233.663C20.5294 232.924 20.584 232.228 20.6933 231.575C20.8002 230.92 20.9629 230.317 21.1815 229.766Z" fill="black"/>
<path d="M131.677 38.1162L135.09 65.7535L138.504 129.989L141.917 127.304L145.331 152.795L148.745 175.303L152.158 174.492L155.572 177.164L158.985 209.659L162.399 221.542L165.812 225.607L169.226 231.405L172.639 242.631L176.053 239.783L179.466 249.542L182.88 252.915L186.293 263.902L189.707 274.044L193.12 298.076L196.534 306.33L199.947 324.598L203.361 325.734L206.774 334.373L210.188 340.756L213.601 345.667L217.015 357.405L220.428 365.833L223.842 359.773L227.255 367.011L230.669 375.647L234.082 377.676L237.496 374.547L240.909 379.676L244.323 383.229L247.736 384.585L251.15 384.734L254.563 394.595L257.977 399.751L261.39 406.271L268.218 412.475L271.631 412.565L275.045 416.91L278.458 417.904L281.872 414.711L285.285 432.934L288.699 436.937L292.112 446.875L295.526 449.207L298.939 450.024L302.353 451.95L305.766 455.136L309.18 461.3L312.593 462.826L316.007 470.067L319.42 469.682L322.834 473.52L326.247 474.468L329.661 474.76L333.074 475.469L336.488 475.098L339.901 475.907L343.315 476.239L346.728 475.808L353.555 476.081L356.969 477.06L360.382 476.181L363.796 476.42L367.209 477.068L370.623 477.191L374.036 476.425L377.45 477.62L387.691 477.447L391.104 476.543L394.518 477.924L397.931 477.39L411.585 477.473L414.999 477.282L418.412 477.828L421.826 478.001L425.239 477.889L428.653 477.183L432.066 477.733L435.48 477.982L438.893 478.526L442.307 478.221L445.72 478.204L449.134 477.606L452.547 477.762L455.961 478.247L459.374 478.152L466.201 477.338L469.615 478.17L473.028 477.713L479.855 477.967L483.269 477.801L486.682 470.436L490.096 477.271L493.509 477.366L496.923 478.513L500.336 477.183L503.75 477.521L507.163 478.723L510.577 477.337L513.991 471.738L517.404 478.178L520.818 477.893L527.645 478.601L534.472 477.827L541.299 478.686L548.126 478.225L551.539 478.315L554.953 477.708L558.366 478.414L561.78 478.401L565.193 478.971L568.607 478.933L572.02 478.381L575.434 478.187L578.847 478.436L582.261 479.092L585.674 478.599L589.088 478.793L592.501 477.674L599.328 478.955L606.155 478.62L609.569 479.128L612.982 478.358L616.396 478.945L619.809 477.86L623.223 478.43L626.637 478.453L630.05 478.037L633.464 478.458L636.877 477.897L640.291 478.714L643.704 478.008L647.118 478.882L650.531 478.833L653.945 478.402L657.358 477.713L660.772 478.449L664.185 477.984L667.599 479.056L671.012 478.69L674.426 479.11L677.839 478.376L688.08 478.433L691.493 477.838L694.907 478.166L698.32 477.731L701.734 477.757L705.147 479.034L708.561 477.481L711.974 478.938L715.388 478.177L722.215 478.62L725.628 477.989L729.042 478.631L732.455 478.283L735.869 478.746L739.282 478.065L742.696 478.857L752.937 478.935L759.764 479.154L763.177 478.822L766.591 477.896L770.004 478.337L773.418 477.879L776.831 478.558L783.658 478.273L787.072 478.739L793.899 477.435L797.312 478.744L800.726 478.642L804.139 478.977L810.966 478.356" stroke="#1F77B4" stroke-width="1.5" stroke-linecap="square"/>
<path d="M131.677 60.3547L135.09 116.113L138.504 95.1957L141.917 187.385L145.331 213.866L148.745 166.802L152.158 198.723L155.572 237.44L158.985 191.914L162.399 258.826L165.812 244.297L169.226 295.931L172.639 274.488L176.053 282.087L179.466 310.972L182.88 298.261L186.293 321.492L189.707 292.824L193.12 305.462L196.534 324.635L199.947 353.744L203.361 343.272L206.774 357.028L210.188 301.611L213.601 353.474L217.015 335.976L220.428 334.782L223.842 360.759L227.255 336.924L230.669 344.448L234.082 305.363L237.496 332.547L240.909 309.632L244.323 304.465L247.736 334.156L251.15 317.523L254.563 340.268L261.39 325.756L264.804 338.075L268.218 321.631L271.631 336.895L275.045 321.449L278.458 322.653L281.872 340.908L285.285 352.173L288.699 359.246L292.112 344.2L295.526 349.897L298.939 357.356L302.353 342.939L305.766 349.547L309.18 371.169L312.593 367.107L316.007 360.715L319.42 350.965L322.834 358.054L326.247 370.577L329.661 352.534L333.074 352.698L336.488 365.004L339.901 364.657L343.315 366.049L346.728 365.476L350.142 363.914L353.555 350.01L356.969 352.656L360.382 368.896L363.796 367.851L367.209 369.573L370.623 353.971L374.036 355.3L377.45 363.643L380.863 365.275L384.277 366.521L387.691 366.318L391.104 364.742L397.931 369.239L401.345 365.101L404.758 366.768L408.172 367.764L411.585 353.231L414.999 366.617L418.412 366.226L421.826 352.865L425.239 363.447L428.653 350.385L432.066 367.474L435.48 365.826L438.893 366.156L445.72 351.916L449.134 351.619L452.547 339.038L455.961 364.416L459.374 363.509L462.788 351.003L466.201 353.506L469.615 366.244L473.028 364.722L476.442 353.155L479.855 364.034L483.269 364.591L486.682 365.93L490.096 349.813L493.509 367.081L496.923 363.928L500.336 350.945L503.75 366.239L507.163 364.46L510.577 353.299L513.991 366.043L517.404 365.631L520.818 367.662L524.231 352.794L527.645 352.297L531.058 364.128L534.472 363.364L537.885 339.121L541.299 367.507L544.712 367.497L548.126 365.525L551.539 367.843L554.953 365.292L558.366 366.208L561.78 352.825L565.193 367.638L568.607 352.347L572.02 333.3L575.434 345.808L578.847 366.292L582.261 367.299L585.674 365.049L589.088 365.363L592.501 361.106L599.328 365.703L602.742 364.845L606.155 366.547L609.569 364.5L612.982 363.991L616.396 351.624L619.809 364.263L623.223 366.227L626.637 350.663L630.05 366.444L633.464 350.801L636.877 366.833L640.291 351.594L643.704 364.563L647.118 368.322L650.531 363.523L653.945 350.468L657.358 364.595L660.772 364.538L664.185 350.052L667.599 338.906L671.012 349.921L674.426 368.103L677.839 350.451L681.253 364.4L684.666 367.602L688.08 365.721L691.493 367.092L694.907 361.464L698.32 363.913L701.734 364.051L705.147 363.484L708.561 350.461L711.974 367.827L715.388 366.816L718.801 364.369L722.215 359.2L725.628 365.038L729.042 365.806L732.455 351.147L735.869 366.508L739.282 351.042L742.696 364.872L746.11 346.916L749.523 365.749L752.937 365.802L756.35 366.371L759.764 364.516L763.177 365.267L766.591 365.525L770.004 366.593L773.418 363.261L776.831 365.969L780.245 361.743L783.658 363.538L787.072 365.647L790.485 350.889L793.899 367.81L797.312 349.225L800.726 347.491L804.139 352.188L807.553 364.484L810.966 351.803" stroke="#FF7F0E" stroke-width="1.5" stroke-linecap="square"/>
<path d="M97.7125 501.206V16.0643" stroke="black" stroke-width="0.8" stroke-linecap="square"/>
<path d="M844.931 501.206V16.0643" stroke="black" stroke-width="0.8" stroke-linecap="square"/>
<path d="M97.7125 501.206H844.931" stroke="black" stroke-width="0.8" stroke-linecap="square"/>
<path d="M97.7125 16.0643H844.931" stroke="black" stroke-width="0.8" stroke-linecap="square"/>
<path opacity="0.8" d="M647.679 99.4118H829.308C832.284 99.4118 833.772 97.9244 833.772 94.9495V31.6824C833.772 28.7075 832.284 27.2201 829.308 27.2201H647.679C644.703 27.2201 643.215 28.7075 643.215 31.6824V94.9495C643.215 97.9244 644.703 99.4118 647.679 99.4118Z" fill="white" stroke="#CCCCCC"/>
<path d="M652.142 45.2889H674.461H696.779" stroke="#1F77B4" stroke-width="1.5" stroke-linecap="square"/>
<path d="M714.567 36.8315H728.331V38.6861H722.557V53.098H720.346V38.6861H714.567V36.8315Z" fill="black"/>
<path d="M734.149 42.7684C733.924 42.6383 733.679 42.543 733.414 42.4826C733.149 42.4198 732.857 42.3884 732.538 42.3884C731.404 42.3884 730.533 42.7568 729.926 43.4935C729.32 44.2303 729.016 45.2889 729.016 46.6695V53.098H727.001V40.8963H729.016V42.7928C729.439 42.0514 729.988 41.5018 730.662 41.1439C731.339 40.7836 732.161 40.6035 733.128 40.6035C733.265 40.6035 733.417 40.6128 733.585 40.6314C733.752 40.6477 733.937 40.6744 734.139 40.7116L734.149 42.7684Z" fill="black"/>
<path d="M741.801 46.9658C740.181 46.9658 739.058 47.1505 738.433 47.5201C737.807 47.8896 737.495 48.5218 737.495 49.4166C737.495 50.1277 737.729 50.6925 738.199 51.1108C738.669 51.5269 739.306 51.7349 740.11 51.7349C741.224 51.7349 742.116 51.3409 742.788 50.5531C743.46 49.7652 743.796 48.7182 743.796 47.412V46.9658H741.801ZM745.801 46.1361V53.098H743.796V51.2468C743.338 51.9859 742.767 52.532 742.084 52.8853C741.4 53.2386 740.564 53.4152 739.576 53.4152C738.328 53.4152 737.334 53.0643 736.595 52.3624C735.858 51.6605 735.489 50.7216 735.489 49.5456C735.489 48.1743 735.949 47.1401 736.867 46.4429C737.787 45.7456 739.159 45.397 740.982 45.397H743.796V45.1983C743.796 44.2756 743.493 43.5621 742.886 43.0578C742.279 42.5534 741.427 42.3013 740.33 42.3013C739.632 42.3013 738.952 42.3849 738.29 42.5523C737.629 42.7196 736.995 42.9706 736.386 43.3053V41.4506C737.118 41.1671 737.829 40.9556 738.52 40.8162C739.21 40.6744 739.882 40.6035 740.535 40.6035C742.302 40.6035 743.622 41.0614 744.493 41.9771C745.365 42.8904 745.801 44.2768 745.801 46.1361Z" fill="black"/>
<path d="M749.93 40.8963H751.935V53.098H749.93V40.8963ZM749.93 36.1447H751.935V38.6861H749.93V36.1447Z" fill="black"/>
<path d="M766.278 45.7317V53.098H764.273V45.7979C764.273 44.6428 764.048 43.7794 763.597 43.2077C763.146 42.6336 762.47 42.3466 761.571 42.3466C760.487 42.3466 759.633 42.6917 759.007 43.382C758.382 44.0699 758.069 45.01 758.069 46.2023V53.098H756.054V40.8963H758.069V42.7928C758.551 42.0584 759.116 41.5099 759.764 41.1473C760.415 40.7848 761.166 40.6035 762.017 40.6035C763.419 40.6035 764.479 41.037 765.197 41.9038C765.918 42.7707 766.278 44.0467 766.278 45.7317Z" fill="black"/>
<path d="M652.142 78.0381H674.461H696.779" stroke="#FF7F0E" stroke-width="1.5" stroke-linecap="square"/>
<path d="M721.019 85.8471L714.808 69.5806H717.106L722.264 83.2743L727.428 69.5806H729.716L723.516 85.8471H721.019Z" fill="black"/>
<path d="M735.823 79.7149C734.202 79.7149 733.079 79.8997 732.454 80.2692C731.828 80.6387 731.516 81.2709 731.516 82.1657C731.516 82.8769 731.751 83.4416 732.22 83.86C732.69 84.276 733.327 84.484 734.131 84.484C735.245 84.484 736.138 84.0901 736.809 83.3022C737.481 82.5143 737.817 81.4673 737.817 80.1611V79.7149H735.823ZM739.822 78.8852V85.8471H737.817V83.9959C737.359 84.735 736.788 85.2812 736.105 85.6344C735.421 85.9877 734.586 86.1643 733.598 86.1643C732.349 86.1643 731.355 85.8134 730.616 85.1115C729.879 84.4096 729.511 83.4707 729.511 82.2947C729.511 80.9235 729.97 79.8892 730.888 79.192C731.809 78.4947 733.18 78.1461 735.003 78.1461H737.817V77.9474C737.817 77.0247 737.514 76.3112 736.907 75.8069C736.3 75.3026 735.448 75.0504 734.351 75.0504C733.653 75.0504 732.973 75.1341 732.311 75.3014C731.651 75.4687 731.016 75.7198 730.407 76.0544V74.1998C731.139 73.9162 731.851 73.7047 732.541 73.5653C733.232 73.4235 733.903 73.3526 734.557 73.3526C736.324 73.3526 737.643 73.8105 738.515 74.7262C739.386 75.6396 739.822 77.0259 739.822 78.8852Z" fill="black"/>
<path d="M743.951 68.8938H745.956V85.8471H743.951V68.8938Z" fill="black"/>
<path d="M750.152 73.6455H752.157V85.8471H750.152V73.6455ZM750.152 68.8938H752.157V71.4352H750.152V68.8938Z" fill="black"/>
<path d="M764.384 75.4966V68.8938H766.389V85.8471H764.384V84.0169C763.963 84.742 763.43 85.2812 762.786 85.6344C762.145 85.9877 761.373 86.1643 760.471 86.1643C758.997 86.1643 757.796 85.5763 756.869 84.4003C755.943 83.222 755.481 81.6741 755.481 79.7567C755.481 77.8393 755.943 76.2926 756.869 75.1166C757.796 73.9406 758.997 73.3526 760.471 73.3526C761.373 73.3526 762.145 73.5293 762.786 73.8825C763.43 74.2335 763.963 74.7715 764.384 75.4966ZM757.552 79.7567C757.552 81.2302 757.855 82.3865 758.462 83.2255C759.069 84.0645 759.902 84.484 760.963 84.484C762.023 84.484 762.857 84.0645 763.466 83.2255C764.078 82.3865 764.384 81.2302 764.384 79.7567C764.384 78.2833 764.078 77.127 763.466 76.288C762.857 75.449 762.023 75.0295 760.963 75.0295C759.902 75.0295 759.069 75.449 758.462 76.288C757.855 77.127 757.552 78.2833 757.552 79.7567Z" fill="black"/>
<path d="M776.068 79.7149C774.447 79.7149 773.324 79.8997 772.699 80.2692C772.073 80.6387 771.761 81.2709 771.761 82.1657C771.761 82.8769 771.996 83.4416 772.465 83.86C772.935 84.276 773.572 84.484 774.376 84.484C775.49 84.484 776.383 84.0901 777.054 83.3022C777.726 82.5143 778.062 81.4673 778.062 80.1611V79.7149H776.068ZM780.067 78.8852V85.8471H778.062V83.9959C777.604 84.735 777.033 85.2812 776.35 85.6344C775.666 85.9877 774.831 86.1643 773.843 86.1643C772.594 86.1643 771.6 85.8134 770.861 85.1115C770.124 84.4096 769.756 83.4707 769.756 82.2947C769.756 80.9235 770.215 79.8892 771.133 79.192C772.054 78.4947 773.425 78.1461 775.248 78.1461H778.062V77.9474C778.062 77.0247 777.759 76.3112 777.152 75.8069C776.545 75.3026 775.693 75.0504 774.596 75.0504C773.898 75.0504 773.218 75.1341 772.556 75.3014C771.896 75.4687 771.261 75.7198 770.652 76.0544V74.1998C771.384 73.9162 772.096 73.7047 772.786 73.5653C773.477 73.4235 774.148 73.3526 774.802 73.3526C776.569 73.3526 777.888 73.8105 778.76 74.7262C779.631 75.6396 780.067 77.0259 780.067 78.8852Z" fill="black"/>
<path d="M786.18 70.1802V73.6455H790.309V75.2038H786.18V81.8275C786.18 82.8223 786.316 83.4614 786.588 83.7449C786.86 84.0285 787.415 84.1702 788.252 84.1702H790.309V85.8471H788.252C786.703 85.8471 785.635 85.5589 785.047 84.9825C784.459 84.4038 784.164 83.3522 784.164 81.8275V75.2038H782.693V73.6455H784.164V70.1802H786.18Z" fill="black"/>
<path d="M792.947 73.6455H794.952V85.8471H792.947V73.6455ZM792.947 68.8938H794.952V71.4352H792.947V68.8938Z" fill="black"/>
<path d="M803.876 75.0504C802.802 75.0504 801.952 75.4699 801.327 76.3089C800.701 77.1479 800.389 78.2972 800.389 79.7567C800.389 81.2163 800.699 82.3656 801.32 83.2046C801.943 84.0436 802.795 84.4631 803.876 84.4631C804.945 84.4631 805.792 84.0424 806.415 83.2011C807.04 82.3574 807.353 81.2093 807.353 79.7567C807.353 78.3111 807.04 77.1654 806.415 76.3194C805.792 75.4734 804.945 75.0504 803.876 75.0504ZM803.876 73.3526C805.62 73.3526 806.989 73.9197 807.984 75.0539C808.981 76.1857 809.48 77.7534 809.48 79.7567C809.48 81.7532 808.981 83.3208 807.984 84.4596C806.989 85.5961 805.62 86.1643 803.876 86.1643C802.125 86.1643 800.754 85.5961 799.761 84.4596C798.771 83.3208 798.276 81.7532 798.276 79.7567C798.276 77.7534 798.771 76.1857 799.761 75.0539C800.754 73.9197 802.125 73.3526 803.876 73.3526Z" fill="black"/>
<path d="M822.95 78.4808V85.8471H820.945V78.547C820.945 77.392 820.719 76.5285 820.268 75.9568C819.817 75.3828 819.142 75.0957 818.242 75.0957C817.159 75.0957 816.304 75.4409 815.679 76.1311C815.054 76.8191 814.741 77.7592 814.741 78.9514V85.8471H812.725V73.6455H814.741V75.542C815.222 74.8075 815.787 74.259 816.436 73.8965C817.087 73.5339 817.838 73.3526 818.689 73.3526C820.09 73.3526 821.151 73.7861 821.869 74.653C822.59 75.5199 822.95 76.7958 822.95 78.4808Z" fill="black"/>
<path opacity="0.7" d="M121 59.5C121 67.5 140 472.5 285.5 473.5C401.9 474.3 683.667 473.833 810 473.5" stroke="#81B3D5" stroke-width="9" stroke-linecap="round"/>
<path opacity="0.7" d="M133.5 64C134.5 73 189 378.5 217 365C245 351.5 233.5 303 246 316.5C258.5 330 237 365 378 365C490.8 365 708.667 359.667 803.5 357" stroke="#FF7F0E" stroke-width="9" stroke-linecap="round"/>
<path d="M215 59L215 479" stroke="#FF2D2D" stroke-width="9" stroke-linecap="round"/>
<path d="M189.344 30.6364H191.958V38.6655C191.958 39.567 191.743 40.3558 191.312 41.032C190.886 41.7081 190.288 42.2353 189.519 42.6136C188.75 42.9879 187.855 43.1751 186.833 43.1751C185.806 43.1751 184.909 42.9879 184.14 42.6136C183.372 42.2353 182.774 41.7081 182.347 41.032C181.921 40.3558 181.707 39.567 181.707 38.6655V30.6364H184.321V38.4421C184.321 38.913 184.424 39.3316 184.629 39.6978C184.839 40.064 185.132 40.3518 185.511 40.5611C185.889 40.7704 186.33 40.875 186.833 40.875C187.34 40.875 187.781 40.7704 188.155 40.5611C188.533 40.3518 188.825 40.064 189.03 39.6978C189.239 39.3316 189.344 38.913 189.344 38.4421V30.6364ZM196.632 37.6392V43H194.06V33.7273H196.511V35.3633H196.62C196.825 34.824 197.169 34.3974 197.652 34.0835C198.135 33.7655 198.721 33.6065 199.409 33.6065C200.053 33.6065 200.615 33.7474 201.093 34.0291C201.572 34.3108 201.945 34.7133 202.21 35.2365C202.476 35.7557 202.609 36.3755 202.609 37.0959V43H200.037V37.5547C200.041 36.9872 199.896 36.5445 199.602 36.2266C199.309 35.9046 198.904 35.7436 198.389 35.7436C198.043 35.7436 197.737 35.8181 197.471 35.967C197.21 36.1159 197.004 36.3332 196.856 36.619C196.711 36.9007 196.636 37.2408 196.632 37.6392ZM208.053 43.1509C207.348 43.1509 206.71 42.9698 206.139 42.6076C205.571 42.2414 205.121 41.7041 204.787 40.9957C204.457 40.2834 204.292 39.41 204.292 38.3757C204.292 37.3132 204.463 36.4298 204.805 35.7255C205.147 35.0172 205.602 34.4879 206.169 34.1378C206.741 33.7836 207.366 33.6065 208.047 33.6065C208.566 33.6065 208.998 33.6951 209.344 33.8722C209.695 34.0452 209.976 34.2625 210.19 34.5241C210.407 34.7817 210.572 35.0353 210.685 35.2848H210.763V30.6364H213.329V43H210.793V41.5149H210.685C210.564 41.7725 210.393 42.0281 210.172 42.2816C209.954 42.5311 209.67 42.7384 209.32 42.9034C208.974 43.0684 208.552 43.1509 208.053 43.1509ZM208.868 41.1044C209.282 41.1044 209.632 40.9917 209.918 40.7663C210.208 40.5369 210.429 40.217 210.582 39.8065C210.739 39.396 210.817 38.915 210.817 38.3636C210.817 37.8123 210.741 37.3333 210.588 36.9268C210.435 36.5204 210.214 36.2064 209.924 35.9851C209.634 35.7637 209.282 35.6531 208.868 35.6531C208.445 35.6531 208.089 35.7678 207.799 35.9972C207.509 36.2266 207.29 36.5445 207.141 36.951C206.992 37.3575 206.918 37.8284 206.918 38.3636C206.918 38.9029 206.992 39.3799 207.141 39.7944C207.294 40.2049 207.513 40.5269 207.799 40.7603C208.089 40.9897 208.445 41.1044 208.868 41.1044ZM219.669 43.1811C218.715 43.1811 217.894 42.9879 217.206 42.6016C216.522 42.2112 215.995 41.6598 215.624 40.9474C215.254 40.2311 215.069 39.3839 215.069 38.4059C215.069 37.4521 215.254 36.6149 215.624 35.8945C215.995 35.1741 216.516 34.6127 217.188 34.2102C217.864 33.8078 218.657 33.6065 219.566 33.6065C220.178 33.6065 220.748 33.7051 221.275 33.9023C221.806 34.0955 222.269 34.3873 222.663 34.7777C223.062 35.1681 223.372 35.6591 223.593 36.2507C223.814 36.8383 223.925 37.5265 223.925 38.3153V39.0217H216.095V37.4279H221.504C221.504 37.0576 221.424 36.7296 221.263 36.4439C221.102 36.1581 220.879 35.9348 220.593 35.7738C220.311 35.6088 219.983 35.5263 219.609 35.5263C219.218 35.5263 218.872 35.6168 218.57 35.7979C218.273 35.975 218.039 36.2145 217.87 36.5163C217.701 36.8142 217.615 37.1462 217.611 37.5124V39.0277C217.611 39.4865 217.695 39.8829 217.864 40.217C218.037 40.551 218.281 40.8086 218.595 40.9897C218.908 41.1708 219.281 41.2614 219.711 41.2614C219.997 41.2614 220.259 41.2211 220.496 41.1406C220.734 41.0601 220.937 40.9394 221.106 40.7784C221.275 40.6174 221.404 40.4202 221.492 40.1868L223.871 40.3438C223.75 40.9152 223.503 41.4143 223.128 41.8409C222.758 42.2635 222.279 42.5935 221.691 42.831C221.108 43.0644 220.434 43.1811 219.669 43.1811ZM225.603 43V33.7273H228.097V35.3452H228.193C228.362 34.7696 228.646 34.335 229.044 34.0412C229.443 33.7434 229.902 33.5945 230.421 33.5945C230.55 33.5945 230.689 33.6025 230.837 33.6186C230.986 33.6347 231.117 33.6568 231.23 33.685V35.967C231.109 35.9308 230.942 35.8986 230.729 35.8704C230.515 35.8422 230.32 35.8281 230.143 35.8281C229.765 35.8281 229.427 35.9106 229.129 36.0756C228.835 36.2366 228.602 36.462 228.429 36.7518C228.26 37.0415 228.175 37.3756 228.175 37.7539V43H225.603ZM238.011 33.7273V35.6591H232.288V33.7273H238.011ZM233.598 43V33.0572C233.598 32.3851 233.729 31.8277 233.99 31.3849C234.256 30.9422 234.618 30.6102 235.077 30.3888C235.536 30.1675 236.057 30.0568 236.64 30.0568C237.035 30.0568 237.395 30.087 237.721 30.1474C238.051 30.2077 238.297 30.2621 238.458 30.3104L237.999 32.2422C237.898 32.21 237.773 32.1798 237.624 32.1516C237.48 32.1235 237.331 32.1094 237.178 32.1094C236.799 32.1094 236.536 32.1979 236.387 32.375C236.238 32.5481 236.164 32.7915 236.164 33.1055V43H233.598ZM239.582 43V33.7273H242.154V43H239.582ZM240.874 32.532C240.492 32.532 240.164 32.4052 239.89 32.1516C239.62 31.8941 239.485 31.5862 239.485 31.228C239.485 30.8738 239.62 30.57 239.89 30.3164C240.164 30.0588 240.492 29.93 240.874 29.93C241.256 29.93 241.582 30.0588 241.852 30.3164C242.126 30.57 242.262 30.8738 242.262 31.228C242.262 31.5862 242.126 31.8941 241.852 32.1516C241.582 32.4052 241.256 32.532 240.874 32.532ZM249.146 33.7273V35.6591H243.562V33.7273H249.146ZM244.83 31.5057H247.401V40.1506C247.401 40.388 247.438 40.5732 247.51 40.706C247.582 40.8348 247.683 40.9253 247.812 40.9776C247.945 41.0299 248.098 41.0561 248.271 41.0561C248.391 41.0561 248.512 41.046 248.633 41.0259C248.754 41.0018 248.846 40.9837 248.911 40.9716L249.315 42.8853C249.186 42.9255 249.005 42.9718 248.772 43.0241C248.538 43.0805 248.254 43.1147 247.92 43.1268C247.301 43.1509 246.757 43.0684 246.29 42.8793C245.828 42.6901 245.467 42.3963 245.21 41.9979C244.952 41.5994 244.826 41.0964 244.83 40.4886V31.5057ZM255.753 33.7273V35.6591H250.169V33.7273H255.753ZM251.437 31.5057H254.009V40.1506C254.009 40.388 254.045 40.5732 254.117 40.706C254.19 40.8348 254.29 40.9253 254.419 40.9776C254.552 41.0299 254.705 41.0561 254.878 41.0561C254.999 41.0561 255.119 41.046 255.24 41.0259C255.361 41.0018 255.454 40.9837 255.518 40.9716L255.922 42.8853C255.794 42.9255 255.613 42.9718 255.379 43.0241C255.146 43.0805 254.862 43.1147 254.528 43.1268C253.908 43.1509 253.365 43.0684 252.898 42.8793C252.435 42.6901 252.075 42.3963 251.817 41.9979C251.56 41.5994 251.433 41.0964 251.437 40.4886V31.5057ZM257.429 43V33.7273H260V43H257.429ZM258.721 32.532C258.338 32.532 258.01 32.4052 257.737 32.1516C257.467 31.8941 257.332 31.5862 257.332 31.228C257.332 30.8738 257.467 30.57 257.737 30.3164C258.01 30.0588 258.338 29.93 258.721 29.93C259.103 29.93 259.429 30.0588 259.699 30.3164C259.972 30.57 260.109 30.8738 260.109 31.228C260.109 31.5862 259.972 31.8941 259.699 32.1516C259.429 32.4052 259.103 32.532 258.721 32.532ZM264.632 37.6392V43H262.06V33.7273H264.511V35.3633H264.62C264.825 34.824 265.169 34.3974 265.652 34.0835C266.135 33.7655 266.721 33.6065 267.409 33.6065C268.053 33.6065 268.615 33.7474 269.093 34.0291C269.572 34.3108 269.945 34.7133 270.21 35.2365C270.476 35.7557 270.609 36.3755 270.609 37.0959V43H268.037V37.5547C268.041 36.9872 267.896 36.5445 267.602 36.2266C267.309 35.9046 266.904 35.7436 266.389 35.7436C266.043 35.7436 265.737 35.8181 265.471 35.967C265.21 36.1159 265.004 36.3332 264.856 36.619C264.711 36.9007 264.636 37.2408 264.632 37.6392ZM276.813 46.6705C275.98 46.6705 275.266 46.5558 274.67 46.3263C274.078 46.101 273.608 45.7931 273.257 45.4027C272.907 45.0123 272.68 44.5736 272.575 44.0866L274.954 43.7667C275.026 43.9518 275.141 44.1249 275.298 44.2859C275.455 44.4469 275.662 44.5756 275.92 44.6722C276.181 44.7728 276.499 44.8232 276.874 44.8232C277.433 44.8232 277.894 44.6863 278.256 44.4126C278.622 44.143 278.805 43.6902 278.805 43.0543V41.358H278.697C278.584 41.6155 278.415 41.859 278.19 42.0884C277.964 42.3178 277.674 42.505 277.32 42.6499C276.966 42.7947 276.544 42.8672 276.053 42.8672C275.356 42.8672 274.722 42.7062 274.151 42.3842C273.583 42.0582 273.131 41.5612 272.793 40.8931C272.459 40.221 272.292 39.3718 272.292 38.3455C272.292 37.2951 272.463 36.4177 272.805 35.7134C273.147 35.0091 273.602 34.4819 274.169 34.1317C274.741 33.7816 275.366 33.6065 276.047 33.6065C276.566 33.6065 277 33.6951 277.35 33.8722C277.701 34.0452 277.982 34.2625 278.196 34.5241C278.413 34.7817 278.58 35.0353 278.697 35.2848H278.793V33.7273H281.347V43.0906C281.347 43.8794 281.154 44.5394 280.767 45.0707C280.381 45.6019 279.846 46.0004 279.162 46.266C278.481 46.5356 277.699 46.6705 276.813 46.6705ZM276.868 40.9354C277.282 40.9354 277.632 40.8327 277.918 40.6275C278.208 40.4182 278.429 40.1204 278.582 39.734C278.739 39.3436 278.817 38.8768 278.817 38.3335C278.817 37.7901 278.741 37.3192 278.588 36.9208C278.435 36.5183 278.214 36.2064 277.924 35.9851C277.634 35.7637 277.282 35.6531 276.868 35.6531C276.445 35.6531 276.089 35.7678 275.799 35.9972C275.509 36.2225 275.29 36.5365 275.141 36.9389C274.992 37.3414 274.918 37.8062 274.918 38.3335C274.918 38.8687 274.992 39.3316 275.141 39.7219C275.294 40.1083 275.513 40.4081 275.799 40.6214C276.089 40.8307 276.445 40.9354 276.868 40.9354Z" fill="black"/>
<path d="M244.481 68.8182C244.481 70.1664 244.225 71.3134 243.714 72.2592C243.207 73.205 242.515 73.9274 241.638 74.4265C240.764 74.9215 239.782 75.169 238.692 75.169C237.593 75.169 236.607 74.9195 235.733 74.4205C234.86 73.9214 234.17 73.199 233.663 72.2532C233.156 71.3074 232.902 70.1624 232.902 68.8182C232.902 67.4699 233.156 66.3229 233.663 65.3771C234.17 64.4313 234.86 63.7109 235.733 63.2159C236.607 62.7169 237.593 62.4673 238.692 62.4673C239.782 62.4673 240.764 62.7169 241.638 63.2159C242.515 63.7109 243.207 64.4313 243.714 65.3771C244.225 66.3229 244.481 67.4699 244.481 68.8182ZM241.831 68.8182C241.831 67.9448 241.7 67.2083 241.438 66.6087C241.181 66.009 240.817 65.5542 240.346 65.2443C239.875 64.9344 239.323 64.7795 238.692 64.7795C238.06 64.7795 237.508 64.9344 237.037 65.2443C236.567 65.5542 236.2 66.009 235.939 66.6087C235.681 67.2083 235.552 67.9448 235.552 68.8182C235.552 69.6915 235.681 70.428 235.939 71.0277C236.2 71.6274 236.567 72.0821 237.037 72.392C237.508 72.7019 238.06 72.8569 238.692 72.8569C239.323 72.8569 239.875 72.7019 240.346 72.392C240.817 72.0821 241.181 71.6274 241.438 71.0277C241.7 70.428 241.831 69.6915 241.831 68.8182ZM255.014 65.7273L251.772 75H248.874L245.633 65.7273H248.349L250.275 72.3619H250.372L252.291 65.7273H255.014ZM260.257 75.1811C259.303 75.1811 258.482 74.9879 257.794 74.6016C257.11 74.2112 256.583 73.6598 256.212 72.9474C255.842 72.2311 255.657 71.3839 255.657 70.4059C255.657 69.4521 255.842 68.6149 256.212 67.8945C256.583 67.1741 257.104 66.6127 257.776 66.2102C258.452 65.8078 259.245 65.6065 260.154 65.6065C260.766 65.6065 261.336 65.7051 261.863 65.9023C262.394 66.0955 262.857 66.3873 263.251 66.7777C263.65 67.1681 263.96 67.6591 264.181 68.2507C264.402 68.8383 264.513 69.5265 264.513 70.3153V71.0217H256.683V69.4279H262.092C262.092 69.0576 262.012 68.7296 261.851 68.4439C261.69 68.1581 261.466 67.9348 261.181 67.7738C260.899 67.6088 260.571 67.5263 260.197 67.5263C259.806 67.5263 259.46 67.6168 259.158 67.7979C258.86 67.975 258.627 68.2145 258.458 68.5163C258.289 68.8142 258.202 69.1462 258.198 69.5124V71.0277C258.198 71.4865 258.283 71.8829 258.452 72.217C258.625 72.551 258.869 72.8086 259.182 72.9897C259.496 73.1708 259.869 73.2614 260.299 73.2614C260.585 73.2614 260.847 73.2211 261.084 73.1406C261.322 73.0601 261.525 72.9394 261.694 72.7784C261.863 72.6174 261.992 72.4202 262.08 72.1868L264.459 72.3438C264.338 72.9152 264.09 73.4143 263.716 73.8409C263.346 74.2635 262.867 74.5935 262.279 74.831C261.696 75.0644 261.022 75.1811 260.257 75.1811ZM266.191 75V65.7273H268.685V67.3452H268.781C268.95 66.7696 269.234 66.335 269.632 66.0412C270.031 65.7434 270.49 65.5945 271.009 65.5945C271.138 65.5945 271.276 65.6025 271.425 65.6186C271.574 65.6347 271.705 65.6568 271.818 65.685V67.967C271.697 67.9308 271.53 67.8986 271.317 67.8704C271.103 67.8422 270.908 67.8281 270.731 67.8281C270.353 67.8281 270.015 67.9106 269.717 68.0756C269.423 68.2366 269.19 68.462 269.017 68.7518C268.848 69.0415 268.763 69.3756 268.763 69.7539V75H266.191ZM278.599 65.7273V67.6591H272.876V65.7273H278.599ZM274.186 75V65.0572C274.186 64.3851 274.317 63.8277 274.578 63.3849C274.844 62.9422 275.206 62.6102 275.665 62.3888C276.124 62.1675 276.645 62.0568 277.228 62.0568C277.623 62.0568 277.983 62.087 278.309 62.1474C278.639 62.2077 278.884 62.2621 279.045 62.3104L278.587 64.2422C278.486 64.21 278.361 64.1798 278.212 64.1516C278.067 64.1235 277.919 64.1094 277.766 64.1094C277.387 64.1094 277.124 64.1979 276.975 64.375C276.826 64.5481 276.751 64.7915 276.751 65.1055V75H274.186ZM280.17 75V65.7273H282.742V75H280.17ZM281.462 64.532C281.079 64.532 280.751 64.4052 280.478 64.1516C280.208 63.8941 280.073 63.5862 280.073 63.228C280.073 62.8738 280.208 62.57 280.478 62.3164C280.751 62.0588 281.079 61.93 281.462 61.93C281.844 61.93 282.17 62.0588 282.44 62.3164C282.713 62.57 282.85 62.8738 282.85 63.228C282.85 63.5862 282.713 63.8941 282.44 64.1516C282.17 64.4052 281.844 64.532 281.462 64.532ZM289.734 65.7273V67.6591H284.15V65.7273H289.734ZM285.417 63.5057H287.989V72.1506C287.989 72.388 288.025 72.5732 288.098 72.706C288.17 72.8348 288.271 72.9253 288.4 72.9776C288.532 73.0299 288.685 73.0561 288.858 73.0561C288.979 73.0561 289.1 73.046 289.221 73.0259C289.341 73.0018 289.434 72.9837 289.498 72.9716L289.903 74.8853C289.774 74.9255 289.593 74.9718 289.36 75.0241C289.126 75.0805 288.842 75.1147 288.508 75.1268C287.889 75.1509 287.345 75.0684 286.878 74.8793C286.416 74.6901 286.055 74.3963 285.798 73.9979C285.54 73.5994 285.413 73.0964 285.417 72.4886V63.5057ZM296.341 65.7273V67.6591H290.757V65.7273H296.341ZM292.025 63.5057H294.597V72.1506C294.597 72.388 294.633 72.5732 294.705 72.706C294.778 72.8348 294.878 72.9253 295.007 72.9776C295.14 73.0299 295.293 73.0561 295.466 73.0561C295.587 73.0561 295.707 73.046 295.828 73.0259C295.949 73.0018 296.041 72.9837 296.106 72.9716L296.51 74.8853C296.382 74.9255 296.2 74.9718 295.967 75.0241C295.734 75.0805 295.45 75.1147 295.116 75.1268C294.496 75.1509 293.953 75.0684 293.486 74.8793C293.023 74.6901 292.663 74.3963 292.405 73.9979C292.148 73.5994 292.021 73.0964 292.025 72.4886V63.5057ZM298.017 75V65.7273H300.588V75H298.017ZM299.308 64.532C298.926 64.532 298.598 64.4052 298.324 64.1516C298.055 63.8941 297.92 63.5862 297.92 63.228C297.92 62.8738 298.055 62.57 298.324 62.3164C298.598 62.0588 298.926 61.93 299.308 61.93C299.691 61.93 300.017 62.0588 300.286 62.3164C300.56 62.57 300.697 62.8738 300.697 63.228C300.697 63.5862 300.56 63.8941 300.286 64.1516C300.017 64.4052 299.691 64.532 299.308 64.532ZM305.22 69.6392V75H302.648V65.7273H305.099V67.3633H305.208C305.413 66.824 305.757 66.3974 306.24 66.0835C306.723 65.7655 307.309 65.6065 307.997 65.6065C308.641 65.6065 309.202 65.7474 309.681 66.0291C310.16 66.3108 310.533 66.7133 310.798 67.2365C311.064 67.7557 311.197 68.3755 311.197 69.0959V75H308.625V69.5547C308.629 68.9872 308.484 68.5445 308.19 68.2266C307.896 67.9046 307.492 67.7436 306.977 67.7436C306.631 67.7436 306.325 67.8181 306.059 67.967C305.798 68.1159 305.592 68.3332 305.443 68.619C305.299 68.9007 305.224 69.2408 305.22 69.6392ZM317.401 78.6705C316.568 78.6705 315.854 78.5558 315.258 78.3263C314.666 78.101 314.195 77.7931 313.845 77.4027C313.495 77.0123 313.268 76.5736 313.163 76.0866L315.542 75.7667C315.614 75.9518 315.729 76.1249 315.886 76.2859C316.043 76.4469 316.25 76.5756 316.508 76.6722C316.769 76.7728 317.087 76.8232 317.461 76.8232C318.021 76.8232 318.482 76.6863 318.844 76.4126C319.21 76.143 319.393 75.6902 319.393 75.0543V73.358H319.285C319.172 73.6155 319.003 73.859 318.778 74.0884C318.552 74.3178 318.262 74.505 317.908 74.6499C317.554 74.7947 317.131 74.8672 316.64 74.8672C315.944 74.8672 315.31 74.7062 314.739 74.3842C314.171 74.0582 313.719 73.5612 313.381 72.8931C313.046 72.221 312.879 71.3718 312.879 70.3455C312.879 69.2951 313.05 68.4177 313.393 67.7134C313.735 67.0091 314.189 66.4819 314.757 66.1317C315.328 65.7816 315.954 65.6065 316.634 65.6065C317.154 65.6065 317.588 65.6951 317.938 65.8722C318.289 66.0452 318.57 66.2625 318.784 66.5241C319.001 66.7817 319.168 67.0353 319.285 67.2848H319.381V65.7273H321.935V75.0906C321.935 75.8794 321.742 76.5394 321.355 77.0707C320.969 77.6019 320.434 78.0004 319.749 78.266C319.069 78.5356 318.287 78.6705 317.401 78.6705ZM317.455 72.9354C317.87 72.9354 318.22 72.8327 318.506 72.6275C318.796 72.4182 319.017 72.1204 319.17 71.734C319.327 71.3436 319.405 70.8768 319.405 70.3335C319.405 69.7901 319.329 69.3192 319.176 68.9208C319.023 68.5183 318.802 68.2064 318.512 67.9851C318.222 67.7637 317.87 67.6531 317.455 67.6531C317.033 67.6531 316.677 67.7678 316.387 67.9972C316.097 68.2225 315.878 68.5365 315.729 68.9389C315.58 69.3414 315.506 69.8062 315.506 70.3335C315.506 70.8687 315.58 71.3316 315.729 71.7219C315.882 72.1083 316.101 72.4081 316.387 72.6214C316.677 72.8307 317.033 72.9354 317.455 72.9354Z" fill="black"/>
<path d="M227 380L235.231 395.24L244.314 380.492L227 380ZM237.775 388.395C259.896 400.482 300.664 415.994 349.031 415L348.969 412C301.244 412.981 260.992 397.662 239.213 385.762L237.775 388.395Z" fill="#FF0E0E"/>
<path d="M358.942 408.5V407.196C358.942 406.826 359.014 406.447 359.159 406.061C359.304 405.675 359.495 405.31 359.732 404.968C359.97 404.626 360.227 404.341 360.505 404.111L361.64 404.781C361.415 405.135 361.23 405.506 361.085 405.892C360.944 406.278 360.873 406.709 360.873 407.184V408.5H358.942ZM361.99 408.5V407.196C361.99 406.826 362.063 406.447 362.208 406.061C362.352 405.675 362.544 405.31 362.781 404.968C363.019 404.626 363.276 404.341 363.554 404.111L364.689 404.781C364.463 405.135 364.278 405.506 364.133 405.892C363.992 406.278 363.922 406.709 363.922 407.184V408.5H361.99ZM366.252 417V404.636H371.13C372.068 404.636 372.867 404.815 373.527 405.174C374.187 405.528 374.69 406.021 375.036 406.653C375.386 407.281 375.561 408.005 375.561 408.826C375.561 409.647 375.384 410.371 375.03 410.999C374.676 411.627 374.163 412.116 373.491 412.466C372.823 412.816 372.014 412.991 371.064 412.991H367.955V410.897H370.641C371.144 410.897 371.559 410.81 371.885 410.637C372.215 410.46 372.46 410.217 372.621 409.907C372.786 409.593 372.869 409.232 372.869 408.826C372.869 408.415 372.786 408.057 372.621 407.751C372.46 407.442 372.215 407.202 371.885 407.033C371.555 406.86 371.136 406.773 370.629 406.773H368.866V417H366.252ZM383.157 413.052V407.727H385.729V417H383.26V415.316H383.163C382.954 415.859 382.606 416.296 382.119 416.626C381.636 416.956 381.046 417.121 380.35 417.121C379.73 417.121 379.185 416.98 378.714 416.698C378.243 416.416 377.875 416.016 377.609 415.497C377.348 414.978 377.215 414.356 377.211 413.631V407.727H379.783V413.173C379.787 413.72 379.934 414.153 380.223 414.471C380.513 414.788 380.901 414.947 381.388 414.947C381.698 414.947 381.988 414.877 382.258 414.736C382.527 414.591 382.745 414.378 382.91 414.096C383.079 413.815 383.161 413.466 383.157 413.052ZM390.358 411.639V417H387.786V407.727H390.237V409.363H390.346C390.551 408.824 390.895 408.397 391.378 408.083C391.861 407.766 392.447 407.607 393.135 407.607C393.779 407.607 394.34 407.747 394.819 408.029C395.298 408.311 395.67 408.713 395.936 409.237C396.202 409.756 396.334 410.375 396.334 411.096V417H393.763V411.555C393.767 410.987 393.622 410.545 393.328 410.227C393.034 409.905 392.63 409.744 392.115 409.744C391.768 409.744 391.463 409.818 391.197 409.967C390.935 410.116 390.73 410.333 390.581 410.619C390.436 410.901 390.362 411.241 390.358 411.639ZM403.293 407.727V409.659H397.709V407.727H403.293ZM398.977 405.506H401.549V414.151C401.549 414.388 401.585 414.573 401.657 414.706C401.73 414.835 401.83 414.925 401.959 414.978C402.092 415.03 402.245 415.056 402.418 415.056C402.539 415.056 402.66 415.046 402.78 415.026C402.901 415.002 402.994 414.984 403.058 414.972L403.462 416.885C403.334 416.926 403.153 416.972 402.919 417.024C402.686 417.08 402.402 417.115 402.068 417.127C401.448 417.151 400.905 417.068 400.438 416.879C399.975 416.69 399.615 416.396 399.357 415.998C399.1 415.599 398.973 415.096 398.977 414.489V405.506ZM409.059 417.181C408.121 417.181 407.31 416.982 406.626 416.583C405.946 416.181 405.42 415.622 405.05 414.905C404.68 414.185 404.495 413.35 404.495 412.4C404.495 411.442 404.68 410.605 405.05 409.888C405.42 409.168 405.946 408.609 406.626 408.21C407.31 407.808 408.121 407.607 409.059 407.607C409.996 407.607 410.805 407.808 411.486 408.21C412.17 408.609 412.697 409.168 413.067 409.888C413.437 410.605 413.623 411.442 413.623 412.4C413.623 413.35 413.437 414.185 413.067 414.905C412.697 415.622 412.17 416.181 411.486 416.583C410.805 416.982 409.996 417.181 409.059 417.181ZM409.071 415.189C409.497 415.189 409.854 415.068 410.139 414.827C410.425 414.581 410.64 414.247 410.785 413.825C410.934 413.402 411.009 412.921 411.009 412.382C411.009 411.842 410.934 411.362 410.785 410.939C410.64 410.516 410.425 410.182 410.139 409.937C409.854 409.691 409.497 409.569 409.071 409.569C408.64 409.569 408.278 409.691 407.984 409.937C407.694 410.182 407.475 410.516 407.326 410.939C407.181 411.362 407.109 411.842 407.109 412.382C407.109 412.921 407.181 413.402 407.326 413.825C407.475 414.247 407.694 414.581 407.984 414.827C408.278 415.068 408.64 415.189 409.071 415.189ZM419.229 420.477V407.727H421.765V409.285H421.88C421.992 409.035 422.155 408.782 422.369 408.524C422.586 408.263 422.868 408.045 423.214 407.872C423.564 407.695 423.999 407.607 424.518 407.607C425.194 407.607 425.818 407.784 426.389 408.138C426.961 408.488 427.417 409.017 427.76 409.725C428.102 410.43 428.273 411.313 428.273 412.376C428.273 413.41 428.106 414.283 427.772 414.996C427.442 415.704 426.991 416.241 426.419 416.608C425.852 416.97 425.216 417.151 424.512 417.151C424.013 417.151 423.588 417.068 423.238 416.903C422.892 416.738 422.608 416.531 422.387 416.282C422.165 416.028 421.996 415.772 421.88 415.515H421.801V420.477H419.229ZM421.747 412.364C421.747 412.915 421.823 413.396 421.976 413.806C422.129 414.217 422.35 414.537 422.64 414.766C422.93 414.992 423.282 415.104 423.697 415.104C424.115 415.104 424.469 414.99 424.759 414.76C425.049 414.527 425.268 414.205 425.417 413.794C425.57 413.38 425.647 412.903 425.647 412.364C425.647 411.828 425.572 411.357 425.423 410.951C425.274 410.545 425.055 410.227 424.765 409.997C424.475 409.768 424.119 409.653 423.697 409.653C423.278 409.653 422.924 409.764 422.634 409.985C422.348 410.206 422.129 410.52 421.976 410.927C421.823 411.333 421.747 411.812 421.747 412.364ZM434.213 417.181C433.259 417.181 432.438 416.988 431.75 416.602C431.066 416.211 430.539 415.66 430.168 414.947C429.798 414.231 429.613 413.384 429.613 412.406C429.613 411.452 429.798 410.615 430.168 409.895C430.539 409.174 431.06 408.613 431.732 408.21C432.408 407.808 433.201 407.607 434.11 407.607C434.722 407.607 435.292 407.705 435.819 407.902C436.35 408.096 436.813 408.387 437.207 408.778C437.606 409.168 437.916 409.659 438.137 410.251C438.358 410.838 438.469 411.527 438.469 412.315V413.022H430.639V411.428H436.048C436.048 411.058 435.968 410.73 435.807 410.444C435.646 410.158 435.422 409.935 435.137 409.774C434.855 409.609 434.527 409.526 434.153 409.526C433.762 409.526 433.416 409.617 433.114 409.798C432.817 409.975 432.583 410.214 432.414 410.516C432.245 410.814 432.158 411.146 432.154 411.512V413.028C432.154 413.487 432.239 413.883 432.408 414.217C432.581 414.551 432.825 414.809 433.138 414.99C433.452 415.171 433.825 415.261 434.255 415.261C434.541 415.261 434.803 415.221 435.04 415.141C435.278 415.06 435.481 414.939 435.65 414.778C435.819 414.617 435.948 414.42 436.036 414.187L438.415 414.344C438.294 414.915 438.047 415.414 437.672 415.841C437.302 416.263 436.823 416.594 436.235 416.831C435.652 417.064 434.978 417.181 434.213 417.181ZM440.147 417V407.727H442.641V409.345H442.737C442.906 408.77 443.19 408.335 443.588 408.041C443.987 407.743 444.446 407.594 444.965 407.594C445.094 407.594 445.232 407.603 445.381 407.619C445.53 407.635 445.661 407.657 445.774 407.685V409.967C445.653 409.931 445.486 409.899 445.273 409.87C445.059 409.842 444.864 409.828 444.687 409.828C444.309 409.828 443.971 409.911 443.673 410.076C443.379 410.237 443.146 410.462 442.973 410.752C442.804 411.042 442.719 411.376 442.719 411.754V417H440.147ZM452.555 407.727V409.659H446.832V407.727H452.555ZM448.142 417V407.057C448.142 406.385 448.273 405.828 448.534 405.385C448.8 404.942 449.162 404.61 449.621 404.389C450.08 404.167 450.601 404.057 451.184 404.057C451.579 404.057 451.939 404.087 452.265 404.147C452.595 404.208 452.841 404.262 453.002 404.31L452.543 406.242C452.442 406.21 452.317 406.18 452.168 406.152C452.024 406.123 451.875 406.109 451.722 406.109C451.343 406.109 451.08 406.198 450.931 406.375C450.782 406.548 450.707 406.792 450.707 407.105V417H448.142ZM458.02 417.181C457.066 417.181 456.245 416.988 455.557 416.602C454.872 416.211 454.345 415.66 453.975 414.947C453.605 414.231 453.42 413.384 453.42 412.406C453.42 411.452 453.605 410.615 453.975 409.895C454.345 409.174 454.866 408.613 455.539 408.21C456.215 407.808 457.008 407.607 457.917 407.607C458.529 407.607 459.098 407.705 459.626 407.902C460.157 408.096 460.62 408.387 461.014 408.778C461.412 409.168 461.722 409.659 461.944 410.251C462.165 410.838 462.276 411.527 462.276 412.315V413.022H454.446V411.428H459.855C459.855 411.058 459.774 410.73 459.613 410.444C459.452 410.158 459.229 409.935 458.943 409.774C458.662 409.609 458.334 409.526 457.959 409.526C457.569 409.526 457.223 409.617 456.921 409.798C456.623 409.975 456.39 410.214 456.221 410.516C456.052 410.814 455.965 411.146 455.961 411.512V413.028C455.961 413.487 456.046 413.883 456.215 414.217C456.388 414.551 456.631 414.809 456.945 414.99C457.259 415.171 457.631 415.261 458.062 415.261C458.348 415.261 458.609 415.221 458.847 415.141C459.084 415.06 459.287 414.939 459.456 414.778C459.626 414.617 459.754 414.42 459.843 414.187L462.221 414.344C462.101 414.915 461.853 415.414 461.479 415.841C461.109 416.263 460.63 416.594 460.042 416.831C459.459 417.064 458.784 417.181 458.02 417.181ZM468.144 417.181C467.194 417.181 466.377 416.98 465.693 416.577C465.012 416.171 464.489 415.607 464.123 414.887C463.761 414.167 463.58 413.338 463.58 412.4C463.58 411.45 463.763 410.617 464.129 409.901C464.499 409.18 465.025 408.619 465.705 408.216C466.385 407.81 467.194 407.607 468.132 407.607C468.941 407.607 469.649 407.753 470.257 408.047C470.864 408.341 471.345 408.754 471.699 409.285C472.054 409.816 472.249 410.44 472.285 411.156H469.858C469.79 410.693 469.609 410.321 469.315 410.039C469.025 409.754 468.645 409.611 468.174 409.611C467.775 409.611 467.427 409.719 467.129 409.937C466.836 410.15 466.606 410.462 466.441 410.873C466.276 411.283 466.194 411.78 466.194 412.364C466.194 412.955 466.274 413.458 466.435 413.873C466.6 414.287 466.832 414.603 467.129 414.821C467.427 415.038 467.775 415.147 468.174 415.147C468.468 415.147 468.731 415.086 468.965 414.966C469.202 414.845 469.397 414.67 469.55 414.44C469.707 414.207 469.81 413.927 469.858 413.601H472.285C472.245 414.31 472.052 414.933 471.705 415.473C471.363 416.008 470.89 416.426 470.287 416.728C469.683 417.03 468.969 417.181 468.144 417.181ZM478.864 407.727V409.659H473.28V407.727H478.864ZM474.547 405.506H477.119V414.151C477.119 414.388 477.155 414.573 477.228 414.706C477.3 414.835 477.401 414.925 477.53 414.978C477.662 415.03 477.815 415.056 477.988 415.056C478.109 415.056 478.23 415.046 478.351 415.026C478.471 415.002 478.564 414.984 478.628 414.972L479.033 416.885C478.904 416.926 478.723 416.972 478.489 417.024C478.256 417.08 477.972 417.115 477.638 417.127C477.018 417.151 476.475 417.068 476.008 416.879C475.545 416.69 475.185 416.396 474.928 415.998C474.67 415.599 474.543 415.096 474.547 414.489V405.506ZM484.629 417.181C483.691 417.181 482.88 416.982 482.196 416.583C481.516 416.181 480.991 415.622 480.62 414.905C480.25 414.185 480.065 413.35 480.065 412.4C480.065 411.442 480.25 410.605 480.62 409.888C480.991 409.168 481.516 408.609 482.196 408.21C482.88 407.808 483.691 407.607 484.629 407.607C485.567 407.607 486.376 407.808 487.056 408.21C487.74 408.609 488.267 409.168 488.638 409.888C489.008 410.605 489.193 411.442 489.193 412.4C489.193 413.35 489.008 414.185 488.638 414.905C488.267 415.622 487.74 416.181 487.056 416.583C486.376 416.982 485.567 417.181 484.629 417.181ZM484.641 415.189C485.068 415.189 485.424 415.068 485.71 414.827C485.995 414.581 486.211 414.247 486.356 413.825C486.504 413.402 486.579 412.921 486.579 412.382C486.579 411.842 486.504 411.362 486.356 410.939C486.211 410.516 485.995 410.182 485.71 409.937C485.424 409.691 485.068 409.569 484.641 409.569C484.21 409.569 483.848 409.691 483.554 409.937C483.265 410.182 483.045 410.516 482.896 410.939C482.752 411.362 482.679 411.842 482.679 412.382C482.679 412.921 482.752 413.402 482.896 413.825C483.045 414.247 483.265 414.581 483.554 414.827C483.848 415.068 484.21 415.189 484.641 415.189ZM493.02 404.636V405.94C493.02 406.311 492.948 406.689 492.803 407.075C492.662 407.458 492.473 407.82 492.236 408.162C491.998 408.5 491.738 408.788 491.457 409.025L490.322 408.355C490.523 408.037 490.7 407.685 490.853 407.299C491.01 406.912 491.089 406.464 491.089 405.952V404.636H493.02ZM496.057 404.636V405.94C496.057 406.311 495.984 406.689 495.84 407.075C495.699 407.458 495.51 407.82 495.272 408.162C495.035 408.5 494.773 408.788 494.487 409.025L493.352 408.355C493.558 408.037 493.737 407.685 493.89 407.299C494.047 406.912 494.125 406.464 494.125 405.952V404.636H496.057Z" fill="black"/>
<path d="M154.293 36.2929C153.902 36.6834 153.902 37.3166 154.293 37.7071L160.657 44.0711C161.047 44.4616 161.681 44.4616 162.071 44.0711C162.462 43.6805 162.462 43.0474 162.071 42.6569L156.414 37L162.071 31.3431C162.462 30.9526 162.462 30.3195 162.071 29.9289C161.681 29.5384 161.047 29.5384 160.657 29.9289L154.293 36.2929ZM176 36L155 36L155 38L176 38L176 36Z" fill="black"/>
<path d="M351.707 69.2929C352.098 69.6834 352.098 70.3166 351.707 70.7071L345.343 77.0711C344.953 77.4616 344.319 77.4616 343.929 77.0711C343.538 76.6805 343.538 76.0474 343.929 75.6569L349.586 70L343.929 64.3431C343.538 63.9526 343.538 63.3195 343.929 62.9289C344.319 62.5384 344.953 62.5384 345.343 62.9289L351.707 69.2929ZM330 69L351 69L351 71L330 71L330 69Z" fill="black"/>
</svg>
