<svg width="2575" height="1406" viewBox="0 0 2575 1406" fill="none" xmlns="http://www.w3.org/2000/svg">
<path d="M15.5208 65.8058L20.4711 35.9877H31.6529C33.9436 35.9877 35.8024 36.3856 37.2292 37.1816C38.6561 37.9775 39.651 39.0937 40.214 40.5303C40.7769 41.9571 40.8983 43.6218 40.5779 45.5242C40.2673 47.4267 39.5879 49.0817 38.5396 50.4891C37.501 51.8868 36.1275 52.9691 34.4192 53.7359C32.7206 54.5027 30.7259 54.8861 28.4352 54.8861H20.4711L21.2282 50.4017H28.4789C29.8184 50.4017 30.9443 50.2173 31.8567 49.8485C32.7691 49.4699 33.4874 48.9215 34.0115 48.2032C34.5454 47.4752 34.8997 46.5822 35.0744 45.5242C35.2394 44.4662 35.1763 43.5635 34.8851 42.8161C34.6036 42.059 34.0649 41.4864 33.269 41.0981C32.4828 40.7001 31.4199 40.5012 30.0804 40.5012H25.1301L20.9224 65.8058H15.5208ZM33.1671 52.2945L38.3066 65.8058H32.2789L27.2704 52.2945H33.1671ZM42.3469 65.8058L47.2972 35.9877H66.6907L65.9336 40.5157H51.9418L50.6023 48.6109H63.5895L62.8324 53.1389H49.8452L48.5057 61.2778H62.614L61.8569 65.8058H42.3469ZM96.0211 46.0484H90.6632C90.6632 45.1554 90.5176 44.3643 90.2264 43.6752C89.9352 42.9763 89.5275 42.3842 89.0034 41.8989C88.4792 41.4136 87.858 41.0496 87.1397 40.8069C86.4215 40.5545 85.6255 40.4284 84.752 40.4284C83.0824 40.4284 81.5294 40.8506 80.0929 41.6951C78.6563 42.5395 77.4382 43.7674 76.4384 45.3786C75.4386 46.9802 74.7446 48.9263 74.3564 51.2171C73.9972 53.4495 74.0312 55.318 74.4583 56.8225C74.8951 58.327 75.6522 59.4627 76.7296 60.2295C77.807 60.9866 79.1174 61.3652 80.6607 61.3652C81.6022 61.3652 82.5049 61.2487 83.3688 61.0157C84.2327 60.7731 85.0286 60.4188 85.7566 59.9529C86.4943 59.4772 87.1397 58.8997 87.693 58.2203C88.256 57.5408 88.6928 56.7692 89.0034 55.9053H94.4341C93.9876 57.3224 93.3324 58.6571 92.4686 59.9092C91.6047 61.1516 90.5661 62.2484 89.3528 63.1997C88.1395 64.1412 86.7806 64.8789 85.2761 65.4127C83.7716 65.9466 82.1506 66.2135 80.4132 66.2135C77.7439 66.2135 75.458 65.5923 73.5556 64.3499C71.6628 63.0978 70.3039 61.3069 69.4789 58.9774C68.6538 56.6381 68.5082 53.8378 69.0421 50.5764C69.5759 47.4024 70.6048 44.6992 72.1287 42.4667C73.6623 40.2342 75.5308 38.5308 77.7342 37.3563C79.9473 36.1721 82.3302 35.58 84.883 35.58C86.5719 35.58 88.1055 35.8129 89.4838 36.2789C90.8719 36.7448 92.0609 37.4291 93.051 38.3318C94.041 39.2248 94.7933 40.3216 95.3077 41.6223C95.8319 42.9132 96.0697 44.3886 96.0211 46.0484ZM121.468 35.9877H126.869L123.637 55.4685C123.288 57.6039 122.472 59.4821 121.191 61.1031C119.92 62.7241 118.299 63.9907 116.328 64.9031C114.358 65.8058 112.164 66.2572 109.747 66.2572C107.311 66.2572 105.263 65.8058 103.603 64.9031C101.943 63.9907 100.745 62.7241 100.007 61.1031C99.2789 59.4821 99.0896 57.6039 99.439 55.4685L102.671 35.9877H108.073L104.913 55.0171C104.71 56.2596 104.802 57.3661 105.19 58.3367C105.588 59.2977 106.238 60.0548 107.141 60.608C108.053 61.1613 109.194 61.4379 110.563 61.4379C111.931 61.4379 113.164 61.1613 114.261 60.608C115.358 60.0548 116.255 59.2977 116.954 58.3367C117.653 57.3661 118.104 56.2596 118.308 55.0171L121.468 35.9877ZM127.79 65.8058L132.741 35.9877H143.922C146.213 35.9877 148.072 36.3856 149.499 37.1816C150.926 37.9775 151.921 39.0937 152.483 40.5303C153.046 41.9571 153.168 43.6218 152.847 45.5242C152.537 47.4267 151.857 49.0817 150.809 50.4891C149.771 51.8868 148.397 52.9691 146.689 53.7359C144.99 54.5027 142.995 54.8861 140.705 54.8861H132.741L133.498 50.4017H140.748C142.088 50.4017 143.214 50.2173 144.126 49.8485C145.039 49.4699 145.757 48.9215 146.281 48.2032C146.815 47.4752 147.169 46.5822 147.344 45.5242C147.509 44.4662 147.446 43.5635 147.155 42.8161C146.873 42.059 146.334 41.4864 145.539 41.0981C144.752 40.7001 143.689 40.5012 142.35 40.5012H137.4L133.192 65.8058H127.79ZM145.437 52.2945L150.576 65.8058H144.548L139.54 52.2945H145.437ZM154.616 65.8058L159.567 35.9877H170.749C173.039 35.9877 174.898 36.3856 176.325 37.1816C177.752 37.9775 178.747 39.0937 179.31 40.5303C179.873 41.9571 179.994 43.6218 179.674 45.5242C179.363 47.4267 178.684 49.0817 177.635 50.4891C176.597 51.8868 175.223 52.9691 173.515 53.7359C171.816 54.5027 169.822 54.8861 167.531 54.8861H159.567L160.324 50.4017H167.575C168.914 50.4017 170.04 50.2173 170.952 49.8485C171.865 49.4699 172.583 48.9215 173.107 48.2032C173.641 47.4752 173.995 46.5822 174.17 45.5242C174.335 44.4662 174.272 43.5635 173.981 42.8161C173.699 42.059 173.161 41.4864 172.365 41.0981C171.578 40.7001 170.516 40.5012 169.176 40.5012H164.226L160.018 65.8058H154.616ZM172.263 52.2945L177.402 65.8058H171.375L166.366 52.2945H172.263ZM181.443 65.8058L186.393 35.9877H205.786L205.029 40.5157H191.037L189.698 48.6109H202.685L201.928 53.1389H188.941L187.601 61.2778H201.71L200.953 65.8058H181.443ZM235.801 35.9877L230.851 65.8058H226.046L215.374 45.4951H215.141L211.749 65.8058H206.347L211.297 35.9877H216.131L226.789 56.3129H227.065L230.429 35.9877H235.801ZM239.619 40.5157L240.377 35.9877H264.167L263.41 40.5157H254.194L250 65.8058H244.642L248.836 40.5157H239.619ZM303.427 35.9877L298.477 65.8058H293.672L283 45.4951H282.767L279.375 65.8058H273.973L278.923 35.9877H283.757L294.415 56.3129H294.691L298.055 35.9877H303.427ZM304.363 65.8058L309.313 35.9877H328.706L327.949 40.5157H313.957L312.618 48.6109H325.605L324.848 53.1389H311.861L310.521 61.2778H324.63L323.873 65.8058H304.363ZM353.014 35.9877H358.415L355.183 55.4685C354.834 57.6039 354.018 59.4821 352.737 61.1031C351.465 62.7241 349.845 63.9907 347.874 64.9031C345.904 65.8058 343.71 66.2572 341.293 66.2572C338.857 66.2572 336.809 65.8058 335.149 64.9031C333.489 63.9907 332.29 62.7241 331.553 61.1031C330.825 59.4821 330.635 57.6039 330.985 55.4685L334.217 35.9877H339.619L336.459 55.0171C336.256 56.2596 336.348 57.3661 336.736 58.3367C337.134 59.2977 337.784 60.0548 338.687 60.608C339.599 61.1613 340.74 61.4379 342.108 61.4379C343.477 61.4379 344.71 61.1613 345.807 60.608C346.903 60.0548 347.801 59.2977 348.5 58.3367C349.199 57.3661 349.65 56.2596 349.854 55.0171L353.014 35.9877ZM359.336 65.8058L364.286 35.9877H375.468C377.759 35.9877 379.618 36.3856 381.045 37.1816C382.472 37.9775 383.466 39.0937 384.029 40.5303C384.592 41.9571 384.714 43.6218 384.393 45.5242C384.083 47.4267 383.403 49.0817 382.355 50.4891C381.316 51.8868 379.943 52.9691 378.235 53.7359C376.536 54.5027 374.541 54.8861 372.251 54.8861H364.286L365.044 50.4017H372.294C373.634 50.4017 374.76 50.2173 375.672 49.8485C376.585 49.4699 377.303 48.9215 377.827 48.2032C378.361 47.4752 378.715 46.5822 378.89 45.5242C379.055 44.4662 378.992 43.5635 378.701 42.8161C378.419 42.059 377.88 41.4864 377.084 41.0981C376.298 40.7001 375.235 40.5012 373.896 40.5012H368.946L364.738 65.8058H359.336ZM376.983 52.2945L382.122 65.8058H376.094L371.086 52.2945H376.983ZM389.992 65.8058H384.226L399.674 35.9877H406.342L411.904 65.8058H406.138L402.134 42.1027H401.901L389.992 65.8058ZM392.117 54.1144H407.842L407.114 58.4532H391.389L392.117 54.1144ZM415.831 65.8058L420.782 35.9877H426.183L421.99 61.2778H435.123L434.366 65.8058H415.831ZM478.678 35.9877L473.728 65.8058H468.923L458.251 45.4951H458.018L454.626 65.8058H449.224L454.174 35.9877H459.008L469.666 56.3129H469.942L473.306 35.9877H478.678ZM479.614 65.8058L484.564 35.9877H503.957L503.2 40.5157H489.208L487.869 48.6109H500.856L500.099 53.1389H487.112L485.772 61.2778H499.881L499.123 65.8058H479.614ZM507.401 40.5157L508.158 35.9877H531.948L531.191 40.5157H521.975L517.782 65.8058H512.424L516.617 40.5157H507.401ZM537.859 65.8058L534.394 35.9877H540.204L541.951 57.9H542.227L551.589 35.9877H556.874L559 57.9145H559.262L568.26 35.9877H574.069L560.704 65.8058H555.375L552.9 44.8836H552.667L543.188 65.8058H537.859ZM600.324 51.2462C599.8 54.4105 598.766 57.1089 597.223 59.3414C595.689 61.5641 593.816 63.2676 591.603 64.4518C589.399 65.6263 587.026 66.2135 584.483 66.2135C581.814 66.2135 579.523 65.5923 577.611 64.3499C575.699 63.0978 574.32 61.3069 573.476 58.9774C572.641 56.6478 572.496 53.8524 573.039 50.591C573.563 47.4364 574.592 44.738 576.126 42.4958C577.66 40.2536 579.538 38.5405 581.76 37.3563C583.983 36.1721 586.381 35.58 588.953 35.58C591.603 35.58 593.874 36.2061 595.767 37.4582C597.669 38.7006 599.038 40.4915 599.873 42.8307C600.717 45.17 600.868 47.9751 600.324 51.2462ZM595.01 50.591C595.369 48.3876 595.335 46.5289 594.908 45.0147C594.49 43.5004 593.748 42.3599 592.68 41.5931C591.613 40.8166 590.297 40.4284 588.735 40.4284C587.046 40.4284 585.483 40.8506 584.046 41.6951C582.619 42.5298 581.406 43.7528 580.406 45.3641C579.416 46.9754 578.737 48.9361 578.368 51.2462C577.98 53.4593 578.004 55.318 578.441 56.8225C578.878 58.327 579.635 59.4627 580.712 60.2295C581.79 60.9866 583.105 61.3652 584.658 61.3652C586.337 61.3652 587.89 60.9478 589.317 60.113C590.744 59.2783 591.952 58.0601 592.942 56.4585C593.942 54.857 594.631 52.9011 595.01 50.591ZM603.014 65.8058L607.964 35.9877H619.146C621.437 35.9877 623.296 36.3856 624.722 37.1816C626.149 37.9775 627.144 39.0937 627.707 40.5303C628.27 41.9571 628.391 43.6218 628.071 45.5242C627.761 47.4267 627.081 49.0817 626.033 50.4891C624.994 51.8868 623.621 52.9691 621.912 53.7359C620.214 54.5027 618.219 54.8861 615.928 54.8861H607.964L608.721 50.4017H615.972C617.312 50.4017 618.437 50.2173 619.35 49.8485C620.262 49.4699 620.981 48.9215 621.505 48.2032C622.039 47.4752 622.393 46.5822 622.568 45.5242C622.733 44.4662 622.669 43.5635 622.378 42.8161C622.097 42.059 621.558 41.4864 620.762 41.0981C619.976 40.7001 618.913 40.5012 617.574 40.5012H612.623L608.416 65.8058H603.014ZM620.66 52.2945L625.8 65.8058H619.772L614.764 52.2945H620.66ZM629.84 65.8058L634.79 35.9877H640.192L637.935 49.6883H638.299L652.189 35.9877H658.785L645.055 49.368L653.936 65.8058H647.443L640.716 53.0225L636.727 56.9536L635.242 65.8058H629.84ZM671.339 50.8968C671.941 47.2568 672.974 43.913 674.44 40.8652C675.906 37.8076 677.818 34.983 680.176 32.3914H685.127C684.234 33.3524 683.355 34.5317 682.491 35.9294C681.628 37.3174 680.817 38.8414 680.06 40.5012C679.313 42.1513 678.657 43.8644 678.094 45.6407C677.541 47.417 677.119 49.169 676.828 50.8968C676.44 53.1972 676.279 55.5267 676.347 57.8854C676.425 60.2441 676.692 62.4329 677.148 64.4518C677.614 66.461 678.235 68.1063 679.012 69.3875H674.047C672.562 66.7959 671.586 63.9762 671.12 60.9284C670.664 57.8708 670.737 54.527 671.339 50.8968ZM683.893 65.8058L688.843 35.9877H700.025C702.316 35.9877 704.174 36.3856 705.601 37.1816C707.028 37.9775 708.023 39.0937 708.586 40.5303C709.149 41.9571 709.27 43.6218 708.95 45.5242C708.639 47.4267 707.96 49.0817 706.912 50.4891C705.873 51.8868 704.5 52.9691 702.791 53.7359C701.093 54.5027 699.098 54.8861 696.807 54.8861H688.843L689.6 50.4017H696.851C698.19 50.4017 699.316 50.2173 700.229 49.8485C701.141 49.4699 701.859 48.9215 702.384 48.2032C702.917 47.4752 703.272 46.5822 703.446 45.5242C703.611 44.4662 703.548 43.5635 703.257 42.8161C702.976 42.059 702.437 41.4864 701.641 41.0981C700.855 40.7001 699.792 40.5012 698.453 40.5012H693.502L689.294 65.8058H683.893ZM701.539 52.2945L706.679 65.8058H700.651L695.642 52.2945H701.539ZM740.173 35.9877L735.223 65.8058H730.418L719.746 45.4951H719.513L716.121 65.8058H710.719L715.669 35.9877H720.503L731.161 56.3129H731.437L734.801 35.9877H740.173ZM770.563 35.9877L765.613 65.8058H760.808L750.136 45.4951H749.903L746.51 65.8058H741.109L746.059 35.9877H750.893L761.55 56.3129H761.827L765.19 35.9877H770.563ZM783.175 50.8968C782.573 54.527 781.54 57.8708 780.074 60.9284C778.608 63.9762 776.701 66.7959 774.352 69.3875H769.387C770.29 68.4266 771.173 67.2521 772.037 65.8641C772.901 64.4761 773.707 62.9522 774.454 61.2924C775.201 59.6326 775.852 57.9145 776.405 56.1382C776.968 54.362 777.395 52.6148 777.686 50.8968C778.074 48.5963 778.23 46.2668 778.152 43.9081C778.084 41.5495 777.817 39.3607 777.351 37.3417C776.895 35.3228 776.284 33.6727 775.517 32.3914H780.482C781.957 34.983 782.923 37.8076 783.379 40.8652C783.845 43.913 783.777 47.2568 783.175 50.8968Z" fill="#161616"/>
<line x1="88.7922" y1="413.918" x2="297.792" y2="835.918" stroke="#161616" stroke-width="4"/>
<line x1="297.792" y1="413.918" x2="506.792" y2="835.918" stroke="#161616" stroke-width="4"/>
<line x1="506.792" y1="413.918" x2="715.792" y2="835.918" stroke="#161616" stroke-width="4"/>
<line x1="88.4209" y1="413.398" x2="297.421" y2="624.398" stroke="#161616" stroke-width="4"/>
<line x1="297.421" y1="413.398" x2="506.421" y2="624.398" stroke="#161616" stroke-width="4"/>
<line x1="506.421" y1="413.398" x2="715.421" y2="624.398" stroke="#161616" stroke-width="4"/>
<line x1="87" y1="412.806" x2="296" y2="412.806" stroke="#161616" stroke-width="4"/>
<line x1="296" y1="412.806" x2="505" y2="412.806" stroke="#161616" stroke-width="4"/>
<line x1="505" y1="412.806" x2="714" y2="412.806" stroke="#161616" stroke-width="4"/>
<line y1="-2" x2="470.919" y2="-2" transform="matrix(0.443813 -0.89612 -0.89612 -0.443813 87 836.806)" stroke="#161616" stroke-width="4"/>
<line y1="-2" x2="470.919" y2="-2" transform="matrix(0.443813 -0.89612 -0.89612 -0.443813 296 836.806)" stroke="#161616" stroke-width="4"/>
<line y1="-2" x2="470.919" y2="-2" transform="matrix(0.443813 -0.89612 -0.89612 -0.443813 505 836.806)" stroke="#161616" stroke-width="4"/>
<line y1="-2" x2="296.988" y2="-2" transform="matrix(0.703732 -0.710466 -0.710466 -0.703732 87 836.806)" stroke="#161616" stroke-width="4"/>
<line y1="-2" x2="296.988" y2="-2" transform="matrix(0.703732 -0.710466 -0.710466 -0.703732 296 836.806)" stroke="#161616" stroke-width="4"/>
<line y1="-2" x2="296.988" y2="-2" transform="matrix(0.703732 -0.710466 -0.710466 -0.703732 505 836.806)" stroke="#161616" stroke-width="4"/>
<line y1="-2" x2="209" y2="-2" transform="matrix(1 0 0 -1 87 836.806)" stroke="#161616" stroke-width="4"/>
<line y1="-2" x2="209" y2="-2" transform="matrix(1 0 0 -1 296 836.806)" stroke="#161616" stroke-width="4"/>
<line y1="-2" x2="209" y2="-2" transform="matrix(1 0 0 -1 505 836.806)" stroke="#161616" stroke-width="4"/>
<line x1="85.5791" y1="624.398" x2="294.579" y2="413.398" stroke="#161616" stroke-width="4"/>
<line x1="294.579" y1="624.398" x2="503.579" y2="413.398" stroke="#161616" stroke-width="4"/>
<line x1="503.579" y1="624.398" x2="712.579" y2="413.398" stroke="#161616" stroke-width="4"/>
<line x1="88.4209" y1="624.398" x2="297.421" y2="835.398" stroke="#161616" stroke-width="4"/>
<line x1="297.421" y1="624.398" x2="506.421" y2="835.398" stroke="#161616" stroke-width="4"/>
<line x1="506.421" y1="624.398" x2="715.421" y2="835.398" stroke="#161616" stroke-width="4"/>
<line x1="87" y1="623.806" x2="296" y2="623.806" stroke="#161616" stroke-width="4"/>
<line x1="296" y1="623.806" x2="505" y2="623.806" stroke="#161616" stroke-width="4"/>
<line x1="505" y1="623.806" x2="714" y2="623.806" stroke="#161616" stroke-width="4"/>
<mask id="path-29-inside-1_10_769" fill="white">
<path d="M330.318 370.682C331.968 365.476 332.412 359.962 331.616 354.559C330.82 349.155 328.804 344.004 325.723 339.495C322.641 334.985 318.574 331.236 313.829 328.531C309.085 325.826 303.786 324.236 298.336 323.882C292.886 323.527 287.427 324.418 282.371 326.485C277.316 328.553 272.798 331.744 269.158 335.816C265.519 339.888 262.853 344.735 261.364 349.99C259.875 355.245 259.601 360.77 260.563 366.146L296 359.806L330.318 370.682Z"/>
</mask>
<path d="M330.318 370.682C331.968 365.476 332.412 359.962 331.616 354.559C330.82 349.155 328.804 344.004 325.723 339.495C322.641 334.985 318.574 331.236 313.829 328.531C309.085 325.826 303.786 324.236 298.336 323.882C292.886 323.527 287.427 324.418 282.371 326.485C277.316 328.553 272.798 331.744 269.158 335.816C265.519 339.888 262.853 344.735 261.364 349.99C259.875 355.245 259.601 360.77 260.563 366.146L296 359.806L330.318 370.682Z" stroke="#161616" stroke-width="8" mask="url(#path-29-inside-1_10_769)"/>
<circle cx="296" cy="570.806" r="34" stroke="#161616" stroke-width="4"/>
<circle cx="296" cy="779.806" r="34" fill="white" stroke="#161616" stroke-width="4"/>
<circle cx="505" cy="359.806" r="34" stroke="#161616" stroke-width="4"/>
<circle cx="505" cy="570.806" r="34" stroke="#161616" stroke-width="4"/>
<circle cx="505" cy="779.806" r="34" fill="white" stroke="#161616" stroke-width="4"/>
<circle cx="87" cy="414.806" r="63" fill="#FFE588"/>
<circle cx="505" cy="414.806" r="63" fill="#88DBFF"/>
<circle cx="296" cy="414.806" r="63" fill="#88DBFF"/>
<circle cx="714" cy="414.806" r="63" fill="#F59945"/>
<circle cx="87" cy="625.806" r="63" fill="#FFE588"/>
<circle cx="505" cy="625.806" r="63" fill="#88DBFF"/>
<circle cx="296" cy="625.806" r="63" fill="#88DBFF"/>
<circle cx="714" cy="625.806" r="63" fill="#F59945"/>
<circle cx="87" cy="836.806" r="63" fill="#FFE588"/>
<circle cx="505" cy="836.806" r="63" fill="#88DBFF"/>
<circle cx="296" cy="836.806" r="63" fill="#88DBFF"/>
<circle cx="714" cy="836.806" r="63" fill="#F59945"/>
<path d="M1259.78 65.8058H1249.53L1254.48 35.9877H1264.64C1267.6 35.9877 1270.06 36.5992 1272.01 37.8222C1273.96 39.0452 1275.33 40.7924 1276.11 43.0637C1276.91 45.3253 1277.05 48.0236 1276.52 51.1588C1276.02 54.2261 1275.02 56.8517 1273.54 59.0356C1272.05 61.2196 1270.15 62.8939 1267.82 64.0587C1265.49 65.2235 1262.81 65.8058 1259.78 65.8058ZM1255.7 61.1322H1260.06C1262.12 61.1322 1263.92 60.7391 1265.46 59.9529C1267 59.1569 1268.26 57.9776 1269.23 56.4149C1270.21 54.8424 1270.89 52.8914 1271.27 50.5619C1271.64 48.3294 1271.62 46.4852 1271.19 45.0292C1270.77 43.5635 1269.94 42.4716 1268.7 41.7533C1267.48 41.0253 1265.86 40.6613 1263.84 40.6613H1259.09L1255.7 61.1322ZM1279.24 65.8058L1284.19 35.9877H1303.58L1302.82 40.5157H1288.83L1287.49 48.6109H1300.48L1299.72 53.1389H1286.74L1285.4 61.2778H1299.5L1298.75 65.8058H1279.24ZM1304.14 65.8058L1309.09 35.9877H1328.49L1327.73 40.5157H1313.74L1312.4 48.6109H1325.38L1324.63 53.1389H1311.64L1310.3 61.2778H1324.41L1323.65 65.8058H1304.14ZM1329.05 65.8058L1334 35.9877H1345.18C1347.47 35.9877 1349.32 36.4147 1350.74 37.2689C1352.16 38.1134 1353.14 39.283 1353.7 40.7778C1354.25 42.2629 1354.37 43.9567 1354.05 45.8591C1353.73 47.7713 1353.05 49.4699 1351.99 50.955C1350.94 52.4401 1349.56 53.6097 1347.84 54.4639C1346.12 55.3083 1344.12 55.7306 1341.81 55.7306H1334.4L1335.15 51.2899H1341.83C1343.17 51.2899 1344.3 51.0569 1345.24 50.591C1346.18 50.1251 1346.92 49.4845 1347.46 48.6691C1348.01 47.8538 1348.37 46.9171 1348.54 45.8591C1348.71 44.8011 1348.65 43.8693 1348.38 43.0637C1348.11 42.258 1347.58 41.632 1346.79 41.1855C1346.02 40.7293 1344.96 40.5012 1343.61 40.5012H1338.66L1334.45 65.8058H1329.05ZM1394.33 46.0484H1388.97C1388.97 45.1554 1388.83 44.3643 1388.54 43.6752C1388.25 42.9763 1387.84 42.3842 1387.31 41.8989C1386.79 41.4136 1386.17 41.0496 1385.45 40.8069C1384.73 40.5545 1383.94 40.4284 1383.06 40.4284C1381.39 40.4284 1379.84 40.8506 1378.4 41.6951C1376.97 42.5395 1375.75 43.7674 1374.75 45.3786C1373.75 46.9802 1373.06 48.9263 1372.67 51.2171C1372.31 53.4495 1372.34 55.318 1372.77 56.8225C1373.21 58.327 1373.96 59.4627 1375.04 60.2295C1376.12 60.9866 1377.43 61.3652 1378.97 61.3652C1379.91 61.3652 1380.82 61.2487 1381.68 61.0157C1382.54 60.7731 1383.34 60.4188 1384.07 59.9529C1384.8 59.4772 1385.45 58.8997 1386 58.2203C1386.57 57.5408 1387 56.7692 1387.31 55.9053H1392.74C1392.3 57.3224 1391.64 58.6571 1390.78 59.9092C1389.92 61.1516 1388.88 62.2484 1387.66 63.1997C1386.45 64.1412 1385.09 64.8789 1383.59 65.4127C1382.08 65.9466 1380.46 66.2135 1378.72 66.2135C1376.05 66.2135 1373.77 65.5923 1371.87 64.3499C1369.97 63.0978 1368.61 61.3069 1367.79 58.9774C1366.96 56.6381 1366.82 53.8378 1367.35 50.5764C1367.89 47.4024 1368.92 44.6992 1370.44 42.4667C1371.97 40.2342 1373.84 38.5308 1376.04 37.3563C1378.26 36.1721 1380.64 35.58 1383.19 35.58C1384.88 35.58 1386.42 35.8129 1387.79 36.2789C1389.18 36.7448 1390.37 37.4291 1391.36 38.3318C1392.35 39.2248 1393.1 40.3216 1393.62 41.6223C1394.14 42.9132 1394.38 44.3886 1394.33 46.0484ZM1425.09 51.2462C1424.57 54.4105 1423.53 57.1089 1421.99 59.3414C1420.46 61.5641 1418.58 63.2676 1416.37 64.4518C1414.17 65.6263 1411.79 66.2135 1409.25 66.2135C1406.58 66.2135 1404.29 65.5923 1402.38 64.3499C1400.47 63.0978 1399.09 61.3069 1398.24 58.9774C1397.41 56.6478 1397.26 53.8524 1397.81 50.591C1398.33 47.4364 1399.36 44.738 1400.89 42.4958C1402.43 40.2536 1404.31 38.5405 1406.53 37.3563C1408.75 36.1721 1411.15 35.58 1413.72 35.58C1416.37 35.58 1418.64 36.2061 1420.54 37.4582C1422.44 38.7006 1423.81 40.4915 1424.64 42.8307C1425.49 45.17 1425.64 47.9751 1425.09 51.2462ZM1419.78 50.591C1420.14 48.3876 1420.1 46.5289 1419.68 45.0147C1419.26 43.5004 1418.52 42.3599 1417.45 41.5931C1416.38 40.8166 1415.07 40.4284 1413.5 40.4284C1411.81 40.4284 1410.25 40.8506 1408.81 41.6951C1407.39 42.5298 1406.17 43.7528 1405.17 45.3641C1404.18 46.9754 1403.51 48.9361 1403.14 51.2462C1402.75 53.4593 1402.77 55.318 1403.21 56.8225C1403.65 58.327 1404.4 59.4627 1405.48 60.2295C1406.56 60.9866 1407.87 61.3652 1409.43 61.3652C1411.11 61.3652 1412.66 60.9478 1414.09 60.113C1415.51 59.2783 1416.72 58.0601 1417.71 56.4585C1418.71 54.857 1419.4 52.9011 1419.78 50.591ZM1457.24 35.9877L1452.29 65.8058H1447.48L1436.81 45.4951H1436.58L1433.18 65.8058H1427.78L1432.73 35.9877H1437.57L1448.22 56.3129H1448.5L1451.86 35.9877H1457.24ZM1467.11 35.9877L1470.98 59.4578H1471.29L1482.92 35.9877H1488.86L1473.4 65.8058H1466.73L1461.19 35.9877H1467.11ZM1515.3 51.2462C1514.78 54.4105 1513.74 57.1089 1512.2 59.3414C1510.67 61.5641 1508.79 63.2676 1506.58 64.4518C1504.38 65.6263 1502 66.2135 1499.46 66.2135C1496.79 66.2135 1494.5 65.5923 1492.59 64.3499C1490.68 63.0978 1489.3 61.3069 1488.45 58.9774C1487.62 56.6478 1487.47 53.8524 1488.02 50.591C1488.54 47.4364 1489.57 44.738 1491.1 42.4958C1492.64 40.2536 1494.51 38.5405 1496.74 37.3563C1498.96 36.1721 1501.36 35.58 1503.93 35.58C1506.58 35.58 1508.85 36.2061 1510.74 37.4582C1512.65 38.7006 1514.01 40.4915 1514.85 42.8307C1515.69 45.17 1515.84 47.9751 1515.3 51.2462ZM1509.99 50.591C1510.35 48.3876 1510.31 46.5289 1509.88 45.0147C1509.47 43.5004 1508.72 42.3599 1507.66 41.5931C1506.59 40.8166 1505.27 40.4284 1503.71 40.4284C1502.02 40.4284 1500.46 40.8506 1499.02 41.6951C1497.6 42.5298 1496.38 43.7528 1495.38 45.3641C1494.39 46.9754 1493.71 48.9361 1493.34 51.2462C1492.96 53.4593 1492.98 55.318 1493.42 56.8225C1493.85 58.327 1494.61 59.4627 1495.69 60.2295C1496.77 60.9866 1498.08 61.3652 1499.63 61.3652C1501.31 61.3652 1502.87 60.9478 1504.29 60.113C1505.72 59.2783 1506.93 58.0601 1507.92 56.4585C1508.92 54.857 1509.61 52.9011 1509.99 50.591ZM1517.99 65.8058L1522.94 35.9877H1528.34L1524.15 61.2778H1537.28L1536.52 65.8058H1517.99ZM1564.96 35.9877H1570.36L1567.13 55.4685C1566.78 57.6039 1565.96 59.4821 1564.68 61.1031C1563.41 62.7241 1561.79 63.9907 1559.82 64.9031C1557.85 65.8058 1555.66 66.2572 1553.24 66.2572C1550.8 66.2572 1548.76 65.8058 1547.1 64.9031C1545.44 63.9907 1544.24 62.7241 1543.5 61.1031C1542.77 59.4821 1542.58 57.6039 1542.93 55.4685L1546.16 35.9877H1551.57L1548.41 55.0171C1548.2 56.2596 1548.29 57.3661 1548.68 58.3367C1549.08 59.2977 1549.73 60.0548 1550.63 60.608C1551.55 61.1613 1552.69 61.4379 1554.05 61.4379C1555.42 61.4379 1556.66 61.1613 1557.75 60.608C1558.85 60.0548 1559.75 59.2977 1560.45 58.3367C1561.15 57.3661 1561.6 56.2596 1561.8 55.0171L1564.96 35.9877ZM1574.17 40.5157L1574.92 35.9877H1598.71L1597.96 40.5157H1588.74L1584.55 65.8058H1579.19L1583.38 40.5157H1574.17ZM1608.7 35.9877L1603.75 65.8058H1598.35L1603.3 35.9877H1608.7ZM1638.66 51.2462C1638.14 54.4105 1637.1 57.1089 1635.56 59.3414C1634.03 61.5641 1632.15 63.2676 1629.94 64.4518C1627.74 65.6263 1625.36 66.2135 1622.82 66.2135C1620.15 66.2135 1617.86 65.5923 1615.95 64.3499C1614.04 63.0978 1612.66 61.3069 1611.81 58.9774C1610.98 56.6478 1610.83 53.8524 1611.38 50.591C1611.9 47.4364 1612.93 44.738 1614.46 42.4958C1616 40.2536 1617.87 38.5405 1620.1 37.3563C1622.32 36.1721 1624.72 35.58 1627.29 35.58C1629.94 35.58 1632.21 36.2061 1634.1 37.4582C1636.01 38.7006 1637.37 40.4915 1638.21 42.8307C1639.05 45.17 1639.2 47.9751 1638.66 51.2462ZM1633.35 50.591C1633.71 48.3876 1633.67 46.5289 1633.24 45.0147C1632.83 43.5004 1632.08 42.3599 1631.02 41.5931C1629.95 40.8166 1628.63 40.4284 1627.07 40.4284C1625.38 40.4284 1623.82 40.8506 1622.38 41.6951C1620.96 42.5298 1619.74 43.7528 1618.74 45.3641C1617.75 46.9754 1617.07 48.9361 1616.7 51.2462C1616.32 53.4593 1616.34 55.318 1616.78 56.8225C1617.21 58.327 1617.97 59.4627 1619.05 60.2295C1620.13 60.9866 1621.44 61.3652 1622.99 61.3652C1624.67 61.3652 1626.23 60.9478 1627.65 60.113C1629.08 59.2783 1630.29 58.0601 1631.28 56.4585C1632.28 54.857 1632.97 52.9011 1633.35 50.591ZM1670.81 35.9877L1665.85 65.8058H1661.05L1650.38 45.4951H1650.14L1646.75 65.8058H1641.35L1646.3 35.9877H1651.13L1661.79 56.3129H1662.07L1665.43 35.9877H1670.81ZM1675.57 65.8058H1669.8L1685.25 35.9877H1691.92L1697.48 65.8058H1691.72L1687.71 42.1027H1687.48L1675.57 65.8058ZM1677.7 54.1144H1693.42L1692.69 58.4532H1676.97L1677.7 54.1144ZM1701.41 65.8058L1706.36 35.9877H1711.76L1707.57 61.2778H1720.7L1719.94 65.8058H1701.41ZM1764.26 35.9877L1759.31 65.8058H1754.5L1743.83 45.4951H1743.6L1740.2 65.8058H1734.8L1739.75 35.9877H1744.59L1755.24 56.3129H1755.52L1758.88 35.9877H1764.26ZM1765.19 65.8058L1770.14 35.9877H1789.54L1788.78 40.5157H1774.79L1773.45 48.6109H1786.43L1785.68 53.1389H1772.69L1771.35 61.2778H1785.46L1784.7 65.8058H1765.19ZM1813.84 35.9877H1819.24L1816.01 55.4685C1815.66 57.6039 1814.85 59.4821 1813.57 61.1031C1812.29 62.7241 1810.67 63.9907 1808.7 64.9031C1806.73 65.8058 1804.54 66.2572 1802.12 66.2572C1799.69 66.2572 1797.64 65.8058 1795.98 64.9031C1794.32 63.9907 1793.12 62.7241 1792.38 61.1031C1791.65 59.4821 1791.46 57.6039 1791.81 55.4685L1795.05 35.9877H1800.45L1797.29 55.0171C1797.08 56.2596 1797.18 57.3661 1797.57 58.3367C1797.96 59.2977 1798.61 60.0548 1799.52 60.608C1800.43 61.1613 1801.57 61.4379 1802.94 61.4379C1804.31 61.4379 1805.54 61.1613 1806.64 60.608C1807.73 60.0548 1808.63 59.2977 1809.33 58.3367C1810.03 57.3661 1810.48 56.2596 1810.68 55.0171L1813.84 35.9877ZM1820.17 65.8058L1825.12 35.9877H1836.3C1838.59 35.9877 1840.45 36.3856 1841.87 37.1816C1843.3 37.9775 1844.3 39.0937 1844.86 40.5303C1845.42 41.9571 1845.54 43.6218 1845.22 45.5242C1844.91 47.4267 1844.23 49.0817 1843.18 50.4891C1842.15 51.8868 1840.77 52.9691 1839.06 53.7359C1837.37 54.5027 1835.37 54.8861 1833.08 54.8861H1825.12L1825.87 50.4017H1833.12C1834.46 50.4017 1835.59 50.2173 1836.5 49.8485C1837.41 49.4699 1838.13 48.9215 1838.66 48.2032C1839.19 47.4752 1839.54 46.5822 1839.72 45.5242C1839.88 44.4662 1839.82 43.5635 1839.53 42.8161C1839.25 42.059 1838.71 41.4864 1837.91 41.0981C1837.13 40.7001 1836.06 40.5012 1834.72 40.5012H1829.77L1825.57 65.8058H1820.17ZM1837.81 52.2945L1842.95 65.8058H1836.92L1831.91 52.2945H1837.81ZM1850.82 65.8058H1845.06L1860.5 35.9877H1867.17L1872.73 65.8058H1866.97L1862.96 42.1027H1862.73L1850.82 65.8058ZM1852.95 54.1144H1868.67L1867.94 58.4532H1852.22L1852.95 54.1144ZM1876.66 65.8058L1881.61 35.9877H1887.01L1882.82 61.2778H1895.95L1895.19 65.8058H1876.66ZM1939.51 35.9877L1934.56 65.8058H1929.75L1919.08 45.4951H1918.85L1915.45 65.8058H1910.05L1915 35.9877H1919.84L1930.49 56.3129H1930.77L1934.13 35.9877H1939.51ZM1940.44 65.8058L1945.39 35.9877H1964.79L1964.03 40.5157H1950.04L1948.7 48.6109H1961.69L1960.93 53.1389H1947.94L1946.6 61.2778H1960.71L1959.95 65.8058H1940.44ZM1968.23 40.5157L1968.99 35.9877H1992.78L1992.02 40.5157H1982.8L1978.61 65.8058H1973.25L1977.45 40.5157H1968.23ZM2020.15 51.2462C2019.63 54.4105 2018.6 57.1089 2017.05 59.3414C2015.52 61.5641 2013.64 63.2676 2011.43 64.4518C2009.23 65.6263 2006.86 66.2135 2004.31 66.2135C2001.64 66.2135 1999.35 65.5923 1997.44 64.3499C1995.53 63.0978 1994.15 61.3069 1993.31 58.9774C1992.47 56.6478 1992.32 53.8524 1992.87 50.591C1993.39 47.4364 1994.42 44.738 1995.95 42.4958C1997.49 40.2536 1999.37 38.5405 2001.59 37.3563C2003.81 36.1721 2006.21 35.58 2008.78 35.58C2011.43 35.58 2013.7 36.2061 2015.6 37.4582C2017.5 38.7006 2018.87 40.4915 2019.7 42.8307C2020.55 45.17 2020.7 47.9751 2020.15 51.2462ZM2014.84 50.591C2015.2 48.3876 2015.16 46.5289 2014.74 45.0147C2014.32 43.5004 2013.58 42.3599 2012.51 41.5931C2011.44 40.8166 2010.13 40.4284 2008.56 40.4284C2006.87 40.4284 2005.31 40.8506 2003.88 41.6951C2002.45 42.5298 2001.24 43.7528 2000.24 45.3641C1999.25 46.9754 1998.57 48.9361 1998.2 51.2462C1997.81 53.4593 1997.83 55.318 1998.27 56.8225C1998.71 58.327 1999.46 59.4627 2000.54 60.2295C2001.62 60.9866 2002.93 61.3652 2004.49 61.3652C2006.17 61.3652 2007.72 60.9478 2009.15 60.113C2010.57 59.2783 2011.78 58.0601 2012.77 56.4585C2013.77 54.857 2014.46 52.9011 2014.84 50.591ZM2028.36 65.8058L2024.89 35.9877H2030.7L2032.45 57.9H2032.73L2042.09 35.9877H2047.37L2049.5 57.9145H2049.76L2058.76 35.9877H2064.57L2051.2 65.8058H2045.87L2043.4 44.8836H2043.16L2033.69 65.8058H2028.36ZM2063.36 65.8058L2068.31 35.9877H2079.49C2081.79 35.9877 2083.64 36.3856 2085.07 37.1816C2086.5 37.9775 2087.49 39.0937 2088.06 40.5303C2088.62 41.9571 2088.74 43.6218 2088.42 45.5242C2088.11 47.4267 2087.43 49.0817 2086.38 50.4891C2085.34 51.8868 2083.97 52.9691 2082.26 53.7359C2080.56 54.5027 2078.57 54.8861 2076.28 54.8861H2068.31L2069.07 50.4017H2076.32C2077.66 50.4017 2078.79 50.2173 2079.7 49.8485C2080.61 49.4699 2081.33 48.9215 2081.85 48.2032C2082.39 47.4752 2082.74 46.5822 2082.92 45.5242C2083.08 44.4662 2083.02 43.5635 2082.73 42.8161C2082.45 42.059 2081.91 41.4864 2081.11 41.0981C2080.32 40.7001 2079.26 40.5012 2077.92 40.5012H2072.97L2068.76 65.8058H2063.36ZM2081.01 52.2945L2086.15 65.8058H2080.12L2075.11 52.2945H2081.01ZM2090.19 65.8058L2095.14 35.9877H2100.54L2098.28 49.6883H2098.65L2112.54 35.9877H2119.13L2105.4 49.368L2114.28 65.8058H2107.79L2101.06 53.0225L2097.08 56.9536L2095.59 65.8058H2090.19ZM2131.69 50.8968C2132.29 47.2568 2133.32 43.913 2134.79 40.8652C2136.25 37.8076 2138.17 34.983 2140.53 32.3914H2145.48C2144.58 33.3524 2143.7 34.5317 2142.84 35.9294C2141.98 37.3174 2141.17 38.8414 2140.41 40.5012C2139.66 42.1513 2139.01 43.8644 2138.44 45.6407C2137.89 47.417 2137.47 49.169 2137.18 50.8968C2136.79 53.1972 2136.63 55.5267 2136.7 57.8854C2136.77 60.2441 2137.04 62.4329 2137.5 64.4518C2137.96 66.461 2138.58 68.1063 2139.36 69.3875H2134.4C2132.91 66.7959 2131.93 63.9762 2131.47 60.9284C2131.01 57.8708 2131.09 54.527 2131.69 50.8968ZM2173.01 46.0484H2167.65C2167.65 45.1554 2167.51 44.3643 2167.22 43.6752C2166.93 42.9763 2166.52 42.3842 2165.99 41.8989C2165.47 41.4136 2164.85 41.0496 2164.13 40.8069C2163.41 40.5545 2162.62 40.4284 2161.74 40.4284C2160.07 40.4284 2158.52 40.8506 2157.08 41.6951C2155.65 42.5395 2154.43 43.7674 2153.43 45.3786C2152.43 46.9802 2151.73 48.9263 2151.35 51.2171C2150.99 53.4495 2151.02 55.318 2151.45 56.8225C2151.89 58.327 2152.64 59.4627 2153.72 60.2295C2154.8 60.9866 2156.11 61.3652 2157.65 61.3652C2158.59 61.3652 2159.5 61.2487 2160.36 61.0157C2161.22 60.7731 2162.02 60.4188 2162.75 59.9529C2163.48 59.4772 2164.13 58.8997 2164.68 58.2203C2165.25 57.5408 2165.68 56.7692 2165.99 55.9053H2171.42C2170.98 57.3224 2170.32 58.6571 2169.46 59.9092C2168.59 61.1516 2167.56 62.2484 2166.34 63.1997C2165.13 64.1412 2163.77 64.8789 2162.27 65.4127C2160.76 65.9466 2159.14 66.2135 2157.4 66.2135C2154.73 66.2135 2152.45 65.5923 2150.55 64.3499C2148.65 63.0978 2147.29 61.3069 2146.47 58.9774C2145.64 56.6381 2145.5 53.8378 2146.03 50.5764C2146.57 47.4024 2147.6 44.6992 2149.12 42.4667C2150.65 40.2342 2152.52 38.5308 2154.72 37.3563C2156.94 36.1721 2159.32 35.58 2161.87 35.58C2163.56 35.58 2165.1 35.8129 2166.47 36.2789C2167.86 36.7448 2169.05 37.4291 2170.04 38.3318C2171.03 39.2248 2171.78 40.3216 2172.3 41.6223C2172.82 42.9132 2173.06 44.3886 2173.01 46.0484ZM2204.17 35.9877L2199.22 65.8058H2194.41L2183.74 45.4951H2183.51L2180.11 65.8058H2174.71L2179.66 35.9877H2184.5L2195.15 56.3129H2195.43L2198.79 35.9877H2204.17ZM2234.56 35.9877L2229.6 65.8058H2224.8L2214.13 45.4951H2213.89L2210.5 65.8058H2205.1L2210.05 35.9877H2214.88L2225.54 56.3129H2225.82L2229.18 35.9877H2234.56ZM2247.17 50.8968C2246.57 54.527 2245.53 57.8708 2244.07 60.9284C2242.6 63.9762 2240.69 66.7959 2238.34 69.3875H2233.38C2234.28 68.4266 2235.17 67.2521 2236.03 65.8641C2236.89 64.4761 2237.7 62.9522 2238.45 61.2924C2239.19 59.6326 2239.84 57.9145 2240.4 56.1382C2240.96 54.362 2241.39 52.6148 2241.68 50.8968C2242.07 48.5963 2242.22 46.2668 2242.14 43.9081C2242.08 41.5495 2241.81 39.3607 2241.34 37.3417C2240.89 35.3228 2240.28 33.6727 2239.51 32.3914H2244.47C2245.95 34.983 2246.91 37.8076 2247.37 40.8652C2247.84 43.913 2247.77 47.2568 2247.17 50.8968Z" fill="#161616"/>
<line x1="1011" y1="202.806" x2="1222" y2="202.806" stroke="#161616" stroke-width="4"/>
<line x1="1011" y1="202.806" x2="1222" y2="202.806" stroke="#161616" stroke-width="4"/>
<line x1="1011" y1="413.806" x2="1222" y2="413.806" stroke="#161616" stroke-width="4"/>
<line x1="1011" y1="626.806" x2="1222" y2="626.806" stroke="#161616" stroke-width="4"/>
<line x1="1011" y1="839.806" x2="1222" y2="839.806" stroke="#161616" stroke-width="4"/>
<line y1="-2" x2="211" y2="-2" transform="matrix(1 0 0 -1 1011 1052.81)" stroke="#161616" stroke-width="4"/>
<line x1="1012.41" y1="203.392" x2="1223.41" y2="414.392" stroke="#161616" stroke-width="4"/>
<line x1="1012.41" y1="414.392" x2="1223.41" y2="625.392" stroke="#161616" stroke-width="4"/>
<line x1="1012.41" y1="627.392" x2="1223.41" y2="838.392" stroke="#161616" stroke-width="4"/>
<line x1="1012.41" y1="840.392" x2="1223.41" y2="1051.39" stroke="#161616" stroke-width="4"/>
<line y1="-2" x2="298.399" y2="-2" transform="matrix(0.707107 -0.707107 -0.707107 -0.707107 1011 1052.81)" stroke="#161616" stroke-width="4"/>
<line y1="-2" x2="298.399" y2="-2" transform="matrix(0.707107 -0.707107 -0.707107 -0.707107 1011 841.806)" stroke="#161616" stroke-width="4"/>
<line y1="-2" x2="298.399" y2="-2" transform="matrix(0.707107 -0.707107 -0.707107 -0.707107 1011 628.806)" stroke="#161616" stroke-width="4"/>
<line y1="-2" x2="298.399" y2="-2" transform="matrix(0.707107 -0.707107 -0.707107 -0.707107 1011 417.806)" stroke="#161616" stroke-width="4"/>
<line x1="1221.14" y1="416.002" x2="1432.14" y2="315.002" stroke="#161616" stroke-width="4"/>
<line x1="1221.14" y1="627.002" x2="1432.14" y2="526.002" stroke="#161616" stroke-width="4"/>
<line x1="1221.14" y1="838.002" x2="1432.14" y2="737.002" stroke="#161616" stroke-width="4"/>
<line x1="1221.14" y1="1054" x2="1432.14" y2="953.002" stroke="#161616" stroke-width="4"/>
<line x1="1432.14" y1="954.002" x2="1643.14" y2="853.002" stroke="#161616" stroke-width="4"/>
<line x1="1643.14" y1="845.002" x2="1854.14" y2="744.002" stroke="#161616" stroke-width="4"/>
<line x1="1643.14" y1="634.002" x2="1854.14" y2="533.002" stroke="#161616" stroke-width="4"/>
<line x1="1432.14" y1="743.002" x2="1643.14" y2="642.002" stroke="#161616" stroke-width="4"/>
<line x1="1432.14" y1="524.002" x2="1643.14" y2="423.002" stroke="#161616" stroke-width="4"/>
<line x1="1222.93" y1="416.036" x2="1433.93" y2="527.036" stroke="#161616" stroke-width="4"/>
<line x1="1222.93" y1="627.036" x2="1433.93" y2="738.036" stroke="#161616" stroke-width="4"/>
<line x1="1222.93" y1="838.036" x2="1433.93" y2="949.036" stroke="#161616" stroke-width="4"/>
<line x1="1433.93" y1="738.036" x2="1644.93" y2="849.036" stroke="#161616" stroke-width="4"/>
<line x1="1644.93" y1="629.036" x2="1855.93" y2="740.036" stroke="#161616" stroke-width="4"/>
<line x1="1644.93" y1="418.036" x2="1855.93" y2="529.036" stroke="#161616" stroke-width="4"/>
<line x1="1433.93" y1="527.036" x2="1644.93" y2="638.036" stroke="#161616" stroke-width="4"/>
<line x1="1433.93" y1="308.036" x2="1644.93" y2="419.036" stroke="#161616" stroke-width="4"/>
<line x1="1222.84" y1="202.989" x2="1433.84" y2="299.989" stroke="#161616" stroke-width="4"/>
<line x1="1853.56" y1="529.415" x2="2064.56" y2="311.415" stroke="#161616" stroke-width="4"/>
<line x1="1855" y1="528.806" x2="2066" y2="528.806" stroke="#161616" stroke-width="4"/>
<line x1="1856.43" y1="529.405" x2="2067.43" y2="744.405" stroke="#161616" stroke-width="4"/>
<line x1="1856.79" y1="529.917" x2="2067.79" y2="954.917" stroke="#161616" stroke-width="4"/>
<line y1="-2" x2="303.389" y2="-2" transform="matrix(0.695476 0.718549 0.718549 -0.695476 1855 733.806)" stroke="#161616" stroke-width="4"/>
<line y1="-2" x2="211" y2="-2" transform="matrix(1 0 0 -1 1855 733.806)" stroke="#161616" stroke-width="4"/>
<line y1="-2" x2="301.241" y2="-2" transform="matrix(0.700436 -0.713715 -0.713715 -0.700436 1855 733.806)" stroke="#161616" stroke-width="4"/>
<line y1="-2" x2="474.496" y2="-2" transform="matrix(0.444683 -0.895688 -0.895688 -0.444683 1855 733.806)" stroke="#161616" stroke-width="4"/>
<line x1="2066" y1="316.806" x2="2277" y2="316.806" stroke="#161616" stroke-width="4"/>
<line x1="2066" y1="949.806" x2="2277" y2="949.806" stroke="#161616" stroke-width="4"/>
<line x1="2066" y1="528.806" x2="2277" y2="528.806" stroke="#161616" stroke-width="4"/>
<line x1="2067.9" y1="318.177" x2="2278.9" y2="955.177" stroke="#161616" stroke-width="4"/>
<line x1="2067.79" y1="317.92" x2="2278.79" y2="744.92" stroke="#161616" stroke-width="4"/>
<line x1="2067.43" y1="317.408" x2="2278.43" y2="533.408" stroke="#161616" stroke-width="4"/>
<line x1="2064.1" y1="955.177" x2="2275.1" y2="318.177" stroke="#161616" stroke-width="4"/>
<line y1="-2" x2="476.288" y2="-2" transform="matrix(0.44301 -0.896517 -0.896517 -0.44301 2066 955.806)" stroke="#161616" stroke-width="4"/>
<line y1="-2" x2="301.955" y2="-2" transform="matrix(0.698779 -0.715338 -0.715338 -0.698779 2066 955.806)" stroke="#161616" stroke-width="4"/>
<line x1="2064.58" y1="529.402" x2="2275.58" y2="315.402" stroke="#161616" stroke-width="4"/>
<line x1="2067.78" y1="529.903" x2="2278.78" y2="946.903" stroke="#161616" stroke-width="4"/>
<line x1="2067.39" y1="529.365" x2="2278.39" y2="732.365" stroke="#161616" stroke-width="4"/>
<line y1="-2" x2="211" y2="-2" transform="matrix(1 -1.00134e-09 -1.00134e-09 -1 2066 733.806)" stroke="#161616" stroke-width="4"/>
<line y1="-2" x2="300.528" y2="-2" transform="matrix(0.702098 0.71208 0.71208 -0.702098 2066 733.806)" stroke="#161616" stroke-width="4"/>
<line y1="-2" x2="467.344" y2="-2" transform="matrix(0.451488 -0.892277 -0.892277 -0.451488 2066 733.806)" stroke="#161616" stroke-width="4"/>
<line x1="2064.61" y1="732.368" x2="2275.61" y2="528.368" stroke="#161616" stroke-width="4"/>
<line x1="2277.9" y1="317.019" x2="2488.9" y2="423.019" stroke="#161616" stroke-width="4"/>
<line x1="2278.66" y1="317.698" x2="2489.66" y2="634.698" stroke="#161616" stroke-width="4"/>
<line x1="2278.86" y1="318.064" x2="2489.86" y2="846.064" stroke="#161616" stroke-width="4"/>
<line y1="-2" x2="236.129" y2="-2" transform="matrix(0.893579 -0.448907 -0.448907 -0.893579 2277 951.806)" stroke="#161616" stroke-width="4"/>
<line y1="-2" x2="380.802" y2="-2" transform="matrix(0.554094 -0.832454 -0.832454 -0.554094 2277 951.806)" stroke="#161616" stroke-width="4"/>
<line y1="-2" x2="568.599" y2="-2" transform="matrix(0.371087 -0.928598 -0.928598 -0.371087 2277 951.806)" stroke="#161616" stroke-width="4"/>
<line x1="2277.92" y1="524.032" x2="2488.92" y2="634.032" stroke="#161616" stroke-width="4"/>
<line x1="2276.15" y1="523.995" x2="2487.15" y2="424.995" stroke="#161616" stroke-width="4"/>
<line x1="2278.68" y1="524.717" x2="2489.68" y2="849.717" stroke="#161616" stroke-width="4"/>
<line y1="-2" x2="237.952" y2="-2" transform="matrix(0.886735 -0.462279 -0.462279 -0.886735 2277 738.806)" stroke="#161616" stroke-width="4"/>
<line y1="-2" x2="233.071" y2="-2" transform="matrix(0.905304 0.424764 0.424764 -0.905304 2277 738.806)" stroke="#161616" stroke-width="4"/>
<line y1="-2" x2="387.487" y2="-2" transform="matrix(0.544535 -0.838738 -0.838738 -0.544535 2277 738.806)" stroke="#161616" stroke-width="4"/>
<circle cx="1011" cy="204.806" r="63" fill="#FFE588"/>
<circle cx="1222" cy="204.806" r="63" fill="#FFADAD"/>
<circle cx="1011" cy="415.806" r="63" fill="#FFE588"/>
<circle cx="1222" cy="415.806" r="63" fill="#FFADAD"/>
<circle cx="1433" cy="309.806" r="63" fill="#FFADAD"/>
<circle cx="2066" cy="318.806" r="63" fill="#AEF383"/>
<circle cx="2277" cy="318.806" r="63" fill="#AEF383"/>
<circle cx="1011" cy="837.806" r="63" fill="#FFE588"/>
<circle cx="1222" cy="837.806" r="63" fill="#FFADAD"/>
<circle cx="1433" cy="731.806" r="63" fill="#FFADAD"/>
<circle cx="2066" cy="740.806" r="63" fill="#AEF383"/>
<circle cx="2277" cy="740.806" r="63" fill="#AEF383"/>
<circle cx="1644" cy="626.806" r="63" fill="#FFADAD"/>
<circle cx="1855" cy="528.806" r="63" fill="#FFADAD"/>
<circle cx="1011" cy="626.806" r="63" fill="#FFE588"/>
<circle cx="1222" cy="626.806" r="63" fill="#FFADAD"/>
<circle cx="1433" cy="520.806" r="63" fill="#FFADAD"/>
<circle cx="2066" cy="529.806" r="63" fill="#AEF383"/>
<circle cx="2277" cy="529.806" r="63" fill="#AEF383"/>
<circle cx="1644" cy="415.806" r="63" fill="#FFADAD"/>
<circle cx="1011" cy="1048.81" r="63" fill="#FFE588"/>
<circle cx="1222" cy="1048.81" r="63" fill="#FFADAD"/>
<circle cx="1433" cy="942.806" r="63" fill="#FFADAD"/>
<circle cx="2066" cy="951.806" r="63" fill="#AEF383"/>
<circle cx="2277" cy="951.806" r="63" fill="#AEF383"/>
<circle cx="1644" cy="837.806" r="63" fill="#FFADAD"/>
<circle cx="1855" cy="739.806" r="63" fill="#FFADAD"/>
<circle cx="1433" cy="309.806" r="46" stroke="#161616" stroke-width="4"/>
<circle cx="1433" cy="731.806" r="46" stroke="#161616" stroke-width="4"/>
<circle cx="1644" cy="626.806" r="46" stroke="#161616" stroke-width="4"/>
<circle cx="1855" cy="528.806" r="46" stroke="#161616" stroke-width="4"/>
<circle cx="1433" cy="520.806" r="46" stroke="#161616" stroke-width="4"/>
<circle cx="1644" cy="415.806" r="46" stroke="#161616" stroke-width="4"/>
<circle cx="1433" cy="942.806" r="46" stroke="#161616" stroke-width="4"/>
<circle cx="1644" cy="837.806" r="46" stroke="#161616" stroke-width="4"/>
<circle cx="1855" cy="739.806" r="46" stroke="#161616" stroke-width="4"/>
<circle cx="2488" cy="424.806" r="63" fill="#F59945"/>
<circle cx="2488" cy="635.806" r="63" fill="#F59945"/>
<circle cx="2488" cy="846.806" r="63" fill="#F59945"/>
<rect y="1200.81" width="2575" height="205" rx="96" fill="#F2F2F2"/>
<circle cx="118.5" cy="1303.31" r="63" fill="#FFE588"/>
<path d="M211.213 1318.81V1288.26H229.647V1291.54H214.911V1301.86H228.693V1305.14H214.911V1315.52H229.886V1318.81H211.213ZM239.357 1305.02V1318.81H235.837V1295.9H239.237V1299.48H239.536C240.073 1298.31 240.888 1297.38 241.982 1296.67C243.075 1295.96 244.487 1295.6 246.218 1295.6C247.769 1295.6 249.126 1295.92 250.289 1296.55C251.453 1297.18 252.357 1298.13 253.004 1299.42C253.65 1300.69 253.973 1302.3 253.973 1304.25V1318.81H250.453V1304.49C250.453 1302.69 249.986 1301.29 249.051 1300.28C248.117 1299.27 246.834 1298.76 245.203 1298.76C244.08 1298.76 243.075 1299 242.191 1299.49C241.316 1299.98 240.624 1300.69 240.117 1301.62C239.61 1302.56 239.357 1303.69 239.357 1305.02ZM270.368 1295.9V1298.88H258.496V1295.9H270.368ZM261.956 1290.41H265.476V1312.24C265.476 1313.24 265.62 1313.98 265.909 1314.48C266.207 1314.97 266.585 1315.3 267.042 1315.46C267.51 1315.62 268.002 1315.7 268.519 1315.7C268.907 1315.7 269.225 1315.68 269.473 1315.64C269.722 1315.59 269.921 1315.55 270.07 1315.52L270.786 1318.69C270.547 1318.78 270.214 1318.87 269.787 1318.96C269.359 1319.05 268.817 1319.1 268.161 1319.1C267.167 1319.1 266.192 1318.89 265.238 1318.46C264.293 1318.04 263.507 1317.38 262.881 1316.51C262.265 1315.63 261.956 1314.53 261.956 1313.2V1290.41ZM275.663 1318.81V1295.9H279.064V1299.36H279.302C279.72 1298.22 280.475 1297.3 281.569 1296.6C282.663 1295.89 283.896 1295.54 285.268 1295.54C285.527 1295.54 285.85 1295.54 286.238 1295.55C286.625 1295.56 286.919 1295.58 287.118 1295.6V1299.18C286.998 1299.15 286.725 1299.1 286.297 1299.04C285.88 1298.97 285.437 1298.94 284.97 1298.94C283.856 1298.94 282.862 1299.17 281.987 1299.64C281.122 1300.1 280.436 1300.73 279.929 1301.55C279.431 1302.35 279.183 1303.27 279.183 1304.31V1318.81H275.663ZM298.031 1319.34C296.58 1319.34 295.262 1319.07 294.079 1318.52C292.896 1317.97 291.956 1317.17 291.26 1316.12C290.564 1315.07 290.216 1313.79 290.216 1312.3C290.216 1310.99 290.475 1309.93 290.992 1309.11C291.509 1308.29 292.2 1307.64 293.065 1307.17C293.93 1306.71 294.884 1306.36 295.928 1306.13C296.982 1305.89 298.041 1305.7 299.105 1305.56C300.497 1305.38 301.626 1305.25 302.491 1305.16C303.366 1305.06 304.002 1304.9 304.4 1304.67C304.808 1304.44 305.012 1304.04 305.012 1303.47V1303.35C305.012 1301.88 304.609 1300.74 303.803 1299.92C303.008 1299.11 301.8 1298.7 300.179 1298.7C298.499 1298.7 297.181 1299.07 296.227 1299.8C295.272 1300.54 294.601 1301.33 294.213 1302.16L290.872 1300.97C291.469 1299.58 292.264 1298.49 293.259 1297.72C294.263 1296.93 295.357 1296.38 296.54 1296.08C297.733 1295.76 298.906 1295.6 300.06 1295.6C300.796 1295.6 301.641 1295.69 302.595 1295.87C303.56 1296.04 304.49 1296.39 305.384 1296.93C306.289 1297.46 307.04 1298.27 307.637 1299.36C308.233 1300.44 308.531 1301.89 308.531 1303.71V1318.81H305.012V1315.7H304.833C304.594 1316.2 304.196 1316.73 303.639 1317.3C303.083 1317.87 302.342 1318.35 301.417 1318.75C300.492 1319.14 299.364 1319.34 298.031 1319.34ZM298.568 1316.18C299.96 1316.18 301.134 1315.91 302.088 1315.36C303.053 1314.81 303.779 1314.11 304.266 1313.24C304.763 1312.38 305.012 1311.47 305.012 1310.51V1307.29C304.862 1307.47 304.534 1307.63 304.027 1307.78C303.53 1307.92 302.953 1308.05 302.297 1308.16C301.651 1308.26 301.019 1308.35 300.403 1308.43C299.796 1308.49 299.304 1308.55 298.926 1308.6C298.012 1308.72 297.156 1308.92 296.361 1309.19C295.575 1309.44 294.939 1309.84 294.452 1310.36C293.975 1310.88 293.736 1311.59 293.736 1312.48C293.736 1313.71 294.188 1314.63 295.093 1315.26C296.008 1315.87 297.166 1316.18 298.568 1316.18ZM323.607 1319.28C321.697 1319.28 320.012 1318.8 318.55 1317.84C317.089 1316.86 315.945 1315.49 315.12 1313.72C314.295 1311.94 313.882 1309.84 313.882 1307.41C313.882 1305 314.295 1302.92 315.12 1301.15C315.945 1299.38 317.094 1298.01 318.565 1297.05C320.037 1296.08 321.737 1295.6 323.666 1295.6C325.158 1295.6 326.336 1295.85 327.201 1296.34C328.076 1296.83 328.742 1297.39 329.2 1298.01C329.667 1298.63 330.03 1299.14 330.288 1299.54H330.587V1288.26H334.107V1318.81H330.706V1315.29H330.288C330.03 1315.7 329.662 1316.23 329.185 1316.87C328.707 1317.49 328.026 1318.06 327.141 1318.55C326.256 1319.04 325.078 1319.28 323.607 1319.28ZM324.084 1316.12C325.496 1316.12 326.689 1315.75 327.663 1315.02C328.638 1314.27 329.379 1313.24 329.886 1311.93C330.393 1310.61 330.646 1309.08 330.646 1307.35C330.646 1305.64 330.398 1304.14 329.901 1302.86C329.403 1301.57 328.668 1300.57 327.693 1299.85C326.719 1299.12 325.516 1298.76 324.084 1298.76C322.592 1298.76 321.349 1299.14 320.355 1299.91C319.371 1300.66 318.63 1301.69 318.133 1303C317.646 1304.29 317.402 1305.74 317.402 1307.35C317.402 1308.98 317.651 1310.46 318.148 1311.8C318.655 1313.12 319.401 1314.17 320.385 1314.96C321.379 1315.73 322.612 1316.12 324.084 1316.12ZM347.783 1319.34C346.332 1319.34 345.014 1319.07 343.831 1318.52C342.648 1317.97 341.708 1317.17 341.012 1316.12C340.316 1315.07 339.968 1313.79 339.968 1312.3C339.968 1310.99 340.227 1309.93 340.744 1309.11C341.261 1308.29 341.952 1307.64 342.817 1307.17C343.682 1306.71 344.636 1306.36 345.68 1306.13C346.734 1305.89 347.793 1305.7 348.857 1305.56C350.249 1305.38 351.378 1305.25 352.243 1305.16C353.118 1305.06 353.754 1304.9 354.152 1304.67C354.56 1304.44 354.763 1304.04 354.763 1303.47V1303.35C354.763 1301.88 354.361 1300.74 353.555 1299.92C352.76 1299.11 351.552 1298.7 349.931 1298.7C348.251 1298.7 346.933 1299.07 345.979 1299.8C345.024 1300.54 344.353 1301.33 343.965 1302.16L340.624 1300.97C341.221 1299.58 342.016 1298.49 343.011 1297.72C344.015 1296.93 345.109 1296.38 346.292 1296.08C347.485 1295.76 348.658 1295.6 349.812 1295.6C350.548 1295.6 351.393 1295.69 352.347 1295.87C353.312 1296.04 354.241 1296.39 355.136 1296.93C356.041 1297.46 356.792 1298.27 357.388 1299.36C357.985 1300.44 358.283 1301.89 358.283 1303.71V1318.81H354.763V1315.7H354.585C354.346 1316.2 353.948 1316.73 353.391 1317.3C352.835 1317.87 352.094 1318.35 351.169 1318.75C350.244 1319.14 349.116 1319.34 347.783 1319.34ZM348.32 1316.18C349.712 1316.18 350.886 1315.91 351.84 1315.36C352.805 1314.81 353.531 1314.11 354.018 1313.24C354.515 1312.38 354.763 1311.47 354.763 1310.51V1307.29C354.614 1307.47 354.286 1307.63 353.779 1307.78C353.282 1307.92 352.705 1308.05 352.049 1308.16C351.403 1308.26 350.771 1308.35 350.155 1308.43C349.548 1308.49 349.056 1308.55 348.678 1308.6C347.763 1308.72 346.908 1308.92 346.113 1309.19C345.327 1309.44 344.691 1309.84 344.204 1310.36C343.727 1310.88 343.488 1311.59 343.488 1312.48C343.488 1313.71 343.94 1314.63 344.845 1315.26C345.76 1315.87 346.918 1316.18 348.32 1316.18Z" fill="#161616"/>
<circle cx="497.5" cy="1303.31" r="63" fill="#88DBFF"/>
<path d="M590.22 1318.81V1288.26H600.541C602.928 1288.26 604.887 1288.67 606.418 1289.48C607.949 1290.29 609.083 1291.4 609.818 1292.81C610.554 1294.22 610.922 1295.83 610.922 1297.63C610.922 1299.43 610.554 1301.02 609.818 1302.41C609.083 1303.81 607.954 1304.9 606.433 1305.7C604.911 1306.48 602.968 1306.87 600.601 1306.87H592.249V1303.53H600.482C602.112 1303.53 603.425 1303.29 604.419 1302.82C605.423 1302.34 606.149 1301.66 606.597 1300.79C607.054 1299.9 607.283 1298.85 607.283 1297.63C607.283 1296.4 607.054 1295.34 606.597 1294.42C606.139 1293.51 605.409 1292.8 604.404 1292.3C603.4 1291.8 602.073 1291.54 600.422 1291.54H593.919V1318.81H590.22ZM604.598 1305.08L612.115 1318.81H607.82L600.422 1305.08H604.598ZM625.967 1319.28C623.76 1319.28 621.856 1318.8 620.255 1317.82C618.664 1316.84 617.436 1315.46 616.571 1313.71C615.716 1311.94 615.288 1309.88 615.288 1307.53C615.288 1305.18 615.716 1303.12 616.571 1301.33C617.436 1299.53 618.639 1298.12 620.18 1297.12C621.732 1296.11 623.541 1295.6 625.609 1295.6C626.803 1295.6 627.981 1295.8 629.144 1296.2C630.308 1296.59 631.366 1297.24 632.321 1298.13C633.276 1299.02 634.036 1300.19 634.603 1301.65C635.17 1303.12 635.453 1304.92 635.453 1307.05V1308.54H617.794V1305.5H631.874C631.874 1304.21 631.615 1303.06 631.098 1302.04C630.591 1301.03 629.865 1300.23 628.92 1299.64C627.986 1299.05 626.882 1298.76 625.609 1298.76C624.207 1298.76 622.994 1299.11 621.97 1299.8C620.956 1300.49 620.175 1301.39 619.629 1302.49C619.082 1303.59 618.808 1304.78 618.808 1306.04V1308.07C618.808 1309.8 619.107 1311.26 619.703 1312.47C620.31 1313.66 621.15 1314.57 622.224 1315.2C623.298 1315.81 624.545 1316.12 625.967 1316.12C626.892 1316.12 627.727 1315.99 628.473 1315.73C629.229 1315.46 629.88 1315.07 630.427 1314.54C630.974 1314 631.396 1313.34 631.695 1312.54L635.095 1313.5C634.737 1314.65 634.136 1315.66 633.29 1316.54C632.445 1317.4 631.401 1318.08 630.158 1318.57C628.915 1319.04 627.518 1319.28 625.967 1319.28ZM650.114 1319.28C647.967 1319.28 646.117 1318.78 644.566 1317.76C643.015 1316.75 641.822 1315.35 640.987 1313.57C640.151 1311.79 639.734 1309.76 639.734 1307.47C639.734 1305.14 640.161 1303.09 641.016 1301.31C641.881 1299.52 643.085 1298.12 644.626 1297.12C646.177 1296.11 647.987 1295.6 650.055 1295.6C651.665 1295.6 653.117 1295.9 654.41 1296.49C655.702 1297.09 656.761 1297.93 657.587 1299C658.412 1300.07 658.924 1301.33 659.123 1302.76H655.603C655.335 1301.71 654.738 1300.79 653.813 1299.98C652.898 1299.17 651.665 1298.76 650.114 1298.76C648.742 1298.76 647.539 1299.12 646.505 1299.83C645.481 1300.54 644.68 1301.54 644.104 1302.83C643.537 1304.11 643.254 1305.62 643.254 1307.35C643.254 1309.12 643.532 1310.66 644.089 1311.97C644.656 1313.29 645.451 1314.31 646.475 1315.03C647.509 1315.76 648.722 1316.12 650.114 1316.12C651.029 1316.12 651.859 1315.96 652.605 1315.64C653.351 1315.33 653.982 1314.87 654.499 1314.27C655.016 1313.68 655.384 1312.96 655.603 1312.12H659.123C658.924 1313.48 658.432 1314.69 657.646 1315.78C656.871 1316.85 655.842 1317.71 654.559 1318.34C653.286 1318.97 651.805 1319.28 650.114 1319.28ZM678.706 1309.44V1295.9H682.226V1318.81H678.706V1314.93H678.467C677.93 1316.09 677.095 1317.08 675.962 1317.9C674.828 1318.7 673.396 1319.1 671.666 1319.1C670.234 1319.1 668.962 1318.79 667.848 1318.16C666.734 1317.53 665.859 1316.57 665.223 1315.3C664.587 1314.02 664.268 1312.4 664.268 1310.45V1295.9H667.788V1310.21C667.788 1311.89 668.256 1313.22 669.19 1314.21C670.135 1315.21 671.338 1315.7 672.8 1315.7C673.675 1315.7 674.565 1315.48 675.469 1315.03C676.384 1314.59 677.15 1313.9 677.766 1312.97C678.393 1312.05 678.706 1310.87 678.706 1309.44ZM688.673 1318.81V1295.9H692.073V1299.36H692.312C692.73 1298.22 693.485 1297.3 694.579 1296.6C695.673 1295.89 696.906 1295.54 698.278 1295.54C698.536 1295.54 698.86 1295.54 699.247 1295.55C699.635 1295.56 699.928 1295.58 700.127 1295.6V1299.18C700.008 1299.15 699.735 1299.1 699.307 1299.04C698.889 1298.97 698.447 1298.94 697.98 1298.94C696.866 1298.94 695.872 1299.17 694.997 1299.64C694.132 1300.1 693.445 1300.73 692.938 1301.55C692.441 1302.35 692.193 1303.27 692.193 1304.31V1318.81H688.673ZM704.3 1318.81V1295.9H707.7V1299.36H707.939C708.357 1298.22 709.112 1297.3 710.206 1296.6C711.3 1295.89 712.533 1295.54 713.905 1295.54C714.163 1295.54 714.487 1295.54 714.874 1295.55C715.262 1295.56 715.555 1295.58 715.754 1295.6V1299.18C715.635 1299.15 715.362 1299.1 714.934 1299.04C714.516 1298.97 714.074 1298.94 713.607 1298.94C712.493 1298.94 711.499 1299.17 710.624 1299.64C709.759 1300.1 709.072 1300.73 708.565 1301.55C708.068 1302.35 707.82 1303.27 707.82 1304.31V1318.81H704.3ZM728.835 1319.28C726.627 1319.28 724.723 1318.8 723.122 1317.82C721.531 1316.84 720.303 1315.46 719.438 1313.71C718.583 1311.94 718.156 1309.88 718.156 1307.53C718.156 1305.18 718.583 1303.12 719.438 1301.33C720.303 1299.53 721.506 1298.12 723.048 1297.12C724.599 1296.11 726.408 1295.6 728.477 1295.6C729.67 1295.6 730.848 1295.8 732.011 1296.2C733.175 1296.59 734.234 1297.24 735.188 1298.13C736.143 1299.02 736.903 1300.19 737.47 1301.65C738.037 1303.12 738.32 1304.92 738.32 1307.05V1308.54H720.661V1305.5H734.741C734.741 1304.21 734.482 1303.06 733.965 1302.04C733.458 1301.03 732.732 1300.23 731.788 1299.64C730.853 1299.05 729.749 1298.76 728.477 1298.76C727.075 1298.76 725.862 1299.11 724.837 1299.8C723.823 1300.49 723.043 1301.39 722.496 1302.49C721.949 1303.59 721.675 1304.78 721.675 1306.04V1308.07C721.675 1309.8 721.974 1311.26 722.57 1312.47C723.177 1313.66 724.017 1314.57 725.091 1315.2C726.165 1315.81 727.413 1316.12 728.835 1316.12C729.759 1316.12 730.594 1315.99 731.34 1315.73C732.096 1315.46 732.747 1315.07 733.294 1314.54C733.841 1314 734.263 1313.34 734.562 1312.54L737.962 1313.5C737.604 1314.65 737.003 1315.66 736.158 1316.54C735.313 1317.4 734.268 1318.08 733.026 1318.57C731.783 1319.04 730.386 1319.28 728.835 1319.28ZM747.195 1305.02V1318.81H743.675V1295.9H747.075V1299.48H747.374C747.911 1298.31 748.726 1297.38 749.82 1296.67C750.913 1295.96 752.325 1295.6 754.055 1295.6C755.607 1295.6 756.964 1295.92 758.127 1296.55C759.29 1297.18 760.195 1298.13 760.842 1299.42C761.488 1300.69 761.811 1302.3 761.811 1304.25V1318.81H758.291V1304.49C758.291 1302.69 757.824 1301.29 756.889 1300.28C755.955 1299.27 754.672 1298.76 753.041 1298.76C751.918 1298.76 750.913 1299 750.028 1299.49C749.153 1299.98 748.462 1300.69 747.955 1301.62C747.448 1302.56 747.195 1303.69 747.195 1305.02ZM778.206 1295.9V1298.88H766.334V1295.9H778.206ZM769.794 1290.41H773.314V1312.24C773.314 1313.24 773.458 1313.98 773.747 1314.48C774.045 1314.97 774.423 1315.3 774.88 1315.46C775.347 1315.62 775.84 1315.7 776.357 1315.7C776.744 1315.7 777.063 1315.68 777.311 1315.64C777.56 1315.59 777.759 1315.55 777.908 1315.52L778.624 1318.69C778.385 1318.78 778.052 1318.87 777.624 1318.96C777.197 1319.05 776.655 1319.1 775.999 1319.1C775.004 1319.1 774.03 1318.89 773.075 1318.46C772.131 1318.04 771.345 1317.38 770.719 1316.51C770.102 1315.63 769.794 1314.53 769.794 1313.2V1290.41ZM792.86 1319.28C790.653 1319.28 788.748 1318.8 787.148 1317.82C785.557 1316.84 784.329 1315.46 783.464 1313.71C782.608 1311.94 782.181 1309.88 782.181 1307.53C782.181 1305.18 782.608 1303.12 783.464 1301.33C784.329 1299.53 785.532 1298.12 787.073 1297.12C788.624 1296.11 790.434 1295.6 792.502 1295.6C793.695 1295.6 794.873 1295.8 796.037 1296.2C797.2 1296.59 798.259 1297.24 799.214 1298.13C800.168 1299.02 800.929 1300.19 801.496 1301.65C802.062 1303.12 802.346 1304.92 802.346 1307.05V1308.54H784.687V1305.5H798.766C798.766 1304.21 798.508 1303.06 797.991 1302.04C797.483 1301.03 796.758 1300.23 795.813 1299.64C794.878 1299.05 793.775 1298.76 792.502 1298.76C791.1 1298.76 789.887 1299.11 788.863 1299.8C787.849 1300.49 787.068 1301.39 786.521 1302.49C785.974 1303.59 785.701 1304.78 785.701 1306.04V1308.07C785.701 1309.8 785.999 1311.26 786.596 1312.47C787.202 1313.66 788.042 1314.57 789.116 1315.2C790.19 1315.81 791.438 1316.12 792.86 1316.12C793.785 1316.12 794.62 1315.99 795.366 1315.73C796.121 1315.46 796.773 1315.07 797.319 1314.54C797.866 1314 798.289 1313.34 798.587 1312.54L801.988 1313.5C801.63 1314.65 801.028 1315.66 800.183 1316.54C799.338 1317.4 798.294 1318.08 797.051 1318.57C795.808 1319.04 794.411 1319.28 792.86 1319.28Z" fill="#161616"/>
<circle cx="940.5" cy="1303.31" r="63" fill="#F59944"/>
<path d="M1050.34 1295.9C1050.16 1294.39 1049.43 1293.21 1048.16 1292.38C1046.89 1291.54 1045.32 1291.12 1043.48 1291.12C1042.12 1291.12 1040.94 1291.34 1039.93 1291.78C1038.92 1292.22 1038.14 1292.82 1037.57 1293.59C1037.01 1294.35 1036.73 1295.22 1036.73 1296.2C1036.73 1297.01 1036.93 1297.71 1037.32 1298.3C1037.71 1298.87 1038.22 1299.36 1038.84 1299.74C1039.45 1300.12 1040.1 1300.44 1040.78 1300.68C1041.45 1300.92 1042.07 1301.12 1042.64 1301.27L1045.74 1302.1C1046.54 1302.31 1047.42 1302.6 1048.4 1302.97C1049.38 1303.33 1050.32 1303.84 1051.22 1304.47C1052.12 1305.1 1052.87 1305.9 1053.45 1306.89C1054.04 1307.87 1054.33 1309.08 1054.33 1310.51C1054.33 1312.16 1053.9 1313.66 1053.04 1314.99C1052.18 1316.32 1050.93 1317.38 1049.28 1318.16C1047.64 1318.95 1045.64 1319.34 1043.3 1319.34C1041.11 1319.34 1039.21 1318.99 1037.61 1318.28C1036.02 1317.58 1034.77 1316.59 1033.86 1315.33C1032.95 1314.07 1032.44 1312.6 1032.32 1310.93H1036.14C1036.24 1312.08 1036.62 1313.04 1037.3 1313.79C1037.99 1314.54 1038.85 1315.1 1039.9 1315.46C1040.95 1315.82 1042.08 1316 1043.3 1316C1044.71 1316 1045.98 1315.77 1047.1 1315.32C1048.22 1314.85 1049.11 1314.2 1049.77 1313.38C1050.43 1312.54 1050.75 1311.57 1050.75 1310.45C1050.75 1309.44 1050.47 1308.61 1049.9 1307.98C1049.34 1307.34 1048.59 1306.82 1047.67 1306.43C1046.74 1306.03 1045.74 1305.68 1044.67 1305.38L1040.91 1304.31C1038.52 1303.62 1036.63 1302.64 1035.24 1301.37C1033.85 1300.1 1033.15 1298.43 1033.15 1296.37C1033.15 1294.66 1033.62 1293.17 1034.54 1291.9C1035.48 1290.62 1036.73 1289.62 1038.3 1288.92C1039.88 1288.2 1041.65 1287.84 1043.59 1287.84C1045.56 1287.84 1047.31 1288.2 1048.84 1288.9C1050.38 1289.6 1051.59 1290.55 1052.48 1291.77C1053.39 1292.98 1053.87 1294.36 1053.92 1295.9H1050.34ZM1066.68 1319.34C1065.23 1319.34 1063.91 1319.07 1062.73 1318.52C1061.54 1317.97 1060.6 1317.17 1059.91 1316.12C1059.21 1315.07 1058.86 1313.79 1058.86 1312.3C1058.86 1310.99 1059.12 1309.93 1059.64 1309.11C1060.16 1308.29 1060.85 1307.64 1061.71 1307.17C1062.58 1306.71 1063.53 1306.36 1064.58 1306.13C1065.63 1305.89 1066.69 1305.7 1067.75 1305.56C1069.14 1305.38 1070.27 1305.25 1071.14 1305.16C1072.01 1305.06 1072.65 1304.9 1073.05 1304.67C1073.46 1304.44 1073.66 1304.04 1073.66 1303.47V1303.35C1073.66 1301.88 1073.26 1300.74 1072.45 1299.92C1071.66 1299.11 1070.45 1298.7 1068.83 1298.7C1067.15 1298.7 1065.83 1299.07 1064.87 1299.8C1063.92 1300.54 1063.25 1301.33 1062.86 1302.16L1059.52 1300.97C1060.12 1299.58 1060.91 1298.49 1061.91 1297.72C1062.91 1296.93 1064 1296.38 1065.19 1296.08C1066.38 1295.76 1067.55 1295.6 1068.71 1295.6C1069.44 1295.6 1070.29 1295.69 1071.24 1295.87C1072.21 1296.04 1073.14 1296.39 1074.03 1296.93C1074.94 1297.46 1075.69 1298.27 1076.28 1299.36C1076.88 1300.44 1077.18 1301.89 1077.18 1303.71V1318.81H1073.66V1315.7H1073.48C1073.24 1316.2 1072.84 1316.73 1072.29 1317.3C1071.73 1317.87 1070.99 1318.35 1070.06 1318.75C1069.14 1319.14 1068.01 1319.34 1066.68 1319.34ZM1067.22 1316.18C1068.61 1316.18 1069.78 1315.91 1070.74 1315.36C1071.7 1314.81 1072.43 1314.11 1072.91 1313.24C1073.41 1312.38 1073.66 1311.47 1073.66 1310.51V1307.29C1073.51 1307.47 1073.18 1307.63 1072.67 1307.78C1072.18 1307.92 1071.6 1308.05 1070.94 1308.16C1070.3 1308.26 1069.67 1308.35 1069.05 1308.43C1068.44 1308.49 1067.95 1308.55 1067.57 1308.6C1066.66 1308.72 1065.8 1308.92 1065.01 1309.19C1064.22 1309.44 1063.59 1309.84 1063.1 1310.36C1062.62 1310.88 1062.38 1311.59 1062.38 1312.48C1062.38 1313.71 1062.84 1314.63 1063.74 1315.26C1064.66 1315.87 1065.81 1316.18 1067.22 1316.18ZM1087.12 1288.26V1318.81H1083.6V1288.26H1087.12ZM1093.57 1318.81V1295.9H1097.09V1318.81H1093.57ZM1095.36 1292.08C1094.67 1292.08 1094.08 1291.84 1093.59 1291.38C1093.1 1290.91 1092.85 1290.35 1092.85 1289.69C1092.85 1289.04 1093.1 1288.47 1093.59 1288.01C1094.08 1287.54 1094.67 1287.31 1095.36 1287.31C1096.05 1287.31 1096.63 1287.54 1097.12 1288.01C1097.62 1288.47 1097.87 1289.04 1097.87 1289.69C1097.87 1290.35 1097.62 1290.91 1097.12 1291.38C1096.63 1291.84 1096.05 1292.08 1095.36 1292.08ZM1112.19 1319.28C1110.28 1319.28 1108.59 1318.8 1107.13 1317.84C1105.67 1316.86 1104.53 1315.49 1103.7 1313.72C1102.88 1311.94 1102.46 1309.84 1102.46 1307.41C1102.46 1305 1102.88 1302.92 1103.7 1301.15C1104.53 1299.38 1105.67 1298.01 1107.15 1297.05C1108.62 1296.08 1110.32 1295.6 1112.25 1295.6C1113.74 1295.6 1114.92 1295.85 1115.78 1296.34C1116.66 1296.83 1117.32 1297.39 1117.78 1298.01C1118.25 1298.63 1118.61 1299.14 1118.87 1299.54H1119.17V1288.26H1122.69V1318.81H1119.29V1315.29H1118.87C1118.61 1315.7 1118.24 1316.23 1117.77 1316.87C1117.29 1317.49 1116.61 1318.06 1115.72 1318.55C1114.84 1319.04 1113.66 1319.28 1112.19 1319.28ZM1112.66 1316.12C1114.08 1316.12 1115.27 1315.75 1116.24 1315.02C1117.22 1314.27 1117.96 1313.24 1118.47 1311.93C1118.97 1310.61 1119.23 1309.08 1119.23 1307.35C1119.23 1305.64 1118.98 1304.14 1118.48 1302.86C1117.98 1301.57 1117.25 1300.57 1116.27 1299.85C1115.3 1299.12 1114.1 1298.76 1112.66 1298.76C1111.17 1298.76 1109.93 1299.14 1108.94 1299.91C1107.95 1300.66 1107.21 1301.69 1106.71 1303C1106.23 1304.29 1105.98 1305.74 1105.98 1307.35C1105.98 1308.98 1106.23 1310.46 1106.73 1311.8C1107.24 1313.12 1107.98 1314.17 1108.97 1314.96C1109.96 1315.73 1111.19 1316.12 1112.66 1316.12ZM1136.36 1319.34C1134.91 1319.34 1133.6 1319.07 1132.41 1318.52C1131.23 1317.97 1130.29 1317.17 1129.59 1316.12C1128.9 1315.07 1128.55 1313.79 1128.55 1312.3C1128.55 1310.99 1128.81 1309.93 1129.32 1309.11C1129.84 1308.29 1130.53 1307.64 1131.4 1307.17C1132.26 1306.71 1133.22 1306.36 1134.26 1306.13C1135.32 1305.89 1136.37 1305.7 1137.44 1305.56C1138.83 1305.38 1139.96 1305.25 1140.82 1305.16C1141.7 1305.06 1142.34 1304.9 1142.73 1304.67C1143.14 1304.44 1143.34 1304.04 1143.34 1303.47V1303.35C1143.34 1301.88 1142.94 1300.74 1142.14 1299.92C1141.34 1299.11 1140.13 1298.7 1138.51 1298.7C1136.83 1298.7 1135.51 1299.07 1134.56 1299.8C1133.61 1300.54 1132.93 1301.33 1132.55 1302.16L1129.21 1300.97C1129.8 1299.58 1130.6 1298.49 1131.59 1297.72C1132.6 1296.93 1133.69 1296.38 1134.87 1296.08C1136.07 1295.76 1137.24 1295.6 1138.39 1295.6C1139.13 1295.6 1139.97 1295.69 1140.93 1295.87C1141.89 1296.04 1142.82 1296.39 1143.72 1296.93C1144.62 1297.46 1145.37 1298.27 1145.97 1299.36C1146.57 1300.44 1146.86 1301.89 1146.86 1303.71V1318.81H1143.34V1315.7H1143.17C1142.93 1316.2 1142.53 1316.73 1141.97 1317.3C1141.42 1317.87 1140.67 1318.35 1139.75 1318.75C1138.83 1319.14 1137.7 1319.34 1136.36 1319.34ZM1136.9 1316.18C1138.29 1316.18 1139.47 1315.91 1140.42 1315.36C1141.39 1314.81 1142.11 1314.11 1142.6 1313.24C1143.1 1312.38 1143.34 1311.47 1143.34 1310.51V1307.29C1143.2 1307.47 1142.87 1307.63 1142.36 1307.78C1141.86 1307.92 1141.29 1308.05 1140.63 1308.16C1139.98 1308.26 1139.35 1308.35 1138.74 1308.43C1138.13 1308.49 1137.64 1308.55 1137.26 1308.6C1136.34 1308.72 1135.49 1308.92 1134.69 1309.19C1133.91 1309.44 1133.27 1309.84 1132.78 1310.36C1132.31 1310.88 1132.07 1311.59 1132.07 1312.48C1132.07 1313.71 1132.52 1314.63 1133.43 1315.26C1134.34 1315.87 1135.5 1316.18 1136.9 1316.18Z" fill="#161616"/>
<circle cx="1286.5" cy="1303.31" r="63" fill="#AEF383"/>
<path d="M1405.1 1303.53C1405.1 1306.75 1404.52 1309.54 1403.35 1311.89C1402.19 1314.23 1400.59 1316.04 1398.56 1317.31C1396.54 1318.59 1394.22 1319.22 1391.61 1319.22C1389.01 1319.22 1386.69 1318.59 1384.66 1317.31C1382.64 1316.04 1381.04 1314.23 1379.88 1311.89C1378.71 1309.54 1378.13 1306.75 1378.13 1303.53C1378.13 1300.31 1378.71 1297.53 1379.88 1295.18C1381.04 1292.83 1382.64 1291.02 1384.66 1289.75C1386.69 1288.48 1389.01 1287.84 1391.61 1287.84C1394.22 1287.84 1396.54 1288.48 1398.56 1289.75C1400.59 1291.02 1402.19 1292.83 1403.35 1295.18C1404.52 1297.53 1405.1 1300.31 1405.1 1303.53ZM1401.52 1303.53C1401.52 1300.89 1401.08 1298.66 1400.19 1296.84C1399.32 1295.02 1398.13 1293.64 1396.63 1292.71C1395.13 1291.77 1393.46 1291.3 1391.61 1291.3C1389.77 1291.3 1388.09 1291.77 1386.59 1292.71C1385.1 1293.64 1383.91 1295.02 1383.02 1296.84C1382.15 1298.66 1381.71 1300.89 1381.71 1303.53C1381.71 1306.18 1382.15 1308.41 1383.02 1310.23C1383.91 1312.05 1385.1 1313.43 1386.59 1314.36C1388.09 1315.3 1389.77 1315.76 1391.61 1315.76C1393.46 1315.76 1395.13 1315.3 1396.63 1314.36C1398.13 1313.43 1399.32 1312.05 1400.19 1310.23C1401.08 1308.41 1401.52 1306.18 1401.52 1303.53ZM1420.15 1319.28C1418 1319.28 1416.15 1318.78 1414.6 1317.76C1413.05 1316.75 1411.85 1315.35 1411.02 1313.57C1410.18 1311.79 1409.77 1309.76 1409.77 1307.47C1409.77 1305.14 1410.19 1303.09 1411.05 1301.31C1411.91 1299.52 1413.12 1298.12 1414.66 1297.12C1416.21 1296.11 1418.02 1295.6 1420.09 1295.6C1421.7 1295.6 1423.15 1295.9 1424.44 1296.49C1425.73 1297.09 1426.79 1297.93 1427.62 1299C1428.44 1300.07 1428.96 1301.33 1429.16 1302.76H1425.64C1425.37 1301.71 1424.77 1300.79 1423.85 1299.98C1422.93 1299.17 1421.7 1298.76 1420.15 1298.76C1418.77 1298.76 1417.57 1299.12 1416.54 1299.83C1415.51 1300.54 1414.71 1301.54 1414.14 1302.83C1413.57 1304.11 1413.29 1305.62 1413.29 1307.35C1413.29 1309.12 1413.56 1310.66 1414.12 1311.97C1414.69 1313.29 1415.48 1314.31 1416.51 1315.03C1417.54 1315.76 1418.75 1316.12 1420.15 1316.12C1421.06 1316.12 1421.89 1315.96 1422.64 1315.64C1423.38 1315.33 1424.01 1314.87 1424.53 1314.27C1425.05 1313.68 1425.42 1312.96 1425.64 1312.12H1429.16C1428.96 1313.48 1428.46 1314.69 1427.68 1315.78C1426.9 1316.85 1425.87 1317.71 1424.59 1318.34C1423.32 1318.97 1421.84 1319.28 1420.15 1319.28ZM1448.74 1309.44V1295.9H1452.26V1318.81H1448.74V1314.93H1448.5C1447.96 1316.09 1447.13 1317.08 1445.99 1317.9C1444.86 1318.7 1443.43 1319.1 1441.7 1319.1C1440.27 1319.1 1438.99 1318.79 1437.88 1318.16C1436.77 1317.53 1435.89 1316.57 1435.26 1315.3C1434.62 1314.02 1434.3 1312.4 1434.3 1310.45V1295.9H1437.82V1310.21C1437.82 1311.89 1438.29 1313.22 1439.22 1314.21C1440.17 1315.21 1441.37 1315.7 1442.83 1315.7C1443.71 1315.7 1444.6 1315.48 1445.5 1315.03C1446.42 1314.59 1447.18 1313.9 1447.8 1312.97C1448.42 1312.05 1448.74 1310.87 1448.74 1309.44ZM1462.22 1288.26V1318.81H1458.7V1288.26H1462.22ZM1478.63 1295.9V1298.88H1466.76V1295.9H1478.63ZM1470.22 1290.41H1473.74V1312.24C1473.74 1313.24 1473.89 1313.98 1474.18 1314.48C1474.47 1314.97 1474.85 1315.3 1475.31 1315.46C1475.78 1315.62 1476.27 1315.7 1476.79 1315.7C1477.17 1315.7 1477.49 1315.68 1477.74 1315.64C1477.99 1315.59 1478.19 1315.55 1478.34 1315.52L1479.05 1318.69C1478.81 1318.78 1478.48 1318.87 1478.05 1318.96C1477.63 1319.05 1477.08 1319.1 1476.43 1319.1C1475.43 1319.1 1474.46 1318.89 1473.5 1318.46C1472.56 1318.04 1471.77 1317.38 1471.15 1316.51C1470.53 1315.63 1470.22 1314.53 1470.22 1313.2V1290.41ZM1490.67 1319.34C1489.22 1319.34 1487.9 1319.07 1486.72 1318.52C1485.54 1317.97 1484.6 1317.17 1483.9 1316.12C1483.2 1315.07 1482.86 1313.79 1482.86 1312.3C1482.86 1310.99 1483.11 1309.93 1483.63 1309.11C1484.15 1308.29 1484.84 1307.64 1485.7 1307.17C1486.57 1306.71 1487.52 1306.36 1488.57 1306.13C1489.62 1305.89 1490.68 1305.7 1491.74 1305.56C1493.14 1305.38 1494.27 1305.25 1495.13 1305.16C1496.01 1305.06 1496.64 1304.9 1497.04 1304.67C1497.45 1304.44 1497.65 1304.04 1497.65 1303.47V1303.35C1497.65 1301.88 1497.25 1300.74 1496.44 1299.92C1495.65 1299.11 1494.44 1298.7 1492.82 1298.7C1491.14 1298.7 1489.82 1299.07 1488.87 1299.8C1487.91 1300.54 1487.24 1301.33 1486.85 1302.16L1483.51 1300.97C1484.11 1299.58 1484.9 1298.49 1485.9 1297.72C1486.9 1296.93 1488 1296.38 1489.18 1296.08C1490.37 1295.76 1491.55 1295.6 1492.7 1295.6C1493.44 1295.6 1494.28 1295.69 1495.23 1295.87C1496.2 1296.04 1497.13 1296.39 1498.02 1296.93C1498.93 1297.46 1499.68 1298.27 1500.28 1299.36C1500.87 1300.44 1501.17 1301.89 1501.17 1303.71V1318.81H1497.65V1315.7H1497.47C1497.23 1316.2 1496.84 1316.73 1496.28 1317.3C1495.72 1317.87 1494.98 1318.35 1494.06 1318.75C1493.13 1319.14 1492 1319.34 1490.67 1319.34ZM1491.21 1316.18C1492.6 1316.18 1493.77 1315.91 1494.73 1315.36C1495.69 1314.81 1496.42 1314.11 1496.91 1313.24C1497.4 1312.38 1497.65 1311.47 1497.65 1310.51V1307.29C1497.5 1307.47 1497.17 1307.63 1496.67 1307.78C1496.17 1307.92 1495.59 1308.05 1494.94 1308.16C1494.29 1308.26 1493.66 1308.35 1493.04 1308.43C1492.44 1308.49 1491.94 1308.55 1491.57 1308.6C1490.65 1308.72 1489.8 1308.92 1489 1309.19C1488.22 1309.44 1487.58 1309.84 1487.09 1310.36C1486.61 1310.88 1486.38 1311.59 1486.38 1312.48C1486.38 1313.71 1486.83 1314.63 1487.73 1315.26C1488.65 1315.87 1489.81 1316.18 1491.21 1316.18Z" fill="#161616"/>
<circle cx="1640.5" cy="1303.31" r="63" fill="#FFADAD"/>
<path d="M1733.31 1318.81V1288.26H1737.01V1303.41H1737.37L1751.09 1288.26H1755.92L1743.1 1302.04L1755.92 1318.81H1751.45L1740.83 1304.61L1737.01 1308.9V1318.81H1733.31ZM1768.16 1319.28C1765.95 1319.28 1764.05 1318.8 1762.45 1317.82C1760.86 1316.84 1759.63 1315.46 1758.76 1313.71C1757.91 1311.94 1757.48 1309.88 1757.48 1307.53C1757.48 1305.18 1757.91 1303.12 1758.76 1301.33C1759.63 1299.53 1760.83 1298.12 1762.37 1297.12C1763.92 1296.11 1765.73 1295.6 1767.8 1295.6C1768.99 1295.6 1770.17 1295.8 1771.34 1296.2C1772.5 1296.59 1773.56 1297.24 1774.51 1298.13C1775.47 1299.02 1776.23 1300.19 1776.79 1301.65C1777.36 1303.12 1777.64 1304.92 1777.64 1307.05V1308.54H1759.99V1305.5H1774.06C1774.06 1304.21 1773.81 1303.06 1773.29 1302.04C1772.78 1301.03 1772.06 1300.23 1771.11 1299.64C1770.18 1299.05 1769.07 1298.76 1767.8 1298.76C1766.4 1298.76 1765.19 1299.11 1764.16 1299.8C1763.15 1300.49 1762.37 1301.39 1761.82 1302.49C1761.27 1303.59 1761 1304.78 1761 1306.04V1308.07C1761 1309.8 1761.3 1311.26 1761.89 1312.47C1762.5 1313.66 1763.34 1314.57 1764.42 1315.2C1765.49 1315.81 1766.74 1316.12 1768.16 1316.12C1769.08 1316.12 1769.92 1315.99 1770.66 1315.73C1771.42 1315.46 1772.07 1315.07 1772.62 1314.54C1773.17 1314 1773.59 1313.34 1773.89 1312.54L1777.29 1313.5C1776.93 1314.65 1776.33 1315.66 1775.48 1316.54C1774.64 1317.4 1773.59 1318.08 1772.35 1318.57C1771.11 1319.04 1769.71 1319.28 1768.16 1319.28ZM1783 1318.81V1295.9H1786.4V1299.36H1786.64C1787.06 1298.22 1787.81 1297.3 1788.91 1296.6C1790 1295.89 1791.23 1295.54 1792.6 1295.54C1792.86 1295.54 1793.19 1295.54 1793.57 1295.55C1793.96 1295.56 1794.25 1295.58 1794.45 1295.6V1299.18C1794.33 1299.15 1794.06 1299.1 1793.63 1299.04C1793.22 1298.97 1792.77 1298.94 1792.31 1298.94C1791.19 1298.94 1790.2 1299.17 1789.32 1299.64C1788.46 1300.1 1787.77 1300.73 1787.26 1301.55C1786.77 1302.35 1786.52 1303.27 1786.52 1304.31V1318.81H1783ZM1802.15 1305.02V1318.81H1798.63V1295.9H1802.03V1299.48H1802.32C1802.86 1298.31 1803.68 1297.38 1804.77 1296.67C1805.86 1295.96 1807.28 1295.6 1809.01 1295.6C1810.56 1295.6 1811.91 1295.92 1813.08 1296.55C1814.24 1297.18 1815.15 1298.13 1815.79 1299.42C1816.44 1300.69 1816.76 1302.3 1816.76 1304.25V1318.81H1813.24V1304.49C1813.24 1302.69 1812.78 1301.29 1811.84 1300.28C1810.91 1299.27 1809.62 1298.76 1807.99 1298.76C1806.87 1298.76 1805.86 1299 1804.98 1299.49C1804.1 1299.98 1803.41 1300.69 1802.91 1301.62C1802.4 1302.56 1802.15 1303.69 1802.15 1305.02ZM1832.8 1319.28C1830.59 1319.28 1828.69 1318.8 1827.09 1317.82C1825.5 1316.84 1824.27 1315.46 1823.4 1313.71C1822.55 1311.94 1822.12 1309.88 1822.12 1307.53C1822.12 1305.18 1822.55 1303.12 1823.4 1301.33C1824.27 1299.53 1825.47 1298.12 1827.01 1297.12C1828.56 1296.11 1830.37 1295.6 1832.44 1295.6C1833.63 1295.6 1834.81 1295.8 1835.98 1296.2C1837.14 1296.59 1838.2 1297.24 1839.15 1298.13C1840.11 1299.02 1840.87 1300.19 1841.44 1301.65C1842 1303.12 1842.29 1304.92 1842.29 1307.05V1308.54H1824.63V1305.5H1838.71C1838.71 1304.21 1838.45 1303.06 1837.93 1302.04C1837.42 1301.03 1836.7 1300.23 1835.75 1299.64C1834.82 1299.05 1833.71 1298.76 1832.44 1298.76C1831.04 1298.76 1829.83 1299.11 1828.8 1299.8C1827.79 1300.49 1827.01 1301.39 1826.46 1302.49C1825.91 1303.59 1825.64 1304.78 1825.64 1306.04V1308.07C1825.64 1309.8 1825.94 1311.26 1826.54 1312.47C1827.14 1313.66 1827.98 1314.57 1829.06 1315.2C1830.13 1315.81 1831.38 1316.12 1832.8 1316.12C1833.72 1316.12 1834.56 1315.99 1835.31 1315.73C1836.06 1315.46 1836.71 1315.07 1837.26 1314.54C1837.81 1314 1838.23 1313.34 1838.53 1312.54L1841.93 1313.5C1841.57 1314.65 1840.97 1315.66 1840.12 1316.54C1839.28 1317.4 1838.23 1318.08 1836.99 1318.57C1835.75 1319.04 1834.35 1319.28 1832.8 1319.28ZM1851.16 1288.26V1318.81H1847.64V1288.26H1851.16Z" fill="#161616"/>
<circle cx="1990.5" cy="1303.31" r="63" fill="#FFADAD"/>
<circle cx="1990.5" cy="1303.31" r="46" stroke="#161616" stroke-width="4"/>
<path d="M2107.93 1297.81H2104.24C2104.02 1296.74 2103.63 1295.81 2103.09 1295C2102.55 1294.2 2101.89 1293.52 2101.12 1292.97C2100.35 1292.42 2099.5 1292 2098.57 1291.72C2097.63 1291.44 2096.66 1291.3 2095.64 1291.3C2093.8 1291.3 2092.12 1291.77 2090.62 1292.71C2089.13 1293.64 2087.94 1295.02 2087.05 1296.84C2086.18 1298.66 2085.74 1300.89 2085.74 1303.53C2085.74 1306.18 2086.18 1308.41 2087.05 1310.23C2087.94 1312.05 2089.13 1313.43 2090.62 1314.36C2092.12 1315.3 2093.8 1315.76 2095.64 1315.76C2096.66 1315.76 2097.63 1315.62 2098.57 1315.35C2099.5 1315.07 2100.35 1314.65 2101.12 1314.11C2101.89 1313.55 2102.55 1312.87 2103.09 1312.06C2103.63 1311.25 2104.02 1310.31 2104.24 1309.26H2107.93C2107.66 1310.82 2107.15 1312.22 2106.41 1313.45C2105.68 1314.68 2104.76 1315.73 2103.67 1316.6C2102.58 1317.45 2101.35 1318.1 2099.99 1318.55C2098.63 1319 2097.19 1319.22 2095.64 1319.22C2093.04 1319.22 2090.72 1318.59 2088.69 1317.31C2086.67 1316.04 2085.07 1314.23 2083.91 1311.89C2082.74 1309.54 2082.16 1306.75 2082.16 1303.53C2082.16 1300.31 2082.74 1297.53 2083.91 1295.18C2085.07 1292.83 2086.67 1291.02 2088.69 1289.75C2090.72 1288.48 2093.04 1287.84 2095.64 1287.84C2097.19 1287.84 2098.63 1288.07 2099.99 1288.51C2101.35 1288.96 2102.58 1289.62 2103.67 1290.48C2104.76 1291.34 2105.68 1292.38 2106.41 1293.61C2107.15 1294.84 2107.66 1296.23 2107.93 1297.81ZM2122.74 1319.28C2120.67 1319.28 2118.86 1318.79 2117.3 1317.81C2115.75 1316.82 2114.53 1315.45 2113.66 1313.68C2112.79 1311.91 2112.36 1309.84 2112.36 1307.47C2112.36 1305.08 2112.79 1303 2113.66 1301.22C2114.53 1299.44 2115.75 1298.06 2117.3 1297.08C2118.86 1296.09 2120.67 1295.6 2122.74 1295.6C2124.81 1295.6 2126.62 1296.09 2128.17 1297.08C2129.73 1298.06 2130.94 1299.44 2131.81 1301.22C2132.68 1303 2133.12 1305.08 2133.12 1307.47C2133.12 1309.84 2132.68 1311.91 2131.81 1313.68C2130.94 1315.45 2129.73 1316.82 2128.17 1317.81C2126.62 1318.79 2124.81 1319.28 2122.74 1319.28ZM2122.74 1316.12C2124.31 1316.12 2125.6 1315.72 2126.62 1314.91C2127.63 1314.11 2128.38 1313.05 2128.87 1311.74C2129.36 1310.42 2129.6 1309 2129.6 1307.47C2129.6 1305.94 2129.36 1304.51 2128.87 1303.19C2128.38 1301.87 2127.63 1300.8 2126.62 1299.98C2125.6 1299.17 2124.31 1298.76 2122.74 1298.76C2121.17 1298.76 2119.88 1299.17 2118.86 1299.98C2117.85 1300.8 2117.1 1301.87 2116.61 1303.19C2116.12 1304.51 2115.88 1305.94 2115.88 1307.47C2115.88 1309 2116.12 1310.42 2116.61 1311.74C2117.1 1313.05 2117.85 1314.11 2118.86 1314.91C2119.88 1315.72 2121.17 1316.12 2122.74 1316.12ZM2142.01 1305.02V1318.81H2138.5V1295.9H2141.9V1299.48H2142.19C2142.73 1298.31 2143.55 1297.38 2144.64 1296.67C2145.73 1295.96 2147.15 1295.6 2148.88 1295.6C2150.43 1295.6 2151.78 1295.92 2152.95 1296.55C2154.11 1297.18 2155.02 1298.13 2155.66 1299.42C2156.31 1300.69 2156.63 1302.3 2156.63 1304.25V1318.81H2153.11V1304.49C2153.11 1302.69 2152.64 1301.29 2151.71 1300.28C2150.77 1299.27 2149.49 1298.76 2147.86 1298.76C2146.74 1298.76 2145.73 1299 2144.85 1299.49C2143.97 1299.98 2143.28 1300.69 2142.78 1301.62C2142.27 1302.56 2142.01 1303.69 2142.01 1305.02ZM2180.98 1295.9L2172.5 1318.81H2168.92L2160.45 1295.9H2164.27L2170.6 1314.15H2170.83L2177.16 1295.9H2180.98ZM2194.11 1319.28C2192.04 1319.28 2190.23 1318.79 2188.66 1317.81C2187.11 1316.82 2185.9 1315.45 2185.03 1313.68C2184.16 1311.91 2183.73 1309.84 2183.73 1307.47C2183.73 1305.08 2184.16 1303 2185.03 1301.22C2185.9 1299.44 2187.11 1298.06 2188.66 1297.08C2190.23 1296.09 2192.04 1295.6 2194.11 1295.6C2196.18 1295.6 2197.99 1296.09 2199.54 1297.08C2201.1 1298.06 2202.31 1299.44 2203.18 1301.22C2204.05 1303 2204.49 1305.08 2204.49 1307.47C2204.49 1309.84 2204.05 1311.91 2203.18 1313.68C2202.31 1315.45 2201.1 1316.82 2199.54 1317.81C2197.99 1318.79 2196.18 1319.28 2194.11 1319.28ZM2194.11 1316.12C2195.68 1316.12 2196.97 1315.72 2197.99 1314.91C2199 1314.11 2199.75 1313.05 2200.24 1311.74C2200.73 1310.42 2200.97 1309 2200.97 1307.47C2200.97 1305.94 2200.73 1304.51 2200.24 1303.19C2199.75 1301.87 2199 1300.8 2197.99 1299.98C2196.97 1299.17 2195.68 1298.76 2194.11 1298.76C2192.54 1298.76 2191.24 1299.17 2190.23 1299.98C2189.22 1300.8 2188.47 1301.87 2187.98 1303.19C2187.49 1304.51 2187.25 1305.94 2187.25 1307.47C2187.25 1309 2187.49 1310.42 2187.98 1311.74C2188.47 1313.05 2189.22 1314.11 2190.23 1314.91C2191.24 1315.72 2192.54 1316.12 2194.11 1316.12ZM2213.38 1288.26V1318.81H2209.86V1288.26H2213.38ZM2234.27 1309.44V1295.9H2237.79V1318.81H2234.27V1314.93H2234.03C2233.49 1316.09 2232.66 1317.08 2231.52 1317.9C2230.39 1318.7 2228.96 1319.1 2227.23 1319.1C2225.79 1319.1 2224.52 1318.79 2223.41 1318.16C2222.29 1317.53 2221.42 1316.57 2220.78 1315.3C2220.15 1314.02 2219.83 1312.4 2219.83 1310.45V1295.9H2223.35V1310.21C2223.35 1311.89 2223.82 1313.22 2224.75 1314.21C2225.7 1315.21 2226.9 1315.7 2228.36 1315.7C2229.24 1315.7 2230.13 1315.48 2231.03 1315.03C2231.94 1314.59 2232.71 1313.9 2233.33 1312.97C2233.95 1312.05 2234.27 1310.87 2234.27 1309.44ZM2253.54 1319.28C2251.39 1319.28 2249.54 1318.78 2247.99 1317.76C2246.44 1316.75 2245.25 1315.35 2244.41 1313.57C2243.58 1311.79 2243.16 1309.76 2243.16 1307.47C2243.16 1305.14 2243.59 1303.09 2244.44 1301.31C2245.31 1299.52 2246.51 1298.12 2248.05 1297.12C2249.6 1296.11 2251.41 1295.6 2253.48 1295.6C2255.09 1295.6 2256.54 1295.9 2257.84 1296.49C2259.13 1297.09 2260.19 1297.93 2261.01 1299C2261.84 1300.07 2262.35 1301.33 2262.55 1302.76H2259.03C2258.76 1301.71 2258.16 1300.79 2257.24 1299.98C2256.32 1299.17 2255.09 1298.76 2253.54 1298.76C2252.17 1298.76 2250.96 1299.12 2249.93 1299.83C2248.91 1300.54 2248.11 1301.54 2247.53 1302.83C2246.96 1304.11 2246.68 1305.62 2246.68 1307.35C2246.68 1309.12 2246.96 1310.66 2247.51 1311.97C2248.08 1313.29 2248.88 1314.31 2249.9 1315.03C2250.94 1315.76 2252.15 1316.12 2253.54 1316.12C2254.45 1316.12 2255.29 1315.96 2256.03 1315.64C2256.78 1315.33 2257.41 1314.87 2257.93 1314.27C2258.44 1313.68 2258.81 1312.96 2259.03 1312.12H2262.55C2262.35 1313.48 2261.86 1314.69 2261.07 1315.78C2260.3 1316.85 2259.27 1317.71 2257.98 1318.34C2256.71 1318.97 2255.23 1319.28 2253.54 1319.28ZM2267.69 1318.81V1295.9H2271.21V1318.81H2267.69ZM2269.48 1292.08C2268.8 1292.08 2268.21 1291.84 2267.71 1291.38C2267.22 1290.91 2266.98 1290.35 2266.98 1289.69C2266.98 1289.04 2267.22 1288.47 2267.71 1288.01C2268.21 1287.54 2268.8 1287.31 2269.48 1287.31C2270.17 1287.31 2270.76 1287.54 2271.24 1288.01C2271.74 1288.47 2271.99 1289.04 2271.99 1289.69C2271.99 1290.35 2271.74 1290.91 2271.24 1291.38C2270.76 1291.84 2270.17 1292.08 2269.48 1292.08ZM2286.97 1319.28C2284.9 1319.28 2283.09 1318.79 2281.52 1317.81C2279.97 1316.82 2278.76 1315.45 2277.88 1313.68C2277.02 1311.91 2276.59 1309.84 2276.59 1307.47C2276.59 1305.08 2277.02 1303 2277.88 1301.22C2278.76 1299.44 2279.97 1298.06 2281.52 1297.08C2283.09 1296.09 2284.9 1295.6 2286.97 1295.6C2289.04 1295.6 2290.85 1296.09 2292.4 1297.08C2293.96 1298.06 2295.17 1299.44 2296.04 1301.22C2296.91 1303 2297.35 1305.08 2297.35 1307.47C2297.35 1309.84 2296.91 1311.91 2296.04 1313.68C2295.17 1315.45 2293.96 1316.82 2292.4 1317.81C2290.85 1318.79 2289.04 1319.28 2286.97 1319.28ZM2286.97 1316.12C2288.54 1316.12 2289.83 1315.72 2290.85 1314.91C2291.86 1314.11 2292.61 1313.05 2293.1 1311.74C2293.59 1310.42 2293.83 1309 2293.83 1307.47C2293.83 1305.94 2293.59 1304.51 2293.1 1303.19C2292.61 1301.87 2291.86 1300.8 2290.85 1299.98C2289.83 1299.17 2288.54 1298.76 2286.97 1298.76C2285.4 1298.76 2284.1 1299.17 2283.09 1299.98C2282.08 1300.8 2281.33 1301.87 2280.84 1303.19C2280.35 1304.51 2280.11 1305.94 2280.11 1307.47C2280.11 1309 2280.35 1310.42 2280.84 1311.74C2281.33 1313.05 2282.08 1314.11 2283.09 1314.91C2284.1 1315.72 2285.4 1316.12 2286.97 1316.12ZM2285.36 1292.79L2289 1285.87H2293.11L2288.46 1292.79H2285.36ZM2306.24 1305.02V1318.81H2302.72V1295.9H2306.12V1299.48H2306.42C2306.96 1298.31 2307.77 1297.38 2308.87 1296.67C2309.96 1295.96 2311.37 1295.6 2313.1 1295.6C2314.65 1295.6 2316.01 1295.92 2317.17 1296.55C2318.34 1297.18 2319.24 1298.13 2319.89 1299.42C2320.53 1300.69 2320.86 1302.3 2320.86 1304.25V1318.81H2317.34V1304.49C2317.34 1302.69 2316.87 1301.29 2315.94 1300.28C2315 1299.27 2313.72 1298.76 2312.09 1298.76C2310.96 1298.76 2309.96 1299 2309.08 1299.49C2308.2 1299.98 2307.51 1300.69 2307 1301.62C2306.5 1302.56 2306.24 1303.69 2306.24 1305.02ZM2348.41 1319.28C2346.34 1319.28 2344.53 1318.79 2342.97 1317.81C2341.41 1316.82 2340.2 1315.45 2339.33 1313.68C2338.46 1311.91 2338.03 1309.84 2338.03 1307.47C2338.03 1305.08 2338.46 1303 2339.33 1301.22C2340.2 1299.44 2341.41 1298.06 2342.97 1297.08C2344.53 1296.09 2346.34 1295.6 2348.41 1295.6C2350.48 1295.6 2352.29 1296.09 2353.84 1297.08C2355.4 1298.06 2356.61 1299.44 2357.48 1301.22C2358.35 1303 2358.79 1305.08 2358.79 1307.47C2358.79 1309.84 2358.35 1311.91 2357.48 1313.68C2356.61 1315.45 2355.4 1316.82 2353.84 1317.81C2352.29 1318.79 2350.48 1319.28 2348.41 1319.28ZM2348.41 1316.12C2349.98 1316.12 2351.27 1315.72 2352.29 1314.91C2353.3 1314.11 2354.05 1313.05 2354.54 1311.74C2355.03 1310.42 2355.27 1309 2355.27 1307.47C2355.27 1305.94 2355.03 1304.51 2354.54 1303.19C2354.05 1301.87 2353.3 1300.8 2352.29 1299.98C2351.27 1299.17 2349.98 1298.76 2348.41 1298.76C2346.84 1298.76 2345.55 1299.17 2344.53 1299.98C2343.52 1300.8 2342.77 1301.87 2342.28 1303.19C2341.79 1304.51 2341.55 1305.94 2341.55 1307.47C2341.55 1309 2341.79 1310.42 2342.28 1311.74C2342.77 1313.05 2343.52 1314.11 2344.53 1314.91C2345.55 1315.72 2346.84 1316.12 2348.41 1316.12ZM2374.54 1318.81L2379.61 1288.26H2389.94C2392.32 1288.26 2394.21 1288.69 2395.59 1289.54C2396.98 1290.4 2397.92 1291.56 2398.41 1293.02C2398.9 1294.48 2399 1296.12 2398.71 1297.93C2398.41 1299.71 2397.77 1301.35 2396.78 1302.82C2395.81 1304.29 2394.48 1305.46 2392.81 1306.34C2391.15 1307.21 2389.14 1307.65 2386.77 1307.65H2379.38L2379.91 1304.37H2387.19C2388.82 1304.37 2390.18 1304.09 2391.28 1303.52C2392.37 1302.95 2393.23 1302.18 2393.84 1301.21C2394.46 1300.23 2394.87 1299.14 2395.07 1297.93C2395.27 1296.69 2395.22 1295.6 2394.92 1294.64C2394.63 1293.68 2394.03 1292.92 2393.11 1292.38C2392.21 1291.82 2390.93 1291.54 2389.28 1291.54H2382.78L2378.24 1318.81H2374.54ZM2409.9 1319.28C2407.79 1319.28 2406.02 1318.78 2404.6 1317.78C2403.18 1316.77 2402.17 1315.37 2401.59 1313.56C2401.01 1311.75 2400.92 1309.64 2401.3 1307.23C2401.68 1304.89 2402.43 1302.84 2403.56 1301.1C2404.69 1299.35 2406.1 1298 2407.78 1297.05C2409.47 1296.08 2411.33 1295.6 2413.36 1295.6C2415.46 1295.6 2417.22 1296.11 2418.64 1297.12C2420.06 1298.12 2421.06 1299.54 2421.65 1301.36C2422.23 1303.17 2422.33 1305.28 2421.95 1307.71C2421.57 1310.04 2420.81 1312.07 2419.66 1313.81C2418.53 1315.54 2417.12 1316.89 2415.44 1317.85C2413.77 1318.81 2411.92 1319.28 2409.9 1319.28ZM2409.96 1316.12C2411.57 1316.12 2412.96 1315.71 2414.15 1314.88C2415.34 1314.06 2416.3 1312.97 2417.04 1311.62C2417.79 1310.26 2418.29 1308.8 2418.55 1307.23C2418.78 1305.74 2418.77 1304.35 2418.52 1303.07C2418.26 1301.78 2417.71 1300.74 2416.86 1299.95C2416.02 1299.16 2414.83 1298.76 2413.3 1298.76C2411.69 1298.76 2410.28 1299.18 2409.08 1300.01C2407.88 1300.85 2406.92 1301.95 2406.18 1303.31C2405.45 1304.67 2404.95 1306.14 2404.71 1307.71C2404.47 1309.2 2404.47 1310.59 2404.72 1311.87C2404.98 1313.14 2405.53 1314.17 2406.38 1314.96C2407.23 1315.73 2408.42 1316.12 2409.96 1316.12ZM2434.96 1319.28C2432.85 1319.28 2431.08 1318.78 2429.66 1317.78C2428.24 1316.77 2427.24 1315.37 2426.65 1313.56C2426.07 1311.75 2425.98 1309.64 2426.37 1307.23C2426.74 1304.89 2427.49 1302.84 2428.62 1301.1C2429.75 1299.35 2431.16 1298 2432.84 1297.05C2434.53 1296.08 2436.39 1295.6 2438.42 1295.6C2440.52 1295.6 2442.28 1296.11 2443.7 1297.12C2445.12 1298.12 2446.12 1299.54 2446.71 1301.36C2447.3 1303.17 2447.39 1305.28 2447.01 1307.71C2446.63 1310.04 2445.87 1312.07 2444.73 1313.81C2443.59 1315.54 2442.18 1316.89 2440.5 1317.85C2438.83 1318.81 2436.98 1319.28 2434.96 1319.28ZM2435.02 1316.12C2436.63 1316.12 2438.02 1315.71 2439.21 1314.88C2440.4 1314.06 2441.36 1312.97 2442.1 1311.62C2442.85 1310.26 2443.35 1308.8 2443.61 1307.23C2443.85 1305.74 2443.84 1304.35 2443.58 1303.07C2443.32 1301.78 2442.77 1300.74 2441.92 1299.95C2441.08 1299.16 2439.89 1298.76 2438.36 1298.76C2436.75 1298.76 2435.34 1299.18 2434.14 1300.01C2432.94 1300.85 2431.98 1301.95 2431.24 1303.31C2430.51 1304.67 2430.01 1306.14 2429.77 1307.71C2429.53 1309.2 2429.53 1310.59 2429.78 1311.87C2430.04 1313.14 2430.59 1314.17 2431.44 1314.96C2432.29 1315.73 2433.48 1316.12 2435.02 1316.12ZM2459.15 1288.26L2454.08 1318.81H2450.56L2455.63 1288.26H2459.15ZM2460.53 1318.81L2464.35 1295.9H2467.87L2464.05 1318.81H2460.53ZM2467.18 1292.02C2466.49 1292.02 2465.9 1291.79 2465.4 1291.32C2464.92 1290.85 2464.67 1290.29 2464.67 1289.63C2464.67 1288.98 2464.92 1288.41 2465.4 1287.95C2465.9 1287.48 2466.49 1287.25 2467.18 1287.25C2467.87 1287.25 2468.45 1287.48 2468.94 1287.95C2469.44 1288.41 2469.69 1288.98 2469.69 1289.63C2469.69 1290.29 2469.44 1290.85 2468.94 1291.32C2468.45 1291.79 2467.87 1292.02 2467.18 1292.02ZM2476.28 1305.02L2474.01 1318.81H2470.49L2474.31 1295.9H2477.71L2477.12 1299.48H2477.41C2478.13 1298.31 2479.1 1297.38 2480.32 1296.67C2481.55 1295.96 2483.02 1295.6 2484.75 1295.6C2486.28 1295.6 2487.58 1295.92 2488.63 1296.55C2489.69 1297.18 2490.45 1298.13 2490.88 1299.42C2491.33 1300.69 2491.39 1302.3 2491.08 1304.25L2488.63 1318.81H2485.11L2487.5 1304.49C2487.8 1302.7 2487.56 1301.3 2486.8 1300.28C2486.04 1299.27 2484.84 1298.76 2483.2 1298.76C2482.07 1298.76 2481.02 1299 2480.05 1299.49C2479.1 1299.98 2478.29 1300.69 2477.62 1301.62C2476.97 1302.56 2476.52 1303.69 2476.28 1305.02ZM2502.88 1327.87C2501.17 1327.87 2499.74 1327.66 2498.58 1327.22C2497.43 1326.79 2496.5 1326.22 2495.81 1325.52C2495.11 1324.82 2494.59 1324.08 2494.23 1323.28L2497.39 1321.31C2497.63 1321.73 2497.94 1322.21 2498.31 1322.74C2498.69 1323.29 2499.26 1323.76 2500.03 1324.16C2500.8 1324.57 2501.89 1324.77 2503.3 1324.77C2505.13 1324.77 2506.75 1324.32 2508.13 1323.43C2509.51 1322.53 2510.37 1321.13 2510.69 1319.22L2511.41 1314.57H2511.11C2510.79 1314.99 2510.35 1315.5 2509.78 1316.12C2509.22 1316.73 2508.46 1317.27 2507.5 1317.75C2506.55 1318.21 2505.32 1318.45 2503.83 1318.45C2501.97 1318.45 2500.38 1318.01 2499.06 1317.14C2497.74 1316.26 2496.79 1314.99 2496.21 1313.32C2495.64 1311.65 2495.56 1309.62 2495.96 1307.23C2496.35 1304.89 2497.09 1302.84 2498.19 1301.1C2499.31 1299.35 2500.68 1298 2502.31 1297.05C2503.94 1296.08 2505.72 1295.6 2507.65 1295.6C2509.14 1295.6 2510.29 1295.85 2511.08 1296.34C2511.89 1296.83 2512.47 1297.39 2512.84 1298.01C2513.21 1298.63 2513.49 1299.14 2513.68 1299.54H2514.03L2514.63 1295.9H2518.03L2514.15 1319.46C2513.83 1321.43 2513.11 1323.03 2512.02 1324.26C2510.93 1325.51 2509.58 1326.42 2507.99 1326.99C2506.4 1327.58 2504.7 1327.87 2502.88 1327.87ZM2504.73 1315.29C2506.13 1315.29 2507.38 1314.96 2508.47 1314.32C2509.57 1313.67 2510.49 1312.74 2511.22 1311.53C2511.94 1310.31 2512.44 1308.86 2512.72 1307.17C2513 1305.52 2512.98 1304.07 2512.66 1302.8C2512.34 1301.54 2511.74 1300.55 2510.86 1299.83C2509.98 1299.12 2508.83 1298.76 2507.41 1298.76C2505.91 1298.76 2504.61 1299.14 2503.52 1299.89C2502.44 1300.65 2501.56 1301.66 2500.88 1302.94C2500.2 1304.21 2499.74 1305.62 2499.48 1307.17C2499.22 1308.76 2499.23 1310.17 2499.51 1311.39C2499.79 1312.61 2500.35 1313.56 2501.21 1314.26C2502.07 1314.94 2503.25 1315.29 2504.73 1315.29Z" fill="#161616"/>
</svg>
