<svg xmlns="http://www.w3.org/2000/svg" xmlns:xlink="http://www.w3.org/1999/xlink" xmlns:lucid="lucid" width="1652.13" height="1153.24"><g transform="translate(-562.8256985673925 -1478.5956220094977)" lucid:page-tab-id="FDQc8L-t--qg"><path d="M582.83 1654.46a6 6 0 0 1 6-6h162.42a6 6 0 0 1 6 6v8a14.5 14.5 0 0 1-4.24 10.24l-1.5 1.5a14.5 14.5 0 0 1-10.25 4.26H588.83a6 6 0 0 1-6-6z" fill="#f5fbff"/><path d="M757.25 1648.46v20l-10 10H582.83" stroke="#4881b3" stroke-width="3" fill="none"/><path d="M582.83 1654.46a6 6 0 0 1 6-6h1600.13a6 6 0 0 1 6 6v822.93a6 6 0 0 1-6 6H588.83a6 6 0 0 1-6-6z" stroke="#4881b3" stroke-width="3" fill="none"/><use xlink:href="#a" transform="matrix(1,0,0,1,590.8256985673926,1648.4551842104472) translate(0 18.6)"/><use xlink:href="#b" transform="matrix(1,0,0,1,590.8256985673926,1648.4551842104472) translate(83.9 18.6)"/><use xlink:href="#c" transform="matrix(1,0,0,1,590.8256985673926,1648.4551842104472) translate(108.9 18.6)"/><path d="M582.83 2489.4a6 6 0 0 1 6-6h1600.13a6 6 0 0 1 6 6v116.44a6 6 0 0 1-6 6H588.83a6 6 0 0 1-6-6zM620.85 1975.58a6 6 0 0 1 6-6h1524.1a6 6 0 0 1 6 6v330.54a6 6 0 0 1-6 6H626.84a6 6 0 0 1-6-6zM620.85 2318.12a6 6 0 0 1 6-6h1524.1a6 6 0 0 1 6 6v137.86a6 6 0 0 1-6 6H626.84a6 6 0 0 1-6-6z" stroke="#4881b3" stroke-width="3" fill="#f5fbff"/><path d="M955.14 1625.06v61.82" stroke="#224c72" stroke-width="2" fill="none"/><path d="M956.14 1625.08h-2v-1.02h2z" stroke="#224c72" stroke-width=".05" fill="#224c72"/><path d="M955.14 1686.85v1.03" stroke="#224c72" stroke-width="2" fill="none"/><path d="M936.2 1694.32a6 6 0 0 1 6-6h28a6 6 0 0 1 6 6v868.7a6 6 0 0 1-6 6h-28a6 6 0 0 1-6-6zM860.1 1504.6a6 6 0 0 1 6-6h178.07a6 6 0 0 1 6 6v112a6 6 0 0 1-6 6H866.1a6 6 0 0 1-6-6z" stroke="#4881b3" stroke-width="3" fill="#f5fbff"/><use xlink:href="#d" transform="matrix(1,0,0,1,868.0997602002294,1506.5956220094977) translate(52.16274520940568 57.80595713526222)"/><path d="M1241.7 1504.66a6 6 0 0 1 6-6h178.07a6 6 0 0 1 6 6v112a6 6 0 0 1-6 6H1247.7a6 6 0 0 1-6-6z" stroke="#4881b3" stroke-width="3" fill="#f5fbff"/><use xlink:href="#e" transform="matrix(1,0,0,1,1249.6935153792979,1506.6581274153132) translate(5.222607207838337 57.80595713526222)"/><use xlink:href="#f" transform="matrix(1,0,0,1,1249.6935153792979,1506.6581274153132) translate(106.50335541842732 57.80595713526222)"/><path d="M1623.3 1504.66a6 6 0 0 1 6-6h178.06a6 6 0 0 1 6 6v112a6 6 0 0 1-6 6H1629.3a6 6 0 0 1-6-6z" stroke="#4881b3" stroke-width="3" fill="#f5fbff"/><use xlink:href="#g" transform="matrix(1,0,0,1,1631.2872705583663,1506.664024293594) translate(71.66827552762453 57.80595713526222)"/><path d="M2004.88 1504.6a6 6 0 0 1 6-6h178.08a6 6 0 0 1 6 6v112a6 6 0 0 1-6 6h-178.08a6 6 0 0 1-6-6z" stroke="#4881b3" stroke-width="3" fill="#f5fbff"/><use xlink:href="#h" transform="matrix(1,0,0,1,2012.881025737435,1506.5956220094977) translate(54.30359609799068 57.80595713526222)"/><path d="M1316.73 1694.4a6 6 0 0 1 6-6h28a6 6 0 0 1 6 6v868.68a6 6 0 0 1-6 6h-28a6 6 0 0 1-6-6z" stroke="#4881b3" stroke-width="3" fill="#f5fbff"/><path d="M977.62 1741.48h168.78a.02.02 0 0 1 .03.03.02.02 0 0 0 .02.03h151.28" stroke="#224c72" stroke-width="2" fill="none"/><path d="M977.64 1742.48v-2z" stroke="#224c72" stroke-width=".05" fill="#224c72"/><path d="M1313 1741.53l-14.27 4.63v-9.27z" stroke="#224c72" stroke-width="2" fill="#224c72"/><use xlink:href="#i" transform="matrix(1,0,0,1,1076.7028355145944,1715.8838749447652) translate(0.0049999999999954525 14.4)"/><path d="M582.83 1697.27a6 6 0 0 1 6-6h309.12a6 6 0 0 1 6 6v48a6 6 0 0 1-6 6H588.83a6 6 0 0 1-6-6z" stroke="#000" stroke-opacity="0" fill="#fff" fill-opacity="0"/><use xlink:href="#j" transform="matrix(1,0,0,1,587.8256985673927,1696.2722019821472) translate(29.625 30.025)"/><use xlink:href="#k" transform="matrix(1,0,0,1,587.8256985673927,1696.2722019821472) translate(100.525 30.025)"/><use xlink:href="#l" transform="matrix(1,0,0,1,587.8256985673927,1696.2722019821472) translate(149.525 30.025)"/><use xlink:href="#m" transform="matrix(1,0,0,1,587.8256985673927,1696.2722019821472) translate(219.425 30.025)"/><use xlink:href="#n" transform="matrix(1,0,0,1,587.8256985673927,1696.2722019821472) translate(245.425 30.025)"/><path d="M582.83 2510.8a6 6 0 0 1 6-6h309.12a6 6 0 0 1 6 6v48a6 6 0 0 1-6 6H588.83a6 6 0 0 1-6-6z" stroke="#000" stroke-opacity="0" fill="#fff" fill-opacity="0"/><use xlink:href="#j" transform="matrix(1,0,0,1,587.8256985673927,2509.7955396444463) translate(26.125 30.025)"/><use xlink:href="#k" transform="matrix(1,0,0,1,587.8256985673927,2509.7955396444463) translate(97.025 30.025)"/><use xlink:href="#l" transform="matrix(1,0,0,1,587.8256985673927,2509.7955396444463) translate(146.025 30.025)"/><use xlink:href="#m" transform="matrix(1,0,0,1,587.8256985673927,2509.7955396444463) translate(215.925 30.025)"/><use xlink:href="#o" transform="matrix(1,0,0,1,587.8256985673927,2509.7955396444463) translate(241.925 30.025)"/><path d="M1315.24 1781.38h-168.8a.02.02 0 0 1 0-.02.02.02 0 0 0-.02 0h-151.3" stroke="#224c72" stroke-width="2" fill="none"/><path d="M1315.24 1782.38h-.02v-2h.02z" stroke="#224c72" stroke-width=".05" fill="#224c72"/><path d="M979.86 1781.35l14.26-4.64v9.28z" stroke="#224c72" stroke-width="2" fill="#224c72"/><use xlink:href="#p" transform="matrix(1,0,0,1,1070.2809020730238,1785.3806234009655) translate(0.0049999999999954525 14.4)"/><path d="M1698.32 1694.4a6 6 0 0 1 6-6h28a6 6 0 0 1 6 6v718.83a6 6 0 0 1-6 6h-28a6 6 0 0 1-6-6zM2079.92 1694.32a6 6 0 0 1 6-6h28a6 6 0 0 1 6 6v419.12a6 6 0 0 1-6 6h-28a6 6 0 0 1-6-6z" stroke="#4881b3" stroke-width="3" fill="#f5fbff"/><path d="M1358.15 1805.4h321.18" stroke="#224c72" stroke-width="2" fill="none"/><path d="M1358.17 1806.4v-2z" stroke="#224c72" stroke-width=".05" fill="#224c72"/><path d="M1694.6 1805.4l-14.26 4.65v-9.27z" stroke="#224c72" stroke-width="2" fill="#224c72"/><use xlink:href="#q" transform="matrix(1,0,0,1,1452.8175041402649,1779.814890739277) translate(0.0049999999999954525 14.4)"/><path d="M1740.8 2105.15h33a6 6 0 0 1 6 6v32.97a6 6 0 0 1-6 6h-16.5" stroke="#224c72" stroke-width="2" fill="none"/><path d="M1740.82 2106.15h-1.03v-2h1.02z" stroke="#224c72" stroke-width=".05" fill="#224c72"/><path d="M1742.03 2150.12l14.26-4.64v9.27z" stroke="#224c72" stroke-width="2" fill="#224c72"/><use xlink:href="#r" transform="matrix(1,0,0,1,1787.793234842407,2117.333406705836) translate(0.0049999999999954525 14.4)"/><path d="M1740.78 2017.4h168.32a.03.03 0 0 0 .03-.03.03.03 0 0 1 .03-.04h150.8" stroke="#224c72" stroke-width="2" fill="none"/><path d="M1740.8 2018.4h-1.02v-2h1.03z" stroke="#224c72" stroke-width=".05" fill="#224c72"/><path d="M2075.24 2017.33l-14.27 4.64v-9.27z" stroke="#224c72" stroke-width="2" fill="#224c72"/><use xlink:href="#s" transform="matrix(1,0,0,1,1784.854075429619,1991.734810091152) translate(0.0049999999999954525 14.4)"/><path d="M2077.48 2068.52h-168.3a.03.03 0 0 0-.04.03.03.03 0 0 1-.04.04h-150.8" stroke="#224c72" stroke-width="2" fill="none"/><path d="M2078.48 2069.52h-1.02v-2h1.02z" stroke="#224c72" stroke-width=".05" fill="#224c72"/><path d="M1743.03 2068.6l14.26-4.65v9.27z" stroke="#224c72" stroke-width="2" fill="#224c72"/><use xlink:href="#t" transform="matrix(1,0,0,1,1818.8130648083882,2072.5857183760477) translate(0.0049999999999954525 14.4)"/><path d="M1739.75 1834.72h33a6 6 0 0 1 6 6v77.35a6 6 0 0 1-6 6h-15.5" stroke="#224c72" stroke-width="2" fill="none"/><path d="M1739.77 1835.72v-2z" stroke="#224c72" stroke-width=".05" fill="#224c72"/><path d="M1742 1924.07l14.26-4.64v9.27z" stroke="#224c72" stroke-width="2" fill="#224c72"/><use xlink:href="#u" transform="matrix(1,0,0,1,1786.7578257915552,1868.587622979636) translate(0.0049999999999954525 14.4)"/><path d="M582.83 2318.12a6 6 0 0 1 6-6h282.92a6 6 0 0 1 6 6v48a6 6 0 0 1-6 6H588.83a6 6 0 0 1-6-6z" stroke="#000" stroke-opacity="0" fill="#fff" fill-opacity="0"/><use xlink:href="#v" transform="matrix(1,0,0,1,587.8256985673925,2317.118959671797) translate(40.17500000000001 30.025)"/><use xlink:href="#b" transform="matrix(1,0,0,1,587.8256985673925,2317.118959671797) translate(88.025 30.025)"/><use xlink:href="#w" transform="matrix(1,0,0,1,587.8256985673925,2317.118959671797) translate(113.025 30.025)"/><use xlink:href="#m" transform="matrix(1,0,0,1,587.8256985673925,2317.118959671797) translate(181.875 30.025)"/><use xlink:href="#n" transform="matrix(1,0,0,1,587.8256985673925,2317.118959671797) translate(207.875 30.025)"/><path d="M1695.87 2161.35H1376.7" stroke="#224c72" stroke-width="2" fill="none"/><path d="M1696.87 2162.35h-1.02v-2h1.02z" stroke="#224c72" stroke-width=".05" fill="#224c72"/><path d="M1361.43 2161.35l14.27-4.64v9.28z" stroke="#224c72" stroke-width="2" fill="#224c72"/><use xlink:href="#x" transform="matrix(1,0,0,1,1415.259844473811,2165.3540636001217) translate(0.0049999999999954525 14.4)"/><path d="M1315.3 2203.63H995.17" stroke="#224c72" stroke-width="2" fill="none"/><path d="M1315.27 2204.63v-2z" stroke="#224c72" stroke-width=".05" fill="#224c72"/><path d="M979.9 2203.63l14.27-4.63v9.27z" stroke="#224c72" stroke-width="2" fill="#224c72"/><use xlink:href="#y" transform="matrix(1,0,0,1,1063.6795550018865,2207.6337575181437) translate(0.0049999999999954525 14.4)"/><path d="M1695.9 2361.84H1375.7" stroke="#224c72" stroke-width="2" fill="none"/><path d="M1696.9 2362.84h-1.03v-2h1.02z" stroke="#224c72" stroke-width=".05" fill="#224c72"/><path d="M1360.44 2361.84l14.27-4.64v9.27z" stroke="#224c72" stroke-width="2" fill="#224c72"/><use xlink:href="#z" transform="matrix(1,0,0,1,1436.8008686831133,2365.842540947358) translate(0.0049999999999954525 14.4)"/><path d="M1314.3 2385.53H1146a.03.03 0 0 1-.03-.03.03.03 0 0 0-.04-.04H995.2" stroke="#224c72" stroke-width="2" fill="none"/><path d="M1315.3 2386.53h-1.04v-2h1.03z" stroke="#224c72" stroke-width=".05" fill="#224c72"/><path d="M979.93 2385.46l14.26-4.63v9.27z" stroke="#224c72" stroke-width="2" fill="#224c72"/><use xlink:href="#A" transform="matrix(1,0,0,1,1033.7896249299058,2389.5267796640064) translate(0.0049999999999954525 14.4)"/><path d="M620.85 1975.58a6 6 0 0 1 6-6h282.92a6 6 0 0 1 6 6v48a6 6 0 0 1-6 6H626.85a6 6 0 0 1-6-6z" stroke="#000" stroke-opacity="0" fill="#fff" fill-opacity="0"/><g><use xlink:href="#v" transform="matrix(1,0,0,1,625.8467576896489,1974.5828174981966) translate(36.67500000000001 30.025)"/><use xlink:href="#b" transform="matrix(1,0,0,1,625.8467576896489,1974.5828174981966) translate(84.525 30.025)"/><use xlink:href="#w" transform="matrix(1,0,0,1,625.8467576896489,1974.5828174981966) translate(109.525 30.025)"/><use xlink:href="#m" transform="matrix(1,0,0,1,625.8467576896489,1974.5828174981966) translate(178.375 30.025)"/><use xlink:href="#o" transform="matrix(1,0,0,1,625.8467576896489,1974.5828174981966) translate(204.375 30.025)"/></g><path d="M1314.3 2524.9h-168.26a.03.03 0 0 1-.04-.03.03.03 0 0 0-.03-.03H995.2" stroke="#224c72" stroke-width="2" fill="none"/><path d="M1315.3 2525.9h-1.02v-2h1.02z" stroke="#224c72" stroke-width=".05" fill="#224c72"/><path d="M979.94 2524.84l14.27-4.64v9.27z" stroke="#224c72" stroke-width="2" fill="#224c72"/><g><use xlink:href="#B" transform="matrix(1,0,0,1,1016.0785859702878,2528.899003774917) translate(0.0049999999999954525 14.4)"/><use xlink:href="#C" transform="matrix(1,0,0,1,1016.0785859702878,2528.899003774917) translate(167.655 14.4)"/></g><path d="M1336.73 1625.12v60.8" stroke="#224c72" stroke-width="2" fill="none"/><path d="M1337.73 1625.15h-2v-1.03h2zM1337.73 1686.92h-2v-1.02h2z" stroke="#224c72" stroke-width=".05" fill="#224c72"/><path d="M1718.32 1625.13v60.8" stroke="#224c72" stroke-width="2" fill="none"/><path d="M1719.32 1625.15h-2v-1.02h2zM1719.32 1686.93h-2v-1.03h2z" stroke="#224c72" stroke-width=".05" fill="#224c72"/><path d="M2099.92 1625.06v60.8" stroke="#224c72" stroke-width="2" fill="none"/><path d="M2100.92 1625.08h-2v-1.02h2zM2100.92 1686.86h-2v-1.03h2z" stroke="#224c72" stroke-width=".05" fill="#224c72"/><defs><path fill="#1d262b" d="M33 0v-248h34V0H33" id="D"/><path fill="#1d262b" d="M117-194c89-4 53 116 60 194h-32v-121c0-31-8-49-39-48C34-167 62-67 57 0H25l-1-190h30c1 10-1 24 2 32 11-22 29-35 61-36" id="E"/><path fill="#1d262b" d="M101-234c-31-9-42 10-38 44h38v23H63V0H32v-167H5v-23h27c-7-52 17-82 69-68v24" id="F"/><path fill="#1d262b" d="M100-194c63 0 86 42 84 106H49c0 40 14 67 53 68 26 1 43-12 49-29l28 8c-11 28-37 45-77 45C44 4 14-33 15-96c1-61 26-98 85-98zm52 81c6-60-76-77-97-28-3 7-6 17-6 28h103" id="G"/><path fill="#1d262b" d="M114-163C36-179 61-72 57 0H25l-1-190h30c1 12-1 29 2 39 6-27 23-49 58-41v29" id="H"/><path fill="#1d262b" d="M96-169c-40 0-48 33-48 73s9 75 48 75c24 0 41-14 43-38l32 2c-6 37-31 61-74 61-59 0-76-41-82-99-10-93 101-131 147-64 4 7 5 14 7 22l-32 3c-4-21-16-35-41-35" id="I"/><path fill="#1d262b" d="M24-231v-30h32v30H24zM24 0v-190h32V0H24" id="J"/><path fill="#1d262b" d="M141-36C126-15 110 5 73 4 37 3 15-17 15-53c-1-64 63-63 125-63 3-35-9-54-41-54-24 1-41 7-42 31l-33-3c5-37 33-52 76-52 45 0 72 20 72 64v82c-1 20 7 32 28 27v20c-31 9-61-2-59-35zM48-53c0 20 12 33 32 33 41-3 63-29 60-74-43 2-92-5-92 41" id="K"/><g id="a"><use transform="matrix(0.05,0,0,0.05,0,0)" xlink:href="#D"/><use transform="matrix(0.05,0,0,0.05,5,0)" xlink:href="#E"/><use transform="matrix(0.05,0,0,0.05,15,0)" xlink:href="#F"/><use transform="matrix(0.05,0,0,0.05,20,0)" xlink:href="#G"/><use transform="matrix(0.05,0,0,0.05,30,0)" xlink:href="#H"/><use transform="matrix(0.05,0,0,0.05,35.95,0)" xlink:href="#G"/><use transform="matrix(0.05,0,0,0.05,45.95,0)" xlink:href="#E"/><use transform="matrix(0.05,0,0,0.05,55.95,0)" xlink:href="#I"/><use transform="matrix(0.05,0,0,0.05,64.95,0)" xlink:href="#J"/><use transform="matrix(0.05,0,0,0.05,68.9,0)" xlink:href="#K"/></g><path fill="#1d262b" d="M85-194c31 0 48 13 60 33l-1-100h32l1 261h-30c-2-10 0-23-3-31C134-8 116 4 85 4 32 4 16-35 15-94c0-66 23-100 70-100zm9 24c-40 0-46 34-46 75 0 40 6 74 45 74 42 0 51-32 51-76 0-42-9-74-50-73" id="L"/><g id="b"><use transform="matrix(0.05,0,0,0.05,0,0)" xlink:href="#L"/><use transform="matrix(0.05,0,0,0.05,10,0)" xlink:href="#G"/></g><path fill="#1d262b" d="M108 0H70L1-190h34L89-25l56-165h34" id="M"/><path fill="#1d262b" d="M34 0v-190h32V0H34zM24-211c8-23 27-35 38-54h36v5l-58 49H24" id="N"/><path fill="#1d262b" d="M100-194c62-1 85 37 85 99 1 63-27 99-86 99S16-35 15-95c0-66 28-99 85-99zM99-20c44 1 53-31 53-75 0-43-8-75-51-75s-53 32-53 75 10 74 51 75" id="O"/><g id="c"><use transform="matrix(0.05,0,0,0.05,0,0)" xlink:href="#M"/><use transform="matrix(0.05,0,0,0.05,9,0)" xlink:href="#N"/><use transform="matrix(0.05,0,0,0.05,14,0)" xlink:href="#L"/><use transform="matrix(0.05,0,0,0.05,24,0)" xlink:href="#G"/><use transform="matrix(0.05,0,0,0.05,34,0)" xlink:href="#O"/></g><path fill="#1d262b" d="M238-95c0 69-44 99-111 99C63 4 22-25 22-93v-155h51v151c-1 38 19 59 55 60 90 1 49-130 58-211h52v153" id="P"/><path fill="#1d262b" d="M137-138c1-29-70-34-71-4 15 46 118 7 119 86 1 83-164 76-172 9l43-7c4 19 20 25 44 25 33 8 57-30 24-41C81-84 22-81 20-136c-2-80 154-74 161-7" id="Q"/><path fill="#1d262b" d="M85 4C-2 5 27-109 22-190h50c7 57-23 150 33 157 60-5 35-97 40-157h50l1 190h-47c-2-12 1-28-3-38-12 25-28 42-61 42" id="R"/><path fill="#1d262b" d="M133-34C117-15 103 5 69 4 32 3 11-16 11-54c-1-60 55-63 116-61 1-26-3-47-28-47-18 1-26 9-28 27l-52-2c7-38 36-58 82-57s74 22 75 68l1 82c-1 14 12 18 25 15v27c-30 8-71 5-69-32zm-48 3c29 0 43-24 42-57-32 0-66-3-65 30 0 17 8 27 23 27" id="S"/><path fill="#1d262b" d="M135-150c-39-12-60 13-60 57V0H25l-1-190h47c2 13-1 29 3 40 6-28 27-53 61-41v41" id="T"/><path fill="#1d262b" d="M25-224v-37h50v37H25zM25 0v-190h50V0H25" id="U"/><path fill="#1d262b" d="M110-194c64 0 96 36 96 99 0 64-35 99-97 99-61 0-95-36-95-99 0-62 34-99 96-99zm-1 164c35 0 45-28 45-65 0-40-10-65-43-65-34 0-45 26-45 65 0 36 10 65 43 65" id="V"/><g id="d"><use transform="matrix(0.05286051576753077,0,0,0.05286051576753077,0,0)" xlink:href="#P"/><use transform="matrix(0.05286051576753077,0,0,0.05286051576753077,13.69087358379047,0)" xlink:href="#Q"/><use transform="matrix(0.05286051576753077,0,0,0.05286051576753077,24.262976737296626,0)" xlink:href="#R"/><use transform="matrix(0.05286051576753077,0,0,0.05286051576753077,35.83942969038586,0)" xlink:href="#S"/><use transform="matrix(0.05286051576753077,0,0,0.05286051576753077,46.41153284389202,0)" xlink:href="#T"/><use transform="matrix(0.05286051576753077,0,0,0.05286051576753077,53.812005051346326,0)" xlink:href="#U"/><use transform="matrix(0.05286051576753077,0,0,0.05286051576753077,59.0980566280994,0)" xlink:href="#V"/></g><path fill="#1d262b" d="M199 0l-22-63H83L61 0H9l90-248h61L250 0h-51zm-33-102l-36-108c-10 38-24 72-36 108h72" id="W"/><path fill="#1d262b" d="M135-194c53 0 70 44 70 98 0 56-19 98-73 100-31 1-45-17-59-34 3 33 2 69 2 105H25l-1-265h48c2 10 0 23 3 31 11-24 29-35 60-35zM114-30c33 0 39-31 40-66 0-38-9-64-40-64-56 0-55 130 0 130" id="X"/><path fill="#1d262b" d="M25 0v-261h50V0H25" id="Y"/><path fill="#1d262b" d="M190-63c-7 42-38 67-86 67-59 0-84-38-90-98-12-110 154-137 174-36l-49 2c-2-19-15-32-35-32-30 0-35 28-38 64-6 74 65 87 74 30" id="Z"/><path fill="#1d262b" d="M110-194c64 0 96 36 96 99 0 64-35 99-97 99-61 0-95-36-95-99 0-62 34-99 96-99zm-1 164c35 0 45-28 45-65 0-40-10-65-43-65-34 0-45 26-45 65 0 36 10 65 43 65zM81-208v-5l45-51h45v8l-60 48H81" id="aa"/><path fill="#1d262b" d="M135-194c87-1 58 113 63 194h-50c-7-57 23-157-34-157-59 0-34 97-39 157H25l-1-190h47c2 12-1 28 3 38 12-26 28-41 61-42" id="ab"/><g id="e"><use transform="matrix(0.05286051576753077,0,0,0.05286051576753077,0,0)" xlink:href="#W"/><use transform="matrix(0.05286051576753077,0,0,0.05286051576753077,13.69087358379047,0)" xlink:href="#X"/><use transform="matrix(0.05286051576753077,0,0,0.05286051576753077,25.267326536879708,0)" xlink:href="#Y"/><use transform="matrix(0.05286051576753077,0,0,0.05286051576753077,30.553378113632785,0)" xlink:href="#U"/><use transform="matrix(0.05286051576753077,0,0,0.05286051576753077,35.83942969038586,0)" xlink:href="#Z"/><use transform="matrix(0.05286051576753077,0,0,0.05286051576753077,46.41153284389202,0)" xlink:href="#S"/><use transform="matrix(0.05286051576753077,0,0,0.05286051576753077,56.983635997398174,0)" xlink:href="#Z"/><use transform="matrix(0.05286051576753077,0,0,0.05286051576753077,67.55573915090433,0)" xlink:href="#U"/><use transform="matrix(0.05286051576753077,0,0,0.05286051576753077,72.84179072765741,0)" xlink:href="#aa"/><use transform="matrix(0.05286051576753077,0,0,0.05286051576753077,84.41824368074666,0)" xlink:href="#ab"/></g><path fill="#1d262b" d="M67-125c0 53 21 87 73 88 37 1 54-22 65-47l45 17C233-25 199 4 140 4 58 4 20-42 15-125 8-235 124-281 211-232c18 10 29 29 36 50l-46 12c-8-25-30-41-62-41-52 0-71 34-72 86" id="ac"/><path fill="#1d262b" d="M185-48c-13 30-37 53-82 52C43 2 14-33 14-96s30-98 90-98c62 0 83 45 84 108H66c0 31 8 55 39 56 18 0 30-7 34-22zm-45-69c5-46-57-63-70-21-2 6-4 13-4 21h74" id="ad"/><path fill="#1d262b" d="M115-3C79 11 28 4 28-45v-112H4v-33h27l15-45h31v45h36v33H77v99c-1 23 16 31 38 25v30" id="ae"/><g id="f"><use transform="matrix(0.05286051576753077,0,0,0.05286051576753077,0,0)" xlink:href="#ac"/><use transform="matrix(0.05286051576753077,0,0,0.05286051576753077,13.69087358379047,0)" xlink:href="#Y"/><use transform="matrix(0.05286051576753077,0,0,0.05286051576753077,18.976925160543548,0)" xlink:href="#U"/><use transform="matrix(0.05286051576753077,0,0,0.05286051576753077,24.262976737296626,0)" xlink:href="#ad"/><use transform="matrix(0.05286051576753077,0,0,0.05286051576753077,34.83507989080278,0)" xlink:href="#ab"/><use transform="matrix(0.05286051576753077,0,0,0.05286051576753077,46.41153284389202,0)" xlink:href="#ae"/><use transform="matrix(0.05286051576753077,0,0,0.05286051576753077,52.70193422022818,0)" xlink:href="#ad"/></g><path fill="#1d262b" d="M183 0l-10-63H79L44 0H-7l138-248h61L234 0h-51zm-14-102l-15-108c-16 38-36 73-55 108h70" id="af"/><path fill="#1d262b" d="M241-173c-1 82-78 91-166 86L58 0H6l48-248c87 0 188-12 187 75zm-53 2c0-43-48-36-90-36l-15 80c50 0 105 7 105-44" id="ag"/><path fill="#1d262b" d="M6 0l48-248h52L58 0H6" id="ah"/><g id="g"><use transform="matrix(0.05286051576753077,0,0,0.05286051576753077,0,0)" xlink:href="#af"/><use transform="matrix(0.05286051576753077,0,0,0.05286051576753077,13.69087358379047,0)" xlink:href="#ag"/><use transform="matrix(0.05286051576753077,0,0,0.05286051576753077,26.377397367997855,0)" xlink:href="#ah"/></g><path fill="#1d262b" d="M230 0l2-204L168 0h-37L68-204 70 0H24v-248h70l56 185 57-185h69V0h-46" id="ai"/><path fill="#1d262b" d="M88-194c31-1 46 15 58 34l-1-101h50l1 261h-48c-2-10 0-23-3-31C134-8 116 4 84 4 32 4 16-41 15-95c0-56 19-97 73-99zm17 164c33 0 40-30 41-66 1-37-9-64-41-64s-38 30-39 65c0 43 13 65 39 65" id="aj"/><g id="h"><use transform="matrix(0.05286051576753077,0,0,0.05286051576753077,0,0)" xlink:href="#ai"/><use transform="matrix(0.05286051576753077,0,0,0.05286051576753077,15.8052942144917,0)" xlink:href="#V"/><use transform="matrix(0.05286051576753077,0,0,0.05286051576753077,27.38174716758094,0)" xlink:href="#aj"/><use transform="matrix(0.05286051576753077,0,0,0.05286051576753077,38.95820012067018,0)" xlink:href="#ad"/><use transform="matrix(0.05286051576753077,0,0,0.05286051576753077,49.53030327417633,0)" xlink:href="#Y"/><use transform="matrix(0.05286051576753077,0,0,0.05286051576753077,54.81635485092941,0)" xlink:href="#V"/></g><path fill="#1d262b" d="M135-143c-3-34-86-38-87 0 15 53 115 12 119 90S17 21 10-45l28-5c4 36 97 45 98 0-10-56-113-15-118-90-4-57 82-63 122-42 12 7 21 19 24 35" id="ak"/><path fill="#1d262b" d="M84 4C-5 8 30-112 23-190h32v120c0 31 7 50 39 49 72-2 45-101 50-169h31l1 190h-30c-1-10 1-25-2-33-11 22-28 36-60 37" id="al"/><path fill="#1d262b" d="M115-194c53 0 69 39 70 98 0 66-23 100-70 100C84 3 66-7 56-30L54 0H23l1-261h32v101c10-23 28-34 59-34zm-8 174c40 0 45-34 45-75 0-40-5-75-45-74-42 0-51 32-51 76 0 43 10 73 51 73" id="am"/><path fill="#1d262b" d="M137 0h-34L2-248h35l83 218 83-218h36" id="an"/><path fill="#1d262b" d="M87 75C49 33 22-17 22-94c0-76 28-126 65-167h31c-38 41-64 92-64 168S80 34 118 75H87" id="ao"/><path fill="#1d262b" d="M33-261c38 41 65 92 65 168S71 34 33 75H2C39 34 66-17 66-93S39-220 2-261h31" id="ap"/><g id="i"><use transform="matrix(0.05,0,0,0.05,0,0)" xlink:href="#ak"/><use transform="matrix(0.05,0,0,0.05,9,0)" xlink:href="#al"/><use transform="matrix(0.05,0,0,0.05,19,0)" xlink:href="#am"/><use transform="matrix(0.05,0,0,0.05,29,0)" xlink:href="#G"/><use transform="matrix(0.05,0,0,0.05,39,0)" xlink:href="#an"/><use transform="matrix(0.05,0,0,0.05,50.65,0)" xlink:href="#J"/><use transform="matrix(0.05,0,0,0.05,54.6,0)" xlink:href="#L"/><use transform="matrix(0.05,0,0,0.05,64.6,0)" xlink:href="#G"/><use transform="matrix(0.05,0,0,0.05,74.6,0)" xlink:href="#O"/><use transform="matrix(0.05,0,0,0.05,84.6,0)" xlink:href="#ao"/><use transform="matrix(0.05,0,0,0.05,90.55,0)" xlink:href="#M"/><use transform="matrix(0.05,0,0,0.05,99.55,0)" xlink:href="#J"/><use transform="matrix(0.05,0,0,0.05,103.5,0)" xlink:href="#L"/><use transform="matrix(0.05,0,0,0.05,113.5,0)" xlink:href="#G"/><use transform="matrix(0.05,0,0,0.05,123.5,0)" xlink:href="#O"/><use transform="matrix(0.05,0,0,0.05,133.5,0)" xlink:href="#ap"/></g><path fill="#1d262b" d="M26 75v-336h71v23H56V52h41v23H26" id="aq"/><path fill="#1d262b" d="M210-169c-67 3-38 105-44 169h-31v-121c0-29-5-50-35-48C34-165 62-65 56 0H25l-1-190h30c1 10-1 24 2 32 10-44 99-50 107 0 11-21 27-35 58-36 85-2 47 119 55 194h-31v-121c0-29-5-49-35-48" id="ar"/><path fill="#1d262b" d="M59-47c-2 24 18 29 38 22v24C64 9 27 4 27-40v-127H5v-23h24l9-43h21v43h35v23H59v120" id="as"/><g id="j"><use transform="matrix(0.05,0,0,0.05,0,0)" xlink:href="#aq"/><use transform="matrix(0.05,0,0,0.05,5,0)" xlink:href="#F"/><use transform="matrix(0.05,0,0,0.05,10,0)" xlink:href="#O"/><use transform="matrix(0.05,0,0,0.05,20,0)" xlink:href="#H"/><use transform="matrix(0.05,0,0,0.05,25.950000000000003,0)" xlink:href="#ar"/><use transform="matrix(0.05,0,0,0.05,40.9,0)" xlink:href="#K"/><use transform="matrix(0.05,0,0,0.05,50.9,0)" xlink:href="#as"/><use transform="matrix(0.05,0,0,0.05,55.900000000000006,0)" xlink:href="#O"/></g><g id="k"><use transform="matrix(0.05,0,0,0.05,0,0)" xlink:href="#M"/><use transform="matrix(0.05,0,0,0.05,9,0)" xlink:href="#N"/><use transform="matrix(0.05,0,0,0.05,14,0)" xlink:href="#L"/><use transform="matrix(0.05,0,0,0.05,24,0)" xlink:href="#G"/><use transform="matrix(0.05,0,0,0.05,34,0)" xlink:href="#O"/></g><g id="l"><use transform="matrix(0.05,0,0,0.05,0,0)" xlink:href="#I"/><use transform="matrix(0.05,0,0,0.05,9,0)" xlink:href="#O"/><use transform="matrix(0.05,0,0,0.05,19,0)" xlink:href="#H"/><use transform="matrix(0.05,0,0,0.05,24.95,0)" xlink:href="#H"/><use transform="matrix(0.05,0,0,0.05,30.899999999999995,0)" xlink:href="#G"/><use transform="matrix(0.05,0,0,0.05,40.9,0)" xlink:href="#I"/><use transform="matrix(0.05,0,0,0.05,49.9,0)" xlink:href="#as"/><use transform="matrix(0.05,0,0,0.05,54.900000000000006,0)" xlink:href="#O"/></g><path fill="#1d262b" d="M18-150v-26h174v26H18zm0 90v-26h174v26H18" id="at"/><g id="m"><use transform="matrix(0.05,0,0,0.05,0,0)" xlink:href="#at"/><use transform="matrix(0.05,0,0,0.05,10.5,0)" xlink:href="#at"/></g><path fill="#1d262b" d="M76-40C78 24 84 88 6 75V52C86 64 9-79 80-94c-40-6-34-59-34-106 1-29-11-41-40-38v-23c44-4 70 10 70 52 0 47-12 108 38 105v22c-26 1-39 14-38 42" id="au"/><g id="n"><use transform="matrix(0.05,0,0,0.05,0,0)" xlink:href="#as"/><use transform="matrix(0.05,0,0,0.05,5,0)" xlink:href="#H"/><use transform="matrix(0.05,0,0,0.05,10.95,0)" xlink:href="#al"/><use transform="matrix(0.05,0,0,0.05,20.95,0)" xlink:href="#G"/><use transform="matrix(0.05,0,0,0.05,30.950000000000003,0)" xlink:href="#au"/></g><path fill="#1d262b" d="M24 0v-261h32V0H24" id="av"/><g id="o"><use transform="matrix(0.05,0,0,0.05,0,0)" xlink:href="#F"/><use transform="matrix(0.05,0,0,0.05,5,0)" xlink:href="#K"/><use transform="matrix(0.05,0,0,0.05,15,0)" xlink:href="#av"/><use transform="matrix(0.05,0,0,0.05,18.95,0)" xlink:href="#ak"/><use transform="matrix(0.05,0,0,0.05,27.950000000000003,0)" xlink:href="#G"/><use transform="matrix(0.05,0,0,0.05,37.95,0)" xlink:href="#au"/></g><path fill="#1d262b" d="M115-194c55 1 70 41 70 98S169 2 115 4C84 4 66-9 55-30l1 105H24l-1-265h31l2 30c10-21 28-34 59-34zm-8 174c40 0 45-34 45-75s-6-73-45-74c-42 0-51 32-51 76 0 43 10 73 51 73" id="aw"/><path fill="#1d262b" d="M9 0v-24l116-142H16v-24h144v24L44-24h123V0H9" id="ax"/><g id="p"><use transform="matrix(0.05,0,0,0.05,0,0)" xlink:href="#aw"/><use transform="matrix(0.05,0,0,0.05,10,0)" xlink:href="#H"/><use transform="matrix(0.05,0,0,0.05,15.949999999999998,0)" xlink:href="#G"/><use transform="matrix(0.05,0,0,0.05,25.950000000000003,0)" xlink:href="#M"/><use transform="matrix(0.05,0,0,0.05,34.95,0)" xlink:href="#J"/><use transform="matrix(0.05,0,0,0.05,38.900000000000006,0)" xlink:href="#ak"/><use transform="matrix(0.05,0,0,0.05,47.900000000000006,0)" xlink:href="#al"/><use transform="matrix(0.05,0,0,0.05,57.900000000000006,0)" xlink:href="#K"/><use transform="matrix(0.05,0,0,0.05,67.9,0)" xlink:href="#av"/><use transform="matrix(0.05,0,0,0.05,71.85000000000001,0)" xlink:href="#J"/><use transform="matrix(0.05,0,0,0.05,75.80000000000001,0)" xlink:href="#ax"/><use transform="matrix(0.05,0,0,0.05,84.80000000000001,0)" xlink:href="#K"/><use transform="matrix(0.05,0,0,0.05,94.80000000000001,0)" xlink:href="#an"/><use transform="matrix(0.05,0,0,0.05,106.45,0)" xlink:href="#J"/><use transform="matrix(0.05,0,0,0.05,110.40000000000003,0)" xlink:href="#L"/><use transform="matrix(0.05,0,0,0.05,120.40000000000003,0)" xlink:href="#G"/><use transform="matrix(0.05,0,0,0.05,130.40000000000003,0)" xlink:href="#O"/><use transform="matrix(0.05,0,0,0.05,140.40000000000003,0)" xlink:href="#ao"/><use transform="matrix(0.05,0,0,0.05,146.35000000000002,0)" xlink:href="#ap"/></g><g id="q"><use transform="matrix(0.05,0,0,0.05,0,0)" xlink:href="#G"/><use transform="matrix(0.05,0,0,0.05,10,0)" xlink:href="#E"/><use transform="matrix(0.05,0,0,0.05,20,0)" xlink:href="#M"/><use transform="matrix(0.05,0,0,0.05,29,0)" xlink:href="#J"/><use transform="matrix(0.05,0,0,0.05,32.95,0)" xlink:href="#K"/><use transform="matrix(0.05,0,0,0.05,42.95,0)" xlink:href="#H"/><use transform="matrix(0.05,0,0,0.05,48.900000000000006,0)" xlink:href="#an"/><use transform="matrix(0.05,0,0,0.05,60.550000000000004,0)" xlink:href="#J"/><use transform="matrix(0.05,0,0,0.05,64.5,0)" xlink:href="#L"/><use transform="matrix(0.05,0,0,0.05,74.5,0)" xlink:href="#G"/><use transform="matrix(0.05,0,0,0.05,84.5,0)" xlink:href="#O"/><use transform="matrix(0.05,0,0,0.05,94.5,0)" xlink:href="#ao"/><use transform="matrix(0.05,0,0,0.05,100.45,0)" xlink:href="#M"/><use transform="matrix(0.05,0,0,0.05,109.45,0)" xlink:href="#J"/><use transform="matrix(0.05,0,0,0.05,113.4,0)" xlink:href="#L"/><use transform="matrix(0.05,0,0,0.05,123.4,0)" xlink:href="#G"/><use transform="matrix(0.05,0,0,0.05,133.4,0)" xlink:href="#O"/><use transform="matrix(0.05,0,0,0.05,143.4,0)" xlink:href="#ap"/></g><path fill="#1d262b" d="M185-189c-5-48-123-54-124 2 14 75 158 14 163 119 3 78-121 87-175 55-17-10-28-26-33-46l33-7c5 56 141 63 141-1 0-78-155-14-162-118-5-82 145-84 179-34 5 7 8 16 11 25" id="ay"/><g id="r"><use transform="matrix(0.05,0,0,0.05,0,0)" xlink:href="#aw"/><use transform="matrix(0.05,0,0,0.05,10,0)" xlink:href="#H"/><use transform="matrix(0.05,0,0,0.05,15.949999999999998,0)" xlink:href="#O"/><use transform="matrix(0.05,0,0,0.05,25.950000000000003,0)" xlink:href="#I"/><use transform="matrix(0.05,0,0,0.05,34.95,0)" xlink:href="#G"/><use transform="matrix(0.05,0,0,0.05,44.95,0)" xlink:href="#ak"/><use transform="matrix(0.05,0,0,0.05,53.95,0)" xlink:href="#K"/><use transform="matrix(0.05,0,0,0.05,63.95,0)" xlink:href="#ay"/><use transform="matrix(0.05,0,0,0.05,75.95,0)" xlink:href="#K"/><use transform="matrix(0.05,0,0,0.05,85.95,0)" xlink:href="#av"/><use transform="matrix(0.05,0,0,0.05,89.9,0)" xlink:href="#J"/><use transform="matrix(0.05,0,0,0.05,93.85000000000001,0)" xlink:href="#L"/><use transform="matrix(0.05,0,0,0.05,103.85000000000001,0)" xlink:href="#K"/><use transform="matrix(0.05,0,0,0.05,113.85000000000001,0)" xlink:href="#ao"/><use transform="matrix(0.05,0,0,0.05,119.80000000000001,0)" xlink:href="#ak"/><use transform="matrix(0.05,0,0,0.05,128.8,0)" xlink:href="#K"/><use transform="matrix(0.05,0,0,0.05,138.8,0)" xlink:href="#av"/><use transform="matrix(0.05,0,0,0.05,142.75,0)" xlink:href="#J"/><use transform="matrix(0.05,0,0,0.05,146.7,0)" xlink:href="#L"/><use transform="matrix(0.05,0,0,0.05,156.7,0)" xlink:href="#K"/><use transform="matrix(0.05,0,0,0.05,166.7,0)" xlink:href="#ap"/></g><path fill="#1d262b" d="M240 0l2-218c-23 76-54 145-80 218h-23L58-218 59 0H30v-248h44l77 211c21-75 51-140 76-211h43V0h-30" id="az"/><path fill="#1d262b" d="M30-248c87 1 191-15 191 75 0 78-77 80-158 76V0H30v-248zm33 125c57 0 124 11 124-50 0-59-68-47-124-48v98" id="aA"/><g id="s"><use transform="matrix(0.05,0,0,0.05,0,0)" xlink:href="#J"/><use transform="matrix(0.05,0,0,0.05,3.95,0)" xlink:href="#E"/><use transform="matrix(0.05,0,0,0.05,13.949999999999998,0)" xlink:href="#F"/><use transform="matrix(0.05,0,0,0.05,18.95,0)" xlink:href="#J"/><use transform="matrix(0.05,0,0,0.05,22.9,0)" xlink:href="#G"/><use transform="matrix(0.05,0,0,0.05,32.9,0)" xlink:href="#H"/><use transform="matrix(0.05,0,0,0.05,38.85,0)" xlink:href="#G"/><use transform="matrix(0.05,0,0,0.05,48.85,0)" xlink:href="#az"/><use transform="matrix(0.05,0,0,0.05,63.800000000000004,0)" xlink:href="#O"/><use transform="matrix(0.05,0,0,0.05,73.80000000000001,0)" xlink:href="#L"/><use transform="matrix(0.05,0,0,0.05,83.80000000000001,0)" xlink:href="#G"/><use transform="matrix(0.05,0,0,0.05,93.80000000000001,0)" xlink:href="#av"/><use transform="matrix(0.05,0,0,0.05,97.75000000000001,0)" xlink:href="#O"/><use transform="matrix(0.05,0,0,0.05,107.75,0)" xlink:href="#ao"/><use transform="matrix(0.05,0,0,0.05,113.7,0)" xlink:href="#M"/><use transform="matrix(0.05,0,0,0.05,122.7,0)" xlink:href="#J"/><use transform="matrix(0.05,0,0,0.05,126.65000000000003,0)" xlink:href="#L"/><use transform="matrix(0.05,0,0,0.05,136.65000000000003,0)" xlink:href="#G"/><use transform="matrix(0.05,0,0,0.05,146.65000000000003,0)" xlink:href="#O"/><use transform="matrix(0.05,0,0,0.05,156.65000000000003,0)" xlink:href="#aA"/><use transform="matrix(0.05,0,0,0.05,168.65000000000003,0)" xlink:href="#H"/><use transform="matrix(0.05,0,0,0.05,174.60000000000002,0)" xlink:href="#O"/><use transform="matrix(0.05,0,0,0.05,184.60000000000002,0)" xlink:href="#I"/><use transform="matrix(0.05,0,0,0.05,193.60000000000002,0)" xlink:href="#G"/><use transform="matrix(0.05,0,0,0.05,203.60000000000002,0)" xlink:href="#ak"/><use transform="matrix(0.05,0,0,0.05,212.60000000000002,0)" xlink:href="#K"/><use transform="matrix(0.05,0,0,0.05,222.60000000000002,0)" xlink:href="#L"/><use transform="matrix(0.05,0,0,0.05,232.60000000000002,0)" xlink:href="#O"/><use transform="matrix(0.05,0,0,0.05,242.60000000000002,0)" xlink:href="#ap"/></g><g id="t"><use transform="matrix(0.05,0,0,0.05,0,0)" xlink:href="#L"/><use transform="matrix(0.05,0,0,0.05,10,0)" xlink:href="#G"/><use transform="matrix(0.05,0,0,0.05,20,0)" xlink:href="#M"/><use transform="matrix(0.05,0,0,0.05,29,0)" xlink:href="#al"/><use transform="matrix(0.05,0,0,0.05,39,0)" xlink:href="#G"/><use transform="matrix(0.05,0,0,0.05,49,0)" xlink:href="#av"/><use transform="matrix(0.05,0,0,0.05,52.95,0)" xlink:href="#M"/><use transform="matrix(0.05,0,0,0.05,61.95,0)" xlink:href="#G"/><use transform="matrix(0.05,0,0,0.05,71.95,0)" xlink:href="#ay"/><use transform="matrix(0.05,0,0,0.05,83.95,0)" xlink:href="#K"/><use transform="matrix(0.05,0,0,0.05,93.95,0)" xlink:href="#av"/><use transform="matrix(0.05,0,0,0.05,97.9,0)" xlink:href="#J"/><use transform="matrix(0.05,0,0,0.05,101.85000000000001,0)" xlink:href="#L"/><use transform="matrix(0.05,0,0,0.05,111.85000000000001,0)" xlink:href="#K"/><use transform="matrix(0.05,0,0,0.05,121.85000000000001,0)" xlink:href="#ao"/><use transform="matrix(0.05,0,0,0.05,127.80000000000001,0)" xlink:href="#ak"/><use transform="matrix(0.05,0,0,0.05,136.8,0)" xlink:href="#K"/><use transform="matrix(0.05,0,0,0.05,146.8,0)" xlink:href="#av"/><use transform="matrix(0.05,0,0,0.05,150.75,0)" xlink:href="#J"/><use transform="matrix(0.05,0,0,0.05,154.7,0)" xlink:href="#L"/><use transform="matrix(0.05,0,0,0.05,164.7,0)" xlink:href="#K"/><use transform="matrix(0.05,0,0,0.05,174.7,0)" xlink:href="#ap"/></g><path fill="#1d262b" d="M212-179c-10-28-35-45-73-45-59 0-87 40-87 99 0 60 29 101 89 101 43 0 62-24 78-52l27 14C228-24 195 4 139 4 59 4 22-46 18-125c-6-104 99-153 187-111 19 9 31 26 39 46" id="aB"/><g id="u"><use transform="matrix(0.05,0,0,0.05,0,0)" xlink:href="#I"/><use transform="matrix(0.05,0,0,0.05,9,0)" xlink:href="#O"/><use transform="matrix(0.05,0,0,0.05,19,0)" xlink:href="#ar"/><use transform="matrix(0.05,0,0,0.05,33.95,0)" xlink:href="#aw"/><use transform="matrix(0.05,0,0,0.05,43.95,0)" xlink:href="#H"/><use transform="matrix(0.05,0,0,0.05,49.900000000000006,0)" xlink:href="#al"/><use transform="matrix(0.05,0,0,0.05,59.900000000000006,0)" xlink:href="#G"/><use transform="matrix(0.05,0,0,0.05,69.9,0)" xlink:href="#am"/><use transform="matrix(0.05,0,0,0.05,79.9,0)" xlink:href="#K"/><use transform="matrix(0.05,0,0,0.05,89.9,0)" xlink:href="#aB"/><use transform="matrix(0.05,0,0,0.05,102.85000000000001,0)" xlink:href="#al"/><use transform="matrix(0.05,0,0,0.05,112.85000000000001,0)" xlink:href="#G"/><use transform="matrix(0.05,0,0,0.05,122.85000000000001,0)" xlink:href="#H"/><use transform="matrix(0.05,0,0,0.05,128.8,0)" xlink:href="#aw"/><use transform="matrix(0.05,0,0,0.05,138.8,0)" xlink:href="#O"/><use transform="matrix(0.05,0,0,0.05,148.8,0)" xlink:href="#aA"/><use transform="matrix(0.05,0,0,0.05,160.8,0)" xlink:href="#G"/><use transform="matrix(0.05,0,0,0.05,170.8,0)" xlink:href="#as"/><use transform="matrix(0.05,0,0,0.05,175.8,0)" xlink:href="#J"/><use transform="matrix(0.05,0,0,0.05,179.75,0)" xlink:href="#I"/><use transform="matrix(0.05,0,0,0.05,188.75,0)" xlink:href="#J"/><use transform="matrix(0.05,0,0,0.05,192.7,0)" xlink:href="#O"/><use transform="matrix(0.05,0,0,0.05,202.7,0)" xlink:href="#E"/><use transform="matrix(0.05,0,0,0.05,212.69999999999996,0)" xlink:href="#ao"/><use transform="matrix(0.05,0,0,0.05,218.64999999999998,0)" xlink:href="#I"/><use transform="matrix(0.05,0,0,0.05,227.64999999999998,0)" xlink:href="#al"/><use transform="matrix(0.05,0,0,0.05,237.64999999999998,0)" xlink:href="#G"/><use transform="matrix(0.05,0,0,0.05,247.64999999999998,0)" xlink:href="#H"/><use transform="matrix(0.05,0,0,0.05,253.59999999999997,0)" xlink:href="#aw"/><use transform="matrix(0.05,0,0,0.05,263.59999999999997,0)" xlink:href="#O"/><use transform="matrix(0.05,0,0,0.05,273.59999999999997,0)" xlink:href="#ap"/></g><g id="v"><use transform="matrix(0.05,0,0,0.05,0,0)" xlink:href="#aq"/><use transform="matrix(0.05,0,0,0.05,5,0)" xlink:href="#G"/><use transform="matrix(0.05,0,0,0.05,15,0)" xlink:href="#H"/><use transform="matrix(0.05,0,0,0.05,20.95,0)" xlink:href="#H"/><use transform="matrix(0.05,0,0,0.05,26.899999999999995,0)" xlink:href="#O"/><use transform="matrix(0.05,0,0,0.05,36.9,0)" xlink:href="#H"/></g><g id="w"><use transform="matrix(0.05,0,0,0.05,0,0)" xlink:href="#ak"/><use transform="matrix(0.05,0,0,0.05,9,0)" xlink:href="#G"/><use transform="matrix(0.05,0,0,0.05,19,0)" xlink:href="#H"/><use transform="matrix(0.05,0,0,0.05,24.95,0)" xlink:href="#M"/><use transform="matrix(0.05,0,0,0.05,33.95,0)" xlink:href="#J"/><use transform="matrix(0.05,0,0,0.05,37.900000000000006,0)" xlink:href="#L"/><use transform="matrix(0.05,0,0,0.05,47.900000000000006,0)" xlink:href="#O"/><use transform="matrix(0.05,0,0,0.05,57.900000000000006,0)" xlink:href="#H"/></g><path fill="#1d262b" d="M153-248C145-148 188 4 80 4 36 3 13-21 6-62l32-5c4 25 16 42 43 43 27 0 39-20 39-49v-147H72v-28h81" id="aC"/><path fill="#1d262b" d="M140-251c81 0 123 46 123 126C263-46 219 4 140 4 59 4 17-45 17-125s42-126 123-126zm0 227c63 0 89-41 89-101s-29-99-89-99c-61 0-89 39-89 99S79-25 140-24" id="aD"/><path fill="#1d262b" d="M190 0L58-211 59 0H30v-248h39L202-35l-2-213h31V0h-41" id="aE"/><g id="x"><use transform="matrix(0.05,0,0,0.05,0,0)" xlink:href="#L"/><use transform="matrix(0.05,0,0,0.05,10,0)" xlink:href="#G"/><use transform="matrix(0.05,0,0,0.05,20,0)" xlink:href="#M"/><use transform="matrix(0.05,0,0,0.05,29,0)" xlink:href="#O"/><use transform="matrix(0.05,0,0,0.05,39,0)" xlink:href="#av"/><use transform="matrix(0.05,0,0,0.05,42.95,0)" xlink:href="#M"/><use transform="matrix(0.05,0,0,0.05,51.95,0)" xlink:href="#G"/><use transform="matrix(0.05,0,0,0.05,61.95,0)" xlink:href="#H"/><use transform="matrix(0.05,0,0,0.05,67.9,0)" xlink:href="#ay"/><use transform="matrix(0.05,0,0,0.05,79.9,0)" xlink:href="#K"/><use transform="matrix(0.05,0,0,0.05,89.9,0)" xlink:href="#av"/><use transform="matrix(0.05,0,0,0.05,93.85000000000001,0)" xlink:href="#J"/><use transform="matrix(0.05,0,0,0.05,97.80000000000001,0)" xlink:href="#L"/><use transform="matrix(0.05,0,0,0.05,107.80000000000001,0)" xlink:href="#K"/><use transform="matrix(0.05,0,0,0.05,117.80000000000001,0)" xlink:href="#ao"/><use transform="matrix(0.05,0,0,0.05,123.75,0)" xlink:href="#ak"/><use transform="matrix(0.05,0,0,0.05,132.75,0)" xlink:href="#K"/><use transform="matrix(0.05,0,0,0.05,142.75,0)" xlink:href="#av"/><use transform="matrix(0.05,0,0,0.05,146.7,0)" xlink:href="#J"/><use transform="matrix(0.05,0,0,0.05,150.64999999999998,0)" xlink:href="#L"/><use transform="matrix(0.05,0,0,0.05,160.64999999999998,0)" xlink:href="#K"/><use transform="matrix(0.05,0,0,0.05,170.64999999999998,0)" xlink:href="#aC"/><use transform="matrix(0.05,0,0,0.05,179.64999999999998,0)" xlink:href="#ay"/><use transform="matrix(0.05,0,0,0.05,191.64999999999998,0)" xlink:href="#aD"/><use transform="matrix(0.05,0,0,0.05,205.64999999999998,0)" xlink:href="#aE"/><use transform="matrix(0.05,0,0,0.05,218.59999999999997,0)" xlink:href="#ap"/></g><path fill="#1d262b" d="M177-190C167-65 218 103 67 71c-23-6-38-20-44-43l32-5c15 47 100 32 89-28v-30C133-14 115 1 83 1 29 1 15-40 15-95c0-56 16-97 71-98 29-1 48 16 59 35 1-10 0-23 2-32h30zM94-22c36 0 50-32 50-73 0-42-14-75-50-75-39 0-46 34-46 75s6 73 46 73" id="aF"/><g id="y"><use transform="matrix(0.05,0,0,0.05,0,0)" xlink:href="#ar"/><use transform="matrix(0.05,0,0,0.05,14.950000000000001,0)" xlink:href="#O"/><use transform="matrix(0.05,0,0,0.05,24.950000000000003,0)" xlink:href="#ak"/><use transform="matrix(0.05,0,0,0.05,33.95,0)" xlink:href="#as"/><use transform="matrix(0.05,0,0,0.05,38.95,0)" xlink:href="#H"/><use transform="matrix(0.05,0,0,0.05,44.900000000000006,0)" xlink:href="#K"/><use transform="matrix(0.05,0,0,0.05,54.900000000000006,0)" xlink:href="#H"/><use transform="matrix(0.05,0,0,0.05,60.85,0)" xlink:href="#ay"/><use transform="matrix(0.05,0,0,0.05,72.85000000000001,0)" xlink:href="#K"/><use transform="matrix(0.05,0,0,0.05,82.85000000000001,0)" xlink:href="#av"/><use transform="matrix(0.05,0,0,0.05,86.80000000000001,0)" xlink:href="#J"/><use transform="matrix(0.05,0,0,0.05,90.75000000000001,0)" xlink:href="#L"/><use transform="matrix(0.05,0,0,0.05,100.75000000000001,0)" xlink:href="#K"/><use transform="matrix(0.05,0,0,0.05,110.75,0)" xlink:href="#ao"/><use transform="matrix(0.05,0,0,0.05,116.7,0)" xlink:href="#ak"/><use transform="matrix(0.05,0,0,0.05,125.7,0)" xlink:href="#J"/><use transform="matrix(0.05,0,0,0.05,129.65,0)" xlink:href="#aF"/><use transform="matrix(0.05,0,0,0.05,139.65,0)" xlink:href="#E"/><use transform="matrix(0.05,0,0,0.05,149.65,0)" xlink:href="#O"/><use transform="matrix(0.05,0,0,0.05,159.65,0)" xlink:href="#ap"/></g><path fill="#1d262b" d="M30 0v-248h187v28H63v79h144v27H63v87h162V0H30" id="aG"/><g id="z"><use transform="matrix(0.05,0,0,0.05,0,0)" xlink:href="#G"/><use transform="matrix(0.05,0,0,0.05,10,0)" xlink:href="#E"/><use transform="matrix(0.05,0,0,0.05,20,0)" xlink:href="#M"/><use transform="matrix(0.05,0,0,0.05,29,0)" xlink:href="#J"/><use transform="matrix(0.05,0,0,0.05,32.95,0)" xlink:href="#K"/><use transform="matrix(0.05,0,0,0.05,42.95,0)" xlink:href="#aG"/><use transform="matrix(0.05,0,0,0.05,54.95,0)" xlink:href="#H"/><use transform="matrix(0.05,0,0,0.05,60.900000000000006,0)" xlink:href="#H"/><use transform="matrix(0.05,0,0,0.05,66.85000000000001,0)" xlink:href="#O"/><use transform="matrix(0.05,0,0,0.05,76.85000000000001,0)" xlink:href="#H"/><use transform="matrix(0.05,0,0,0.05,82.80000000000001,0)" xlink:href="#ao"/><use transform="matrix(0.05,0,0,0.05,88.75000000000001,0)" xlink:href="#G"/><use transform="matrix(0.05,0,0,0.05,98.75000000000001,0)" xlink:href="#H"/><use transform="matrix(0.05,0,0,0.05,104.7,0)" xlink:href="#H"/><use transform="matrix(0.05,0,0,0.05,110.65000000000003,0)" xlink:href="#O"/><use transform="matrix(0.05,0,0,0.05,120.65000000000003,0)" xlink:href="#H"/><use transform="matrix(0.05,0,0,0.05,126.60000000000002,0)" xlink:href="#aC"/><use transform="matrix(0.05,0,0,0.05,135.60000000000002,0)" xlink:href="#ay"/><use transform="matrix(0.05,0,0,0.05,147.60000000000002,0)" xlink:href="#aD"/><use transform="matrix(0.05,0,0,0.05,161.60000000000002,0)" xlink:href="#aE"/><use transform="matrix(0.05,0,0,0.05,174.55,0)" xlink:href="#ap"/></g><path fill="#1d262b" d="M24-231v-30h32v30H24zM-9 49c24 4 33-6 33-30v-209h32V24c2 40-23 58-65 49V49" id="aH"/><g id="A"><use transform="matrix(0.05,0,0,0.05,0,0)" xlink:href="#ar"/><use transform="matrix(0.05,0,0,0.05,14.950000000000001,0)" xlink:href="#al"/><use transform="matrix(0.05,0,0,0.05,24.950000000000003,0)" xlink:href="#G"/><use transform="matrix(0.05,0,0,0.05,34.95,0)" xlink:href="#ak"/><use transform="matrix(0.05,0,0,0.05,43.95,0)" xlink:href="#as"/><use transform="matrix(0.05,0,0,0.05,48.95,0)" xlink:href="#H"/><use transform="matrix(0.05,0,0,0.05,54.900000000000006,0)" xlink:href="#K"/><use transform="matrix(0.05,0,0,0.05,64.9,0)" xlink:href="#aG"/><use transform="matrix(0.05,0,0,0.05,76.9,0)" xlink:href="#H"/><use transform="matrix(0.05,0,0,0.05,82.85000000000001,0)" xlink:href="#H"/><use transform="matrix(0.05,0,0,0.05,88.80000000000001,0)" xlink:href="#O"/><use transform="matrix(0.05,0,0,0.05,98.80000000000001,0)" xlink:href="#H"/><use transform="matrix(0.05,0,0,0.05,104.75,0)" xlink:href="#ao"/><use transform="matrix(0.05,0,0,0.05,110.7,0)" xlink:href="#ar"/><use transform="matrix(0.05,0,0,0.05,125.65000000000003,0)" xlink:href="#G"/><use transform="matrix(0.05,0,0,0.05,135.65000000000003,0)" xlink:href="#E"/><use transform="matrix(0.05,0,0,0.05,145.65000000000003,0)" xlink:href="#ak"/><use transform="matrix(0.05,0,0,0.05,154.65000000000003,0)" xlink:href="#K"/><use transform="matrix(0.05,0,0,0.05,164.65000000000003,0)" xlink:href="#aH"/><use transform="matrix(0.05,0,0,0.05,168.60000000000002,0)" xlink:href="#G"/><use transform="matrix(0.05,0,0,0.05,178.60000000000002,0)" xlink:href="#aG"/><use transform="matrix(0.05,0,0,0.05,190.60000000000002,0)" xlink:href="#H"/><use transform="matrix(0.05,0,0,0.05,196.55,0)" xlink:href="#H"/><use transform="matrix(0.05,0,0,0.05,202.5,0)" xlink:href="#O"/><use transform="matrix(0.05,0,0,0.05,212.5,0)" xlink:href="#H"/><use transform="matrix(0.05,0,0,0.05,218.44999999999996,0)" xlink:href="#ap"/></g><path fill="#1d262b" d="M109-170H84l-4-78h32zm-65 0H19l-4-78h33" id="aI"/><g id="B"><use transform="matrix(0.05,0,0,0.05,0,0)" xlink:href="#ar"/><use transform="matrix(0.05,0,0,0.05,14.950000000000001,0)" xlink:href="#al"/><use transform="matrix(0.05,0,0,0.05,24.950000000000003,0)" xlink:href="#G"/><use transform="matrix(0.05,0,0,0.05,34.95,0)" xlink:href="#ak"/><use transform="matrix(0.05,0,0,0.05,43.95,0)" xlink:href="#as"/><use transform="matrix(0.05,0,0,0.05,48.95,0)" xlink:href="#H"/><use transform="matrix(0.05,0,0,0.05,54.900000000000006,0)" xlink:href="#K"/><use transform="matrix(0.05,0,0,0.05,64.9,0)" xlink:href="#aG"/><use transform="matrix(0.05,0,0,0.05,76.9,0)" xlink:href="#H"/><use transform="matrix(0.05,0,0,0.05,82.85000000000001,0)" xlink:href="#H"/><use transform="matrix(0.05,0,0,0.05,88.80000000000001,0)" xlink:href="#O"/><use transform="matrix(0.05,0,0,0.05,98.80000000000001,0)" xlink:href="#H"/><use transform="matrix(0.05,0,0,0.05,104.75,0)" xlink:href="#ao"/><use transform="matrix(0.05,0,0,0.05,110.7,0)" xlink:href="#aI"/><use transform="matrix(0.05,0,0,0.05,117.05000000000001,0)" xlink:href="#an"/><use transform="matrix(0.05,0,0,0.05,128.70000000000002,0)" xlink:href="#J"/><use transform="matrix(0.05,0,0,0.05,132.65,0)" xlink:href="#L"/><use transform="matrix(0.05,0,0,0.05,142.65,0)" xlink:href="#G"/><use transform="matrix(0.05,0,0,0.05,152.65,0)" xlink:href="#O"/></g><g id="C"><use transform="matrix(0.05,0,0,0.05,0,0)" xlink:href="#D"/><use transform="matrix(0.05,0,0,0.05,5,0)" xlink:href="#E"/><use transform="matrix(0.05,0,0,0.05,15,0)" xlink:href="#I"/><use transform="matrix(0.05,0,0,0.05,24,0)" xlink:href="#O"/><use transform="matrix(0.05,0,0,0.05,34,0)" xlink:href="#H"/><use transform="matrix(0.05,0,0,0.05,39.95,0)" xlink:href="#H"/><use transform="matrix(0.05,0,0,0.05,45.900000000000006,0)" xlink:href="#G"/><use transform="matrix(0.05,0,0,0.05,55.900000000000006,0)" xlink:href="#I"/><use transform="matrix(0.05,0,0,0.05,64.9,0)" xlink:href="#as"/><use transform="matrix(0.05,0,0,0.05,69.9,0)" xlink:href="#O"/><use transform="matrix(0.05,0,0,0.05,79.9,0)" xlink:href="#aI"/><use transform="matrix(0.05,0,0,0.05,86.25,0)" xlink:href="#ap"/></g></defs></g></svg>