<svg xmlns="http://www.w3.org/2000/svg" xmlns:xlink="http://www.w3.org/1999/xlink" xmlns:lucid="lucid" width="1191.25" height="1080"><g transform="translate(-100 -240)" lucid:page-tab-id=".Q4MUjXso07N"><path d="M301.24 266a6 6 0 0 1 6-6H1074a6 6 0 0 1 6 6v1028a6 6 0 0 1-6 6H307.24a6 6 0 0 1-6-6z" stroke="#4881b3" stroke-width="3" fill="#f5fbff"/><use xlink:href="#a" transform="matrix(1,0,0,1,309.23603878852725,268) translate(238.5679012345679 17.77777777777778)"/><use xlink:href="#b" transform="matrix(1,0,0,1,309.23603878852725,268) translate(356.8395061728395 17.77777777777778)"/><use xlink:href="#c" transform="matrix(1,0,0,1,309.23603878852725,268) translate(388.87654320987656 17.77777777777778)"/><use xlink:href="#d" transform="matrix(1,0,0,1,309.23603878852725,268) translate(468.9382716049383 17.77777777777778)"/><use xlink:href="#e" transform="matrix(1,0,0,1,309.23603878852725,268) translate(487.4567901234568 17.77777777777778)"/><path d="M179.75 549.75c0 10.9-8.84 19.75-19.75 19.75-10.9 0-19.75-8.84-19.75-19.75 0-10.9 8.84-19.75 19.75-19.75 10.9 0 19.75 8.84 19.75 19.75z" stroke="#4881b3" stroke-width="3" fill="#f5fbff"/><path d="M160 569.5v49.3a20.7 20.7 0 0 0 3.2 11.07L200 688m-40-63.2L120 688m0-98.75h80" stroke="#4881b3" stroke-width="3" fill="none"/><path d="M120 536a6 6 0 0 1 6-6h68a6 6 0 0 1 6 6v168a6 6 0 0 1-6 6h-68a6 6 0 0 1-6-6z" fill="none"/><use xlink:href="#f" transform="matrix(1,0,0,1,40,688) translate(89.45679012345678 14.555555555555555)"/><path d="M520 620c0 33.14-35.82 60-80 60s-80-26.86-80-60 35.82-60 80-60 80 26.86 80 60z" stroke="#4881b3" stroke-width="3" fill="#f5fbff"/><use xlink:href="#g" transform="matrix(1,0,0,1,384,584) translate(0 39.55555555555556)"/><use xlink:href="#h" transform="matrix(1,0,0,1,384,584) translate(17.77777777777778 39.55555555555556)"/><use xlink:href="#i" transform="matrix(1,0,0,1,384,584) translate(64.09876543209877 39.55555555555556)"/><path d="M780 745c0 33.14-35.82 60-80 60s-80-26.86-80-60 35.82-60 80-60 80 26.86 80 60z" stroke="#4881b3" stroke-width="3" fill="#f5fbff"/><use xlink:href="#j" transform="matrix(1,0,0,1,644,708.9994816627416) translate(14.04938271604938 28.888888888888886)"/><use xlink:href="#k" transform="matrix(1,0,0,1,644,708.9994816627416) translate(33.80246913580247 28.888888888888886)"/><use xlink:href="#l" transform="matrix(1,0,0,1,644,708.9994816627416) translate(8.197530864197525 50.22222222222222)"/><path d="M520.77 1049.53c0 33.14-35.82 60-80 60s-80-26.86-80-60c0-33.13 35.82-60 80-60s80 26.87 80 60z" stroke="#4881b3" stroke-width="3" fill="#f5fbff"/><use xlink:href="#m" transform="matrix(1,0,0,1,384.77055082430286,1013.5323414740562) translate(10.592592592592581 28.888888888888886)"/><use xlink:href="#n" transform="matrix(1,0,0,1,384.77055082430286,1013.5323414740562) translate(30.34567901234567 28.888888888888886)"/><use xlink:href="#o" transform="matrix(1,0,0,1,384.77055082430286,1013.5323414740562) translate(9.604938271604937 50.22222222222222)"/><use xlink:href="#p" transform="matrix(1,0,0,1,384.77055082430286,1013.5323414740562) translate(43.18518518518519 50.22222222222222)"/><path d="M520.77 1209.07c0 33.13-35.82 60-80 60s-80-26.87-80-60c0-33.14 35.82-60 80-60s80 26.86 80 60z" stroke="#4881b3" stroke-width="3" fill="#f5fbff"/><use xlink:href="#q" transform="matrix(1,0,0,1,384.77055082430286,1173.0657196226293) translate(2.419753086419746 28.888888888888886)"/><use xlink:href="#r" transform="matrix(1,0,0,1,384.77055082430286,1173.0657196226293) translate(22.172839506172835 28.888888888888886)"/><use xlink:href="#s" transform="matrix(1,0,0,1,384.77055082430286,1173.0657196226293) translate(79.01234567901234 28.888888888888886)"/><use xlink:href="#t" transform="matrix(1,0,0,1,384.77055082430286,1173.0657196226293) translate(13.580246913580233 50.22222222222222)"/><path d="M162.54 620H357.5M162.57 620h-4.03" stroke="#224c72" stroke-width="2" fill="none"/><path d="M358.5 619.98v.43l.02.6h-1.05v-2h1.06z" stroke="#224c72" stroke-width=".05" fill="#224c72"/><path d="M520 400c0 33.14-35.82 60-80 60s-80-26.86-80-60 35.82-60 80-60 80 26.86 80 60z" stroke="#4881b3" stroke-width="3" fill="#f5fbff"/><use xlink:href="#u" transform="matrix(1,0,0,1,384,364) translate(0.46913580246912545 28.888888888888886)"/><use xlink:href="#v" transform="matrix(1,0,0,1,384,364) translate(35.03703703703703 28.888888888888886)"/><use xlink:href="#w" transform="matrix(1,0,0,1,384,364) translate(24.913580246913575 50.22222222222222)"/><use xlink:href="#x" transform="matrix(1,0,0,1,384,364) translate(43.629629629629626 50.22222222222222)"/><path d="M780 380c0 33.14-35.82 60-80 60s-80-26.86-80-60 35.82-60 80-60 80 26.86 80 60z" stroke="#4881b3" stroke-width="3" fill="#f5fbff"/><use xlink:href="#y" transform="matrix(1,0,0,1,644,344) translate(1.7777777777777715 28.888888888888886)"/><use xlink:href="#z" transform="matrix(1,0,0,1,644,344) translate(21.53086419753086 28.888888888888886)"/><use xlink:href="#A" transform="matrix(1,0,0,1,644,344) translate(27.925925925925924 50.22222222222222)"/><path d="M526.44 621h-3.12v-2h3.12zm10.4-.02h-6.24v-2h6.24zm10.4-.02h-6.23v-2h6.25zm10.42-.02h-6.25v-2h6.25zm10.15-1.1l-.62.4-1.02.42-1.1.27h-3.24v-2h3l.72-.18.73-.3.5-.3zm3.2-8.83v3.04l-.08 1.06-.26 1.06-.28.7-1.85-.78.22-.54.2-.76.05-.82V611zm0-9.94v5.97h-2v-5.97zm0-9.95v5.98h-2v-5.97zm0-9.95v5.97h-2v-5.97zm0-9.95v5.97h-2v-5.97zm.02-9.96v5.98h-2v-5.98zm0-9.95v5.96h-2v-5.97zm0-9.96v5.97h-2v-5.96zm0-9.96v5.98h-2v-5.98zm0-9.95v5.97h-2v-5.97zm0-9.95v5.97h-2v-5.98zm.02-9.96v5.97h-2v-5.98zm0-9.95v5.97h-2v-5.97zm0-9.96v6h-2v-6zm0-3.97h-2v-.96h2zm0-25.88v3.58h-2v-3.58zm.02-9.95v5.97h-2v-5.97zm0-9.96v5.98h-2v-5.98zm0-9.95v5.96h-2v-5.97zm0-9.96v5.97h-2v-5.96zm0-9.96v5.98h-2v-5.98zm0-9.95V398h-2v-5.97zm.8-8.8l-.3.5-.3.73-.2.72v2.87h-2v-3.1l.28-1.1.42-1.03.4-.63zm7.25-2.23h-3.06l-.82.06-.76.2-.54.2-.77-1.84.7-.28 1.05-.26 1.06-.08h3.15zm38.4 0h-3.1v-2h3.1zm-7.26 0H604v-2h6.24zm-10.38 0h-6.22v-2h6.22zm-10.37 0h-6.24v-2h6.23z" stroke="#224c72" stroke-width=".05" fill="#224c72"/><path d="M618.5 379.98v.43l.02.6h-1.05v-2h1.06z" fill="#224c72"/><path d="M618.52 379.98v.43l.03.63h-1.1v-2.05h1.1zm-1.02-.96v1.96h1l-.02-.57V380l.02-.96zM541.2 610.68L525.42 620l15.76 9.32-1.03 1.72L521.5 620l18.67-11.04z" stroke="#224c72" stroke-width=".05" fill="#224c72"/><use xlink:href="#B" transform="matrix(1,0,0,1,518.1481481481482,455.3333333333333) translate(0.005000000000002558 14.222222222222223)"/><path d="M1041.54 460c0 33.14-35.82 60-80 60s-80-26.86-80-60 35.82-60 80-60 80 26.86 80 60z" stroke="#4881b3" stroke-width="3" fill="#f5fbff"/><use xlink:href="#C" transform="matrix(1,0,0,1,905.5411016486057,424) translate(10.172839506172835 28.888888888888886)"/><use xlink:href="#D" transform="matrix(1,0,0,1,905.5411016486057,424) translate(24.96296296296296 50.22222222222222)"/><use xlink:href="#E" transform="matrix(1,0,0,1,905.5411016486057,424) translate(49.654320987654316 50.22222222222222)"/><path d="M878.22 459v2h-3.18v-2zm-7.4 0l-.02 2-6.36-.02v-2zm-10.6-.03v2h-6.37v-2zm-10.6-.02v2h-6.37v-2zm-15.12-.5l.73.3.72.18H839v2h-3.3l-1.1-.27-1-.42-.64-.4 1.05-1.7zm-2.73-4.5l.07.83.18.76.22.54-1.85.77-.3-.7-.25-1.05-.08-1.06v-3h2zm0-6.84h-2v-5.9h2zm-.04-29.54h-2v-5.9h2zm0-9.85h-2l-.02-5.9h2zm-.02-9.84h-2v-5.9h2zm-.7-15.04l.43 1.02.27 1.1V388l-2 .02v-2.84l-.18-.72-.3-.73-.3-.5 1.7-1.04zm-5.13-3.74l1.06.26.7.28-.78 1.85-.54-.22-.75-.2-.82-.05h-3.13v-2h3.2zm-40.2 1.92h-3.17v-2h3.17zm10.57 0h-6.34v-2h6.34zm10.57 0h-6.34v-2h6.35zm10.57 0h-6.34v-2h6.34z" stroke="#224c72" stroke-width=".05" fill="#224c72"/><path d="M782.53 381h-1.06l.03-.98v-.43l-.02-.6h1.05z" fill="#224c72"/><path d="M782.55 381.02h-1.1l.03-1v-.43l-.03-.63h1.1zm-1.05-2l.02.57v.42l-.02.96h1v-1.96zM880.04 460l-18.67 11.04-1.02-1.72L876.1 460l-15.75-9.32 1.02-1.72z" stroke="#224c72" stroke-width=".05" fill="#224c72"/><use xlink:href="#F" transform="matrix(1,0,0,1,777.4866002070189,419.45348863298074) translate(0.005000000000002558 14.222222222222223)"/><path d="M629.94 711.32v2h-3.08v-2zm-7.2 0v2h-6.15v-2zm-10.26 0v2h-6.16v-2zm-112.98-.05v2h-6.17v-2zm-10.27 0v2h-6.17v-2zm-10.27 0v2h-6.17v-2zm-10.27 0l-.02 2-6.16-.02v-2zm-10.3-.02v2h-6.15v-2zm-14.67-.48l.73.3.72.18h2.96v2h-3.2l-1.1-.27-1.02-.42-.63-.38 1.04-1.7zm-2.73-4.5l.06.83.2.77.2.53-1.84.77-.28-.68-.26-1.08-.08-1.06v-3.5h2zm0-8h-2v-6.9h2zm0-11.5h-2v-3.45h2z" stroke="#224c72" stroke-width=".05" fill="#224c72"/><path d="M451.04 700.17l-1.72 1.02-9.32-15.77-9.32 15.76-1.72-1.03L440 681.5z" stroke="#224c72" stroke-width=".05" fill="#224c72"/><path d="M630.67 712.63l-.53.7h-.23v-2h1.92z" fill="#224c72"/><path d="M630.7 712.64l-.55.7h-.26v-2.04h1.97zm-.76-1.3v1.96h.2l.5-.7 1.12-1.25z" stroke="#224c72" stroke-width=".05" fill="#224c72"/><use xlink:href="#B" transform="matrix(1,0,0,1,501.1613426676456,701.6550462994152) translate(0.005000000000002558 14.222222222222223)"/><path d="M701 682.5h-2v-3h2zm0-6.98h-2v-5.98h2zm0-9.96h-2v-5.98h2zm0-9.97h-2v-6h2zm0-9.97h-2v-5.98h2zm0-9.97h-2v-5.98h2zm0-9.97h-2v-6h2zm0-9.97h-2v-5.98h2zm0-9.97h-2v-3.1h2zm0-24.43h-2v-1.48h2zm0-5.47h-2v-5.98h2zm0-9.96h-2v-5.98h2zm0-9.97h-2v-5.98h2zm0-9.96h-2V540h2zm0-9.97h-2v-5.98h2zm0-9.96h-2v-5.98h2zm0-9.97h-2v-5.98h2zm0-9.97h-2v-5.98h2zm0-9.96h-2v-5.98h2zm0-9.97h-2v-5.98h2zm0-9.96h-2v-5.97h2zm0-9.96h-2v-5.98h2zm0-9.97h-2v-5.98h2zm0-9.96h-2v-2.98h2z" stroke="#224c72" stroke-width=".05" fill="#224c72"/><path d="M701 683.53l-.98-.03h-.95l-.07-1.03h2z" fill="#224c72"/><path d="M701.02 683.56l-1-.04h-.98l-.07-1.07h2.05zm-2-1.06l.07.98h.92l.96.02v-1zM711.04 460.17l-1.72 1.02-9.32-15.77-9.32 15.76-1.72-1.03L700 441.5z" stroke="#224c72" stroke-width=".05" fill="#224c72"/><use xlink:href="#F" transform="matrix(1,0,0,1,646.716049382716,581.3333333333334) translate(0.005000000000002558 14.222222222222223)"/><path d="M441 557.5h-2v-3.14h2zm0-7.33h-2v-6.27h2zm0-10.46h-2v-6.27h2zm0-10.45h-2v-2.58h2zm0-23.92h-2v-3.3h2zm0-7.48h-2v-6.28h2zm0-10.46h-2v-6.3h2zm0-10.48h-2v-6.28h2zm0-10.46h-2v-3.14h2z" stroke="#224c72" stroke-width=".05" fill="#224c72"/><path d="M441 558.53l-.98-.03h-.95l-.07-1.03h2z" fill="#224c72"/><path d="M441.02 558.56l-1-.04h-.98l-.07-1.07h2.05zm-2-1.06l.07.98h.92l.96.02v-1zM451.04 480.17l-1.72 1.02-9.32-15.77-9.32 15.76-1.72-1.03L440 461.5z" stroke="#224c72" stroke-width=".05" fill="#224c72"/><use xlink:href="#F" transform="matrix(1,0,0,1,386.71604938271605,505.3333333333333) translate(0.005000000000002558 14.222222222222223)"/><path d="M1041.54 1209.07c0 33.13-35.82 60-80 60s-80-26.87-80-60c0-33.14 35.82-60 80-60s80 26.86 80 60z" stroke="#4881b3" stroke-width="3" fill="#f5fbff"/><use xlink:href="#G" transform="matrix(1,0,0,1,905.5411016486057,1173.0657196226293) translate(16.024691358024683 28.888888888888886)"/><use xlink:href="#H" transform="matrix(1,0,0,1,905.5411016486057,1173.0657196226293) translate(76.22222222222223 28.888888888888886)"/><use xlink:href="#I" transform="matrix(1,0,0,1,905.5411016486057,1173.0657196226293) translate(37.30864197530864 50.22222222222222)"/><path d="M878.22 1210.07h-3.04v-2h3.04zm-7.1 0h-6.08v-2h6.08zm-10.14 0h-6.08v-2h6.08zm-10.14 0h-6.08v-2h6.08zm-10.14 0h-6.1v-2h6.1zm-10.14 0h-6.1v-2h6.1zm-10.14 0h-6.1v-2h6.1zm-10.15 0h-6.08v-2h6.07zm-10.14 0h-6.08v-2h6.08zm-10.14 0h-6.1v-2h6.1zm-121.7 0h-6.1v-2h6.1zm-10.15 0h-6.08v-2h6.08zm-10.14 0h-6.07v-2H648zm-10.13 0h-6.1v-2h6.1zm-10.14 0h-6.1v-2h6.1zm-10.14 0h-6.1v-2h6.1zm-10.16 0h-6.08v-2h6.08zm-10.14 0h-6.08v-2h6.08zm-10.14 0h-6.08v-2h6.08zm-10.14 0h-6.08v-2h6.08zm-10.14 0h-6.1v-2h6.1zm-10.14 0h-6.1v-2h6.1zm-10.14 0h-6.1v-2h6.1zm-10.15 0h-6.08v-2h6.08zm-10.14 0h-3.03v-2h3.04zm253.55 0h-2.76v-2h2.75z" stroke="#224c72" stroke-width=".05" fill="#224c72"/><path d="M880.04 1209.07l-18.67 11.04-1.02-1.7 15.76-9.33-15.75-9.32 1.02-1.73z" stroke="#224c72" stroke-width=".05" fill="#224c72"/><path d="M523.3 1210.07h-1.06l.03-.98v-.45l-.02-.58h1.05z" fill="#224c72"/><path d="M523.32 1210.1h-1.1l.03-1v-.45l-.03-.6h1.1zm-1.05-2l.02.55v.44l-.03.94h1v-1.95z" stroke="#224c72" stroke-width=".05" fill="#224c72"/><use xlink:href="#F" transform="matrix(1,0,0,1,670.5234116327642,1198.3990529559626) translate(0.005000000000002558 14.222222222222223)"/><path d="M162.54 620h91.87a6 6 0 0 1 6 6v417.53a6 6 0 0 0 6 6h91.87M162.57 620h-4.03" stroke="#224c72" stroke-width="2" fill="none"/><path d="M359.27 1049.5v.45l.03.58h-1.06v-2h1.06z" stroke="#224c72" stroke-width=".05" fill="#224c72"/><path d="M162.54 620h91.87a6 6 0 0 1 6 6v577.07a6 6 0 0 0 6 6h91.87M162.57 620h-4.03" stroke="#224c72" stroke-width="2" fill="none"/><path d="M359.27 1209.05v.43l.03.6h-1.06v-2h1.06z" stroke="#224c72" stroke-width=".05" fill="#224c72"/><path d="M1041.54 1049.53c0 33.14-35.82 60-80 60s-80-26.86-80-60c0-33.13 35.82-60 80-60s80 26.87 80 60z" stroke="#4881b3" stroke-width="3" fill="#f5fbff"/><use xlink:href="#J" transform="matrix(1,0,0,1,905.5411016486057,1013.5323414740562) translate(6.172839506172835 18.22222222222222)"/><use xlink:href="#K" transform="matrix(1,0,0,1,905.5411016486057,1013.5323414740562) translate(40.74074074074074 18.22222222222222)"/><use xlink:href="#L" transform="matrix(1,0,0,1,905.5411016486057,1013.5323414740562) translate(9.160493827160494 39.55555555555556)"/><use xlink:href="#M" transform="matrix(1,0,0,1,905.5411016486057,1013.5323414740562) translate(23.97530864197531 39.55555555555556)"/><use xlink:href="#N" transform="matrix(1,0,0,1,905.5411016486057,1013.5323414740562) translate(34.839506172839506 60.88888888888889)"/><path d="M879.04 1048.53v2h-2.93v-2zm-6.85 0v2h-5.88v-2zm-9.8 0v2h-5.86v-2zm-9.77 0v2h-5.87v-2zm-9.8 0v2h-5.86v-2zm-9.77 0v2h-5.87v-2zm-9.78 0v2h-5.87v-2zm-9.78 0v2h-5.87v-2zm-9.8 0v2h-5.86v-2zm-9.77 0v2h-5.87v-2zm-9.78 0v2h-5.87v-2zm-257.2-2.53h-3.1v-2h3.1zm10.28 0h-6.18v-2h6.18zm10.3 0h-6.2v-2h6.2zm10.27 0h-6.17v-2h6.17zm10.3 0h-6.18v-2h6.17zm10.28 0h-6.17v-2h6.18zm10.3 0h-6.18v-2h6.17zm10.28 0h-6.17v-2h6.16zm10.3 0h-6.18v-2h6.17zm10.28 0h-6.17v-2h6.17zm10.3 0h-6.18v-2h6.17zm10.28 0h-6.17v-2h6.17zm10.3 0h-6.18v-2h6.17zm10.28 0h-6.17v-2h6.17zm9.98 0h-5.87v-2h5.88z" stroke="#224c72" stroke-width=".05" fill="#224c72"/><path d="M541.72 1035.68l-15.76 9.32 15.76 9.32-1.02 1.72-18.67-11.04 18.67-11.04z" stroke="#224c72" stroke-width=".05" fill="#224c72"/><path d="M880.04 1049.5v.45l.03.58h-1.05v-2h1.05z" fill="#224c72"/><path d="M880.07 1049.5v.45l.02.6H879v-2.04h1.1zm-1.03-.94v1.95h1l-.02-.55v-.44l.03-.94z" stroke="#224c72" stroke-width=".05" fill="#224c72"/><use xlink:href="#B" transform="matrix(1,0,0,1,670.6759095333481,1038.8656748073895) translate(0.005000000000002558 14.222222222222223)"/><path d="M1041.54 620c0 33.14-35.82 60-80 60s-80-26.86-80-60 35.82-60 80-60 80 26.86 80 60z" stroke="#4881b3" stroke-width="3" fill="#f5fbff"/><use xlink:href="#O" transform="matrix(1,0,0,1,905.5411016486057,584) translate(8.666666666666657 28.888888888888886)"/><use xlink:href="#P" transform="matrix(1,0,0,1,905.5411016486057,584) translate(43.23456790123456 28.888888888888886)"/><use xlink:href="#Q" transform="matrix(1,0,0,1,905.5411016486057,584) translate(19.50617283950617 50.22222222222222)"/><path d="M772.37 711.67h-2.94v-2h2.94zm9.8 0h-5.88v-2h5.87zm9.8 0h-5.9v-2h5.9zm9.8 0h-5.9v-2h5.9zm9.78 0h-5.88v-2h5.88zm9.8 0h-5.88v-2h5.88zm5.96 0h-2.04v-2h2.05zm111.6 0H933v-2h5.9zm9.78 0h-5.87v-2h5.88zm9.7-.62l-.67.28-1.06.26-1.06.07h-2.98v-2h2.9l.82-.06.77-.17.52-.23zm4.1-8.9v3.58l-.28 1.1-.42 1.02-.38.63-1.7-1.04.3-.5.3-.72.17-.73v-3.36zm.04-11.56l-.03 6.93h-2l.02-6.94zm.02-8.1v3.47h-2v-3.47z" stroke="#224c72" stroke-width=".05" fill="#224c72"/><path d="M787.3 701.35l-15.76 9.32L787.3 720l-1.02 1.72-18.67-11.05 18.68-11.04z" stroke="#224c72" stroke-width=".05" fill="#224c72"/><path d="M961.52 681.5h.95l.07 1.03h-2v-1.06z" fill="#224c72"/><path d="M961.52 681.48h.98l.07 1.07h-2.05v-1.1zm-.95 1.02h1.94l-.05-.98h-.93l-.95-.02z" stroke="#224c72" stroke-width=".05" fill="#224c72"/><use xlink:href="#B" transform="matrix(1,0,0,1,827.3123000977112,700.0075072425226) translate(0.005000000000002558 14.222222222222223)"/><path d="M1239.75 549.75c0 10.9-8.84 19.75-19.75 19.75-10.9 0-19.75-8.84-19.75-19.75 0-10.9 8.84-19.75 19.75-19.75 10.9 0 19.75 8.84 19.75 19.75z" stroke="#4881b3" stroke-width="3" fill="#f5fbff"/><path d="M1220 569.5v49.3a20.7 20.7 0 0 0 3.2 11.07L1260 688m-40-63.2l-40 63.2m0-98.75h80" stroke="#4881b3" stroke-width="3" fill="none"/><path d="M1180 536a6 6 0 0 1 6-6h68a6 6 0 0 1 6 6v168a6 6 0 0 1-6 6h-68a6 6 0 0 1-6-6z" fill="none"/><g><use xlink:href="#R" transform="matrix(1,0,0,1,1100,688) translate(75.60493827160494 14.222222222222223)"/><use xlink:href="#S" transform="matrix(1,0,0,1,1100,688) translate(144.64197530864197 14.222222222222223)"/><use xlink:href="#T" transform="matrix(1,0,0,1,1100,688) translate(70.24691358024691 35.55555555555556)"/></g><path d="M1217.5 609.8h-71.46l-.82.06-.76.2-.73.3-.67.4-.6.5-.5.6-.4.67-.3.72-.2.73-.06 125.06-.08 1.06-.26 1.06-.42 1.02-.57.94-.72.83-.83.72-.94.57-1.02.42-1.1.27-352.56.07v-2l352.32-.07.72-.18.73-.3.67-.4.6-.52.5-.6.4-.66.3-.73.2-.76.06-.82.07-125.22.27-1.1.42-1.02.57-.94.72-.83.83-.72.94-.57 1.02-.42 1.06-.26 1.06-.08h71.54z" stroke="#224c72" stroke-width=".05" fill="#224c72"/><path d="M1221.5 609.8h-4.03v-2h4.03z" stroke="#224c72" stroke-width=".05" fill="#224c72"/><path d="M782.53 746h-1.06l.03-.98v-.43l-.02-.6h1.05z" fill="#224c72"/><path d="M782.55 746.02h-1.1l.03-1v-.43l-.03-.63h1.1zm-1.05-2l.02.57v.42l-.02.95h1v-1.95z" stroke="#224c72" stroke-width=".05" fill="#224c72"/><path d="M520 880c0 33.14-35.82 60-80 60s-80-26.86-80-60 35.82-60 80-60 80 26.86 80 60z" stroke="#4881b3" stroke-width="3" fill="#f5fbff"/><g><use xlink:href="#U" transform="matrix(1,0,0,1,384,844) translate(3.209876543209873 28.888888888888886)"/><use xlink:href="#V" transform="matrix(1,0,0,1,384,844) translate(37.77777777777778 28.888888888888886)"/><use xlink:href="#W" transform="matrix(1,0,0,1,384,844) translate(34.79012345679012 50.22222222222222)"/></g><path d="M781.16 940c0 33.14-35.82 60-80 60-44.2 0-80-26.86-80-60s35.8-60 80-60c44.18 0 80 26.86 80 60z" stroke="#4881b3" stroke-width="3" fill="#f5fbff"/><g><use xlink:href="#X" transform="matrix(1,0,0,1,645.1558262364542,904) translate(3.209876543209873 28.888888888888886)"/><use xlink:href="#V" transform="matrix(1,0,0,1,645.1558262364542,904) translate(37.77777777777778 28.888888888888886)"/><use xlink:href="#Y" transform="matrix(1,0,0,1,645.1558262364542,904) translate(32.839506172839506 50.22222222222222)"/></g><path d="M1041.54 880c0 33.14-35.82 60-80 60s-80-26.86-80-60 35.82-60 80-60 80 26.86 80 60z" stroke="#4881b3" stroke-width="3" fill="#f5fbff"/><g><use xlink:href="#Z" transform="matrix(1,0,0,1,905.5411016486057,844) translate(3.728395061728392 28.888888888888886)"/><use xlink:href="#aa" transform="matrix(1,0,0,1,905.5411016486057,844) translate(38.2962962962963 28.888888888888886)"/><use xlink:href="#Y" transform="matrix(1,0,0,1,905.5411016486057,844) translate(32.839506172839506 50.22222222222222)"/></g><path d="M441 813.8v2.88h-2v-2.9zm.02-9.67v5.8h-2v-5.8zm.02-9.65v5.8h-2v-5.8zm.02-9.65v5.8h-2v-5.8zm.8-8.58l-.3.5-.3.7-.2.74v2.77h-2v-3.02l.28-1.1.42-1.02.4-.63zM449 774h-2.96l-.82.07-.76.2-.54.2-.77-1.84.7-.28 1.05-.26 1.06-.1H449zm177.44 0h-3v-2h3zm-7.02 0h-6v-2h6zm-10.02 0h-6v-2h6zm-10.02 0h-6.02v-2h6.02zm-120.3 0h-6v-2h6zm-10.02 0h-6.02v-2h6.02zm-10.03 0h-6v-2h6zm130.32 0h-2.42v-2h2.42z" stroke="#224c72" stroke-width=".05" fill="#224c72"/><path d="M628.13 774h-1.7v-2h.32z" fill="#224c72"/><path d="M628.18 774.03h-1.8v-2.05h.4zm-1.74-2v1.95h1.64l-1.34-1.95zM451.04 799.83L440 818.5l-11.04-18.67 1.72-1.02 9.32 15.77 9.32-15.76z" stroke="#224c72" stroke-width=".05" fill="#224c72"/><g><use xlink:href="#F" transform="matrix(1,0,0,1,480.36571375822416,762.3420451015083) translate(0.005000000000002558 14.222222222222223)"/></g><path d="M702.54 876.7h-2v-3.36h2zm0-7.83h-2v-6.7h2zm0-11.18h-2v-6.72h2zm0-11.2h-2v-.83h2zM701 822.34h-2v-6.84h2zm0-11.4h-2v-3.43h2z" stroke="#224c72" stroke-width=".05" fill="#224c72"/><path d="M699.98 806.5h.95l.07 1.03h-2v-1.06z" fill="#224c72"/><path d="M699.98 806.47h.98l.07 1.08h-2.05v-1.1zm-.96 1.03h1.95l-.06-.98H700l-.96-.03zM701.54 874.58l9.32-15.76 1.72 1.02-11.04 18.67-11.04-18.66 1.72-1.02z" stroke="#224c72" stroke-width=".05" fill="#224c72"/><g><use xlink:href="#F" transform="matrix(1,0,0,1,646.716049382716,824.3333333333334) translate(0.005000000000002558 14.222222222222223)"/></g><path d="M962.54 816.68h-2v-3.15h2zm-.02-7.36h-2v-6.3h2zm-.02-10.5h-2l-.02-6.3 2-.02zm-.72-15.92l.42 1.02.27 1.1v3.28h-2v-3.04l-.18-.72-.3-.72-.3-.5 1.7-1.04zm-5.14-3.73l1.07.25.7.3-.78 1.83-.53-.22-.78-.18-.82-.07h-2.92v-2h3zm-185.72 1.9h-2.97v-2h2.97zm9.87 0h-5.94v-2h5.93zm9.86 0h-5.92v-2h5.92zm9.87 0h-5.92v-2h5.93zm9.88 0h-5.92v-2h5.93zm9.88 0h-5.92v-2h5.92zm9.87 0h-5.92v-2h5.92zm118.48 0h-5.92v-2h5.93zm-9.87 0h-2.02v-2h2.02z" stroke="#224c72" stroke-width=".05" fill="#224c72"/><path d="M767.98 781.08h-2l.74-.73 1.1-1.27h.16z" fill="#224c72"/><path d="M768 781.1h-2.07l.77-.77 1.12-1.27h.18zm-.16-2l-1.1 1.27-.7.7h1.9v-1.96zM961.54 814.57l9.32-15.76 1.72 1.03-11.04 18.67-11.04-18.67 1.72-1.02z" stroke="#224c72" stroke-width=".05" fill="#224c72"/><g><use xlink:href="#F" transform="matrix(1,0,0,1,830.1713626654574,769.41691243316) translate(0.005000000000002558 14.222222222222223)"/></g><defs><path fill="#1d262b" d="M199 0l-22-63H83L61 0H9l90-248h61L250 0h-51zm-33-102l-36-108c-10 38-24 72-36 108h72" id="ab"/><path fill="#1d262b" d="M135-194c53 0 70 44 70 98 0 56-19 98-73 100-31 1-45-17-59-34 3 33 2 69 2 105H25l-1-265h48c2 10 0 23 3 31 11-24 29-35 60-35zM114-30c33 0 39-31 40-66 0-38-9-64-40-64-56 0-55 130 0 130" id="ac"/><path fill="#1d262b" d="M25 0v-261h50V0H25" id="ad"/><path fill="#1d262b" d="M25-224v-37h50v37H25zM25 0v-190h50V0H25" id="ae"/><path fill="#1d262b" d="M190-63c-7 42-38 67-86 67-59 0-84-38-90-98-12-110 154-137 174-36l-49 2c-2-19-15-32-35-32-30 0-35 28-38 64-6 74 65 87 74 30" id="af"/><path fill="#1d262b" d="M133-34C117-15 103 5 69 4 32 3 11-16 11-54c-1-60 55-63 116-61 1-26-3-47-28-47-18 1-26 9-28 27l-52-2c7-38 36-58 82-57s74 22 75 68l1 82c-1 14 12 18 25 15v27c-30 8-71 5-69-32zm-48 3c29 0 43-24 42-57-32 0-66-3-65 30 0 17 8 27 23 27" id="ag"/><path fill="#1d262b" d="M110-194c64 0 96 36 96 99 0 64-35 99-97 99-61 0-95-36-95-99 0-62 34-99 96-99zm-1 164c35 0 45-28 45-65 0-40-10-65-43-65-34 0-45 26-45 65 0 36 10 65 43 65zM81-208v-5l45-51h45v8l-60 48H81" id="ah"/><path fill="#1d262b" d="M135-194c87-1 58 113 63 194h-50c-7-57 23-157-34-157-59 0-34 97-39 157H25l-1-190h47c2 12-1 28 3 38 12-26 28-41 61-42" id="ai"/><g id="a"><use transform="matrix(0.06172839506172839,0,0,0.06172839506172839,0,0)" xlink:href="#ab"/><use transform="matrix(0.06172839506172839,0,0,0.06172839506172839,15.987654320987653,0)" xlink:href="#ac"/><use transform="matrix(0.06172839506172839,0,0,0.06172839506172839,29.50617283950617,0)" xlink:href="#ad"/><use transform="matrix(0.06172839506172839,0,0,0.06172839506172839,35.67901234567901,0)" xlink:href="#ae"/><use transform="matrix(0.06172839506172839,0,0,0.06172839506172839,41.851851851851855,0)" xlink:href="#af"/><use transform="matrix(0.06172839506172839,0,0,0.06172839506172839,54.19753086419753,0)" xlink:href="#ag"/><use transform="matrix(0.06172839506172839,0,0,0.06172839506172839,66.54320987654322,0)" xlink:href="#af"/><use transform="matrix(0.06172839506172839,0,0,0.06172839506172839,78.8888888888889,0)" xlink:href="#ae"/><use transform="matrix(0.06172839506172839,0,0,0.06172839506172839,85.06172839506173,0)" xlink:href="#ah"/><use transform="matrix(0.06172839506172839,0,0,0.06172839506172839,98.58024691358025,0)" xlink:href="#ai"/></g><path fill="#1d262b" d="M88-194c31-1 46 15 58 34l-1-101h50l1 261h-48c-2-10 0-23-3-31C134-8 116 4 84 4 32 4 16-41 15-95c0-56 19-97 73-99zm17 164c33 0 40-30 41-66 1-37-9-64-41-64s-38 30-39 65c0 43 13 65 39 65" id="aj"/><path fill="#1d262b" d="M185-48c-13 30-37 53-82 52C43 2 14-33 14-96s30-98 90-98c62 0 83 45 84 108H66c0 31 8 55 39 56 18 0 30-7 34-22zm-45-69c5-46-57-63-70-21-2 6-4 13-4 21h74" id="ak"/><g id="b"><use transform="matrix(0.06172839506172839,0,0,0.06172839506172839,0,0)" xlink:href="#aj"/><use transform="matrix(0.06172839506172839,0,0,0.06172839506172839,13.518518518518517,0)" xlink:href="#ak"/></g><path fill="#1d262b" d="M67-125c0 53 21 87 73 88 37 1 54-22 65-47l45 17C233-25 199 4 140 4 58 4 20-42 15-125 8-235 124-281 211-232c18 10 29 29 36 50l-46 12c-8-25-30-41-62-41-52 0-71 34-72 86" id="al"/><path fill="#1d262b" d="M115-3C79 11 28 4 28-45v-112H4v-33h27l15-45h31v45h36v33H77v99c-1 23 16 31 38 25v30" id="am"/><g id="c"><use transform="matrix(0.06172839506172839,0,0,0.06172839506172839,0,0)" xlink:href="#al"/><use transform="matrix(0.06172839506172839,0,0,0.06172839506172839,15.987654320987653,0)" xlink:href="#ad"/><use transform="matrix(0.06172839506172839,0,0,0.06172839506172839,22.160493827160494,0)" xlink:href="#ae"/><use transform="matrix(0.06172839506172839,0,0,0.06172839506172839,28.333333333333332,0)" xlink:href="#ak"/><use transform="matrix(0.06172839506172839,0,0,0.06172839506172839,40.67901234567901,0)" xlink:href="#ai"/><use transform="matrix(0.06172839506172839,0,0,0.06172839506172839,54.19753086419753,0)" xlink:href="#am"/><use transform="matrix(0.06172839506172839,0,0,0.06172839506172839,61.54320987654321,0)" xlink:href="#ak"/></g><path fill="#1d262b" d="M123 10C108 53 80 86 19 72V37c35 8 53-11 59-39L3-190h52l48 148c12-52 28-100 44-148h51" id="an"/><use transform="matrix(0.06172839506172839,0,0,0.06172839506172839,0,0)" xlink:href="#an" id="d"/><path fill="#1d262b" d="M183 0l-10-63H79L44 0H-7l138-248h61L234 0h-51zm-14-102l-15-108c-16 38-36 73-55 108h70" id="ao"/><path fill="#1d262b" d="M241-173c-1 82-78 91-166 86L58 0H6l48-248c87 0 188-12 187 75zm-53 2c0-43-48-36-90-36l-15 80c50 0 105 7 105-44" id="ap"/><path fill="#1d262b" d="M6 0l48-248h52L58 0H6" id="aq"/><g id="e"><use transform="matrix(0.06172839506172839,0,0,0.06172839506172839,0,0)" xlink:href="#ao"/><use transform="matrix(0.06172839506172839,0,0,0.06172839506172839,15.987654320987653,0)" xlink:href="#ap"/><use transform="matrix(0.06172839506172839,0,0,0.06172839506172839,30.80246913580247,0)" xlink:href="#aq"/></g><path fill="#1d262b" d="M62-99C39-31 123 0 170-40s38-139 58-208h34C234-144 253 4 115 4 49 4 18-43 31-112l26-136h34" id="ar"/><path fill="#1d262b" d="M55-144c13 50 104 24 104 88C159 21 15 23 1-39l26-10c6 40 102 42 102-4-13-50-104-23-104-87 0-71 143-71 148-8l-29 4c-5-35-85-37-89 0" id="as"/><path fill="#1d262b" d="M67 3c-93-2-31-127-26-193h32L48-50c-3 39 53 32 70 12 30-34 30-101 43-152h32L157 0h-30c1-10 6-24 4-33-14 20-29 37-64 36" id="at"/><path fill="#1d262b" d="M165-48c-4 18 1 34 23 27l-3 20c-29 8-62 0-52-35h-2C116-14 99 4 63 4 30 4 8-16 8-49c0-68 71-67 138-67 10-26 0-56-31-54-26 1-42 9-47 31l-32-5c8-67 160-71 144 15-5 28-9 54-15 81zM42-50c3 52 80 24 89-6 7-12 7-24 11-38-47 1-103-4-100 44" id="au"/><path fill="#1d262b" d="M66-151c12-25 30-51 66-40l-6 26C45-176 58-65 38 0H6l36-190h30" id="av"/><path fill="#1d262b" d="M50-231l6-30h32l-6 30H50zM6 0l37-190h31L37 0H6" id="aw"/><path fill="#1d262b" d="M30-147c31-64 166-65 159 27C183-49 158 1 86 4 9 8 1-88 30-147zM88-20c53 0 68-48 68-100 0-31-11-51-44-50-52 1-68 46-68 97 0 32 13 53 44 53" id="ax"/><g id="f"><use transform="matrix(0.04938271604938272,0,0,0.04938271604938272,0,0)" xlink:href="#ar"/><use transform="matrix(0.04938271604938272,0,0,0.04938271604938272,12.790123456790125,0)" xlink:href="#as"/><use transform="matrix(0.04938271604938272,0,0,0.04938271604938272,21.679012345679013,0)" xlink:href="#at"/><use transform="matrix(0.04938271604938272,0,0,0.04938271604938272,31.555555555555557,0)" xlink:href="#au"/><use transform="matrix(0.04938271604938272,0,0,0.04938271604938272,41.4320987654321,0)" xlink:href="#av"/><use transform="matrix(0.04938271604938272,0,0,0.04938271604938272,47.308641975308646,0)" xlink:href="#aw"/><use transform="matrix(0.04938271604938272,0,0,0.04938271604938272,51.20987654320988,0)" xlink:href="#ax"/></g><path fill="#4881b3" d="M9 0l6-27h63l36-188-63 39 6-31 66-41h29L110-27h60l-5 27H9" id="ay"/><path fill="#4881b3" d="M14 0l8-38h34L48 0H14" id="az"/><g id="g"><use transform="matrix(0.04938271604938272,0,0,0.04938271604938272,0,0)" xlink:href="#ay"/><use transform="matrix(0.04938271604938272,0,0,0.04938271604938272,9.876543209876544,0)" xlink:href="#az"/></g><path fill="#4881b3" d="M194-120c59 52 2 134-86 124-53-6-90-18-98-63l31-7c8 30 29 43 70 43 46 0 84-17 71-62-32-43-135-20-137-98-3-89 178-90 191-16l-30 9c-8-48-127-53-127 5 0 53 81 35 115 65" id="aA"/><path fill="#4881b3" d="M67 3c-93-2-31-127-26-193h32L48-50c-3 39 53 32 70 12 30-34 30-101 43-152h32L157 0h-30c1-10 6-24 4-33-14 20-29 37-64 36" id="aB"/><path fill="#4881b3" d="M68-162c25-46 127-43 121 31C183-60 169 1 98 4 69 5 53-11 43-31L36 0H5l52-261h31zm88 36c2-27-9-43-34-43-55 0-70 51-70 103 0 29 15 45 43 46 52 0 58-58 61-106" id="aC"/><path fill="#4881b3" d="M50-231l6-30h32l-6 30H50zM6 0l37-190h31L37 0H6" id="aD"/><path fill="#4881b3" d="M66-151c12-25 30-51 66-40l-6 26C45-176 58-65 38 0H6l36-190h30" id="aE"/><g id="h"><use transform="matrix(0.04938271604938272,0,0,0.04938271604938272,0,0)" xlink:href="#aA"/><use transform="matrix(0.04938271604938272,0,0,0.04938271604938272,11.851851851851853,0)" xlink:href="#aB"/><use transform="matrix(0.04938271604938272,0,0,0.04938271604938272,21.7283950617284,0)" xlink:href="#aC"/><use transform="matrix(0.04938271604938272,0,0,0.04938271604938272,31.60493827160494,0)" xlink:href="#aD"/><use transform="matrix(0.04938271604938272,0,0,0.04938271604938272,35.50617283950618,0)" xlink:href="#aE"/></g><path fill="#4881b3" d="M119 0H84L31-248h34l41 218 126-218h36" id="aF"/><path fill="#4881b3" d="M133-28C103 26-5 8 13-77c13-62 24-115 90-117 29-1 46 15 56 35l19-102h32L160 0h-30zM45-64c-2 27 10 43 35 43 54-1 69-50 69-103 0-29-15-46-42-46-53-1-58 58-62 106" id="aG"/><path fill="#4881b3" d="M111-194c62-3 86 47 72 106H45c-7 38 6 69 45 68 27-1 43-14 53-32l24 11C152-15 129 4 87 4 38 3 12-23 12-71c0-70 32-119 99-123zm44 81c14-66-71-72-95-28-4 8-8 17-11 28h106" id="aH"/><path fill="#4881b3" d="M30-147c31-64 166-65 159 27C183-49 158 1 86 4 9 8 1-88 30-147zM88-20c53 0 68-48 68-100 0-31-11-51-44-50-52 1-68 46-68 97 0 32 13 53 44 53" id="aI"/><g id="i"><use transform="matrix(0.04938271604938272,0,0,0.04938271604938272,0,0)" xlink:href="#aF"/><use transform="matrix(0.04938271604938272,0,0,0.04938271604938272,11.506172839506174,0)" xlink:href="#aD"/><use transform="matrix(0.04938271604938272,0,0,0.04938271604938272,15.407407407407408,0)" xlink:href="#aG"/><use transform="matrix(0.04938271604938272,0,0,0.04938271604938272,25.283950617283953,0)" xlink:href="#aH"/><use transform="matrix(0.04938271604938272,0,0,0.04938271604938272,35.160493827160494,0)" xlink:href="#aI"/></g><path fill="#4881b3" d="M148-71c0-36-31-44-71-41l5-28c46 3 81-6 81-50 0-23-15-35-39-35-30 0-49 17-56 41l-32-3c12-39 42-63 90-64 43 0 69 19 71 60 1 43-30 58-65 66 27 5 49 22 49 53 0 85-133 99-164 35-4-7-7-15-9-22l29-9c8 25 25 45 58 45 34 1 53-17 53-48" id="aJ"/><g id="j"><use transform="matrix(0.04938271604938272,0,0,0.04938271604938272,0,0)" xlink:href="#aJ"/><use transform="matrix(0.04938271604938272,0,0,0.04938271604938272,9.876543209876544,0)" xlink:href="#az"/></g><path fill="#4881b3" d="M20-101c0-91 52-143 145-150 126-9 127 168 53 223-23 17-55 32-93 32C57 4 20-33 20-101zm216-33c5-57-18-91-73-90-77 1-110 51-110 125 0 49 23 75 73 75 72-1 104-45 110-110" id="aK"/><path fill="#4881b3" d="M51-54c-9 22 5 41 31 30L79-1C43 14 10-4 19-52l22-115H19l5-23h22l19-43h21l-9 43h35l-4 23H73" id="aL"/><path fill="#4881b3" d="M67-158c22-48 132-52 116 29L158 0h-32l25-140c3-38-53-32-70-12C52-117 51-52 38 0H6l36-190h30" id="aM"/><g id="k"><use transform="matrix(0.04938271604938272,0,0,0.04938271604938272,0,0)" xlink:href="#aK"/><use transform="matrix(0.04938271604938272,0,0,0.04938271604938272,13.827160493827162,0)" xlink:href="#aC"/><use transform="matrix(0.04938271604938272,0,0,0.04938271604938272,23.703703703703706,0)" xlink:href="#aL"/><use transform="matrix(0.04938271604938272,0,0,0.04938271604938272,28.641975308641978,0)" xlink:href="#aH"/><use transform="matrix(0.04938271604938272,0,0,0.04938271604938272,38.51851851851852,0)" xlink:href="#aM"/><use transform="matrix(0.04938271604938272,0,0,0.04938271604938272,48.39506172839506,0)" xlink:href="#aH"/><use transform="matrix(0.04938271604938272,0,0,0.04938271604938272,58.27160493827161,0)" xlink:href="#aE"/></g><path fill="#4881b3" d="M44-68c0 29 11 47 38 47 30 0 42-19 51-41l28 9C148-21 126 4 82 4 31 4 10-29 12-85c3-77 74-140 146-93 12 8 15 23 18 40l-31 5c-1-22-13-36-36-36-52 0-65 49-65 101" id="aN"/><path fill="#4881b3" d="M6 0l50-261h32L37 0H6" id="aO"/><path fill="#4881b3" d="M165-48c-4 18 1 34 23 27l-3 20c-29 8-62 0-52-35h-2C116-14 99 4 63 4 30 4 8-16 8-49c0-68 71-67 138-67 10-26 0-56-31-54-26 1-42 9-47 31l-32-5c8-67 160-71 144 15-5 28-9 54-15 81zM42-50c3 52 80 24 89-6 7-12 7-24 11-38-47 1-103-4-100 44" id="aP"/><path fill="#4881b3" d="M55-144c13 50 104 24 104 88C159 21 15 23 1-39l26-10c6 40 102 42 102-4-13-50-104-23-104-87 0-71 143-71 148-8l-29 4c-5-35-85-37-89 0" id="aQ"/><path fill="#4881b3" d="M76-167L44 0H12l33-167H18l4-23h27c3-47 25-81 82-69l-4 24c-35-8-44 15-46 45h37l-5 23H76" id="aR"/><path fill="#4881b3" d="M31-147c31-64 166-65 159 27C184-49 159 1 87 4 10 8 2-88 31-147zM89-20c53 0 68-48 68-100 0-31-11-51-44-50-52 1-68 46-68 97 0 32 13 53 44 53zm5-191c10-23 31-35 45-54h38l-1 5-66 49H94" id="aS"/><g id="l"><use transform="matrix(0.04938271604938272,0,0,0.04938271604938272,0,0)" xlink:href="#aN"/><use transform="matrix(0.04938271604938272,0,0,0.04938271604938272,8.88888888888889,0)" xlink:href="#aO"/><use transform="matrix(0.04938271604938272,0,0,0.04938271604938272,12.790123456790125,0)" xlink:href="#aP"/><use transform="matrix(0.04938271604938272,0,0,0.04938271604938272,22.666666666666668,0)" xlink:href="#aQ"/><use transform="matrix(0.04938271604938272,0,0,0.04938271604938272,31.555555555555557,0)" xlink:href="#aD"/><use transform="matrix(0.04938271604938272,0,0,0.04938271604938272,35.45679012345679,0)" xlink:href="#aR"/><use transform="matrix(0.04938271604938272,0,0,0.04938271604938272,40.39506172839506,0)" xlink:href="#aD"/><use transform="matrix(0.04938271604938272,0,0,0.04938271604938272,44.2962962962963,0)" xlink:href="#aN"/><use transform="matrix(0.04938271604938272,0,0,0.04938271604938272,53.18518518518519,0)" xlink:href="#aP"/><use transform="matrix(0.04938271604938272,0,0,0.04938271604938272,63.061728395061735,0)" xlink:href="#aN"/><use transform="matrix(0.04938271604938272,0,0,0.04938271604938272,71.95061728395062,0)" xlink:href="#aD"/><use transform="matrix(0.04938271604938272,0,0,0.04938271604938272,75.85185185185186,0)" xlink:href="#aS"/><use transform="matrix(0.04938271604938272,0,0,0.04938271604938272,85.7283950617284,0)" xlink:href="#aM"/></g><path fill="#4881b3" d="M149-56L138 0h-32l11-56H2l5-25 144-167h35L154-81h33l-5 25h-33zm-4-147L40-81h82" id="aT"/><g id="m"><use transform="matrix(0.04938271604938272,0,0,0.04938271604938272,0,0)" xlink:href="#aT"/><use transform="matrix(0.04938271604938272,0,0,0.04938271604938272,9.876543209876544,0)" xlink:href="#az"/></g><path fill="#4881b3" d="M125-24c46 0 70-25 89-51l25 16C214-24 183 4 123 4 8 4-5-146 60-208c32-50 158-61 191-5 5 7 9 14 11 22l-32 10c-9-28-33-43-69-43-74 0-108 51-108 125 0 46 24 75 72 75" id="aU"/><g id="n"><use transform="matrix(0.04938271604938272,0,0,0.04938271604938272,0,0)" xlink:href="#aU"/><use transform="matrix(0.04938271604938272,0,0,0.04938271604938272,12.790123456790125,0)" xlink:href="#aI"/><use transform="matrix(0.04938271604938272,0,0,0.04938271604938272,22.66666666666667,0)" xlink:href="#aM"/><use transform="matrix(0.04938271604938272,0,0,0.04938271604938272,32.543209876543216,0)" xlink:href="#aL"/><use transform="matrix(0.04938271604938272,0,0,0.04938271604938272,37.48148148148149,0)" xlink:href="#aP"/><use transform="matrix(0.04938271604938272,0,0,0.04938271604938272,47.35802469135803,0)" xlink:href="#aN"/><use transform="matrix(0.04938271604938272,0,0,0.04938271604938272,56.24691358024693,0)" xlink:href="#aL"/><use transform="matrix(0.04938271604938272,0,0,0.04938271604938272,61.185185185185205,0)" xlink:href="#aI"/></g><g id="o"><use transform="matrix(0.04938271604938272,0,0,0.04938271604938272,0,0)" xlink:href="#aN"/><use transform="matrix(0.04938271604938272,0,0,0.04938271604938272,8.88888888888889,0)" xlink:href="#aI"/><use transform="matrix(0.04938271604938272,0,0,0.04938271604938272,18.765432098765434,0)" xlink:href="#aM"/></g><path fill="#4881b3" d="M67-162c32-53 139-36 121 50C175-51 163 2 97 4 68 4 52-11 42-31 38 6 28 39 22 75H-9l50-265h29c-1 10 0 20-3 28zm89 36c0-26-10-43-35-43-54 0-67 50-69 103-1 29 14 45 42 46 53 0 62-58 62-106" id="aV"/><g id="p"><use transform="matrix(0.04938271604938272,0,0,0.04938271604938272,0,0)" xlink:href="#aQ"/><use transform="matrix(0.04938271604938272,0,0,0.04938271604938272,8.88888888888889,0)" xlink:href="#aI"/><use transform="matrix(0.04938271604938272,0,0,0.04938271604938272,18.765432098765434,0)" xlink:href="#aV"/><use transform="matrix(0.04938271604938272,0,0,0.04938271604938272,28.641975308641978,0)" xlink:href="#aI"/><use transform="matrix(0.04938271604938272,0,0,0.04938271604938272,38.51851851851852,0)" xlink:href="#aE"/><use transform="matrix(0.04938271604938272,0,0,0.04938271604938272,44.39506172839506,0)" xlink:href="#aL"/><use transform="matrix(0.04938271604938272,0,0,0.04938271604938272,49.333333333333336,0)" xlink:href="#aH"/></g><path fill="#4881b3" d="M110-160c48 1 74 30 74 79 0 53-28 85-80 85-65 0-83-55-86-122-5-90 50-162 133-122 14 7 22 21 27 39l-31 6c-5-40-67-38-82-6-9 19-15 44-15 74 11-20 30-34 60-33zm-7 138c34 0 49-23 49-58s-16-56-50-56c-29 0-50 16-49 49 1 36 15 65 50 65" id="aW"/><path fill="#4881b3" d="M33 0v-38h34V0H33" id="aX"/><g id="q"><use transform="matrix(0.04938271604938272,0,0,0.04938271604938272,0,0)" xlink:href="#aW"/><use transform="matrix(0.04938271604938272,0,0,0.04938271604938272,9.876543209876544,0)" xlink:href="#aX"/></g><path fill="#4881b3" d="M137 0h-34L2-248h35l83 218 83-218h36" id="aY"/><path fill="#4881b3" d="M24-231v-30h32v30H24zM24 0v-190h32V0H24" id="aZ"/><path fill="#4881b3" d="M135-143c-3-34-86-38-87 0 15 53 115 12 119 90S17 21 10-45l28-5c4 36 97 45 98 0-10-56-113-15-118-90-4-57 82-63 122-42 12 7 21 19 24 35" id="ba"/><path fill="#4881b3" d="M59-47c-2 24 18 29 38 22v24C64 9 27 4 27-40v-127H5v-23h24l9-43h21v43h35v23H59v120" id="bb"/><path fill="#4881b3" d="M141-36C126-15 110 5 73 4 37 3 15-17 15-53c-1-64 63-63 125-63 3-35-9-54-41-54-24 1-41 7-42 31l-33-3c5-37 33-52 76-52 45 0 72 20 72 64v82c-1 20 7 32 28 27v20c-31 9-61-2-59-35zM48-53c0 20 12 33 32 33 41-3 63-29 60-74-43 2-92-5-92 41" id="bc"/><g id="r"><use transform="matrix(0.04938271604938272,0,0,0.04938271604938272,0,0)" xlink:href="#aY"/><use transform="matrix(0.04938271604938272,0,0,0.04938271604938272,11.506172839506174,0)" xlink:href="#aZ"/><use transform="matrix(0.04938271604938272,0,0,0.04938271604938272,15.407407407407408,0)" xlink:href="#ba"/><use transform="matrix(0.04938271604938272,0,0,0.04938271604938272,24.296296296296298,0)" xlink:href="#aZ"/><use transform="matrix(0.04938271604938272,0,0,0.04938271604938272,28.19753086419753,0)" xlink:href="#ba"/><use transform="matrix(0.04938271604938272,0,0,0.04938271604938272,37.08641975308642,0)" xlink:href="#bb"/><use transform="matrix(0.04938271604938272,0,0,0.04938271604938272,42.02469135802469,0)" xlink:href="#bc"/></g><path fill="#4881b3" d="M114-163C36-179 61-72 57 0H25l-1-190h30c1 12-1 29 2 39 6-27 23-49 58-41v29" id="bd"/><path fill="#4881b3" d="M84 4C-5 8 30-112 23-190h32v120c0 31 7 50 39 49 72-2 45-101 50-169h31l1 190h-30c-1-10 1-25-2-33-11 22-28 36-60 37" id="be"/><g id="s"><use transform="matrix(0.04938271604938272,0,0,0.04938271604938272,0,0)" xlink:href="#bd"/><use transform="matrix(0.04938271604938272,0,0,0.04938271604938272,5.8765432098765435,0)" xlink:href="#be"/><use transform="matrix(0.04938271604938272,0,0,0.04938271604938272,15.753086419753087,0)" xlink:href="#bb"/><use transform="matrix(0.04938271604938272,0,0,0.04938271604938272,20.69135802469136,0)" xlink:href="#bc"/></g><path fill="#4881b3" d="M117-194c89-4 53 116 60 194h-32v-121c0-31-8-49-39-48C34-167 62-67 57 0H25l-1-190h30c1 10-1 24 2 32 11-22 29-35 61-36" id="bf"/><path fill="#4881b3" d="M100-194c63 0 86 42 84 106H49c0 40 14 67 53 68 26 1 43-12 49-29l28 8c-11 28-37 45-77 45C44 4 14-33 15-96c1-61 26-98 85-98zm52 81c6-60-76-77-97-28-3 7-6 17-6 28h103" id="bg"/><path fill="#4881b3" d="M141 0L90-78 38 0H4l68-98-65-92h35l48 74 47-74h35l-64 92 68 98h-35" id="bh"/><g id="t"><use transform="matrix(0.04938271604938272,0,0,0.04938271604938272,0,0)" xlink:href="#aZ"/><use transform="matrix(0.04938271604938272,0,0,0.04938271604938272,3.901234567901235,0)" xlink:href="#bf"/><use transform="matrix(0.04938271604938272,0,0,0.04938271604938272,13.777777777777779,0)" xlink:href="#bg"/><use transform="matrix(0.04938271604938272,0,0,0.04938271604938272,23.654320987654323,0)" xlink:href="#bh"/><use transform="matrix(0.04938271604938272,0,0,0.04938271604938272,32.543209876543216,0)" xlink:href="#aZ"/><use transform="matrix(0.04938271604938272,0,0,0.04938271604938272,36.44444444444445,0)" xlink:href="#ba"/><use transform="matrix(0.04938271604938272,0,0,0.04938271604938272,45.33333333333334,0)" xlink:href="#bb"/><use transform="matrix(0.04938271604938272,0,0,0.04938271604938272,50.271604938271615,0)" xlink:href="#bg"/><use transform="matrix(0.04938271604938272,0,0,0.04938271604938272,60.14814814814817,0)" xlink:href="#bf"/><use transform="matrix(0.04938271604938272,0,0,0.04938271604938272,70.02469135802471,0)" xlink:href="#bb"/><use transform="matrix(0.04938271604938272,0,0,0.04938271604938272,74.96296296296299,0)" xlink:href="#bg"/></g><path fill="#4881b3" d="M54-142c48-35 137-8 131 61C196 18 31 33 14-55l32-4c7 23 22 37 52 37 35-1 51-22 54-58 4-55-73-65-99-34H22l8-134h141v27H59" id="bi"/><path fill="#4881b3" d="M27 0v-27h64v-190l-56 39v-29l58-41h29v221h61V0H27" id="bj"/><g id="u"><use transform="matrix(0.04938271604938272,0,0,0.04938271604938272,0,0)" xlink:href="#bi"/><use transform="matrix(0.04938271604938272,0,0,0.04938271604938272,9.876543209876544,0)" xlink:href="#aX"/><use transform="matrix(0.04938271604938272,0,0,0.04938271604938272,14.814814814814817,0)" xlink:href="#bj"/><use transform="matrix(0.04938271604938272,0,0,0.04938271604938272,24.69135802469136,0)" xlink:href="#aX"/></g><path fill="#4881b3" d="M24 0v-261h32V0H24" id="bk"/><path fill="#4881b3" d="M9 0v-24l116-142H16v-24h144v24L44-24h123V0H9" id="bl"/><g id="v"><use transform="matrix(0.04938271604938272,0,0,0.04938271604938272,0,0)" xlink:href="#aY"/><use transform="matrix(0.04938271604938272,0,0,0.04938271604938272,11.506172839506174,0)" xlink:href="#aZ"/><use transform="matrix(0.04938271604938272,0,0,0.04938271604938272,15.407407407407408,0)" xlink:href="#ba"/><use transform="matrix(0.04938271604938272,0,0,0.04938271604938272,24.296296296296298,0)" xlink:href="#be"/><use transform="matrix(0.04938271604938272,0,0,0.04938271604938272,34.17283950617284,0)" xlink:href="#bc"/><use transform="matrix(0.04938271604938272,0,0,0.04938271604938272,44.04938271604939,0)" xlink:href="#bk"/><use transform="matrix(0.04938271604938272,0,0,0.04938271604938272,47.95061728395062,0)" xlink:href="#aZ"/><use transform="matrix(0.04938271604938272,0,0,0.04938271604938272,51.851851851851855,0)" xlink:href="#bl"/><use transform="matrix(0.04938271604938272,0,0,0.04938271604938272,60.74074074074075,0)" xlink:href="#bc"/><use transform="matrix(0.04938271604938272,0,0,0.04938271604938272,70.61728395061729,0)" xlink:href="#bd"/></g><g id="w"><use transform="matrix(0.04938271604938272,0,0,0.04938271604938272,0,0)" xlink:href="#bg"/><use transform="matrix(0.04938271604938272,0,0,0.04938271604938272,9.876543209876544,0)" xlink:href="#bk"/></g><path fill="#4881b3" d="M108 0H70L1-190h34L89-25l56-165h34" id="bm"/><path fill="#4881b3" d="M34 0v-190h32V0H34zM24-211c8-23 27-35 38-54h36v5l-58 49H24" id="bn"/><path fill="#4881b3" d="M85-194c31 0 48 13 60 33l-1-100h32l1 261h-30c-2-10 0-23-3-31C134-8 116 4 85 4 32 4 16-35 15-94c0-66 23-100 70-100zm9 24c-40 0-46 34-46 75 0 40 6 74 45 74 42 0 51-32 51-76 0-42-9-74-50-73" id="bo"/><path fill="#4881b3" d="M100-194c62-1 85 37 85 99 1 63-27 99-86 99S16-35 15-95c0-66 28-99 85-99zM99-20c44 1 53-31 53-75 0-43-8-75-51-75s-53 32-53 75 10 74 51 75" id="bp"/><g id="x"><use transform="matrix(0.04938271604938272,0,0,0.04938271604938272,0,0)" xlink:href="#bm"/><use transform="matrix(0.04938271604938272,0,0,0.04938271604938272,8.88888888888889,0)" xlink:href="#bn"/><use transform="matrix(0.04938271604938272,0,0,0.04938271604938272,13.827160493827162,0)" xlink:href="#bo"/><use transform="matrix(0.04938271604938272,0,0,0.04938271604938272,23.703703703703706,0)" xlink:href="#bg"/><use transform="matrix(0.04938271604938272,0,0,0.04938271604938272,33.580246913580254,0)" xlink:href="#bp"/></g><path fill="#4881b3" d="M123-251c66 0 92 69 53 113C138-94 73-75 39-27h128l-5 27H-2c17-92 123-93 159-163 14-28-1-64-36-62-29 2-46 17-54 41l-30-6c13-36 37-61 86-61" id="bq"/><g id="y"><use transform="matrix(0.04938271604938272,0,0,0.04938271604938272,0,0)" xlink:href="#bq"/><use transform="matrix(0.04938271604938272,0,0,0.04938271604938272,9.876543209876544,0)" xlink:href="#az"/></g><path fill="#4881b3" d="M248-111c6-24 9-61-24-58-72 9-57 108-77 169h-31l26-142c3-37-50-30-64-10C52-115 50-51 37 0H6l36-190h30c-1 10-6 24-4 32 13-43 101-52 105 5 13-22 29-41 61-41 90 0 28 129 23 194h-31" id="br"/><g id="z"><use transform="matrix(0.04938271604938272,0,0,0.04938271604938272,0,0)" xlink:href="#aU"/><use transform="matrix(0.04938271604938272,0,0,0.04938271604938272,12.790123456790125,0)" xlink:href="#aI"/><use transform="matrix(0.04938271604938272,0,0,0.04938271604938272,22.66666666666667,0)" xlink:href="#br"/><use transform="matrix(0.04938271604938272,0,0,0.04938271604938272,37.4320987654321,0)" xlink:href="#aV"/><use transform="matrix(0.04938271604938272,0,0,0.04938271604938272,47.308641975308646,0)" xlink:href="#aE"/><use transform="matrix(0.04938271604938272,0,0,0.04938271604938272,53.18518518518519,0)" xlink:href="#aI"/><use transform="matrix(0.04938271604938272,0,0,0.04938271604938272,63.061728395061735,0)" xlink:href="#aC"/><use transform="matrix(0.04938271604938272,0,0,0.04938271604938272,72.93827160493828,0)" xlink:href="#aP"/><use transform="matrix(0.04938271604938272,0,0,0.04938271604938272,82.81481481481482,0)" xlink:href="#aE"/></g><g id="A"><use transform="matrix(0.04938271604938272,0,0,0.04938271604938272,0,0)" xlink:href="#aH"/><use transform="matrix(0.04938271604938272,0,0,0.04938271604938272,9.876543209876544,0)" xlink:href="#aE"/><use transform="matrix(0.04938271604938272,0,0,0.04938271604938272,15.753086419753087,0)" xlink:href="#aE"/><use transform="matrix(0.04938271604938272,0,0,0.04938271604938272,21.629629629629633,0)" xlink:href="#aI"/><use transform="matrix(0.04938271604938272,0,0,0.04938271604938272,31.506172839506174,0)" xlink:href="#aE"/><use transform="matrix(0.04938271604938272,0,0,0.04938271604938272,37.38271604938272,0)" xlink:href="#aH"/><use transform="matrix(0.04938271604938272,0,0,0.04938271604938272,47.25925925925927,0)" xlink:href="#aQ"/></g><path fill="#1d262b" d="M18-100v-36l175-74v27L42-118l151 64v27" id="bs"/><path fill="#1d262b" d="M100-194c63 0 86 42 84 106H49c0 40 14 67 53 68 26 1 43-12 49-29l28 8c-11 28-37 45-77 45C44 4 14-33 15-96c1-61 26-98 85-98zm52 81c6-60-76-77-97-28-3 7-6 17-6 28h103" id="bt"/><path fill="#1d262b" d="M141 0L90-78 38 0H4l68-98-65-92h35l48 74 47-74h35l-64 92 68 98h-35" id="bu"/><path fill="#1d262b" d="M59-47c-2 24 18 29 38 22v24C64 9 27 4 27-40v-127H5v-23h24l9-43h21v43h35v23H59v120" id="bv"/><path fill="#1d262b" d="M117-194c89-4 53 116 60 194h-32v-121c0-31-8-49-39-48C34-167 62-67 57 0H25l-1-190h30c1 10-1 24 2 32 11-22 29-35 61-36" id="bw"/><path fill="#1d262b" d="M85-194c31 0 48 13 60 33l-1-100h32l1 261h-30c-2-10 0-23-3-31C134-8 116 4 85 4 32 4 16-35 15-94c0-66 23-100 70-100zm9 24c-40 0-46 34-46 75 0 40 6 74 45 74 42 0 51-32 51-76 0-42-9-74-50-73" id="bx"/><path fill="#1d262b" d="M135-143c-3-34-86-38-87 0 15 53 115 12 119 90S17 21 10-45l28-5c4 36 97 45 98 0-10-56-113-15-118-90-4-57 82-63 122-42 12 7 21 19 24 35" id="by"/><path fill="#1d262b" d="M18-27v-27l151-64-151-65v-27l175 74v36" id="bz"/><g id="B"><use transform="matrix(0.04938271604938272,0,0,0.04938271604938272,0,0)" xlink:href="#bs"/><use transform="matrix(0.04938271604938272,0,0,0.04938271604938272,10.370370370370372,0)" xlink:href="#bs"/><use transform="matrix(0.04938271604938272,0,0,0.04938271604938272,20.740740740740744,0)" xlink:href="#bt"/><use transform="matrix(0.04938271604938272,0,0,0.04938271604938272,30.617283950617285,0)" xlink:href="#bu"/><use transform="matrix(0.04938271604938272,0,0,0.04938271604938272,39.50617283950618,0)" xlink:href="#bv"/><use transform="matrix(0.04938271604938272,0,0,0.04938271604938272,44.44444444444445,0)" xlink:href="#bt"/><use transform="matrix(0.04938271604938272,0,0,0.04938271604938272,54.320987654320994,0)" xlink:href="#bw"/><use transform="matrix(0.04938271604938272,0,0,0.04938271604938272,64.19753086419755,0)" xlink:href="#bx"/><use transform="matrix(0.04938271604938272,0,0,0.04938271604938272,74.07407407407409,0)" xlink:href="#by"/><use transform="matrix(0.04938271604938272,0,0,0.04938271604938272,82.96296296296298,0)" xlink:href="#bz"/><use transform="matrix(0.04938271604938272,0,0,0.04938271604938272,93.33333333333334,0)" xlink:href="#bz"/></g><path fill="#4881b3" d="M173 0L80-213 41 0H11l48-248h37l94 214 40-214h30L212 0h-39" id="bA"/><g id="C"><use transform="matrix(0.04938271604938272,0,0,0.04938271604938272,0,0)" xlink:href="#bA"/><use transform="matrix(0.04938271604938272,0,0,0.04938271604938272,12.790123456790125,0)" xlink:href="#aI"/><use transform="matrix(0.04938271604938272,0,0,0.04938271604938272,22.66666666666667,0)" xlink:href="#aL"/><use transform="matrix(0.04938271604938272,0,0,0.04938271604938272,27.604938271604947,0)" xlink:href="#aD"/><use transform="matrix(0.04938271604938272,0,0,0.04938271604938272,31.506172839506174,0)" xlink:href="#aR"/><use transform="matrix(0.04938271604938272,0,0,0.04938271604938272,36.44444444444445,0)" xlink:href="#aD"/><use transform="matrix(0.04938271604938272,0,0,0.04938271604938272,40.345679012345684,0)" xlink:href="#aN"/><use transform="matrix(0.04938271604938272,0,0,0.04938271604938272,49.23456790123457,0)" xlink:href="#aP"/><use transform="matrix(0.04938271604938272,0,0,0.04938271604938272,59.111111111111114,0)" xlink:href="#aN"/><use transform="matrix(0.04938271604938272,0,0,0.04938271604938272,68,0)" xlink:href="#aD"/><use transform="matrix(0.04938271604938272,0,0,0.04938271604938272,71.90123456790124,0)" xlink:href="#aS"/><use transform="matrix(0.04938271604938272,0,0,0.04938271604938272,81.77777777777779,0)" xlink:href="#aM"/></g><g id="D"><use transform="matrix(0.04938271604938272,0,0,0.04938271604938272,0,0)" xlink:href="#aG"/><use transform="matrix(0.04938271604938272,0,0,0.04938271604938272,9.876543209876544,0)" xlink:href="#aH"/></g><g id="E"><use transform="matrix(0.04938271604938272,0,0,0.04938271604938272,0,0)" xlink:href="#aH"/><use transform="matrix(0.04938271604938272,0,0,0.04938271604938272,9.876543209876544,0)" xlink:href="#aE"/><use transform="matrix(0.04938271604938272,0,0,0.04938271604938272,15.753086419753087,0)" xlink:href="#aE"/><use transform="matrix(0.04938271604938272,0,0,0.04938271604938272,21.629629629629633,0)" xlink:href="#aI"/><use transform="matrix(0.04938271604938272,0,0,0.04938271604938272,31.506172839506174,0)" xlink:href="#aE"/></g><path fill="#1d262b" d="M24-231v-30h32v30H24zM24 0v-190h32V0H24" id="bB"/><path fill="#1d262b" d="M96-169c-40 0-48 33-48 73s9 75 48 75c24 0 41-14 43-38l32 2c-6 37-31 61-74 61-59 0-76-41-82-99-10-93 101-131 147-64 4 7 5 14 7 22l-32 3c-4-21-16-35-41-35" id="bC"/><path fill="#1d262b" d="M24 0v-261h32V0H24" id="bD"/><path fill="#1d262b" d="M84 4C-5 8 30-112 23-190h32v120c0 31 7 50 39 49 72-2 45-101 50-169h31l1 190h-30c-1-10 1-25-2-33-11 22-28 36-60 37" id="bE"/><g id="F"><use transform="matrix(0.04938271604938272,0,0,0.04938271604938272,0,0)" xlink:href="#bs"/><use transform="matrix(0.04938271604938272,0,0,0.04938271604938272,10.370370370370372,0)" xlink:href="#bs"/><use transform="matrix(0.04938271604938272,0,0,0.04938271604938272,20.740740740740744,0)" xlink:href="#bB"/><use transform="matrix(0.04938271604938272,0,0,0.04938271604938272,24.641975308641978,0)" xlink:href="#bw"/><use transform="matrix(0.04938271604938272,0,0,0.04938271604938272,34.51851851851852,0)" xlink:href="#bC"/><use transform="matrix(0.04938271604938272,0,0,0.04938271604938272,43.407407407407405,0)" xlink:href="#bD"/><use transform="matrix(0.04938271604938272,0,0,0.04938271604938272,47.30864197530864,0)" xlink:href="#bE"/><use transform="matrix(0.04938271604938272,0,0,0.04938271604938272,57.185185185185176,0)" xlink:href="#bx"/><use transform="matrix(0.04938271604938272,0,0,0.04938271604938272,67.06172839506172,0)" xlink:href="#bt"/><use transform="matrix(0.04938271604938272,0,0,0.04938271604938272,76.93827160493827,0)" xlink:href="#by"/><use transform="matrix(0.04938271604938272,0,0,0.04938271604938272,85.82716049382715,0)" xlink:href="#bz"/><use transform="matrix(0.04938271604938272,0,0,0.04938271604938272,96.19753086419752,0)" xlink:href="#bz"/></g><path fill="#4881b3" d="M30-248c87 1 191-15 191 75 0 78-77 80-158 76V0H30v-248zm33 125c57 0 124 11 124-50 0-59-68-47-124-48v98" id="bF"/><path fill="#4881b3" d="M141-36C126-15 110 5 73 4 37 3 15-17 15-53c-1-64 63-63 125-63 3-35-9-54-41-54-24 1-41 7-42 31l-33-3c5-37 33-52 76-52 45 0 72 20 72 64v82c-1 20 7 32 28 27v20c-31 9-61-2-59-35zM48-53c0 20 12 33 32 33 41-3 63-29 60-74-43 2-92-5-92 41zm25-158c8-23 27-35 38-54h36v5l-58 49H73" id="bG"/><path fill="#4881b3" d="M177-190C167-65 218 103 67 71c-23-6-38-20-44-43l32-5c15 47 100 32 89-28v-30C133-14 115 1 83 1 29 1 15-40 15-95c0-56 16-97 71-98 29-1 48 16 59 35 1-10 0-23 2-32h30zM94-22c36 0 50-32 50-73 0-42-14-75-50-75-39 0-46 34-46 75s6 73 46 73" id="bH"/><g id="G"><use transform="matrix(0.04938271604938272,0,0,0.04938271604938272,0,0)" xlink:href="#bF"/><use transform="matrix(0.04938271604938272,0,0,0.04938271604938272,11.851851851851853,0)" xlink:href="#bG"/><use transform="matrix(0.04938271604938272,0,0,0.04938271604938272,21.7283950617284,0)" xlink:href="#bH"/><use transform="matrix(0.04938271604938272,0,0,0.04938271604938272,31.60493827160494,0)" xlink:href="#aZ"/><use transform="matrix(0.04938271604938272,0,0,0.04938271604938272,35.50617283950618,0)" xlink:href="#bf"/><use transform="matrix(0.04938271604938272,0,0,0.04938271604938272,45.38271604938272,0)" xlink:href="#bc"/></g><g id="H"><use transform="matrix(0.04938271604938272,0,0,0.04938271604938272,0,0)" xlink:href="#bo"/><use transform="matrix(0.04938271604938272,0,0,0.04938271604938272,9.876543209876544,0)" xlink:href="#bg"/></g><g id="I"><use transform="matrix(0.04938271604938272,0,0,0.04938271604938272,0,0)" xlink:href="#bg"/><use transform="matrix(0.04938271604938272,0,0,0.04938271604938272,9.876543209876544,0)" xlink:href="#bd"/><use transform="matrix(0.04938271604938272,0,0,0.04938271604938272,15.753086419753087,0)" xlink:href="#bd"/><use transform="matrix(0.04938271604938272,0,0,0.04938271604938272,21.629629629629633,0)" xlink:href="#bp"/><use transform="matrix(0.04938271604938272,0,0,0.04938271604938272,31.506172839506174,0)" xlink:href="#bd"/></g><g id="J"><use transform="matrix(0.04938271604938272,0,0,0.04938271604938272,0,0)" xlink:href="#aT"/><use transform="matrix(0.04938271604938272,0,0,0.04938271604938272,9.876543209876544,0)" xlink:href="#az"/><use transform="matrix(0.04938271604938272,0,0,0.04938271604938272,14.814814814814817,0)" xlink:href="#ay"/><use transform="matrix(0.04938271604938272,0,0,0.04938271604938272,24.69135802469136,0)" xlink:href="#az"/></g><path fill="#4881b3" d="M249-183c0 48-29 72-75 77L221 0h-36l-43-103H65L45 0H11l48-248c83 2 190-17 190 65zm-34 3c0-55-74-39-127-41l-18 92c63-1 145 13 145-51" id="bI"/><path fill="#4881b3" d="M89 0H52L20-190h33L74-25l89-165h34" id="bJ"/><g id="K"><use transform="matrix(0.04938271604938272,0,0,0.04938271604938272,0,0)" xlink:href="#bI"/><use transform="matrix(0.04938271604938272,0,0,0.04938271604938272,12.790123456790125,0)" xlink:href="#aH"/><use transform="matrix(0.04938271604938272,0,0,0.04938271604938272,22.66666666666667,0)" xlink:href="#aH"/><use transform="matrix(0.04938271604938272,0,0,0.04938271604938272,32.543209876543216,0)" xlink:href="#aM"/><use transform="matrix(0.04938271604938272,0,0,0.04938271604938272,42.41975308641976,0)" xlink:href="#bJ"/><use transform="matrix(0.04938271604938272,0,0,0.04938271604938272,51.308641975308646,0)" xlink:href="#aD"/><use transform="matrix(0.04938271604938272,0,0,0.04938271604938272,55.20987654320988,0)" xlink:href="#aI"/></g><use transform="matrix(0.04938271604938272,0,0,0.04938271604938272,0,0)" xlink:href="#aP" id="L"/><g id="M"><use transform="matrix(0.04938271604938272,0,0,0.04938271604938272,0,0)" xlink:href="#aP"/><use transform="matrix(0.04938271604938272,0,0,0.04938271604938272,9.876543209876544,0)" xlink:href="#aV"/><use transform="matrix(0.04938271604938272,0,0,0.04938271604938272,19.75308641975309,0)" xlink:href="#aO"/><use transform="matrix(0.04938271604938272,0,0,0.04938271604938272,23.654320987654323,0)" xlink:href="#aD"/><use transform="matrix(0.04938271604938272,0,0,0.04938271604938272,27.555555555555557,0)" xlink:href="#aN"/><use transform="matrix(0.04938271604938272,0,0,0.04938271604938272,36.44444444444444,0)" xlink:href="#aP"/><use transform="matrix(0.04938271604938272,0,0,0.04938271604938272,46.32098765432099,0)" xlink:href="#aN"/><use transform="matrix(0.04938271604938272,0,0,0.04938271604938272,55.20987654320987,0)" xlink:href="#aD"/><use transform="matrix(0.04938271604938272,0,0,0.04938271604938272,59.11111111111111,0)" xlink:href="#aS"/><use transform="matrix(0.04938271604938272,0,0,0.04938271604938272,68.98765432098764,0)" xlink:href="#aM"/></g><g id="N"><use transform="matrix(0.04938271604938272,0,0,0.04938271604938272,0,0)" xlink:href="#aH"/><use transform="matrix(0.04938271604938272,0,0,0.04938271604938272,9.876543209876544,0)" xlink:href="#br"/><use transform="matrix(0.04938271604938272,0,0,0.04938271604938272,24.641975308641978,0)" xlink:href="#aP"/><use transform="matrix(0.04938271604938272,0,0,0.04938271604938272,34.51851851851852,0)" xlink:href="#aD"/><use transform="matrix(0.04938271604938272,0,0,0.04938271604938272,38.41975308641975,0)" xlink:href="#aO"/></g><path fill="#4881b3" d="M151-85c6-55-69-56-94-29H26l34-134h141l-5 27H84l-20 79c41-34 127-11 121 53C199 13 30 38 8-54l29-8C52 0 159-13 151-85" id="bK"/><g id="O"><use transform="matrix(0.04938271604938272,0,0,0.04938271604938272,0,0)" xlink:href="#bK"/><use transform="matrix(0.04938271604938272,0,0,0.04938271604938272,9.876543209876544,0)" xlink:href="#az"/><use transform="matrix(0.04938271604938272,0,0,0.04938271604938272,14.814814814814817,0)" xlink:href="#bq"/><use transform="matrix(0.04938271604938272,0,0,0.04938271604938272,24.69135802469136,0)" xlink:href="#az"/></g><path fill="#4881b3" d="M222 0l43-216c-8 16-17 34-26 49L143 0h-22L81-216 41 0H11l48-248h42l38 208 116-208h45L252 0h-30" id="bL"/><g id="P"><use transform="matrix(0.04938271604938272,0,0,0.04938271604938272,0,0)" xlink:href="#bL"/><use transform="matrix(0.04938271604938272,0,0,0.04938271604938272,14.765432098765434,0)" xlink:href="#aI"/><use transform="matrix(0.04938271604938272,0,0,0.04938271604938272,24.641975308641978,0)" xlink:href="#aQ"/><use transform="matrix(0.04938271604938272,0,0,0.04938271604938272,33.53086419753087,0)" xlink:href="#aL"/><use transform="matrix(0.04938271604938272,0,0,0.04938271604938272,38.46913580246914,0)" xlink:href="#aE"/><use transform="matrix(0.04938271604938272,0,0,0.04938271604938272,44.345679012345684,0)" xlink:href="#aP"/><use transform="matrix(0.04938271604938272,0,0,0.04938271604938272,54.22222222222223,0)" xlink:href="#aE"/></g><g id="Q"><use transform="matrix(0.04938271604938272,0,0,0.04938271604938272,0,0)" xlink:href="#aE"/><use transform="matrix(0.04938271604938272,0,0,0.04938271604938272,5.8765432098765435,0)" xlink:href="#aH"/><use transform="matrix(0.04938271604938272,0,0,0.04938271604938272,15.753086419753087,0)" xlink:href="#aQ"/><use transform="matrix(0.04938271604938272,0,0,0.04938271604938272,24.641975308641978,0)" xlink:href="#aB"/><use transform="matrix(0.04938271604938272,0,0,0.04938271604938272,34.51851851851852,0)" xlink:href="#aO"/><use transform="matrix(0.04938271604938272,0,0,0.04938271604938272,38.41975308641975,0)" xlink:href="#aL"/><use transform="matrix(0.04938271604938272,0,0,0.04938271604938272,43.358024691358025,0)" xlink:href="#aP"/><use transform="matrix(0.04938271604938272,0,0,0.04938271604938272,53.23456790123457,0)" xlink:href="#aG"/><use transform="matrix(0.04938271604938272,0,0,0.04938271604938272,63.111111111111114,0)" xlink:href="#aI"/></g><path fill="#1d262b" d="M194-120c59 52 2 134-86 124-53-6-90-18-98-63l31-7c8 30 29 43 70 43 46 0 84-17 71-62-32-43-135-20-137-98-3-89 178-90 191-16l-30 9c-8-48-127-53-127 5 0 53 81 35 115 65" id="bM"/><path fill="#1d262b" d="M51-54c-9 22 5 41 31 30L79-1C43 14 10-4 19-52l22-115H19l5-23h22l19-43h21l-9 43h35l-4 23H73" id="bN"/><path fill="#1d262b" d="M111-194c62-3 86 47 72 106H45c-7 38 6 69 45 68 27-1 43-14 53-32l24 11C152-15 129 4 87 4 38 3 12-23 12-71c0-70 32-119 99-123zm44 81c14-66-71-72-95-28-4 8-8 17-11 28h106" id="bO"/><path fill="#1d262b" d="M248-111c6-24 9-61-24-58-72 9-57 108-77 169h-31l26-142c3-37-50-30-64-10C52-115 50-51 37 0H6l36-190h30c-1 10-6 24-4 32 13-43 101-52 105 5 13-22 29-41 61-41 90 0 28 129 23 194h-31" id="bP"/><g id="R"><use transform="matrix(0.04938271604938272,0,0,0.04938271604938272,0,0)" xlink:href="#bM"/><use transform="matrix(0.04938271604938272,0,0,0.04938271604938272,11.851851851851853,0)" xlink:href="#aw"/><use transform="matrix(0.04938271604938272,0,0,0.04938271604938272,15.753086419753087,0)" xlink:href="#as"/><use transform="matrix(0.04938271604938272,0,0,0.04938271604938272,24.641975308641978,0)" xlink:href="#bN"/><use transform="matrix(0.04938271604938272,0,0,0.04938271604938272,29.58024691358025,0)" xlink:href="#bO"/><use transform="matrix(0.04938271604938272,0,0,0.04938271604938272,39.4567901234568,0)" xlink:href="#bP"/><use transform="matrix(0.04938271604938272,0,0,0.04938271604938272,54.22222222222223,0)" xlink:href="#au"/></g><path fill="#1d262b" d="M133-28C103 26-5 8 13-77c13-62 24-115 90-117 29-1 46 15 56 35l19-102h32L160 0h-30zM45-64c-2 27 10 43 35 43 54-1 69-50 69-103 0-29-15-46-42-46-53-1-58 58-62 106" id="bQ"/><g id="S"><use transform="matrix(0.04938271604938272,0,0,0.04938271604938272,0,0)" xlink:href="#bQ"/><use transform="matrix(0.04938271604938272,0,0,0.04938271604938272,9.876543209876544,0)" xlink:href="#bO"/></g><path fill="#1d262b" d="M125-24c46 0 70-25 89-51l25 16C214-24 183 4 123 4 8 4-5-146 60-208c32-50 158-61 191-5 5 7 9 14 11 22l-32 10c-9-28-33-43-69-43-74 0-108 51-108 125 0 46 24 75 72 75" id="bR"/><path fill="#1d262b" d="M6 0l50-261h32L37 0H6" id="bS"/><path fill="#1d262b" d="M76-167L44 0H12l33-167H18l4-23h27c3-47 25-81 82-69l-4 24c-35-8-44 15-46 45h37l-5 23H76" id="bT"/><path fill="#1d262b" d="M44-68c0 29 11 47 38 47 30 0 42-19 51-41l28 9C148-21 126 4 82 4 31 4 10-29 12-85c3-77 74-140 146-93 12 8 15 23 18 40l-31 5c-1-22-13-36-36-36-52 0-65 49-65 101" id="bU"/><path fill="#1d262b" d="M31-147c31-64 166-65 159 27C184-49 159 1 87 4 10 8 2-88 31-147zM89-20c53 0 68-48 68-100 0-31-11-51-44-50-52 1-68 46-68 97 0 32 13 53 44 53zm5-191c10-23 31-35 45-54h38l-1 5-66 49H94" id="bV"/><path fill="#1d262b" d="M67-158c22-48 132-52 116 29L158 0h-32l25-140c3-38-53-32-70-12C52-117 51-52 38 0H6l36-190h30" id="bW"/><g id="T"><use transform="matrix(0.04938271604938272,0,0,0.04938271604938272,0,0)" xlink:href="#bR"/><use transform="matrix(0.04938271604938272,0,0,0.04938271604938272,12.790123456790125,0)" xlink:href="#bS"/><use transform="matrix(0.04938271604938272,0,0,0.04938271604938272,16.69135802469136,0)" xlink:href="#au"/><use transform="matrix(0.04938271604938272,0,0,0.04938271604938272,26.567901234567902,0)" xlink:href="#as"/><use transform="matrix(0.04938271604938272,0,0,0.04938271604938272,35.4567901234568,0)" xlink:href="#aw"/><use transform="matrix(0.04938271604938272,0,0,0.04938271604938272,39.35802469135803,0)" xlink:href="#bT"/><use transform="matrix(0.04938271604938272,0,0,0.04938271604938272,44.296296296296305,0)" xlink:href="#aw"/><use transform="matrix(0.04938271604938272,0,0,0.04938271604938272,48.19753086419754,0)" xlink:href="#bU"/><use transform="matrix(0.04938271604938272,0,0,0.04938271604938272,57.08641975308644,0)" xlink:href="#au"/><use transform="matrix(0.04938271604938272,0,0,0.04938271604938272,66.96296296296298,0)" xlink:href="#bU"/><use transform="matrix(0.04938271604938272,0,0,0.04938271604938272,75.85185185185186,0)" xlink:href="#aw"/><use transform="matrix(0.04938271604938272,0,0,0.04938271604938272,79.7530864197531,0)" xlink:href="#bV"/><use transform="matrix(0.04938271604938272,0,0,0.04938271604938272,89.62962962962965,0)" xlink:href="#bW"/></g><g id="U"><use transform="matrix(0.04938271604938272,0,0,0.04938271604938272,0,0)" xlink:href="#aJ"/><use transform="matrix(0.04938271604938272,0,0,0.04938271604938272,9.876543209876544,0)" xlink:href="#az"/><use transform="matrix(0.04938271604938272,0,0,0.04938271604938272,14.814814814814817,0)" xlink:href="#ay"/><use transform="matrix(0.04938271604938272,0,0,0.04938271604938272,24.69135802469136,0)" xlink:href="#az"/></g><path fill="#4881b3" d="M238-179c0 84-86 86-175 82L45 0H11l48-248c82 0 179-12 179 69zm-34 1c0-53-64-42-116-43l-19 98c63 0 135 9 135-55" id="bX"/><g id="V"><use transform="matrix(0.04938271604938272,0,0,0.04938271604938272,0,0)" xlink:href="#bX"/><use transform="matrix(0.04938271604938272,0,0,0.04938271604938272,11.851851851851853,0)" xlink:href="#aE"/><use transform="matrix(0.04938271604938272,0,0,0.04938271604938272,17.728395061728396,0)" xlink:href="#aI"/><use transform="matrix(0.04938271604938272,0,0,0.04938271604938272,27.60493827160494,0)" xlink:href="#aN"/><use transform="matrix(0.04938271604938272,0,0,0.04938271604938272,36.49382716049383,0)" xlink:href="#aH"/><use transform="matrix(0.04938271604938272,0,0,0.04938271604938272,46.370370370370374,0)" xlink:href="#aQ"/><use transform="matrix(0.04938271604938272,0,0,0.04938271604938272,55.25925925925927,0)" xlink:href="#aP"/><use transform="matrix(0.04938271604938272,0,0,0.04938271604938272,65.13580246913581,0)" xlink:href="#aE"/></g><g id="W"><use transform="matrix(0.04938271604938272,0,0,0.04938271604938272,0,0)" xlink:href="#bJ"/><use transform="matrix(0.04938271604938272,0,0,0.04938271604938272,8.88888888888889,0)" xlink:href="#aD"/><use transform="matrix(0.04938271604938272,0,0,0.04938271604938272,12.790123456790125,0)" xlink:href="#aG"/><use transform="matrix(0.04938271604938272,0,0,0.04938271604938272,22.666666666666668,0)" xlink:href="#aH"/><use transform="matrix(0.04938271604938272,0,0,0.04938271604938272,32.543209876543216,0)" xlink:href="#aI"/></g><g id="X"><use transform="matrix(0.04938271604938272,0,0,0.04938271604938272,0,0)" xlink:href="#aJ"/><use transform="matrix(0.04938271604938272,0,0,0.04938271604938272,9.876543209876544,0)" xlink:href="#az"/><use transform="matrix(0.04938271604938272,0,0,0.04938271604938272,14.814814814814817,0)" xlink:href="#bq"/><use transform="matrix(0.04938271604938272,0,0,0.04938271604938272,24.69135802469136,0)" xlink:href="#az"/></g><g id="Y"><use transform="matrix(0.04938271604938272,0,0,0.04938271604938272,0,0)" xlink:href="#aQ"/><use transform="matrix(0.04938271604938272,0,0,0.04938271604938272,8.88888888888889,0)" xlink:href="#aP"/><use transform="matrix(0.04938271604938272,0,0,0.04938271604938272,18.765432098765434,0)" xlink:href="#aO"/><use transform="matrix(0.04938271604938272,0,0,0.04938271604938272,22.666666666666668,0)" xlink:href="#aD"/><use transform="matrix(0.04938271604938272,0,0,0.04938271604938272,26.567901234567902,0)" xlink:href="#aG"/><use transform="matrix(0.04938271604938272,0,0,0.04938271604938272,36.44444444444444,0)" xlink:href="#aP"/></g><g id="Z"><use transform="matrix(0.04938271604938272,0,0,0.04938271604938272,0,0)" xlink:href="#aJ"/><use transform="matrix(0.04938271604938272,0,0,0.04938271604938272,9.876543209876544,0)" xlink:href="#az"/><use transform="matrix(0.04938271604938272,0,0,0.04938271604938272,14.814814814814817,0)" xlink:href="#aJ"/><use transform="matrix(0.04938271604938272,0,0,0.04938271604938272,24.69135802469136,0)" xlink:href="#az"/></g><path fill="#4881b3" d="M248-139C247-14 144 9 11 0l48-248c105-6 190 8 189 109zm-34 0c1-70-52-87-126-82L50-27c98 7 163-21 164-112" id="bY"/><g id="aa"><use transform="matrix(0.04938271604938272,0,0,0.04938271604938272,0,0)" xlink:href="#bY"/><use transform="matrix(0.04938271604938272,0,0,0.04938271604938272,12.790123456790125,0)" xlink:href="#aH"/><use transform="matrix(0.04938271604938272,0,0,0.04938271604938272,22.66666666666667,0)" xlink:href="#bJ"/><use transform="matrix(0.04938271604938272,0,0,0.04938271604938272,31.555555555555557,0)" xlink:href="#aI"/><use transform="matrix(0.04938271604938272,0,0,0.04938271604938272,41.4320987654321,0)" xlink:href="#aO"/><use transform="matrix(0.04938271604938272,0,0,0.04938271604938272,45.333333333333336,0)" xlink:href="#bJ"/><use transform="matrix(0.04938271604938272,0,0,0.04938271604938272,54.22222222222223,0)" xlink:href="#aH"/><use transform="matrix(0.04938271604938272,0,0,0.04938271604938272,64.09876543209877,0)" xlink:href="#aE"/></g></defs></g></svg>