<?xml version="1.0" encoding="utf-8" standalone="no"?>
<!DOCTYPE svg PUBLIC "-//W3C//DTD SVG 1.1//EN"
  "http://www.w3.org/Graphics/SVG/1.1/DTD/svg11.dtd">
<svg xmlns:xlink="http://www.w3.org/1999/xlink" width="385.78125pt" height="264.652571pt" viewBox="0 0 385.78125 264.652571" xmlns="http://www.w3.org/2000/svg" version="1.1">
 <metadata>
  <rdf:RDF xmlns:dc="http://purl.org/dc/elements/1.1/" xmlns:cc="http://creativecommons.org/ns#" xmlns:rdf="http://www.w3.org/1999/02/22-rdf-syntax-ns#">
   <cc:Work>
    <dc:type rdf:resource="http://purl.org/dc/dcmitype/StillImage"/>
    <dc:date>2022-06-16T13:00:16.050158</dc:date>
    <dc:format>image/svg+xml</dc:format>
    <dc:creator>
     <cc:Agent>
      <dc:title>Matplotlib v3.5.1, https://matplotlib.org/</dc:title>
     </cc:Agent>
    </dc:creator>
   </cc:Work>
  </rdf:RDF>
 </metadata>
 <defs>
  <style type="text/css">*{stroke-linejoin: round; stroke-linecap: butt}</style>
 </defs>
 <g id="figure_1">
  <g id="patch_1">
   <path d="M 0 264.652571 
L 385.78125 264.652571 
L 385.78125 0 
L 0 0 
z
"/>
  </g>
  <g id="axes_1">
   <g id="patch_2">
    <path d="M 43.78125 227.096321 
L 378.58125 227.096321 
L 378.58125 9.656321 
L 43.78125 9.656321 
z
"/>
   </g>
   <g id="matplotlib.axis_1">
    <g id="xtick_1">
     <g id="line2d_1">
      <defs>
       <path id="m6d6913f8e1" d="M 0 0 
L 0 3.5 
" style="stroke: #ffffff; stroke-width: 0.8"/>
      </defs>
      <g>
       <use xlink:href="#m6d6913f8e1" x="58.999432" y="227.096321" style="fill: #ffffff; stroke: #ffffff; stroke-width: 0.8"/>
      </g>
     </g>
     <g id="text_1">
      <!-- 0 -->
      <g style="fill: #ffffff" transform="translate(55.818182 241.694758)scale(0.1 -0.1)">
       <defs>
        <path id="DejaVuSans-30" d="M 2034 4250 
Q 1547 4250 1301 3770 
Q 1056 3291 1056 2328 
Q 1056 1369 1301 889 
Q 1547 409 2034 409 
Q 2525 409 2770 889 
Q 3016 1369 3016 2328 
Q 3016 3291 2770 3770 
Q 2525 4250 2034 4250 
z
M 2034 4750 
Q 2819 4750 3233 4129 
Q 3647 3509 3647 2328 
Q 3647 1150 3233 529 
Q 2819 -91 2034 -91 
Q 1250 -91 836 529 
Q 422 1150 422 2328 
Q 422 3509 836 4129 
Q 1250 4750 2034 4750 
z
" transform="scale(0.015625)"/>
       </defs>
       <use xlink:href="#DejaVuSans-30"/>
      </g>
     </g>
    </g>
    <g id="xtick_2">
     <g id="line2d_2">
      <g>
       <use xlink:href="#m6d6913f8e1" x="109.896361" y="227.096321" style="fill: #ffffff; stroke: #ffffff; stroke-width: 0.8"/>
      </g>
     </g>
     <g id="text_2">
      <!-- 50 -->
      <g style="fill: #ffffff" transform="translate(103.533861 241.694758)scale(0.1 -0.1)">
       <defs>
        <path id="DejaVuSans-35" d="M 691 4666 
L 3169 4666 
L 3169 4134 
L 1269 4134 
L 1269 2991 
Q 1406 3038 1543 3061 
Q 1681 3084 1819 3084 
Q 2600 3084 3056 2656 
Q 3513 2228 3513 1497 
Q 3513 744 3044 326 
Q 2575 -91 1722 -91 
Q 1428 -91 1123 -41 
Q 819 9 494 109 
L 494 744 
Q 775 591 1075 516 
Q 1375 441 1709 441 
Q 2250 441 2565 725 
Q 2881 1009 2881 1497 
Q 2881 1984 2565 2268 
Q 2250 2553 1709 2553 
Q 1456 2553 1204 2497 
Q 953 2441 691 2322 
L 691 4666 
z
" transform="scale(0.015625)"/>
       </defs>
       <use xlink:href="#DejaVuSans-35"/>
       <use xlink:href="#DejaVuSans-30" x="63.623047"/>
      </g>
     </g>
    </g>
    <g id="xtick_3">
     <g id="line2d_3">
      <g>
       <use xlink:href="#m6d6913f8e1" x="160.79329" y="227.096321" style="fill: #ffffff; stroke: #ffffff; stroke-width: 0.8"/>
      </g>
     </g>
     <g id="text_3">
      <!-- 100 -->
      <g style="fill: #ffffff" transform="translate(151.24954 241.694758)scale(0.1 -0.1)">
       <defs>
        <path id="DejaVuSans-31" d="M 794 531 
L 1825 531 
L 1825 4091 
L 703 3866 
L 703 4441 
L 1819 4666 
L 2450 4666 
L 2450 531 
L 3481 531 
L 3481 0 
L 794 0 
L 794 531 
z
" transform="scale(0.015625)"/>
       </defs>
       <use xlink:href="#DejaVuSans-31"/>
       <use xlink:href="#DejaVuSans-30" x="63.623047"/>
       <use xlink:href="#DejaVuSans-30" x="127.246094"/>
      </g>
     </g>
    </g>
    <g id="xtick_4">
     <g id="line2d_4">
      <g>
       <use xlink:href="#m6d6913f8e1" x="211.690219" y="227.096321" style="fill: #ffffff; stroke: #ffffff; stroke-width: 0.8"/>
      </g>
     </g>
     <g id="text_4">
      <!-- 150 -->
      <g style="fill: #ffffff" transform="translate(202.146469 241.694758)scale(0.1 -0.1)">
       <use xlink:href="#DejaVuSans-31"/>
       <use xlink:href="#DejaVuSans-35" x="63.623047"/>
       <use xlink:href="#DejaVuSans-30" x="127.246094"/>
      </g>
     </g>
    </g>
    <g id="xtick_5">
     <g id="line2d_5">
      <g>
       <use xlink:href="#m6d6913f8e1" x="262.587148" y="227.096321" style="fill: #ffffff; stroke: #ffffff; stroke-width: 0.8"/>
      </g>
     </g>
     <g id="text_5">
      <!-- 200 -->
      <g style="fill: #ffffff" transform="translate(253.043398 241.694758)scale(0.1 -0.1)">
       <defs>
        <path id="DejaVuSans-32" d="M 1228 531 
L 3431 531 
L 3431 0 
L 469 0 
L 469 531 
Q 828 903 1448 1529 
Q 2069 2156 2228 2338 
Q 2531 2678 2651 2914 
Q 2772 3150 2772 3378 
Q 2772 3750 2511 3984 
Q 2250 4219 1831 4219 
Q 1534 4219 1204 4116 
Q 875 4013 500 3803 
L 500 4441 
Q 881 4594 1212 4672 
Q 1544 4750 1819 4750 
Q 2544 4750 2975 4387 
Q 3406 4025 3406 3419 
Q 3406 3131 3298 2873 
Q 3191 2616 2906 2266 
Q 2828 2175 2409 1742 
Q 1991 1309 1228 531 
z
" transform="scale(0.015625)"/>
       </defs>
       <use xlink:href="#DejaVuSans-32"/>
       <use xlink:href="#DejaVuSans-30" x="63.623047"/>
       <use xlink:href="#DejaVuSans-30" x="127.246094"/>
      </g>
     </g>
    </g>
    <g id="xtick_6">
     <g id="line2d_6">
      <g>
       <use xlink:href="#m6d6913f8e1" x="313.484078" y="227.096321" style="fill: #ffffff; stroke: #ffffff; stroke-width: 0.8"/>
      </g>
     </g>
     <g id="text_6">
      <!-- 250 -->
      <g style="fill: #ffffff" transform="translate(303.940328 241.694758)scale(0.1 -0.1)">
       <use xlink:href="#DejaVuSans-32"/>
       <use xlink:href="#DejaVuSans-35" x="63.623047"/>
       <use xlink:href="#DejaVuSans-30" x="127.246094"/>
      </g>
     </g>
    </g>
    <g id="xtick_7">
     <g id="line2d_7">
      <g>
       <use xlink:href="#m6d6913f8e1" x="364.381007" y="227.096321" style="fill: #ffffff; stroke: #ffffff; stroke-width: 0.8"/>
      </g>
     </g>
     <g id="text_7">
      <!-- 300 -->
      <g style="fill: #ffffff" transform="translate(354.837257 241.694758)scale(0.1 -0.1)">
       <defs>
        <path id="DejaVuSans-33" d="M 2597 2516 
Q 3050 2419 3304 2112 
Q 3559 1806 3559 1356 
Q 3559 666 3084 287 
Q 2609 -91 1734 -91 
Q 1441 -91 1130 -33 
Q 819 25 488 141 
L 488 750 
Q 750 597 1062 519 
Q 1375 441 1716 441 
Q 2309 441 2620 675 
Q 2931 909 2931 1356 
Q 2931 1769 2642 2001 
Q 2353 2234 1838 2234 
L 1294 2234 
L 1294 2753 
L 1863 2753 
Q 2328 2753 2575 2939 
Q 2822 3125 2822 3475 
Q 2822 3834 2567 4026 
Q 2313 4219 1838 4219 
Q 1578 4219 1281 4162 
Q 984 4106 628 3988 
L 628 4550 
Q 988 4650 1302 4700 
Q 1616 4750 1894 4750 
Q 2613 4750 3031 4423 
Q 3450 4097 3450 3541 
Q 3450 3153 3228 2886 
Q 3006 2619 2597 2516 
z
" transform="scale(0.015625)"/>
       </defs>
       <use xlink:href="#DejaVuSans-33"/>
       <use xlink:href="#DejaVuSans-30" x="63.623047"/>
       <use xlink:href="#DejaVuSans-30" x="127.246094"/>
      </g>
     </g>
    </g>
    <g id="text_8">
     <!-- Epoch -->
     <g style="fill: #ffffff" transform="translate(195.870313 255.372883)scale(0.1 -0.1)">
      <defs>
       <path id="DejaVuSans-45" d="M 628 4666 
L 3578 4666 
L 3578 4134 
L 1259 4134 
L 1259 2753 
L 3481 2753 
L 3481 2222 
L 1259 2222 
L 1259 531 
L 3634 531 
L 3634 0 
L 628 0 
L 628 4666 
z
" transform="scale(0.015625)"/>
       <path id="DejaVuSans-70" d="M 1159 525 
L 1159 -1331 
L 581 -1331 
L 581 3500 
L 1159 3500 
L 1159 2969 
Q 1341 3281 1617 3432 
Q 1894 3584 2278 3584 
Q 2916 3584 3314 3078 
Q 3713 2572 3713 1747 
Q 3713 922 3314 415 
Q 2916 -91 2278 -91 
Q 1894 -91 1617 61 
Q 1341 213 1159 525 
z
M 3116 1747 
Q 3116 2381 2855 2742 
Q 2594 3103 2138 3103 
Q 1681 3103 1420 2742 
Q 1159 2381 1159 1747 
Q 1159 1113 1420 752 
Q 1681 391 2138 391 
Q 2594 391 2855 752 
Q 3116 1113 3116 1747 
z
" transform="scale(0.015625)"/>
       <path id="DejaVuSans-6f" d="M 1959 3097 
Q 1497 3097 1228 2736 
Q 959 2375 959 1747 
Q 959 1119 1226 758 
Q 1494 397 1959 397 
Q 2419 397 2687 759 
Q 2956 1122 2956 1747 
Q 2956 2369 2687 2733 
Q 2419 3097 1959 3097 
z
M 1959 3584 
Q 2709 3584 3137 3096 
Q 3566 2609 3566 1747 
Q 3566 888 3137 398 
Q 2709 -91 1959 -91 
Q 1206 -91 779 398 
Q 353 888 353 1747 
Q 353 2609 779 3096 
Q 1206 3584 1959 3584 
z
" transform="scale(0.015625)"/>
       <path id="DejaVuSans-63" d="M 3122 3366 
L 3122 2828 
Q 2878 2963 2633 3030 
Q 2388 3097 2138 3097 
Q 1578 3097 1268 2742 
Q 959 2388 959 1747 
Q 959 1106 1268 751 
Q 1578 397 2138 397 
Q 2388 397 2633 464 
Q 2878 531 3122 666 
L 3122 134 
Q 2881 22 2623 -34 
Q 2366 -91 2075 -91 
Q 1284 -91 818 406 
Q 353 903 353 1747 
Q 353 2603 823 3093 
Q 1294 3584 2113 3584 
Q 2378 3584 2631 3529 
Q 2884 3475 3122 3366 
z
" transform="scale(0.015625)"/>
       <path id="DejaVuSans-68" d="M 3513 2113 
L 3513 0 
L 2938 0 
L 2938 2094 
Q 2938 2591 2744 2837 
Q 2550 3084 2163 3084 
Q 1697 3084 1428 2787 
Q 1159 2491 1159 1978 
L 1159 0 
L 581 0 
L 581 4863 
L 1159 4863 
L 1159 2956 
Q 1366 3272 1645 3428 
Q 1925 3584 2291 3584 
Q 2894 3584 3203 3211 
Q 3513 2838 3513 2113 
z
" transform="scale(0.015625)"/>
      </defs>
      <use xlink:href="#DejaVuSans-45"/>
      <use xlink:href="#DejaVuSans-70" x="63.183594"/>
      <use xlink:href="#DejaVuSans-6f" x="126.660156"/>
      <use xlink:href="#DejaVuSans-63" x="187.841797"/>
      <use xlink:href="#DejaVuSans-68" x="242.822266"/>
     </g>
    </g>
   </g>
   <g id="matplotlib.axis_2">
    <g id="ytick_1">
     <g id="line2d_8">
      <defs>
       <path id="m2dac9c2a26" d="M 0 0 
L -3.5 0 
" style="stroke: #ffffff; stroke-width: 0.8"/>
      </defs>
      <g>
       <use xlink:href="#m2dac9c2a26" x="43.78125" y="204.712833" style="fill: #ffffff; stroke: #ffffff; stroke-width: 0.8"/>
      </g>
     </g>
     <g id="text_9">
      <!-- 2.5 -->
      <g style="fill: #ffffff" transform="translate(20.878125 208.512051)scale(0.1 -0.1)">
       <defs>
        <path id="DejaVuSans-2e" d="M 684 794 
L 1344 794 
L 1344 0 
L 684 0 
L 684 794 
z
" transform="scale(0.015625)"/>
       </defs>
       <use xlink:href="#DejaVuSans-32"/>
       <use xlink:href="#DejaVuSans-2e" x="63.623047"/>
       <use xlink:href="#DejaVuSans-35" x="95.410156"/>
      </g>
     </g>
    </g>
    <g id="ytick_2">
     <g id="line2d_9">
      <g>
       <use xlink:href="#m2dac9c2a26" x="43.78125" y="172.42723" style="fill: #ffffff; stroke: #ffffff; stroke-width: 0.8"/>
      </g>
     </g>
     <g id="text_10">
      <!-- 2.6 -->
      <g style="fill: #ffffff" transform="translate(20.878125 176.226449)scale(0.1 -0.1)">
       <defs>
        <path id="DejaVuSans-36" d="M 2113 2584 
Q 1688 2584 1439 2293 
Q 1191 2003 1191 1497 
Q 1191 994 1439 701 
Q 1688 409 2113 409 
Q 2538 409 2786 701 
Q 3034 994 3034 1497 
Q 3034 2003 2786 2293 
Q 2538 2584 2113 2584 
z
M 3366 4563 
L 3366 3988 
Q 3128 4100 2886 4159 
Q 2644 4219 2406 4219 
Q 1781 4219 1451 3797 
Q 1122 3375 1075 2522 
Q 1259 2794 1537 2939 
Q 1816 3084 2150 3084 
Q 2853 3084 3261 2657 
Q 3669 2231 3669 1497 
Q 3669 778 3244 343 
Q 2819 -91 2113 -91 
Q 1303 -91 875 529 
Q 447 1150 447 2328 
Q 447 3434 972 4092 
Q 1497 4750 2381 4750 
Q 2619 4750 2861 4703 
Q 3103 4656 3366 4563 
z
" transform="scale(0.015625)"/>
       </defs>
       <use xlink:href="#DejaVuSans-32"/>
       <use xlink:href="#DejaVuSans-2e" x="63.623047"/>
       <use xlink:href="#DejaVuSans-36" x="95.410156"/>
      </g>
     </g>
    </g>
    <g id="ytick_3">
     <g id="line2d_10">
      <g>
       <use xlink:href="#m2dac9c2a26" x="43.78125" y="140.141628" style="fill: #ffffff; stroke: #ffffff; stroke-width: 0.8"/>
      </g>
     </g>
     <g id="text_11">
      <!-- 2.7 -->
      <g style="fill: #ffffff" transform="translate(20.878125 143.940847)scale(0.1 -0.1)">
       <defs>
        <path id="DejaVuSans-37" d="M 525 4666 
L 3525 4666 
L 3525 4397 
L 1831 0 
L 1172 0 
L 2766 4134 
L 525 4134 
L 525 4666 
z
" transform="scale(0.015625)"/>
       </defs>
       <use xlink:href="#DejaVuSans-32"/>
       <use xlink:href="#DejaVuSans-2e" x="63.623047"/>
       <use xlink:href="#DejaVuSans-37" x="95.410156"/>
      </g>
     </g>
    </g>
    <g id="ytick_4">
     <g id="line2d_11">
      <g>
       <use xlink:href="#m2dac9c2a26" x="43.78125" y="107.856026" style="fill: #ffffff; stroke: #ffffff; stroke-width: 0.8"/>
      </g>
     </g>
     <g id="text_12">
      <!-- 2.8 -->
      <g style="fill: #ffffff" transform="translate(20.878125 111.655244)scale(0.1 -0.1)">
       <defs>
        <path id="DejaVuSans-38" d="M 2034 2216 
Q 1584 2216 1326 1975 
Q 1069 1734 1069 1313 
Q 1069 891 1326 650 
Q 1584 409 2034 409 
Q 2484 409 2743 651 
Q 3003 894 3003 1313 
Q 3003 1734 2745 1975 
Q 2488 2216 2034 2216 
z
M 1403 2484 
Q 997 2584 770 2862 
Q 544 3141 544 3541 
Q 544 4100 942 4425 
Q 1341 4750 2034 4750 
Q 2731 4750 3128 4425 
Q 3525 4100 3525 3541 
Q 3525 3141 3298 2862 
Q 3072 2584 2669 2484 
Q 3125 2378 3379 2068 
Q 3634 1759 3634 1313 
Q 3634 634 3220 271 
Q 2806 -91 2034 -91 
Q 1263 -91 848 271 
Q 434 634 434 1313 
Q 434 1759 690 2068 
Q 947 2378 1403 2484 
z
M 1172 3481 
Q 1172 3119 1398 2916 
Q 1625 2713 2034 2713 
Q 2441 2713 2670 2916 
Q 2900 3119 2900 3481 
Q 2900 3844 2670 4047 
Q 2441 4250 2034 4250 
Q 1625 4250 1398 4047 
Q 1172 3844 1172 3481 
z
" transform="scale(0.015625)"/>
       </defs>
       <use xlink:href="#DejaVuSans-32"/>
       <use xlink:href="#DejaVuSans-2e" x="63.623047"/>
       <use xlink:href="#DejaVuSans-38" x="95.410156"/>
      </g>
     </g>
    </g>
    <g id="ytick_5">
     <g id="line2d_12">
      <g>
       <use xlink:href="#m2dac9c2a26" x="43.78125" y="75.570423" style="fill: #ffffff; stroke: #ffffff; stroke-width: 0.8"/>
      </g>
     </g>
     <g id="text_13">
      <!-- 2.9 -->
      <g style="fill: #ffffff" transform="translate(20.878125 79.369642)scale(0.1 -0.1)">
       <defs>
        <path id="DejaVuSans-39" d="M 703 97 
L 703 672 
Q 941 559 1184 500 
Q 1428 441 1663 441 
Q 2288 441 2617 861 
Q 2947 1281 2994 2138 
Q 2813 1869 2534 1725 
Q 2256 1581 1919 1581 
Q 1219 1581 811 2004 
Q 403 2428 403 3163 
Q 403 3881 828 4315 
Q 1253 4750 1959 4750 
Q 2769 4750 3195 4129 
Q 3622 3509 3622 2328 
Q 3622 1225 3098 567 
Q 2575 -91 1691 -91 
Q 1453 -91 1209 -44 
Q 966 3 703 97 
z
M 1959 2075 
Q 2384 2075 2632 2365 
Q 2881 2656 2881 3163 
Q 2881 3666 2632 3958 
Q 2384 4250 1959 4250 
Q 1534 4250 1286 3958 
Q 1038 3666 1038 3163 
Q 1038 2656 1286 2365 
Q 1534 2075 1959 2075 
z
" transform="scale(0.015625)"/>
       </defs>
       <use xlink:href="#DejaVuSans-32"/>
       <use xlink:href="#DejaVuSans-2e" x="63.623047"/>
       <use xlink:href="#DejaVuSans-39" x="95.410156"/>
      </g>
     </g>
    </g>
    <g id="ytick_6">
     <g id="line2d_13">
      <g>
       <use xlink:href="#m2dac9c2a26" x="43.78125" y="43.284821" style="fill: #ffffff; stroke: #ffffff; stroke-width: 0.8"/>
      </g>
     </g>
     <g id="text_14">
      <!-- 3.0 -->
      <g style="fill: #ffffff" transform="translate(20.878125 47.08404)scale(0.1 -0.1)">
       <use xlink:href="#DejaVuSans-33"/>
       <use xlink:href="#DejaVuSans-2e" x="63.623047"/>
       <use xlink:href="#DejaVuSans-30" x="95.410156"/>
      </g>
     </g>
    </g>
    <g id="ytick_7">
     <g id="line2d_14">
      <g>
       <use xlink:href="#m2dac9c2a26" x="43.78125" y="10.999219" style="fill: #ffffff; stroke: #ffffff; stroke-width: 0.8"/>
      </g>
     </g>
     <g id="text_15">
      <!-- 3.1 -->
      <g style="fill: #ffffff" transform="translate(20.878125 14.798438)scale(0.1 -0.1)">
       <use xlink:href="#DejaVuSans-33"/>
       <use xlink:href="#DejaVuSans-2e" x="63.623047"/>
       <use xlink:href="#DejaVuSans-31" x="95.410156"/>
      </g>
     </g>
    </g>
    <g id="text_16">
     <!-- Costs -->
     <g style="fill: #ffffff" transform="translate(14.798438 132.096633)rotate(-90)scale(0.1 -0.1)">
      <defs>
       <path id="DejaVuSans-43" d="M 4122 4306 
L 4122 3641 
Q 3803 3938 3442 4084 
Q 3081 4231 2675 4231 
Q 1875 4231 1450 3742 
Q 1025 3253 1025 2328 
Q 1025 1406 1450 917 
Q 1875 428 2675 428 
Q 3081 428 3442 575 
Q 3803 722 4122 1019 
L 4122 359 
Q 3791 134 3420 21 
Q 3050 -91 2638 -91 
Q 1578 -91 968 557 
Q 359 1206 359 2328 
Q 359 3453 968 4101 
Q 1578 4750 2638 4750 
Q 3056 4750 3426 4639 
Q 3797 4528 4122 4306 
z
" transform="scale(0.015625)"/>
       <path id="DejaVuSans-73" d="M 2834 3397 
L 2834 2853 
Q 2591 2978 2328 3040 
Q 2066 3103 1784 3103 
Q 1356 3103 1142 2972 
Q 928 2841 928 2578 
Q 928 2378 1081 2264 
Q 1234 2150 1697 2047 
L 1894 2003 
Q 2506 1872 2764 1633 
Q 3022 1394 3022 966 
Q 3022 478 2636 193 
Q 2250 -91 1575 -91 
Q 1294 -91 989 -36 
Q 684 19 347 128 
L 347 722 
Q 666 556 975 473 
Q 1284 391 1588 391 
Q 1994 391 2212 530 
Q 2431 669 2431 922 
Q 2431 1156 2273 1281 
Q 2116 1406 1581 1522 
L 1381 1569 
Q 847 1681 609 1914 
Q 372 2147 372 2553 
Q 372 3047 722 3315 
Q 1072 3584 1716 3584 
Q 2034 3584 2315 3537 
Q 2597 3491 2834 3397 
z
" transform="scale(0.015625)"/>
       <path id="DejaVuSans-74" d="M 1172 4494 
L 1172 3500 
L 2356 3500 
L 2356 3053 
L 1172 3053 
L 1172 1153 
Q 1172 725 1289 603 
Q 1406 481 1766 481 
L 2356 481 
L 2356 0 
L 1766 0 
Q 1100 0 847 248 
Q 594 497 594 1153 
L 594 3053 
L 172 3053 
L 172 3500 
L 594 3500 
L 594 4494 
L 1172 4494 
z
" transform="scale(0.015625)"/>
      </defs>
      <use xlink:href="#DejaVuSans-43"/>
      <use xlink:href="#DejaVuSans-6f" x="69.824219"/>
      <use xlink:href="#DejaVuSans-73" x="131.005859"/>
      <use xlink:href="#DejaVuSans-74" x="183.105469"/>
      <use xlink:href="#DejaVuSans-73" x="222.314453"/>
     </g>
    </g>
   </g>
   <g id="line2d_15">
    <path d="M 58.999432 19.539957 
L 60.01737 43.009426 
L 61.035309 52.942482 
L 62.053248 59.846971 
L 63.071186 64.10447 
L 64.089125 70.326025 
L 65.107063 75.09145 
L 66.125002 78.314757 
L 67.14294 78.612737 
L 68.160879 82.00069 
L 69.178818 84.179971 
L 71.214695 86.440906 
L 72.232633 87.021868 
L 73.250572 87.284453 
L 74.268511 87.970692 
L 75.286449 88.935381 
L 76.304388 90.723417 
L 78.340265 92.289516 
L 79.358203 97.424518 
L 81.394081 111.57887 
L 82.412019 114.302222 
L 83.429958 116.540176 
L 84.447896 118.090509 
L 86.483774 120.044057 
L 87.501712 122.150928 
L 88.519651 123.954439 
L 90.555528 128.081184 
L 91.573466 130.715575 
L 92.591405 132.900597 
L 93.609344 137.026001 
L 94.627282 139.762272 
L 97.681098 149.449104 
L 98.699037 153.329383 
L 99.716975 154.87845 
L 100.734914 158.133043 
L 102.770791 162.354756 
L 103.788729 164.039256 
L 104.806668 165.295536 
L 105.824607 166.792698 
L 106.842545 169.394002 
L 107.860484 170.747937 
L 108.878422 172.403056 
L 110.9143 174.843181 
L 112.950177 180.611723 
L 113.968115 182.524995 
L 114.986054 182.7201 
L 116.003992 184.84919 
L 117.021931 183.18919 
L 118.03987 185.693398 
L 119.057808 186.958012 
L 120.075747 185.772711 
L 121.093685 187.250522 
L 122.111624 187.085374 
L 123.129563 188.197289 
L 124.147501 188.355083 
L 125.16544 189.034216 
L 126.183378 188.897418 
L 127.201317 189.543906 
L 128.219255 189.293154 
L 130.255133 191.212992 
L 131.273071 191.72637 
L 132.29101 190.838831 
L 133.308948 190.651524 
L 134.326887 191.943019 
L 135.344826 191.505635 
L 136.362764 191.887353 
L 137.380703 191.357318 
L 138.398641 191.294326 
L 139.41658 192.631456 
L 140.434518 192.718586 
L 141.452457 192.055857 
L 142.470396 192.393362 
L 143.488334 193.579569 
L 144.506273 193.538823 
L 145.524211 194.369169 
L 146.54215 193.874725 
L 147.560089 194.590326 
L 148.578027 196.990936 
L 149.595966 195.961036 
L 150.613904 198.468782 
L 151.631843 198.816939 
L 152.649781 200.426195 
L 153.66772 200.228879 
L 154.685659 201.34571 
L 155.703597 200.701693 
L 156.721536 201.397456 
L 157.739474 201.87573 
L 158.757413 203.59683 
L 159.775352 203.596901 
L 160.79329 205.133099 
L 161.811229 205.384937 
L 162.829167 207.276669 
L 163.847106 207.828093 
L 164.865044 209.872172 
L 165.882983 209.541419 
L 166.900922 210.170372 
L 167.91886 209.692568 
L 168.936799 210.678563 
L 169.954737 212.606508 
L 170.972676 211.453079 
L 171.990615 211.92945 
L 173.008553 212.266767 
L 174.026492 212.029626 
L 175.04443 213.012471 
L 176.062369 212.589796 
L 177.080307 213.485359 
L 178.098246 213.738513 
L 179.116185 214.415452 
L 180.134123 213.998503 
L 181.152062 214.036709 
L 182.17 214.222823 
L 184.205878 214.26332 
L 185.223816 214.80225 
L 187.259693 214.43671 
L 188.277632 214.213722 
L 189.29557 215.198225 
L 190.313509 213.711992 
L 191.331448 215.947891 
L 192.349386 214.073705 
L 193.367325 215.152972 
L 194.385263 214.935653 
L 195.403202 215.684351 
L 196.421141 215.595968 
L 197.439079 215.026919 
L 198.457018 215.946697 
L 199.474956 215.812339 
L 200.492895 215.914782 
L 201.510833 216.314398 
L 202.528772 214.422762 
L 203.546711 215.223324 
L 205.582588 215.431223 
L 206.600526 215.750225 
L 207.618465 215.554205 
L 208.636404 214.971664 
L 209.654342 215.970031 
L 210.672281 214.877808 
L 211.690219 215.309119 
L 212.708158 215.397601 
L 213.726096 215.943642 
L 214.744035 215.445264 
L 215.761974 216.39623 
L 216.779912 215.187982 
L 217.797851 215.93738 
L 218.815789 215.877226 
L 219.833728 214.921872 
L 220.851667 215.639092 
L 222.887544 215.082025 
L 223.905482 215.706509 
L 224.923421 216.197534 
L 225.941359 215.80901 
L 226.959298 215.613924 
L 228.995175 215.533066 
L 232.048991 216.538477 
L 233.06693 216.443336 
L 234.084868 216.829347 
L 235.102807 215.354673 
L 236.120745 215.674593 
L 237.138684 216.63059 
L 238.156622 215.770671 
L 239.174561 215.323803 
L 240.1925 216.249214 
L 241.210438 215.404428 
L 242.228377 216.237856 
L 243.246315 215.943029 
L 244.264254 215.998281 
L 245.282193 215.857167 
L 246.300131 216.310289 
L 247.31807 216.32028 
L 248.336008 215.577963 
L 249.353947 215.868536 
L 250.371885 216.375216 
L 251.389824 215.651488 
L 252.407763 215.433455 
L 253.425701 215.413755 
L 254.44364 216.123447 
L 255.461578 216.493911 
L 256.479517 215.316026 
L 257.497456 216.366497 
L 258.515394 215.505665 
L 260.551271 216.048375 
L 261.56921 216.385571 
L 262.587148 215.606484 
L 263.605087 216.401738 
L 265.640964 215.782064 
L 266.658903 216.452618 
L 267.676841 215.623111 
L 268.69478 215.412343 
L 269.712719 216.390845 
L 270.730657 215.517183 
L 273.784473 215.824525 
L 274.802411 215.77701 
L 275.82035 216.150564 
L 276.838289 215.32965 
L 277.856227 216.45333 
L 278.874166 215.646914 
L 279.892104 216.212802 
L 280.910043 215.122782 
L 281.927982 216.389446 
L 282.94592 216.497309 
L 283.963859 215.9972 
L 284.981797 216.754498 
L 285.999736 215.968561 
L 287.017674 216.31693 
L 288.035613 216.224738 
L 289.053552 215.739417 
L 290.07149 216.610276 
L 291.089429 215.209838 
L 292.107367 216.92208 
L 293.125306 216.446625 
L 294.143245 216.475191 
L 295.161183 215.810507 
L 296.179122 216.723018 
L 297.19706 216.214195 
L 298.214999 216.812662 
L 299.232937 215.955178 
L 300.250876 216.460656 
L 301.268815 216.562008 
L 302.286753 216.247114 
L 303.304692 215.53589 
L 304.32263 216.56416 
L 305.340569 217.192711 
L 306.358508 216.16813 
L 307.376446 215.533448 
L 308.394385 215.317449 
L 309.412323 215.759067 
L 310.430262 215.815041 
L 311.4482 215.622163 
L 312.466139 215.90844 
L 313.484078 215.80858 
L 314.502016 215.91058 
L 315.519955 215.234207 
L 316.537893 216.319863 
L 318.573771 216.532996 
L 319.591709 215.58203 
L 322.645525 216.544378 
L 324.681402 215.818205 
L 325.699341 216.379195 
L 326.717279 216.580341 
L 328.753156 215.832302 
L 329.771095 216.971604 
L 331.806972 216.563494 
L 332.824911 216.693465 
L 333.842849 216.286029 
L 335.878726 216.445616 
L 336.896665 216.355258 
L 337.914604 215.687825 
L 338.932542 215.384547 
L 339.950481 215.211486 
L 340.968419 217.212684 
L 341.986358 216.255305 
L 343.004297 216.046759 
L 345.040174 215.917516 
L 346.058112 216.014899 
L 347.076051 217.035029 
L 348.093989 216.228892 
L 349.111928 216.081846 
L 350.129867 215.69991 
L 352.165744 216.086982 
L 353.183682 215.977779 
L 354.201621 216.711541 
L 355.21956 215.965176 
L 356.237498 216.167469 
L 357.255437 216.004959 
L 358.273375 215.595944 
L 359.291314 215.511834 
L 360.309252 216.255483 
L 361.327191 216.66607 
L 362.34513 216.420411 
L 363.363068 215.96701 
L 363.363068 215.96701 
" clip-path="url(#p1a4cf970d1)" style="fill: none; stroke: #8dd3c7; stroke-width: 1.5; stroke-linecap: square"/>
   </g>
   <g id="line2d_16">
    <path d="M 58.999432 89.304419 
L 60.01737 94.231396 
L 61.035309 41.379216 
L 62.053248 100.766794 
L 63.071186 45.52907 
L 64.089125 106.638807 
L 65.107063 109.805291 
L 66.125002 60.938824 
L 67.14294 60.86619 
L 68.160879 66.211895 
L 69.178818 129.014448 
L 70.196756 65.057488 
L 71.214695 70.840302 
L 72.232633 72.552346 
L 74.268511 75.38282 
L 75.286449 132.685949 
L 76.304388 73.887706 
L 77.322326 73.90247 
L 78.340265 78.192141 
L 79.358203 97.376004 
L 80.376142 79.80692 
L 81.394081 135.49039 
L 82.412019 83.01571 
L 83.429958 139.822321 
L 84.447896 78.37722 
L 85.465835 142.928857 
L 86.483774 137.571283 
L 87.501712 83.336526 
L 88.519651 144.191953 
L 89.537589 85.44787 
L 90.555528 81.497704 
L 91.573466 83.804641 
L 92.591405 131.038749 
L 93.609344 117.070534 
L 94.627282 161.425735 
L 95.645221 152.065775 
L 96.663159 100.848295 
L 97.681098 130.442871 
L 98.699037 112.546644 
L 99.716975 112.376683 
L 100.734914 173.525431 
L 101.752852 114.41176 
L 102.770791 123.903948 
L 103.788729 125.958392 
L 104.806668 171.42765 
L 105.824607 124.436983 
L 106.842545 173.18962 
L 107.860484 123.184833 
L 108.878422 123.042014 
L 109.896361 129.151017 
L 110.9143 123.150086 
L 111.932238 126.258763 
L 112.950177 180.195211 
L 113.968115 178.692323 
L 114.986054 129.850718 
L 116.003992 180.945301 
L 117.021931 132.253335 
L 118.03987 128.84187 
L 119.057808 193.866272 
L 120.075747 184.870065 
L 121.093685 129.493278 
L 122.111624 122.556348 
L 123.129563 129.732408 
L 124.147501 121.349813 
L 125.16544 125.939964 
L 126.183378 190.774176 
L 127.201317 132.46614 
L 128.219255 188.619295 
L 129.237194 131.465744 
L 130.255133 145.45622 
L 131.273071 188.810562 
L 132.29101 146.889353 
L 133.308948 192.952827 
L 134.326887 190.07412 
L 135.344826 130.954307 
L 136.362764 130.631752 
L 137.380703 186.502379 
L 138.398641 134.823711 
L 139.41658 128.294333 
L 140.434518 188.614538 
L 141.452457 191.091682 
L 142.470396 132.178054 
L 143.488334 127.434477 
L 144.506273 189.042472 
L 145.524211 189.073047 
L 146.54215 188.040506 
L 147.560089 170.23377 
L 148.578027 183.786474 
L 149.595966 126.993057 
L 150.613904 193.228135 
L 151.631843 184.321388 
L 152.649781 184.641357 
L 153.66772 148.644257 
L 154.685659 134.719718 
L 155.703597 133.00869 
L 156.721536 182.884205 
L 157.739474 184.998351 
L 158.757413 128.344336 
L 159.775352 185.317951 
L 160.79329 194.281275 
L 161.811229 135.104977 
L 162.829167 138.683416 
L 163.847106 190.559478 
L 164.865044 132.732227 
L 165.882983 141.275606 
L 166.900922 192.140542 
L 167.91886 142.204462 
L 168.936799 188.763115 
L 169.954737 173.75303 
L 170.972676 184.108783 
L 173.008553 193.808803 
L 174.026492 130.901472 
L 175.04443 191.036753 
L 176.062369 190.466877 
L 177.080307 190.451867 
L 178.098246 132.121308 
L 179.116185 134.738731 
L 180.134123 185.93024 
L 181.152062 130.345143 
L 182.17 186.294639 
L 183.187939 191.471707 
L 184.205878 131.726427 
L 185.223816 185.35981 
L 186.241755 131.483294 
L 187.259693 192.327714 
L 188.277632 123.815627 
L 189.29557 185.232108 
L 190.313509 123.404858 
L 191.331448 183.801361 
L 192.349386 125.416596 
L 193.367325 128.289514 
L 194.385263 194.155328 
L 195.403202 131.396051 
L 196.421141 141.980604 
L 197.439079 141.975123 
L 198.457018 193.321306 
L 199.474956 127.70432 
L 200.492895 131.92105 
L 201.510833 192.858148 
L 202.528772 179.614436 
L 203.546711 131.507048 
L 204.564649 180.995396 
L 205.582588 136.579215 
L 206.600526 130.545247 
L 207.618465 133.740551 
L 208.636404 188.513855 
L 209.654342 128.37277 
L 210.672281 130.67067 
L 211.690219 138.467424 
L 212.708158 193.393262 
L 213.726096 138.86346 
L 214.744035 128.60879 
L 215.761974 141.118054 
L 216.779912 180.99167 
L 217.797851 141.690147 
L 218.815789 128.353757 
L 219.833728 147.037745 
L 220.851667 128.821333 
L 221.869605 135.224612 
L 222.887544 194.410331 
L 223.905482 141.038231 
L 224.923421 190.781304 
L 225.941359 146.197441 
L 226.959298 181.057976 
L 227.977237 191.280902 
L 228.995175 188.104457 
L 230.013114 141.71812 
L 231.031052 193.567964 
L 232.048991 192.05804 
L 233.06693 185.688431 
L 234.084868 177.170838 
L 235.102807 192.099252 
L 236.120745 188.586073 
L 237.138684 191.620038 
L 238.156622 128.368798 
L 239.174561 186.241557 
L 240.1925 189.423991 
L 241.210438 188.66605 
L 242.228377 194.591668 
L 243.246315 193.396448 
L 244.264254 191.478589 
L 245.282193 143.325663 
L 246.300131 125.748158 
L 247.31807 125.550994 
L 248.336008 191.178048 
L 249.353947 147.154424 
L 250.371885 189.939568 
L 251.389824 135.205968 
L 252.407763 133.694212 
L 253.425701 189.633224 
L 254.44364 132.743219 
L 255.461578 194.397799 
L 256.479517 147.356175 
L 257.497456 128.803491 
L 258.515394 188.665757 
L 259.533333 141.031457 
L 260.551271 192.498906 
L 261.56921 188.053084 
L 262.587148 138.902148 
L 263.605087 143.621801 
L 264.623026 129.37135 
L 265.640964 123.835502 
L 266.658903 189.6666 
L 267.676841 184.806437 
L 268.69478 194.655557 
L 269.712719 128.333313 
L 270.730657 189.654654 
L 271.748596 131.416972 
L 272.766534 142.682168 
L 273.784473 194.461242 
L 274.802411 188.609042 
L 275.82035 192.654364 
L 276.838289 192.240317 
L 277.856227 192.319816 
L 278.874166 192.658968 
L 279.892104 184.001172 
L 280.910043 130.241351 
L 281.927982 135.004032 
L 282.94592 133.325995 
L 283.963859 147.233523 
L 284.981797 190.772744 
L 285.999736 189.771702 
L 287.017674 186.379696 
L 288.035613 190.717122 
L 289.053552 138.61029 
L 290.07149 133.712548 
L 291.089429 192.085058 
L 292.107367 194.325566 
L 293.125306 123.75417 
L 294.143245 133.42597 
L 295.161183 125.89247 
L 296.179122 183.905215 
L 297.19706 189.744222 
L 298.214999 136.296317 
L 299.232937 133.739735 
L 300.250876 138.634398 
L 301.268815 191.558073 
L 302.286753 192.501354 
L 303.304692 143.558081 
L 304.32263 185.676761 
L 305.340569 143.552893 
L 306.358508 192.717422 
L 307.376446 189.827601 
L 308.394385 184.785746 
L 309.412323 193.483692 
L 310.430262 132.227302 
L 311.4482 191.992088 
L 312.466139 152.585971 
L 313.484078 130.884784 
L 314.502016 185.397712 
L 315.519955 191.589325 
L 316.537893 193.497101 
L 317.555832 133.107248 
L 318.573771 132.133162 
L 319.591709 192.970469 
L 320.609648 188.093588 
L 321.627586 136.302521 
L 322.645525 131.920819 
L 323.663463 191.368068 
L 324.681402 188.510176 
L 325.699341 184.969593 
L 326.717279 141.391176 
L 327.735218 131.944835 
L 328.753156 184.102456 
L 329.771095 133.462626 
L 330.789034 185.087149 
L 331.806972 186.354356 
L 332.824911 141.170028 
L 333.842849 128.330819 
L 334.860788 189.430518 
L 335.878726 128.723021 
L 336.896665 133.859462 
L 337.914604 128.385317 
L 338.932542 185.311392 
L 339.950481 194.517772 
L 340.968419 192.919758 
L 341.986358 186.270807 
L 343.004297 185.733045 
L 344.022235 128.38387 
L 345.040174 135.763728 
L 346.058112 190.675002 
L 347.076051 191.503128 
L 348.093989 130.380444 
L 349.111928 189.544164 
L 350.129867 193.537328 
L 351.147805 185.42142 
L 352.165744 185.85893 
L 353.183682 136.863684 
L 354.201621 130.923995 
L 355.21956 186.354571 
L 356.237498 190.521883 
L 357.255437 185.804755 
L 358.273375 185.489728 
L 360.309252 191.389267 
L 361.327191 133.589188 
L 362.34513 147.016254 
L 363.363068 147.032342 
L 363.363068 147.032342 
" clip-path="url(#p1a4cf970d1)" style="fill: none; stroke: #feffb3; stroke-width: 1.5; stroke-linecap: square"/>
   </g>
   <g id="patch_3">
    <path d="M 43.78125 227.096321 
L 43.78125 9.656321 
" style="fill: none; stroke: #ffffff; stroke-width: 0.8; stroke-linejoin: miter; stroke-linecap: square"/>
   </g>
   <g id="patch_4">
    <path d="M 378.58125 227.096321 
L 378.58125 9.656321 
" style="fill: none; stroke: #ffffff; stroke-width: 0.8; stroke-linejoin: miter; stroke-linecap: square"/>
   </g>
   <g id="patch_5">
    <path d="M 43.78125 227.096321 
L 378.58125 227.096321 
" style="fill: none; stroke: #ffffff; stroke-width: 0.8; stroke-linejoin: miter; stroke-linecap: square"/>
   </g>
   <g id="patch_6">
    <path d="M 43.78125 9.656321 
L 378.58125 9.656321 
" style="fill: none; stroke: #ffffff; stroke-width: 0.8; stroke-linejoin: miter; stroke-linecap: square"/>
   </g>
   <g id="legend_1">
    <g id="patch_7">
     <path d="M 290.2 47.012571 
L 371.58125 47.012571 
Q 373.58125 47.012571 373.58125 45.012571 
L 373.58125 16.656321 
Q 373.58125 14.656321 371.58125 14.656321 
L 290.2 14.656321 
Q 288.2 14.656321 288.2 16.656321 
L 288.2 45.012571 
Q 288.2 47.012571 290.2 47.012571 
z
" style="opacity: 0.8; stroke: #cccccc; stroke-linejoin: miter"/>
    </g>
    <g id="line2d_17">
     <path d="M 292.2 22.754758 
L 302.2 22.754758 
L 312.2 22.754758 
" style="fill: none; stroke: #8dd3c7; stroke-width: 1.5; stroke-linecap: square"/>
    </g>
    <g id="text_17">
     <!-- Train -->
     <g style="fill: #ffffff" transform="translate(320.2 26.254758)scale(0.1 -0.1)">
      <defs>
       <path id="DejaVuSans-54" d="M -19 4666 
L 3928 4666 
L 3928 4134 
L 2272 4134 
L 2272 0 
L 1638 0 
L 1638 4134 
L -19 4134 
L -19 4666 
z
" transform="scale(0.015625)"/>
       <path id="DejaVuSans-72" d="M 2631 2963 
Q 2534 3019 2420 3045 
Q 2306 3072 2169 3072 
Q 1681 3072 1420 2755 
Q 1159 2438 1159 1844 
L 1159 0 
L 581 0 
L 581 3500 
L 1159 3500 
L 1159 2956 
Q 1341 3275 1631 3429 
Q 1922 3584 2338 3584 
Q 2397 3584 2469 3576 
Q 2541 3569 2628 3553 
L 2631 2963 
z
" transform="scale(0.015625)"/>
       <path id="DejaVuSans-61" d="M 2194 1759 
Q 1497 1759 1228 1600 
Q 959 1441 959 1056 
Q 959 750 1161 570 
Q 1363 391 1709 391 
Q 2188 391 2477 730 
Q 2766 1069 2766 1631 
L 2766 1759 
L 2194 1759 
z
M 3341 1997 
L 3341 0 
L 2766 0 
L 2766 531 
Q 2569 213 2275 61 
Q 1981 -91 1556 -91 
Q 1019 -91 701 211 
Q 384 513 384 1019 
Q 384 1609 779 1909 
Q 1175 2209 1959 2209 
L 2766 2209 
L 2766 2266 
Q 2766 2663 2505 2880 
Q 2244 3097 1772 3097 
Q 1472 3097 1187 3025 
Q 903 2953 641 2809 
L 641 3341 
Q 956 3463 1253 3523 
Q 1550 3584 1831 3584 
Q 2591 3584 2966 3190 
Q 3341 2797 3341 1997 
z
" transform="scale(0.015625)"/>
       <path id="DejaVuSans-69" d="M 603 3500 
L 1178 3500 
L 1178 0 
L 603 0 
L 603 3500 
z
M 603 4863 
L 1178 4863 
L 1178 4134 
L 603 4134 
L 603 4863 
z
" transform="scale(0.015625)"/>
       <path id="DejaVuSans-6e" d="M 3513 2113 
L 3513 0 
L 2938 0 
L 2938 2094 
Q 2938 2591 2744 2837 
Q 2550 3084 2163 3084 
Q 1697 3084 1428 2787 
Q 1159 2491 1159 1978 
L 1159 0 
L 581 0 
L 581 3500 
L 1159 3500 
L 1159 2956 
Q 1366 3272 1645 3428 
Q 1925 3584 2291 3584 
Q 2894 3584 3203 3211 
Q 3513 2838 3513 2113 
z
" transform="scale(0.015625)"/>
      </defs>
      <use xlink:href="#DejaVuSans-54"/>
      <use xlink:href="#DejaVuSans-72" x="46.333984"/>
      <use xlink:href="#DejaVuSans-61" x="87.447266"/>
      <use xlink:href="#DejaVuSans-69" x="148.726562"/>
      <use xlink:href="#DejaVuSans-6e" x="176.509766"/>
     </g>
    </g>
    <g id="line2d_18">
     <path d="M 292.2 37.432883 
L 302.2 37.432883 
L 312.2 37.432883 
" style="fill: none; stroke: #feffb3; stroke-width: 1.5; stroke-linecap: square"/>
    </g>
    <g id="text_18">
     <!-- Validation -->
     <g style="fill: #ffffff" transform="translate(320.2 40.932883)scale(0.1 -0.1)">
      <defs>
       <path id="DejaVuSans-56" d="M 1831 0 
L 50 4666 
L 709 4666 
L 2188 738 
L 3669 4666 
L 4325 4666 
L 2547 0 
L 1831 0 
z
" transform="scale(0.015625)"/>
       <path id="DejaVuSans-6c" d="M 603 4863 
L 1178 4863 
L 1178 0 
L 603 0 
L 603 4863 
z
" transform="scale(0.015625)"/>
       <path id="DejaVuSans-64" d="M 2906 2969 
L 2906 4863 
L 3481 4863 
L 3481 0 
L 2906 0 
L 2906 525 
Q 2725 213 2448 61 
Q 2172 -91 1784 -91 
Q 1150 -91 751 415 
Q 353 922 353 1747 
Q 353 2572 751 3078 
Q 1150 3584 1784 3584 
Q 2172 3584 2448 3432 
Q 2725 3281 2906 2969 
z
M 947 1747 
Q 947 1113 1208 752 
Q 1469 391 1925 391 
Q 2381 391 2643 752 
Q 2906 1113 2906 1747 
Q 2906 2381 2643 2742 
Q 2381 3103 1925 3103 
Q 1469 3103 1208 2742 
Q 947 2381 947 1747 
z
" transform="scale(0.015625)"/>
      </defs>
      <use xlink:href="#DejaVuSans-56"/>
      <use xlink:href="#DejaVuSans-61" x="60.658203"/>
      <use xlink:href="#DejaVuSans-6c" x="121.9375"/>
      <use xlink:href="#DejaVuSans-69" x="149.720703"/>
      <use xlink:href="#DejaVuSans-64" x="177.503906"/>
      <use xlink:href="#DejaVuSans-61" x="240.980469"/>
      <use xlink:href="#DejaVuSans-74" x="302.259766"/>
      <use xlink:href="#DejaVuSans-69" x="341.46875"/>
      <use xlink:href="#DejaVuSans-6f" x="369.251953"/>
      <use xlink:href="#DejaVuSans-6e" x="430.433594"/>
     </g>
    </g>
   </g>
  </g>
 </g>
 <defs>
  <clipPath id="p1a4cf970d1">
   <rect x="43.78125" y="9.656321" width="334.8" height="217.44"/>
  </clipPath>
 </defs>
</svg>
